%TF.GenerationSoftware,KiCad,Pcbnew,6.0.7+dfsg-1~bpo11+1*%
%TF.CreationDate,Date%
%TF.ProjectId,KibotTest,4b69626f-7454-4657-9374-2e6b69636164,rev?*%
%TF.SameCoordinates,Original*%
%TF.FileFunction,Copper,L2,Bot*%
%TF.FilePolarity,Positive*%
%FSLAX46Y46*%
G04 Gerber Fmt 4.6, Leading zero omitted, Abs format (unit mm)*
G04 Created by KiCad*
%MOMM*%
%LPD*%
G01*
G04 APERTURE LIST*
G04 Aperture macros list*
%AMRoundRect*
0 Rectangle with rounded corners*
0 $1 Rounding radius*
0 $2 $3 $4 $5 $6 $7 $8 $9 X,Y pos of 4 corners*
0 Add a 4 corners polygon primitive as box body*
4,1,4,$2,$3,$4,$5,$6,$7,$8,$9,$2,$3,0*
0 Add four circle primitives for the rounded corners*
1,1,$1+$1,$2,$3*
1,1,$1+$1,$4,$5*
1,1,$1+$1,$6,$7*
1,1,$1+$1,$8,$9*
0 Add four rect primitives between the rounded corners*
20,1,$1+$1,$2,$3,$4,$5,0*
20,1,$1+$1,$4,$5,$6,$7,0*
20,1,$1+$1,$6,$7,$8,$9,0*
20,1,$1+$1,$8,$9,$2,$3,0*%
G04 Aperture macros list end*
%TA.AperFunction,ComponentPad*%
%ADD10RoundRect,0.250000X-0.750000X0.600000X-0.750000X-0.600000X0.750000X-0.600000X0.750000X0.600000X0*%
%TD*%
%TA.AperFunction,ComponentPad*%
%ADD11O,2.000000X1.700000*%
%TD*%
G04 APERTURE END LIST*
D10*
%TO.P,J1,1,Pin_1*%
%TO.N,+5V*%
X48800000Y-48250000D03*
D11*
%TO.P,J1,2,Pin_2*%
%TO.N,GND*%
X48800000Y-50750000D03*
%TD*%
%TA.AperFunction,Conductor*%
%TO.N,GND*%
G36*
X61183621Y-44528502D02*
G01*
X61230114Y-44582158D01*
X61241500Y-44634500D01*
X61241500Y-54115500D01*
X61221498Y-54183621D01*
X61167842Y-54230114D01*
X61115500Y-54241500D01*
X46384500Y-54241500D01*
X46316379Y-54221498D01*
X46269886Y-54167842D01*
X46258500Y-54115500D01*
X46258500Y-51018580D01*
X47318752Y-51018580D01*
X47343477Y-51136421D01*
X47346537Y-51146617D01*
X47427263Y-51351029D01*
X47431994Y-51360561D01*
X47546016Y-51548462D01*
X47552280Y-51557052D01*
X47696327Y-51723052D01*
X47703958Y-51730472D01*
X47873911Y-51869826D01*
X47882678Y-51875850D01*
X48073682Y-51984576D01*
X48083346Y-51989041D01*
X48289941Y-52064031D01*
X48300208Y-52066802D01*
X48517655Y-52106123D01*
X48525884Y-52107056D01*
X48530376Y-52107268D01*
X48543124Y-52103525D01*
X48544329Y-52102135D01*
X48546000Y-52094452D01*
X48546000Y-52085970D01*
X49054000Y-52085970D01*
X49058310Y-52100648D01*
X49070193Y-52102711D01*
X49174325Y-52093876D01*
X49184797Y-52092086D01*
X49397535Y-52036870D01*
X49407575Y-52033335D01*
X49607970Y-51943063D01*
X49617256Y-51937894D01*
X49799575Y-51815150D01*
X49807870Y-51808481D01*
X49966900Y-51656772D01*
X49973941Y-51648814D01*
X50105141Y-51472475D01*
X50110745Y-51463438D01*
X50210357Y-51267516D01*
X50214357Y-51257665D01*
X50279534Y-51047760D01*
X50281817Y-51037376D01*
X50283861Y-51021957D01*
X50281665Y-51007793D01*
X50268478Y-51004000D01*
X49072115Y-51004000D01*
X49056876Y-51008475D01*
X49055671Y-51009865D01*
X49054000Y-51017548D01*
X49054000Y-52085970D01*
X48546000Y-52085970D01*
X48546000Y-51022115D01*
X48541525Y-51006876D01*
X48540135Y-51005671D01*
X48532452Y-51004000D01*
X47333808Y-51004000D01*
X47320277Y-51007973D01*
X47318752Y-51018580D01*
X46258500Y-51018580D01*
X46258500Y-48900400D01*
X47291500Y-48900400D01*
X47302474Y-49006166D01*
X47358450Y-49173946D01*
X47451522Y-49324348D01*
X47576697Y-49449305D01*
X47722258Y-49539030D01*
X47722780Y-49539352D01*
X47770273Y-49592124D01*
X47781697Y-49662196D01*
X47753423Y-49727320D01*
X47743636Y-49737782D01*
X47633094Y-49843234D01*
X47626059Y-49851186D01*
X47494859Y-50027525D01*
X47489255Y-50036562D01*
X47389643Y-50232484D01*
X47385643Y-50242335D01*
X47320466Y-50452240D01*
X47318183Y-50462624D01*
X47316139Y-50478043D01*
X47318335Y-50492207D01*
X47331522Y-50496000D01*
X50266192Y-50496000D01*
X50279723Y-50492027D01*
X50281248Y-50481420D01*
X50256523Y-50363579D01*
X50253463Y-50353383D01*
X50172737Y-50148971D01*
X50168006Y-50139439D01*
X50053984Y-49951538D01*
X50047720Y-49942948D01*
X49903673Y-49776948D01*
X49896044Y-49769530D01*
X49864431Y-49743609D01*
X49824436Y-49684949D01*
X49822504Y-49613979D01*
X49859248Y-49553230D01*
X49878018Y-49539030D01*
X50018120Y-49452332D01*
X50024348Y-49448478D01*
X50149305Y-49323303D01*
X50242115Y-49172738D01*
X50297797Y-49004861D01*
X50308500Y-48900400D01*
X50308500Y-47599600D01*
X50297526Y-47493834D01*
X50241550Y-47326054D01*
X50148478Y-47175652D01*
X50023303Y-47050695D01*
X50017072Y-47046854D01*
X49878968Y-46961725D01*
X49878966Y-46961724D01*
X49872738Y-46957885D01*
X49712254Y-46904655D01*
X49711389Y-46904368D01*
X49711387Y-46904368D01*
X49704861Y-46902203D01*
X49698025Y-46901503D01*
X49698022Y-46901502D01*
X49654969Y-46897091D01*
X49600400Y-46891500D01*
X47999600Y-46891500D01*
X47996354Y-46891837D01*
X47996350Y-46891837D01*
X47900692Y-46901762D01*
X47900688Y-46901763D01*
X47893834Y-46902474D01*
X47887298Y-46904655D01*
X47887296Y-46904655D01*
X47755194Y-46948728D01*
X47726054Y-46958450D01*
X47575652Y-47051522D01*
X47450695Y-47176697D01*
X47357885Y-47327262D01*
X47302203Y-47495139D01*
X47291500Y-47599600D01*
X47291500Y-48900400D01*
X46258500Y-48900400D01*
X46258500Y-44634500D01*
X46278502Y-44566379D01*
X46332158Y-44519886D01*
X46384500Y-44508500D01*
X61115500Y-44508500D01*
X61183621Y-44528502D01*
G37*
%TD.AperFunction*%
%TD*%
M02*
