%TF.GenerationSoftware,KiCad,Pcbnew,(6.0.5)*%
%TF.CreationDate,2022-06-04T17:41:56+02:00*%
%TF.ProjectId,KibotTest,4b69626f-7454-4657-9374-2e6b69636164,rev?*%
%TF.SameCoordinates,Original*%
%TF.FileFunction,AssemblyDrawing,Top*%
%FSLAX46Y46*%
G04 Gerber Fmt 4.6, Leading zero omitted, Abs format (unit mm)*
G04 Created by KiCad (PCBNEW (6.0.5)) date 2022-06-04 17:41:56*
%MOMM*%
%LPD*%
G01*
G04 APERTURE LIST*
%ADD10C,0.150000*%
%ADD11C,0.080000*%
%ADD12C,0.100000*%
G04 APERTURE END LIST*
D10*
%TO.C,D1*%
X56607142Y-46302380D02*
X56130952Y-46302380D01*
X56130952Y-45302380D01*
X56940476Y-45778571D02*
X57273809Y-45778571D01*
X57416666Y-46302380D02*
X56940476Y-46302380D01*
X56940476Y-45302380D01*
X57416666Y-45302380D01*
X57845238Y-46302380D02*
X57845238Y-45302380D01*
X58083333Y-45302380D01*
X58226190Y-45350000D01*
X58321428Y-45445238D01*
X58369047Y-45540476D01*
X58416666Y-45730952D01*
X58416666Y-45873809D01*
X58369047Y-46064285D01*
X58321428Y-46159523D01*
X58226190Y-46254761D01*
X58083333Y-46302380D01*
X57845238Y-46302380D01*
D11*
X56880952Y-47726190D02*
X56880952Y-47226190D01*
X57000000Y-47226190D01*
X57071428Y-47250000D01*
X57119047Y-47297619D01*
X57142857Y-47345238D01*
X57166666Y-47440476D01*
X57166666Y-47511904D01*
X57142857Y-47607142D01*
X57119047Y-47654761D01*
X57071428Y-47702380D01*
X57000000Y-47726190D01*
X56880952Y-47726190D01*
X57642857Y-47726190D02*
X57357142Y-47726190D01*
X57500000Y-47726190D02*
X57500000Y-47226190D01*
X57452380Y-47297619D01*
X57404761Y-47345238D01*
X57357142Y-47369047D01*
D10*
%TO.C,J1*%
X48757142Y-53238095D02*
X48804761Y-53285714D01*
X48852380Y-53428571D01*
X48852380Y-53523809D01*
X48804761Y-53666666D01*
X48709523Y-53761904D01*
X48614285Y-53809523D01*
X48423809Y-53857142D01*
X48280952Y-53857142D01*
X48090476Y-53809523D01*
X47995238Y-53761904D01*
X47900000Y-53666666D01*
X47852380Y-53523809D01*
X47852380Y-53428571D01*
X47900000Y-53285714D01*
X47947619Y-53238095D01*
X48852380Y-52666666D02*
X48804761Y-52761904D01*
X48757142Y-52809523D01*
X48661904Y-52857142D01*
X48376190Y-52857142D01*
X48280952Y-52809523D01*
X48233333Y-52761904D01*
X48185714Y-52666666D01*
X48185714Y-52523809D01*
X48233333Y-52428571D01*
X48280952Y-52380952D01*
X48376190Y-52333333D01*
X48661904Y-52333333D01*
X48757142Y-52380952D01*
X48804761Y-52428571D01*
X48852380Y-52523809D01*
X48852380Y-52666666D01*
X48185714Y-51904761D02*
X48852380Y-51904761D01*
X48280952Y-51904761D02*
X48233333Y-51857142D01*
X48185714Y-51761904D01*
X48185714Y-51619047D01*
X48233333Y-51523809D01*
X48328571Y-51476190D01*
X48852380Y-51476190D01*
X48185714Y-51000000D02*
X48852380Y-51000000D01*
X48280952Y-51000000D02*
X48233333Y-50952380D01*
X48185714Y-50857142D01*
X48185714Y-50714285D01*
X48233333Y-50619047D01*
X48328571Y-50571428D01*
X48852380Y-50571428D01*
X48947619Y-50333333D02*
X48947619Y-49571428D01*
X47852380Y-49142857D02*
X47852380Y-49047619D01*
X47900000Y-48952380D01*
X47947619Y-48904761D01*
X48042857Y-48857142D01*
X48233333Y-48809523D01*
X48471428Y-48809523D01*
X48661904Y-48857142D01*
X48757142Y-48904761D01*
X48804761Y-48952380D01*
X48852380Y-49047619D01*
X48852380Y-49142857D01*
X48804761Y-49238095D01*
X48757142Y-49285714D01*
X48661904Y-49333333D01*
X48471428Y-49380952D01*
X48233333Y-49380952D01*
X48042857Y-49333333D01*
X47947619Y-49285714D01*
X47900000Y-49238095D01*
X47852380Y-49142857D01*
X48852380Y-47857142D02*
X48852380Y-48428571D01*
X48852380Y-48142857D02*
X47852380Y-48142857D01*
X47995238Y-48238095D01*
X48090476Y-48333333D01*
X48138095Y-48428571D01*
X48852380Y-47523809D02*
X48185714Y-47000000D01*
X48185714Y-47523809D02*
X48852380Y-47000000D01*
X47852380Y-46428571D02*
X47852380Y-46333333D01*
X47900000Y-46238095D01*
X47947619Y-46190476D01*
X48042857Y-46142857D01*
X48233333Y-46095238D01*
X48471428Y-46095238D01*
X48661904Y-46142857D01*
X48757142Y-46190476D01*
X48804761Y-46238095D01*
X48852380Y-46333333D01*
X48852380Y-46428571D01*
X48804761Y-46523809D01*
X48757142Y-46571428D01*
X48661904Y-46619047D01*
X48471428Y-46666666D01*
X48233333Y-46666666D01*
X48042857Y-46619047D01*
X47947619Y-46571428D01*
X47900000Y-46523809D01*
X47852380Y-46428571D01*
X47947619Y-45714285D02*
X47900000Y-45666666D01*
X47852380Y-45571428D01*
X47852380Y-45333333D01*
X47900000Y-45238095D01*
X47947619Y-45190476D01*
X48042857Y-45142857D01*
X48138095Y-45142857D01*
X48280952Y-45190476D01*
X48852380Y-45761904D01*
X48852380Y-45142857D01*
X49752380Y-49833333D02*
X50466666Y-49833333D01*
X50609523Y-49880952D01*
X50704761Y-49976190D01*
X50752380Y-50119047D01*
X50752380Y-50214285D01*
X50752380Y-48833333D02*
X50752380Y-49404761D01*
X50752380Y-49119047D02*
X49752380Y-49119047D01*
X49895238Y-49214285D01*
X49990476Y-49309523D01*
X50038095Y-49404761D01*
%TO.C,R1*%
X57559523Y-50052380D02*
X57226190Y-49576190D01*
X56988095Y-50052380D02*
X56988095Y-49052380D01*
X57369047Y-49052380D01*
X57464285Y-49100000D01*
X57511904Y-49147619D01*
X57559523Y-49242857D01*
X57559523Y-49385714D01*
X57511904Y-49480952D01*
X57464285Y-49528571D01*
X57369047Y-49576190D01*
X56988095Y-49576190D01*
D11*
X57166666Y-51476190D02*
X57000000Y-51238095D01*
X56880952Y-51476190D02*
X56880952Y-50976190D01*
X57071428Y-50976190D01*
X57119047Y-51000000D01*
X57142857Y-51023809D01*
X57166666Y-51071428D01*
X57166666Y-51142857D01*
X57142857Y-51190476D01*
X57119047Y-51214285D01*
X57071428Y-51238095D01*
X56880952Y-51238095D01*
X57642857Y-51476190D02*
X57357142Y-51476190D01*
X57500000Y-51476190D02*
X57500000Y-50976190D01*
X57452380Y-51047619D01*
X57404761Y-51095238D01*
X57357142Y-51119047D01*
D12*
%TO.C,D1*%
X58250000Y-47800000D02*
X58250000Y-46900000D01*
X58250000Y-46900000D02*
X56250000Y-46900000D01*
X56250000Y-46900000D02*
X56250000Y-48100000D01*
X57950000Y-48100000D02*
X58250000Y-47800000D01*
X56250000Y-48100000D02*
X57950000Y-48100000D01*
%TO.C,J1*%
X51690000Y-45340000D02*
X49190000Y-45340000D01*
X53400000Y-45750000D02*
X49600000Y-45750000D01*
X53400000Y-53250000D02*
X53400000Y-45750000D01*
X49600000Y-53250000D02*
X53400000Y-53250000D01*
X49190000Y-45340000D02*
X49190000Y-47840000D01*
X49600000Y-45750000D02*
X49600000Y-53250000D01*
%TO.C,R1*%
X56250000Y-51875000D02*
X56250000Y-50625000D01*
X58250000Y-50625000D02*
X58250000Y-51875000D01*
X58250000Y-51875000D02*
X56250000Y-51875000D01*
X56250000Y-50625000D02*
X58250000Y-50625000D01*
%TD*%
M02*
