%TF.GenerationSoftware,KiCad,Pcbnew,6.0.4+dfsg-1~bpo11+1*%
%TF.CreationDate,Date%
%TF.ProjectId,KibotTest,4b69626f-7454-4657-9374-2e6b69636164,rev?*%
%TF.SameCoordinates,Original*%
%TF.FileFunction,Legend,Top*%
%TF.FilePolarity,Positive*%
%FSLAX46Y46*%
G04 Gerber Fmt 4.6, Leading zero omitted, Abs format (unit mm)*
G04 Created by KiCad*
%MOMM*%
%LPD*%
G01*
G04 APERTURE LIST*
%ADD10C,0.150000*%
%ADD11C,0.120000*%
G04 APERTURE END LIST*
D10*
%TO.C,D1*%
X57761904Y-47852380D02*
X57761904Y-46852380D01*
X58000000Y-46852380D01*
X58142857Y-46900000D01*
X58238095Y-46995238D01*
X58285714Y-47090476D01*
X58333333Y-47280952D01*
X58333333Y-47423809D01*
X58285714Y-47614285D01*
X58238095Y-47709523D01*
X58142857Y-47804761D01*
X58000000Y-47852380D01*
X57761904Y-47852380D01*
X59285714Y-47852380D02*
X58714285Y-47852380D01*
X59000000Y-47852380D02*
X59000000Y-46852380D01*
X58904761Y-46995238D01*
X58809523Y-47090476D01*
X58714285Y-47138095D01*
%TO.C,J1*%
X51052380Y-49833333D02*
X51766666Y-49833333D01*
X51909523Y-49880952D01*
X52004761Y-49976190D01*
X52052380Y-50119047D01*
X52052380Y-50214285D01*
X52052380Y-48833333D02*
X52052380Y-49404761D01*
X52052380Y-49119047D02*
X51052380Y-49119047D01*
X51195238Y-49214285D01*
X51290476Y-49309523D01*
X51338095Y-49404761D01*
%TO.C,R1*%
X58333333Y-51702380D02*
X58000000Y-51226190D01*
X57761904Y-51702380D02*
X57761904Y-50702380D01*
X58142857Y-50702380D01*
X58238095Y-50750000D01*
X58285714Y-50797619D01*
X58333333Y-50892857D01*
X58333333Y-51035714D01*
X58285714Y-51130952D01*
X58238095Y-51178571D01*
X58142857Y-51226190D01*
X57761904Y-51226190D01*
X59285714Y-51702380D02*
X58714285Y-51702380D01*
X59000000Y-51702380D02*
X59000000Y-50702380D01*
X58904761Y-50845238D01*
X58809523Y-50940476D01*
X58714285Y-50988095D01*
D11*
%TO.C,D1*%
X57500000Y-46710000D02*
X60185000Y-46710000D01*
X60185000Y-46710000D02*
X60185000Y-44790000D01*
X60185000Y-44790000D02*
X57500000Y-44790000D01*
%TO.C,J1*%
X47990000Y-46640000D02*
X46490000Y-46640000D01*
X50510000Y-53360000D02*
X50510000Y-45640000D01*
X46490000Y-53360000D02*
X50510000Y-53360000D01*
X47990000Y-52360000D02*
X46490000Y-52360000D01*
X46190000Y-45340000D02*
X46190000Y-47840000D01*
X48800000Y-46140000D02*
X50010000Y-46140000D01*
X46490000Y-45640000D02*
X46490000Y-53360000D01*
X47990000Y-53360000D02*
X47990000Y-52360000D01*
X50010000Y-52860000D02*
X48800000Y-52860000D01*
X50510000Y-45640000D02*
X46490000Y-45640000D01*
X50010000Y-46140000D02*
X50010000Y-52860000D01*
X48690000Y-45340000D02*
X46190000Y-45340000D01*
X47990000Y-45640000D02*
X47990000Y-46640000D01*
X48800000Y-52860000D02*
X48800000Y-53360000D01*
X48800000Y-45640000D02*
X48800000Y-46140000D01*
%TO.C,R1*%
X58727064Y-53735000D02*
X58272936Y-53735000D01*
X58727064Y-52265000D02*
X58272936Y-52265000D01*
%TD*%
M02*
