%TF.GenerationSoftware,KiCad,Pcbnew,(6.0.5)*%
%TF.CreationDate,2022-06-04T17:41:56+02:00*%
%TF.ProjectId,KibotTest,4b69626f-7454-4657-9374-2e6b69636164,rev?*%
%TF.SameCoordinates,Original*%
%TF.FileFunction,Legend,Top*%
%TF.FilePolarity,Positive*%
%FSLAX46Y46*%
G04 Gerber Fmt 4.6, Leading zero omitted, Abs format (unit mm)*
G04 Created by KiCad (PCBNEW (6.0.5)) date 2022-06-04 17:41:56*
%MOMM*%
%LPD*%
G01*
G04 APERTURE LIST*
%ADD10C,0.150000*%
%ADD11C,0.120000*%
G04 APERTURE END LIST*
D10*
%TO.C,D1*%
X56511904Y-49602380D02*
X56511904Y-48602380D01*
X56750000Y-48602380D01*
X56892857Y-48650000D01*
X56988095Y-48745238D01*
X57035714Y-48840476D01*
X57083333Y-49030952D01*
X57083333Y-49173809D01*
X57035714Y-49364285D01*
X56988095Y-49459523D01*
X56892857Y-49554761D01*
X56750000Y-49602380D01*
X56511904Y-49602380D01*
X58035714Y-49602380D02*
X57464285Y-49602380D01*
X57750000Y-49602380D02*
X57750000Y-48602380D01*
X57654761Y-48745238D01*
X57559523Y-48840476D01*
X57464285Y-48888095D01*
%TO.C,J1*%
X54052380Y-49833333D02*
X54766666Y-49833333D01*
X54909523Y-49880952D01*
X55004761Y-49976190D01*
X55052380Y-50119047D01*
X55052380Y-50214285D01*
X55052380Y-48833333D02*
X55052380Y-49404761D01*
X55052380Y-49119047D02*
X54052380Y-49119047D01*
X54195238Y-49214285D01*
X54290476Y-49309523D01*
X54338095Y-49404761D01*
%TO.C,R1*%
X57083333Y-53352380D02*
X56750000Y-52876190D01*
X56511904Y-53352380D02*
X56511904Y-52352380D01*
X56892857Y-52352380D01*
X56988095Y-52400000D01*
X57035714Y-52447619D01*
X57083333Y-52542857D01*
X57083333Y-52685714D01*
X57035714Y-52780952D01*
X56988095Y-52828571D01*
X56892857Y-52876190D01*
X56511904Y-52876190D01*
X58035714Y-53352380D02*
X57464285Y-53352380D01*
X57750000Y-53352380D02*
X57750000Y-52352380D01*
X57654761Y-52495238D01*
X57559523Y-52590476D01*
X57464285Y-52638095D01*
D11*
%TO.C,D1*%
X56250000Y-48460000D02*
X58935000Y-48460000D01*
X58935000Y-48460000D02*
X58935000Y-46540000D01*
X58935000Y-46540000D02*
X56250000Y-46540000D01*
%TO.C,J1*%
X50990000Y-46640000D02*
X49490000Y-46640000D01*
X53510000Y-53360000D02*
X53510000Y-45640000D01*
X49490000Y-53360000D02*
X53510000Y-53360000D01*
X50990000Y-52360000D02*
X49490000Y-52360000D01*
X49190000Y-45340000D02*
X49190000Y-47840000D01*
X51800000Y-46140000D02*
X53010000Y-46140000D01*
X49490000Y-45640000D02*
X49490000Y-53360000D01*
X50990000Y-53360000D02*
X50990000Y-52360000D01*
X53010000Y-52860000D02*
X51800000Y-52860000D01*
X53510000Y-45640000D02*
X49490000Y-45640000D01*
X53010000Y-46140000D02*
X53010000Y-52860000D01*
X51690000Y-45340000D02*
X49190000Y-45340000D01*
X50990000Y-45640000D02*
X50990000Y-46640000D01*
X51800000Y-52860000D02*
X51800000Y-53360000D01*
X51800000Y-45640000D02*
X51800000Y-46140000D01*
%TO.C,R1*%
X57477064Y-51985000D02*
X57022936Y-51985000D01*
X57477064Y-50515000D02*
X57022936Y-50515000D01*
%TD*%
M02*
