%TF.GenerationSoftware,KiCad,Pcbnew,(6.0.5)*%
%TF.CreationDate,2022-06-04T17:41:56+02:00*%
%TF.ProjectId,KibotTest,4b69626f-7454-4657-9374-2e6b69636164,rev?*%
%TF.SameCoordinates,Original*%
%TF.FileFunction,Copper,L1,Top*%
%TF.FilePolarity,Positive*%
%FSLAX46Y46*%
G04 Gerber Fmt 4.6, Leading zero omitted, Abs format (unit mm)*
G04 Created by KiCad (PCBNEW (6.0.5)) date 2022-06-04 17:41:56*
%MOMM*%
%LPD*%
G01*
G04 APERTURE LIST*
G04 Aperture macros list*
%AMRoundRect*
0 Rectangle with rounded corners*
0 $1 Rounding radius*
0 $2 $3 $4 $5 $6 $7 $8 $9 X,Y pos of 4 corners*
0 Add a 4 corners polygon primitive as box body*
4,1,4,$2,$3,$4,$5,$6,$7,$8,$9,$2,$3,0*
0 Add four circle primitives for the rounded corners*
1,1,$1+$1,$2,$3*
1,1,$1+$1,$4,$5*
1,1,$1+$1,$6,$7*
1,1,$1+$1,$8,$9*
0 Add four rect primitives between the rounded corners*
20,1,$1+$1,$2,$3,$4,$5,0*
20,1,$1+$1,$4,$5,$6,$7,0*
20,1,$1+$1,$6,$7,$8,$9,0*
20,1,$1+$1,$8,$9,$2,$3,0*%
G04 Aperture macros list end*
%TA.AperFunction,SMDPad,CuDef*%
%ADD10RoundRect,0.243750X0.243750X0.456250X-0.243750X0.456250X-0.243750X-0.456250X0.243750X-0.456250X0*%
%TD*%
%TA.AperFunction,ComponentPad*%
%ADD11RoundRect,0.250000X-0.750000X0.600000X-0.750000X-0.600000X0.750000X-0.600000X0.750000X0.600000X0*%
%TD*%
%TA.AperFunction,ComponentPad*%
%ADD12O,2.000000X1.700000*%
%TD*%
%TA.AperFunction,SMDPad,CuDef*%
%ADD13RoundRect,0.250000X0.350000X0.450000X-0.350000X0.450000X-0.350000X-0.450000X0.350000X-0.450000X0*%
%TD*%
%TA.AperFunction,Conductor*%
%ADD14C,0.250000*%
%TD*%
G04 APERTURE END LIST*
D10*
%TO.P,D1,1,K*%
%TO.N,Net-(D1-Pad1)*%
X58187500Y-47500000D03*
%TO.P,D1,2,A*%
%TO.N,+5V*%
X56312500Y-47500000D03*
%TD*%
D11*
%TO.P,J1,1,Pin_1*%
%TO.N,+5V*%
X51800000Y-48250000D03*
D12*
%TO.P,J1,2,Pin_2*%
%TO.N,GND*%
X51800000Y-50750000D03*
%TD*%
D13*
%TO.P,R1,1*%
%TO.N,Net-(D1-Pad1)*%
X58250000Y-51250000D03*
%TO.P,R1,2*%
%TO.N,GND*%
X56250000Y-51250000D03*
%TD*%
D14*
%TO.N,Net-(D1-Pad1)*%
X58187500Y-47500000D02*
X58187500Y-51187500D01*
X58187500Y-51187500D02*
X58250000Y-51250000D01*
%TO.N,+5V*%
X55562500Y-48250000D02*
X56312500Y-47500000D01*
X51800000Y-48250000D02*
X55562500Y-48250000D01*
%TO.N,GND*%
X56250000Y-51250000D02*
X55750000Y-50750000D01*
X55750000Y-50750000D02*
X51800000Y-50750000D01*
%TD*%
%TA.AperFunction,Conductor*%
%TO.N,GND*%
G36*
X61183621Y-44528502D02*
G01*
X61230114Y-44582158D01*
X61241500Y-44634500D01*
X61241500Y-54115500D01*
X61221498Y-54183621D01*
X61167842Y-54230114D01*
X61115500Y-54241500D01*
X46384500Y-54241500D01*
X46316379Y-54221498D01*
X46269886Y-54167842D01*
X46258500Y-54115500D01*
X46258500Y-51018580D01*
X50318752Y-51018580D01*
X50343477Y-51136421D01*
X50346537Y-51146617D01*
X50427263Y-51351029D01*
X50431994Y-51360561D01*
X50546016Y-51548462D01*
X50552280Y-51557052D01*
X50696327Y-51723052D01*
X50703958Y-51730472D01*
X50873911Y-51869826D01*
X50882678Y-51875850D01*
X51073682Y-51984576D01*
X51083346Y-51989041D01*
X51289941Y-52064031D01*
X51300208Y-52066802D01*
X51517655Y-52106123D01*
X51525884Y-52107056D01*
X51530376Y-52107268D01*
X51543124Y-52103525D01*
X51544329Y-52102135D01*
X51546000Y-52094452D01*
X51546000Y-52085970D01*
X52054000Y-52085970D01*
X52058310Y-52100648D01*
X52070193Y-52102711D01*
X52174325Y-52093876D01*
X52184797Y-52092086D01*
X52397535Y-52036870D01*
X52407575Y-52033335D01*
X52607970Y-51943063D01*
X52617256Y-51937894D01*
X52799575Y-51815150D01*
X52807870Y-51808481D01*
X52872218Y-51747095D01*
X55142001Y-51747095D01*
X55142338Y-51753614D01*
X55152257Y-51849206D01*
X55155149Y-51862600D01*
X55206588Y-52016784D01*
X55212761Y-52029962D01*
X55298063Y-52167807D01*
X55307099Y-52179208D01*
X55421829Y-52293739D01*
X55433240Y-52302751D01*
X55571243Y-52387816D01*
X55584424Y-52393963D01*
X55738710Y-52445138D01*
X55752086Y-52448005D01*
X55846438Y-52457672D01*
X55852854Y-52458000D01*
X55977885Y-52458000D01*
X55993124Y-52453525D01*
X55994329Y-52452135D01*
X55996000Y-52444452D01*
X55996000Y-51522115D01*
X55991525Y-51506876D01*
X55990135Y-51505671D01*
X55982452Y-51504000D01*
X55160116Y-51504000D01*
X55144877Y-51508475D01*
X55143672Y-51509865D01*
X55142001Y-51517548D01*
X55142001Y-51747095D01*
X52872218Y-51747095D01*
X52966900Y-51656772D01*
X52973941Y-51648814D01*
X53105141Y-51472475D01*
X53110745Y-51463438D01*
X53210357Y-51267516D01*
X53214357Y-51257665D01*
X53279534Y-51047760D01*
X53281817Y-51037376D01*
X53283861Y-51021957D01*
X53281665Y-51007793D01*
X53268478Y-51004000D01*
X52072115Y-51004000D01*
X52056876Y-51008475D01*
X52055671Y-51009865D01*
X52054000Y-51017548D01*
X52054000Y-52085970D01*
X51546000Y-52085970D01*
X51546000Y-51022115D01*
X51541525Y-51006876D01*
X51540135Y-51005671D01*
X51532452Y-51004000D01*
X50333808Y-51004000D01*
X50320277Y-51007973D01*
X50318752Y-51018580D01*
X46258500Y-51018580D01*
X46258500Y-50977885D01*
X55142000Y-50977885D01*
X55146475Y-50993124D01*
X55147865Y-50994329D01*
X55155548Y-50996000D01*
X55977885Y-50996000D01*
X55993124Y-50991525D01*
X55994329Y-50990135D01*
X55996000Y-50982452D01*
X55996000Y-50060116D01*
X55991525Y-50044877D01*
X55990135Y-50043672D01*
X55982452Y-50042001D01*
X55852905Y-50042001D01*
X55846386Y-50042338D01*
X55750794Y-50052257D01*
X55737400Y-50055149D01*
X55583216Y-50106588D01*
X55570038Y-50112761D01*
X55432193Y-50198063D01*
X55420792Y-50207099D01*
X55306261Y-50321829D01*
X55297249Y-50333240D01*
X55212184Y-50471243D01*
X55206037Y-50484424D01*
X55154862Y-50638710D01*
X55151995Y-50652086D01*
X55142328Y-50746438D01*
X55142000Y-50752855D01*
X55142000Y-50977885D01*
X46258500Y-50977885D01*
X46258500Y-48900400D01*
X50291500Y-48900400D01*
X50291837Y-48903646D01*
X50291837Y-48903650D01*
X50301487Y-48996651D01*
X50302474Y-49006166D01*
X50358450Y-49173946D01*
X50451522Y-49324348D01*
X50576697Y-49449305D01*
X50722258Y-49539030D01*
X50722780Y-49539352D01*
X50770273Y-49592124D01*
X50781697Y-49662196D01*
X50753423Y-49727320D01*
X50743636Y-49737782D01*
X50633094Y-49843234D01*
X50626059Y-49851186D01*
X50494859Y-50027525D01*
X50489255Y-50036562D01*
X50389643Y-50232484D01*
X50385643Y-50242335D01*
X50320466Y-50452240D01*
X50318183Y-50462624D01*
X50316139Y-50478043D01*
X50318335Y-50492207D01*
X50331522Y-50496000D01*
X53266192Y-50496000D01*
X53279723Y-50492027D01*
X53281248Y-50481420D01*
X53256523Y-50363579D01*
X53253463Y-50353383D01*
X53172737Y-50148971D01*
X53168006Y-50139439D01*
X53053984Y-49951538D01*
X53047720Y-49942948D01*
X52903673Y-49776948D01*
X52896044Y-49769530D01*
X52864431Y-49743609D01*
X52824436Y-49684949D01*
X52822504Y-49613979D01*
X52859248Y-49553230D01*
X52878018Y-49539030D01*
X53018120Y-49452332D01*
X53024348Y-49448478D01*
X53149305Y-49323303D01*
X53242115Y-49172738D01*
X53297797Y-49004861D01*
X53298498Y-48998020D01*
X53298499Y-48998015D01*
X53298639Y-48996651D01*
X53298960Y-48995864D01*
X53299941Y-48991290D01*
X53300757Y-48991465D01*
X53325483Y-48930925D01*
X53383600Y-48890146D01*
X53423982Y-48883500D01*
X55483733Y-48883500D01*
X55494916Y-48884027D01*
X55502409Y-48885702D01*
X55510335Y-48885453D01*
X55510336Y-48885453D01*
X55570486Y-48883562D01*
X55574445Y-48883500D01*
X55602356Y-48883500D01*
X55606291Y-48883003D01*
X55606356Y-48882995D01*
X55618193Y-48882062D01*
X55650451Y-48881048D01*
X55654470Y-48880922D01*
X55662389Y-48880673D01*
X55681843Y-48875021D01*
X55701200Y-48871013D01*
X55713430Y-48869468D01*
X55713431Y-48869468D01*
X55721297Y-48868474D01*
X55728668Y-48865555D01*
X55728670Y-48865555D01*
X55762412Y-48852196D01*
X55773642Y-48848351D01*
X55808483Y-48838229D01*
X55808484Y-48838229D01*
X55816093Y-48836018D01*
X55822912Y-48831985D01*
X55822917Y-48831983D01*
X55833528Y-48825707D01*
X55851276Y-48817012D01*
X55870117Y-48809552D01*
X55905887Y-48783564D01*
X55915807Y-48777048D01*
X55947035Y-48758580D01*
X55947038Y-48758578D01*
X55953862Y-48754542D01*
X55962999Y-48745405D01*
X56025311Y-48711379D01*
X56052094Y-48708500D01*
X56553780Y-48708499D01*
X56606230Y-48708499D01*
X56711129Y-48697616D01*
X56717660Y-48695437D01*
X56717665Y-48695436D01*
X56870578Y-48644420D01*
X56877526Y-48642102D01*
X57026689Y-48549797D01*
X57150617Y-48425653D01*
X57152419Y-48422730D01*
X57209029Y-48382592D01*
X57279952Y-48379358D01*
X57341364Y-48414982D01*
X57346916Y-48421378D01*
X57350203Y-48426689D01*
X57474347Y-48550617D01*
X57480577Y-48554457D01*
X57480578Y-48554458D01*
X57494115Y-48562802D01*
X57541609Y-48615574D01*
X57554000Y-48670062D01*
X57554000Y-50051895D01*
X57533998Y-50120016D01*
X57494303Y-50159039D01*
X57425652Y-50201522D01*
X57420479Y-50206704D01*
X57338862Y-50288463D01*
X57276579Y-50322542D01*
X57205759Y-50317539D01*
X57160671Y-50288618D01*
X57078171Y-50206261D01*
X57066760Y-50197249D01*
X56928757Y-50112184D01*
X56915576Y-50106037D01*
X56761290Y-50054862D01*
X56747914Y-50051995D01*
X56653562Y-50042328D01*
X56647145Y-50042000D01*
X56522115Y-50042000D01*
X56506876Y-50046475D01*
X56505671Y-50047865D01*
X56504000Y-50055548D01*
X56504000Y-52439884D01*
X56508475Y-52455123D01*
X56509865Y-52456328D01*
X56517548Y-52457999D01*
X56647095Y-52457999D01*
X56653614Y-52457662D01*
X56749206Y-52447743D01*
X56762600Y-52444851D01*
X56916784Y-52393412D01*
X56929962Y-52387239D01*
X57067807Y-52301937D01*
X57079208Y-52292901D01*
X57160430Y-52211538D01*
X57222713Y-52177459D01*
X57293533Y-52182462D01*
X57338620Y-52211383D01*
X57421512Y-52294130D01*
X57421517Y-52294134D01*
X57426697Y-52299305D01*
X57432927Y-52303145D01*
X57432928Y-52303146D01*
X57570288Y-52387816D01*
X57577262Y-52392115D01*
X57657005Y-52418564D01*
X57738611Y-52445632D01*
X57738613Y-52445632D01*
X57745139Y-52447797D01*
X57751975Y-52448497D01*
X57751978Y-52448498D01*
X57795031Y-52452909D01*
X57849600Y-52458500D01*
X58650400Y-52458500D01*
X58653646Y-52458163D01*
X58653650Y-52458163D01*
X58749308Y-52448238D01*
X58749312Y-52448237D01*
X58756166Y-52447526D01*
X58762702Y-52445345D01*
X58762704Y-52445345D01*
X58894806Y-52401272D01*
X58923946Y-52391550D01*
X59074348Y-52298478D01*
X59199305Y-52173303D01*
X59240010Y-52107268D01*
X59288275Y-52028968D01*
X59288276Y-52028966D01*
X59292115Y-52022738D01*
X59340835Y-51875850D01*
X59345632Y-51861389D01*
X59345632Y-51861387D01*
X59347797Y-51854861D01*
X59358500Y-51750400D01*
X59358500Y-50749600D01*
X59358163Y-50746350D01*
X59348238Y-50650692D01*
X59348237Y-50650688D01*
X59347526Y-50643834D01*
X59291550Y-50476054D01*
X59198478Y-50325652D01*
X59073303Y-50200695D01*
X58942418Y-50120016D01*
X58928968Y-50111725D01*
X58928966Y-50111724D01*
X58922738Y-50107885D01*
X58915789Y-50105580D01*
X58907330Y-50102774D01*
X58848971Y-50062342D01*
X58821736Y-49996777D01*
X58821000Y-49983182D01*
X58821000Y-48669931D01*
X58841002Y-48601810D01*
X58880696Y-48562788D01*
X58901689Y-48549797D01*
X59025617Y-48425653D01*
X59117661Y-48276329D01*
X59172885Y-48109835D01*
X59183500Y-48006231D01*
X59183499Y-46993770D01*
X59172616Y-46888871D01*
X59170437Y-46882340D01*
X59170436Y-46882335D01*
X59119420Y-46729422D01*
X59117102Y-46722474D01*
X59024797Y-46573311D01*
X58900653Y-46449383D01*
X58751329Y-46357339D01*
X58744380Y-46355034D01*
X58591366Y-46304281D01*
X58591364Y-46304281D01*
X58584835Y-46302115D01*
X58481231Y-46291500D01*
X58189766Y-46291500D01*
X57893770Y-46291501D01*
X57788871Y-46302384D01*
X57782340Y-46304563D01*
X57782335Y-46304564D01*
X57634189Y-46353990D01*
X57622474Y-46357898D01*
X57473311Y-46450203D01*
X57349383Y-46574347D01*
X57347581Y-46577270D01*
X57290971Y-46617408D01*
X57220048Y-46620642D01*
X57158636Y-46585018D01*
X57153084Y-46578622D01*
X57149797Y-46573311D01*
X57025653Y-46449383D01*
X56876329Y-46357339D01*
X56869380Y-46355034D01*
X56716366Y-46304281D01*
X56716364Y-46304281D01*
X56709835Y-46302115D01*
X56606231Y-46291500D01*
X56314766Y-46291500D01*
X56018770Y-46291501D01*
X55913871Y-46302384D01*
X55907340Y-46304563D01*
X55907335Y-46304564D01*
X55759189Y-46353990D01*
X55747474Y-46357898D01*
X55598311Y-46450203D01*
X55474383Y-46574347D01*
X55382339Y-46723671D01*
X55327115Y-46890165D01*
X55316500Y-46993769D01*
X55316500Y-46996986D01*
X55316501Y-47490500D01*
X55296499Y-47558621D01*
X55242844Y-47605114D01*
X55190501Y-47616500D01*
X53423856Y-47616500D01*
X53355735Y-47596498D01*
X53309242Y-47542842D01*
X53298529Y-47503504D01*
X53297526Y-47493834D01*
X53241550Y-47326054D01*
X53148478Y-47175652D01*
X53023303Y-47050695D01*
X52936254Y-46997037D01*
X52878968Y-46961725D01*
X52878966Y-46961724D01*
X52872738Y-46957885D01*
X52712254Y-46904655D01*
X52711389Y-46904368D01*
X52711387Y-46904368D01*
X52704861Y-46902203D01*
X52698025Y-46901503D01*
X52698022Y-46901502D01*
X52641655Y-46895727D01*
X52600400Y-46891500D01*
X50999600Y-46891500D01*
X50996354Y-46891837D01*
X50996350Y-46891837D01*
X50900692Y-46901762D01*
X50900688Y-46901763D01*
X50893834Y-46902474D01*
X50887298Y-46904655D01*
X50887296Y-46904655D01*
X50755194Y-46948728D01*
X50726054Y-46958450D01*
X50575652Y-47051522D01*
X50450695Y-47176697D01*
X50357885Y-47327262D01*
X50302203Y-47495139D01*
X50291500Y-47599600D01*
X50291500Y-48900400D01*
X46258500Y-48900400D01*
X46258500Y-44634500D01*
X46278502Y-44566379D01*
X46332158Y-44519886D01*
X46384500Y-44508500D01*
X61115500Y-44508500D01*
X61183621Y-44528502D01*
G37*
%TD.AperFunction*%
%TD*%
M02*
