  0
SECTION
  2
HEADER
  9
$ANGBASE
  50
0.0
  9
$ANGDIR
  70
1
  9
$MEASUREMENT
  70
0
  0
ENDSEC
  0
SECTION
  2
TABLES
  0
TABLE
  2
LTYPE
  70
4
  0
LTYPE
  5
40F
  2
CONTINUOUS
  70
0
  3
Solid line
  72
65
  73
0
  40
0.0
  0
LTYPE
  5
410
  2
DASHDOT
 70
0
  3
Dash Dot ____ _ ____ _
 72
65
 73
4
 40
2.0
 49
1.25
 49
-0.25
 49
0.25
 49
-0.25
  0
LTYPE
  5
411
  2
DASHED
 70
0
  3
Dashed __ __ __ __ __
 72
65
 73
2
 40
0.75
 49
0.5
 49
-0.25
  0
LTYPE
  5
43B
  2
DOTTED
 70
0
  3
Dotted .  .  .  .
 72
65
 73
2
 40
0.2
 49
0.0
 49
-0.2
  0
ENDTAB
  0
TABLE
  2
STYLE
  70
4
  0
STYLE
  2
KICAD
  70
0
  40
0
  41
1
  42
1
  50
0
  71
0
  3
isocp.shx
  0
STYLE
  2
KICADB
  70
0
  40
0
  41
1
  42
1
  50
0
  71
0
  3
isocp.shx
  0
STYLE
  2
KICADI
  70
0
  40
0
  41
1
  42
1
  50
15
  71
0
  3
isocp.shx
  0
STYLE
  2
KICADBI
  70
0
  40
0
  41
1
  42
1
  50
15
  71
0
  3
isocp.shx
  0
ENDTAB
  0
TABLE
  2
LAYER
  70
1
  0
LAYER
  2
BLACK
  70
0
  62
7
  6
CONTINUOUS
  0
ENDTAB
  0
ENDSEC
  0
SECTION
  2
ENTITIES
0
LINE
8
BLACK
6
CONTINUOUS
10
2.31376
20
-2.11388
11
2.31445
21
-2.11555
0
LINE
8
BLACK
6
CONTINUOUS
10
2.31445
20
-2.11555
11
2.31376
21
-2.11722
0
LINE
8
BLACK
6
CONTINUOUS
10
2.31376
20
-2.11722
11
2.31209
21
-2.11791
0
LINE
8
BLACK
6
CONTINUOUS
10
2.31209
20
-2.11791
11
2.29421
21
-2.11791
0
LINE
8
BLACK
6
CONTINUOUS
10
2.29421
20
-2.11791
11
2.29254
21
-2.11722
0
LINE
8
BLACK
6
CONTINUOUS
10
2.29254
20
-2.11722
11
2.29185
21
-2.11555
0
LINE
8
BLACK
6
CONTINUOUS
10
2.29185
20
-2.11555
11
2.29254
21
-2.11388
0
LINE
8
BLACK
6
CONTINUOUS
10
2.29254
20
-2.11388
11
2.29421
21
-2.11319
0
LINE
8
BLACK
6
CONTINUOUS
10
2.29421
20
-2.11319
11
2.31209
21
-2.11319
0
LINE
8
BLACK
6
CONTINUOUS
10
2.31209
20
-2.11319
11
2.31376
21
-2.11388
0
LINE
8
BLACK
6
CONTINUOUS
10
1.82864
20
-2.10246
11
1.82795
21
-2.10079
0
LINE
8
BLACK
6
CONTINUOUS
10
1.82795
20
-2.10079
11
1.82795
21
-1.79685
0
LINE
8
BLACK
6
CONTINUOUS
10
1.82795
20
-1.79685
11
1.82864
21
-1.79518
0
LINE
8
BLACK
6
CONTINUOUS
10
1.82864
20
-1.79518
11
1.83031
21
-1.79449
0
LINE
8
BLACK
6
CONTINUOUS
10
1.83031
20
-1.79449
11
1.98858
21
-1.79449
0
LINE
8
BLACK
6
CONTINUOUS
10
1.98858
20
-1.79449
11
1.99025
21
-1.79518
0
LINE
8
BLACK
6
CONTINUOUS
10
1.99025
20
-1.79518
11
1.99094
21
-1.79685
0
LINE
8
BLACK
6
CONTINUOUS
10
1.99094
20
-1.79685
11
1.99094
21
-2.10079
0
LINE
8
BLACK
6
CONTINUOUS
10
1.99094
20
-2.10079
11
1.99025
21
-2.10246
0
LINE
8
BLACK
6
CONTINUOUS
10
1.99025
20
-2.10246
11
1.98858
21
-2.10315
0
LINE
8
BLACK
6
CONTINUOUS
10
1.98858
20
-2.10315
11
1.83031
21
-2.10315
0
LINE
8
BLACK
6
CONTINUOUS
10
1.83031
20
-2.10315
11
1.82864
21
-2.10246
0
LINE
8
BLACK
6
CONTINUOUS
10
1.83268
20
-2.06378
11
1.83268
21
-2.09843
0
LINE
8
BLACK
6
CONTINUOUS
10
1.83268
20
-2.09843
11
1.88701
21
-2.09843
0
LINE
8
BLACK
6
CONTINUOUS
10
1.88701
20
-2.09843
11
1.88701
21
-2.06378
0
LINE
8
BLACK
6
CONTINUOUS
10
1.88701
20
-2.06378
11
1.83268
21
-2.06378
0
LINE
8
BLACK
6
CONTINUOUS
10
1.83268
20
-2.05906
11
1.88937
21
-2.05906
0
LINE
8
BLACK
6
CONTINUOUS
10
1.88937
20
-2.05906
11
1.89104
21
-2.05975
0
LINE
8
BLACK
6
CONTINUOUS
10
1.89104
20
-2.05975
11
1.89173
21
-2.06142
0
LINE
8
BLACK
6
CONTINUOUS
10
1.89173
20
-2.06142
11
1.89173
21
-2.09843
0
LINE
8
BLACK
6
CONTINUOUS
10
1.89173
20
-2.09843
11
1.9189
21
-2.09843
0
LINE
8
BLACK
6
CONTINUOUS
10
1.9189
20
-2.09843
11
1.9189
21
-2.0811
0
LINE
8
BLACK
6
CONTINUOUS
10
1.9189
20
-2.0811
11
1.91959
21
-2.07943
0
LINE
8
BLACK
6
CONTINUOUS
10
1.91959
20
-2.07943
11
1.92126
21
-2.07874
0
LINE
8
BLACK
6
CONTINUOUS
10
1.92126
20
-2.07874
11
1.96654
21
-2.07874
0
LINE
8
BLACK
6
CONTINUOUS
10
1.96654
20
-2.07874
11
1.96654
21
-1.8189
0
LINE
8
BLACK
6
CONTINUOUS
10
1.96654
20
-1.8189
11
1.92126
21
-1.8189
0
LINE
8
BLACK
6
CONTINUOUS
10
1.92126
20
-1.8189
11
1.91959
21
-1.81821
0
LINE
8
BLACK
6
CONTINUOUS
10
1.91959
20
-1.81821
11
1.9189
21
-1.81654
0
LINE
8
BLACK
6
CONTINUOUS
10
1.9189
20
-1.81654
11
1.9189
21
-1.79921
0
LINE
8
BLACK
6
CONTINUOUS
10
1.9189
20
-1.79921
11
1.89173
21
-1.79921
0
LINE
8
BLACK
6
CONTINUOUS
10
1.89173
20
-1.79921
11
1.89173
21
-1.83622
0
LINE
8
BLACK
6
CONTINUOUS
10
1.89173
20
-1.83622
11
1.89104
21
-1.83789
0
LINE
8
BLACK
6
CONTINUOUS
10
1.89104
20
-1.83789
11
1.88937
21
-1.83858
0
LINE
8
BLACK
6
CONTINUOUS
10
1.88937
20
-1.83858
11
1.83268
21
-1.83858
0
LINE
8
BLACK
6
CONTINUOUS
10
1.83268
20
-1.83858
11
1.83268
21
-2.05906
0
LINE
8
BLACK
6
CONTINUOUS
10
1.97126
20
-1.81654
11
1.97126
21
-2.0811
0
LINE
8
BLACK
6
CONTINUOUS
10
1.97126
20
-2.0811
11
1.97057
21
-2.08277
0
LINE
8
BLACK
6
CONTINUOUS
10
1.97057
20
-2.08277
11
1.9689
21
-2.08346
0
LINE
8
BLACK
6
CONTINUOUS
10
1.9689
20
-2.08346
11
1.92362
21
-2.08346
0
LINE
8
BLACK
6
CONTINUOUS
10
1.92362
20
-2.08346
11
1.92362
21
-2.09843
0
LINE
8
BLACK
6
CONTINUOUS
10
1.92362
20
-2.09843
11
1.98622
21
-2.09843
0
LINE
8
BLACK
6
CONTINUOUS
10
1.98622
20
-2.09843
11
1.98622
21
-1.79921
0
LINE
8
BLACK
6
CONTINUOUS
10
1.98622
20
-1.79921
11
1.92362
21
-1.79921
0
LINE
8
BLACK
6
CONTINUOUS
10
1.92362
20
-1.79921
11
1.92362
21
-1.81417
0
LINE
8
BLACK
6
CONTINUOUS
10
1.92362
20
-1.81417
11
1.9689
21
-1.81417
0
LINE
8
BLACK
6
CONTINUOUS
10
1.9689
20
-1.81417
11
1.97057
21
-1.81487
0
LINE
8
BLACK
6
CONTINUOUS
10
1.97057
20
-1.81487
11
1.97126
21
-1.81654
0
LINE
8
BLACK
6
CONTINUOUS
10
1.83268
20
-1.79921
11
1.83268
21
-1.83386
0
LINE
8
BLACK
6
CONTINUOUS
10
1.83268
20
-1.83386
11
1.88701
21
-1.83386
0
LINE
8
BLACK
6
CONTINUOUS
10
1.88701
20
-1.83386
11
1.88701
21
-1.79921
0
LINE
8
BLACK
6
CONTINUOUS
10
1.88701
20
-1.79921
11
1.83268
21
-1.79921
0
LINE
8
BLACK
6
CONTINUOUS
10
2.31376
20
-2.05601
11
2.31445
21
-2.05768
0
LINE
8
BLACK
6
CONTINUOUS
10
2.31445
20
-2.05768
11
2.31376
21
-2.05935
0
LINE
8
BLACK
6
CONTINUOUS
10
2.31376
20
-2.05935
11
2.31209
21
-2.06004
0
LINE
8
BLACK
6
CONTINUOUS
10
2.31209
20
-2.06004
11
2.29421
21
-2.06004
0
LINE
8
BLACK
6
CONTINUOUS
10
2.29421
20
-2.06004
11
2.29254
21
-2.05935
0
LINE
8
BLACK
6
CONTINUOUS
10
2.29254
20
-2.05935
11
2.29185
21
-2.05768
0
LINE
8
BLACK
6
CONTINUOUS
10
2.29185
20
-2.05768
11
2.29254
21
-2.05601
0
LINE
8
BLACK
6
CONTINUOUS
10
2.29254
20
-2.05601
11
2.29421
21
-2.05531
0
LINE
8
BLACK
6
CONTINUOUS
10
2.29421
20
-2.05531
11
2.31209
21
-2.05531
0
LINE
8
BLACK
6
CONTINUOUS
10
2.31209
20
-2.05531
11
2.31376
21
-2.05601
0
LINE
8
BLACK
6
CONTINUOUS
10
2.32318
20
-1.99328
11
2.32335
21
-1.99325
0
LINE
8
BLACK
6
CONTINUOUS
10
2.32335
20
-1.99325
11
2.32409
21
-1.99368
0
LINE
8
BLACK
6
CONTINUOUS
10
2.32409
20
-1.99368
11
2.32487
21
-1.99402
0
LINE
8
BLACK
6
CONTINUOUS
10
2.32487
20
-1.99402
11
2.32495
21
-1.99417
0
LINE
8
BLACK
6
CONTINUOUS
10
2.32495
20
-1.99417
11
2.3251
21
-1.99426
0
LINE
8
BLACK
6
CONTINUOUS
10
2.3251
20
-1.99426
11
2.32539
21
-1.99506
0
LINE
8
BLACK
6
CONTINUOUS
10
2.32539
20
-1.99506
11
2.32577
21
-1.99583
0
LINE
8
BLACK
6
CONTINUOUS
10
2.32577
20
-1.99583
11
2.32573
21
-1.996
0
LINE
8
BLACK
6
CONTINUOUS
10
2.32573
20
-1.996
11
2.32579
21
-1.99616
0
LINE
8
BLACK
6
CONTINUOUS
10
2.32579
20
-1.99616
11
2.32579
21
-2.03257
0
LINE
8
BLACK
6
CONTINUOUS
10
2.32579
20
-2.03257
11
2.33408
21
-2.03257
0
LINE
8
BLACK
6
CONTINUOUS
10
2.33408
20
-2.03257
11
2.33509
21
-2.03275
0
LINE
8
BLACK
6
CONTINUOUS
10
2.33509
20
-2.03275
11
2.33664
21
-2.03405
0
LINE
8
BLACK
6
CONTINUOUS
10
2.33664
20
-2.03405
11
2.33699
21
-2.03604
0
LINE
8
BLACK
6
CONTINUOUS
10
2.33699
20
-2.03604
11
2.33598
21
-2.03779
0
LINE
8
BLACK
6
CONTINUOUS
10
2.33598
20
-2.03779
11
2.33408
21
-2.03848
0
LINE
8
BLACK
6
CONTINUOUS
10
2.33408
20
-2.03848
11
2.31159
21
-2.03848
0
LINE
8
BLACK
6
CONTINUOUS
10
2.31159
20
-2.03848
11
2.31058
21
-2.0383
0
LINE
8
BLACK
6
CONTINUOUS
10
2.31058
20
-2.0383
11
2.30903
21
-2.037
0
LINE
8
BLACK
6
CONTINUOUS
10
2.30903
20
-2.037
11
2.30868
21
-2.03501
0
LINE
8
BLACK
6
CONTINUOUS
10
2.30868
20
-2.03501
11
2.30969
21
-2.03326
0
LINE
8
BLACK
6
CONTINUOUS
10
2.30969
20
-2.03326
11
2.31159
21
-2.03257
0
LINE
8
BLACK
6
CONTINUOUS
10
2.31159
20
-2.03257
11
2.31988
21
-2.03257
0
LINE
8
BLACK
6
CONTINUOUS
10
2.31988
20
-2.03257
11
2.31988
21
-2.00516
0
LINE
8
BLACK
6
CONTINUOUS
10
2.31988
20
-2.00516
11
2.31742
21
-2.00762
0
LINE
8
BLACK
6
CONTINUOUS
10
2.31742
20
-2.00762
11
2.3167
21
-2.00812
0
LINE
8
BLACK
6
CONTINUOUS
10
2.3167
20
-2.00812
11
2.31666
21
-2.00817
0
LINE
8
BLACK
6
CONTINUOUS
10
2.31666
20
-2.00817
11
2.31291
21
-2.01005
0
LINE
8
BLACK
6
CONTINUOUS
10
2.31291
20
-2.01005
11
2.31192
21
-2.01034
0
LINE
8
BLACK
6
CONTINUOUS
10
2.31192
20
-2.01034
11
2.30996
21
-2.00987
0
LINE
8
BLACK
6
CONTINUOUS
10
2.30996
20
-2.00987
11
2.30876
21
-2.00825
0
LINE
8
BLACK
6
CONTINUOUS
10
2.30876
20
-2.00825
11
2.30888
21
-2.00623
0
LINE
8
BLACK
6
CONTINUOUS
10
2.30888
20
-2.00623
11
2.31027
21
-2.00476
0
LINE
8
BLACK
6
CONTINUOUS
10
2.31027
20
-2.00476
11
2.31359
21
-2.0031
0
LINE
8
BLACK
6
CONTINUOUS
10
2.31359
20
-2.0031
11
2.31679
21
-1.9999
0
LINE
8
BLACK
6
CONTINUOUS
10
2.31679
20
-1.9999
11
2.32038
21
-1.99452
0
LINE
8
BLACK
6
CONTINUOUS
10
2.32038
20
-1.99452
11
2.32109
21
-1.99378
0
LINE
8
BLACK
6
CONTINUOUS
10
2.32109
20
-1.99378
11
2.32125
21
-1.99373
0
LINE
8
BLACK
6
CONTINUOUS
10
2.32125
20
-1.99373
11
2.32136
21
-1.9936
0
LINE
8
BLACK
6
CONTINUOUS
10
2.32136
20
-1.9936
11
2.3222
21
-1.99345
0
LINE
8
BLACK
6
CONTINUOUS
10
2.3222
20
-1.99345
11
2.32302
21
-1.99321
0
LINE
8
BLACK
6
CONTINUOUS
10
2.32302
20
-1.99321
11
2.32318
21
-1.99328
0
LINE
8
BLACK
6
CONTINUOUS
10
2.2901
20
-1.99338
11
2.29023
21
-1.9935
0
LINE
8
BLACK
6
CONTINUOUS
10
2.29023
20
-1.9935
11
2.29041
21
-1.99352
0
LINE
8
BLACK
6
CONTINUOUS
10
2.29041
20
-1.99352
11
2.29416
21
-1.99539
0
LINE
8
BLACK
6
CONTINUOUS
10
2.29416
20
-1.99539
11
2.29487
21
-1.99592
0
LINE
8
BLACK
6
CONTINUOUS
10
2.29487
20
-1.99592
11
2.29493
21
-1.99594
0
LINE
8
BLACK
6
CONTINUOUS
10
2.29493
20
-1.99594
11
2.2968
21
-1.99782
0
LINE
8
BLACK
6
CONTINUOUS
10
2.2968
20
-1.99782
11
2.29731
21
-1.99854
0
LINE
8
BLACK
6
CONTINUOUS
10
2.29731
20
-1.99854
11
2.29735
21
-1.99859
0
LINE
8
BLACK
6
CONTINUOUS
10
2.29735
20
-1.99859
11
2.29923
21
-2.00234
0
LINE
8
BLACK
6
CONTINUOUS
10
2.29923
20
-2.00234
11
2.29952
21
-2.00332
0
LINE
8
BLACK
6
CONTINUOUS
10
2.29952
20
-2.00332
11
2.29948
21
-2.00349
0
LINE
8
BLACK
6
CONTINUOUS
10
2.29948
20
-2.00349
11
2.29954
21
-2.00366
0
LINE
8
BLACK
6
CONTINUOUS
10
2.29954
20
-2.00366
11
2.29954
21
-2.00928
0
LINE
8
BLACK
6
CONTINUOUS
10
2.29954
20
-2.00928
11
2.29936
21
-2.01029
0
LINE
8
BLACK
6
CONTINUOUS
10
2.29936
20
-2.01029
11
2.29925
21
-2.01043
0
LINE
8
BLACK
6
CONTINUOUS
10
2.29925
20
-2.01043
11
2.29923
21
-2.0106
0
LINE
8
BLACK
6
CONTINUOUS
10
2.29923
20
-2.0106
11
2.29735
21
-2.01435
0
LINE
8
BLACK
6
CONTINUOUS
10
2.29735
20
-2.01435
11
2.29683
21
-2.01506
0
LINE
8
BLACK
6
CONTINUOUS
10
2.29683
20
-2.01506
11
2.2968
21
-2.01512
0
LINE
8
BLACK
6
CONTINUOUS
10
2.2968
20
-2.01512
11
2.29493
21
-2.01699
0
LINE
8
BLACK
6
CONTINUOUS
10
2.29493
20
-2.01699
11
2.2942
21
-2.0175
0
LINE
8
BLACK
6
CONTINUOUS
10
2.2942
20
-2.0175
11
2.29416
21
-2.01755
0
LINE
8
BLACK
6
CONTINUOUS
10
2.29416
20
-2.01755
11
2.29041
21
-2.01942
0
LINE
8
BLACK
6
CONTINUOUS
10
2.29041
20
-2.01942
11
2.28943
21
-2.01971
0
LINE
8
BLACK
6
CONTINUOUS
10
2.28943
20
-2.01971
11
2.28925
21
-2.01967
0
LINE
8
BLACK
6
CONTINUOUS
10
2.28925
20
-2.01967
11
2.28913
21
-2.01972
0
LINE
8
BLACK
6
CONTINUOUS
10
2.28913
20
-2.01972
11
2.29901
21
-2.03383
0
LINE
8
BLACK
6
CONTINUOUS
10
2.29901
20
-2.03383
11
2.29944
21
-2.03476
0
LINE
8
BLACK
6
CONTINUOUS
10
2.29944
20
-2.03476
11
2.29926
21
-2.03678
0
LINE
8
BLACK
6
CONTINUOUS
10
2.29926
20
-2.03678
11
2.29784
21
-2.0382
0
LINE
8
BLACK
6
CONTINUOUS
10
2.29784
20
-2.0382
11
2.29582
21
-2.03838
0
LINE
8
BLACK
6
CONTINUOUS
10
2.29582
20
-2.03838
11
2.29417
21
-2.03722
0
LINE
8
BLACK
6
CONTINUOUS
10
2.29417
20
-2.03722
11
2.28193
21
-2.01973
0
LINE
8
BLACK
6
CONTINUOUS
10
2.28193
20
-2.01973
11
2.27704
21
-2.01973
0
LINE
8
BLACK
6
CONTINUOUS
10
2.27704
20
-2.01973
11
2.27704
21
-2.03553
0
LINE
8
BLACK
6
CONTINUOUS
10
2.27704
20
-2.03553
11
2.27687
21
-2.03654
0
LINE
8
BLACK
6
CONTINUOUS
10
2.27687
20
-2.03654
11
2.27557
21
-2.03808
0
LINE
8
BLACK
6
CONTINUOUS
10
2.27557
20
-2.03808
11
2.27358
21
-2.03843
0
LINE
8
BLACK
6
CONTINUOUS
10
2.27358
20
-2.03843
11
2.27183
21
-2.03742
0
LINE
8
BLACK
6
CONTINUOUS
10
2.27183
20
-2.03742
11
2.27114
21
-2.03553
0
LINE
8
BLACK
6
CONTINUOUS
10
2.27114
20
-2.03553
11
2.27114
21
-1.99616
0
LINE
8
BLACK
6
CONTINUOUS
10
2.27114
20
-1.99616
11
2.27121
21
-1.99577
0
LINE
8
BLACK
6
CONTINUOUS
10
2.27121
20
-1.99577
11
2.27118
21
-1.99564
0
LINE
8
BLACK
6
CONTINUOUS
10
2.27118
20
-1.99564
11
2.27125
21
-1.99553
0
LINE
8
BLACK
6
CONTINUOUS
10
2.27125
20
-1.99553
11
2.27132
21
-1.99515
0
LINE
8
BLACK
6
CONTINUOUS
10
2.27132
20
-1.99515
11
2.27181
21
-1.99456
0
LINE
8
BLACK
6
CONTINUOUS
10
2.27181
20
-1.99456
11
2.27219
21
-1.99389
0
LINE
8
BLACK
6
CONTINUOUS
10
2.27219
20
-1.99389
11
2.27244
21
-1.9938
0
LINE
8
BLACK
6
CONTINUOUS
10
2.27244
20
-1.9938
11
2.27261
21
-1.9936
0
LINE
8
BLACK
6
CONTINUOUS
10
2.27261
20
-1.9936
11
2.27337
21
-1.99347
0
LINE
8
BLACK
6
CONTINUOUS
10
2.27337
20
-1.99347
11
2.27409
21
-1.9932
0
LINE
8
BLACK
6
CONTINUOUS
10
2.27409
20
-1.9932
11
2.28909
21
-1.9932
0
LINE
8
BLACK
6
CONTINUOUS
10
2.28909
20
-1.9932
11
2.2901
21
-1.99338
0
LINE
8
BLACK
6
CONTINUOUS
10
2.27704
20
-1.99911
11
2.27704
21
-2.01383
0
LINE
8
BLACK
6
CONTINUOUS
10
2.27704
20
-2.01383
11
2.28839
21
-2.01383
0
LINE
8
BLACK
6
CONTINUOUS
10
2.28839
20
-2.01383
11
2.29109
21
-2.01248
0
LINE
8
BLACK
6
CONTINUOUS
10
2.29109
20
-2.01248
11
2.29229
21
-2.01128
0
LINE
8
BLACK
6
CONTINUOUS
10
2.29229
20
-2.01128
11
2.29364
21
-2.00858
0
LINE
8
BLACK
6
CONTINUOUS
10
2.29364
20
-2.00858
11
2.29364
21
-2.00435
0
LINE
8
BLACK
6
CONTINUOUS
10
2.29364
20
-2.00435
11
2.29229
21
-2.00166
0
LINE
8
BLACK
6
CONTINUOUS
10
2.29229
20
-2.00166
11
2.29109
21
-2.00046
0
LINE
8
BLACK
6
CONTINUOUS
10
2.29109
20
-2.00046
11
2.28839
21
-1.99911
0
LINE
8
BLACK
6
CONTINUOUS
10
2.28839
20
-1.99911
11
2.27704
21
-1.99911
0
LINE
8
BLACK
6
CONTINUOUS
10
2.03893
20
-1.95914
11
2.03899
21
-1.95914
0
LINE
8
BLACK
6
CONTINUOUS
10
2.03899
20
-1.95914
11
2.04462
21
-1.96102
0
LINE
8
BLACK
6
CONTINUOUS
10
2.04462
20
-1.96102
11
2.04552
21
-1.9615
0
LINE
8
BLACK
6
CONTINUOUS
10
2.04552
20
-1.9615
11
2.04561
21
-1.96165
0
LINE
8
BLACK
6
CONTINUOUS
10
2.04561
20
-1.96165
11
2.04577
21
-1.96173
0
LINE
8
BLACK
6
CONTINUOUS
10
2.04577
20
-1.96173
11
2.04952
21
-1.96548
0
LINE
8
BLACK
6
CONTINUOUS
10
2.04952
20
-1.96548
11
2.05011
21
-1.96632
0
LINE
8
BLACK
6
CONTINUOUS
10
2.05011
20
-1.96632
11
2.05012
21
-1.96649
0
LINE
8
BLACK
6
CONTINUOUS
10
2.05012
20
-1.96649
11
2.05023
21
-1.96663
0
LINE
8
BLACK
6
CONTINUOUS
10
2.05023
20
-1.96663
11
2.05211
21
-1.97226
0
LINE
8
BLACK
6
CONTINUOUS
10
2.05211
20
-1.97226
11
2.05224
21
-1.97313
0
LINE
8
BLACK
6
CONTINUOUS
10
2.05224
20
-1.97313
11
2.05226
21
-1.97319
0
LINE
8
BLACK
6
CONTINUOUS
10
2.05226
20
-1.97319
11
2.05226
21
-1.97694
0
LINE
8
BLACK
6
CONTINUOUS
10
2.05226
20
-1.97694
11
2.05208
21
-1.97795
0
LINE
8
BLACK
6
CONTINUOUS
10
2.05208
20
-1.97795
11
2.05078
21
-1.9795
0
LINE
8
BLACK
6
CONTINUOUS
10
2.05078
20
-1.9795
11
2.04879
21
-1.97985
0
LINE
8
BLACK
6
CONTINUOUS
10
2.04879
20
-1.97985
11
2.04704
21
-1.97884
0
LINE
8
BLACK
6
CONTINUOUS
10
2.04704
20
-1.97884
11
2.04635
21
-1.97694
0
LINE
8
BLACK
6
CONTINUOUS
10
2.04635
20
-1.97694
11
2.04635
21
-1.97367
0
LINE
8
BLACK
6
CONTINUOUS
10
2.04635
20
-1.97367
11
2.04485
21
-1.96916
0
LINE
8
BLACK
6
CONTINUOUS
10
2.04485
20
-1.96916
11
2.04209
21
-1.9664
0
LINE
8
BLACK
6
CONTINUOUS
10
2.04209
20
-1.9664
11
2.03758
21
-1.9649
0
LINE
8
BLACK
6
CONTINUOUS
10
2.03758
20
-1.9649
11
2.00994
21
-1.9649
0
LINE
8
BLACK
6
CONTINUOUS
10
2.00994
20
-1.9649
11
2.00893
21
-1.96472
0
LINE
8
BLACK
6
CONTINUOUS
10
2.00893
20
-1.96472
11
2.00738
21
-1.96342
0
LINE
8
BLACK
6
CONTINUOUS
10
2.00738
20
-1.96342
11
2.00703
21
-1.96143
0
LINE
8
BLACK
6
CONTINUOUS
10
2.00703
20
-1.96143
11
2.00804
21
-1.95968
0
LINE
8
BLACK
6
CONTINUOUS
10
2.00804
20
-1.95968
11
2.00994
21
-1.95899
0
LINE
8
BLACK
6
CONTINUOUS
10
2.00994
20
-1.95899
11
2.03806
21
-1.95899
0
LINE
8
BLACK
6
CONTINUOUS
10
2.03806
20
-1.95899
11
2.03893
21
-1.95914
0
LINE
8
BLACK
6
CONTINUOUS
10
2.05157
20
-1.92067
11
2.05226
21
-1.92257
0
LINE
8
BLACK
6
CONTINUOUS
10
2.05226
20
-1.92257
11
2.05226
21
-1.94507
0
LINE
8
BLACK
6
CONTINUOUS
10
2.05226
20
-1.94507
11
2.05208
21
-1.94608
0
LINE
8
BLACK
6
CONTINUOUS
10
2.05208
20
-1.94608
11
2.05078
21
-1.94763
0
LINE
8
BLACK
6
CONTINUOUS
10
2.05078
20
-1.94763
11
2.04879
21
-1.94798
0
LINE
8
BLACK
6
CONTINUOUS
10
2.04879
20
-1.94798
11
2.04704
21
-1.94697
0
LINE
8
BLACK
6
CONTINUOUS
10
2.04704
20
-1.94697
11
2.04635
21
-1.94507
0
LINE
8
BLACK
6
CONTINUOUS
10
2.04635
20
-1.94507
11
2.04635
21
-1.93677
0
LINE
8
BLACK
6
CONTINUOUS
10
2.04635
20
-1.93677
11
2.01894
21
-1.93677
0
LINE
8
BLACK
6
CONTINUOUS
10
2.01894
20
-1.93677
11
2.0214
21
-1.93923
0
LINE
8
BLACK
6
CONTINUOUS
10
2.0214
20
-1.93923
11
2.0219
21
-1.93996
0
LINE
8
BLACK
6
CONTINUOUS
10
2.0219
20
-1.93996
11
2.02195
21
-1.94
0
LINE
8
BLACK
6
CONTINUOUS
10
2.02195
20
-1.94
11
2.02383
21
-1.94375
0
LINE
8
BLACK
6
CONTINUOUS
10
2.02383
20
-1.94375
11
2.02412
21
-1.94473
0
LINE
8
BLACK
6
CONTINUOUS
10
2.02412
20
-1.94473
11
2.02365
21
-1.9467
0
LINE
8
BLACK
6
CONTINUOUS
10
2.02365
20
-1.9467
11
2.02203
21
-1.9479
0
LINE
8
BLACK
6
CONTINUOUS
10
2.02203
20
-1.9479
11
2.02001
21
-1.94778
0
LINE
8
BLACK
6
CONTINUOUS
10
2.02001
20
-1.94778
11
2.01854
21
-1.94639
0
LINE
8
BLACK
6
CONTINUOUS
10
2.01854
20
-1.94639
11
2.01688
21
-1.94307
0
LINE
8
BLACK
6
CONTINUOUS
10
2.01688
20
-1.94307
11
2.01368
21
-1.93986
0
LINE
8
BLACK
6
CONTINUOUS
10
2.01368
20
-1.93986
11
2.0083
21
-1.93628
0
LINE
8
BLACK
6
CONTINUOUS
10
2.0083
20
-1.93628
11
2.00756
21
-1.93557
0
LINE
8
BLACK
6
CONTINUOUS
10
2.00756
20
-1.93557
11
2.00751
21
-1.93541
0
LINE
8
BLACK
6
CONTINUOUS
10
2.00751
20
-1.93541
11
2.00738
21
-1.9353
0
LINE
8
BLACK
6
CONTINUOUS
10
2.00738
20
-1.9353
11
2.00723
21
-1.93445
0
LINE
8
BLACK
6
CONTINUOUS
10
2.00723
20
-1.93445
11
2.00699
21
-1.93363
0
LINE
8
BLACK
6
CONTINUOUS
10
2.00699
20
-1.93363
11
2.00706
21
-1.93348
0
LINE
8
BLACK
6
CONTINUOUS
10
2.00706
20
-1.93348
11
2.00703
21
-1.93331
0
LINE
8
BLACK
6
CONTINUOUS
10
2.00703
20
-1.93331
11
2.00746
21
-1.93257
0
LINE
8
BLACK
6
CONTINUOUS
10
2.00746
20
-1.93257
11
2.0078
21
-1.93178
0
LINE
8
BLACK
6
CONTINUOUS
10
2.0078
20
-1.93178
11
2.00795
21
-1.93171
0
LINE
8
BLACK
6
CONTINUOUS
10
2.00795
20
-1.93171
11
2.00804
21
-1.93156
0
LINE
8
BLACK
6
CONTINUOUS
10
2.00804
20
-1.93156
11
2.00884
21
-1.93127
0
LINE
8
BLACK
6
CONTINUOUS
10
2.00884
20
-1.93127
11
2.00961
21
-1.93089
0
LINE
8
BLACK
6
CONTINUOUS
10
2.00961
20
-1.93089
11
2.00978
21
-1.93093
0
LINE
8
BLACK
6
CONTINUOUS
10
2.00978
20
-1.93093
11
2.00994
21
-1.93087
0
LINE
8
BLACK
6
CONTINUOUS
10
2.00994
20
-1.93087
11
2.04635
21
-1.93087
0
LINE
8
BLACK
6
CONTINUOUS
10
2.04635
20
-1.93087
11
2.04635
21
-1.92257
0
LINE
8
BLACK
6
CONTINUOUS
10
2.04635
20
-1.92257
11
2.04653
21
-1.92156
0
LINE
8
BLACK
6
CONTINUOUS
10
2.04653
20
-1.92156
11
2.04783
21
-1.92002
0
LINE
8
BLACK
6
CONTINUOUS
10
2.04783
20
-1.92002
11
2.04982
21
-1.91966
0
LINE
8
BLACK
6
CONTINUOUS
10
2.04982
20
-1.91966
11
2.05157
21
-1.92067
0
LINE
8
BLACK
6
CONTINUOUS
10
2.28433
20
-1.84178
11
2.2844
21
-1.84178
0
LINE
8
BLACK
6
CONTINUOUS
10
2.2844
20
-1.84178
11
2.29002
21
-1.84366
0
LINE
8
BLACK
6
CONTINUOUS
10
2.29002
20
-1.84366
11
2.29092
21
-1.84414
0
LINE
8
BLACK
6
CONTINUOUS
10
2.29092
20
-1.84414
11
2.29102
21
-1.84429
0
LINE
8
BLACK
6
CONTINUOUS
10
2.29102
20
-1.84429
11
2.29118
21
-1.84437
0
LINE
8
BLACK
6
CONTINUOUS
10
2.29118
20
-1.84437
11
2.29493
21
-1.84812
0
LINE
8
BLACK
6
CONTINUOUS
10
2.29493
20
-1.84812
11
2.29543
21
-1.84884
0
LINE
8
BLACK
6
CONTINUOUS
10
2.29543
20
-1.84884
11
2.29548
21
-1.84889
0
LINE
8
BLACK
6
CONTINUOUS
10
2.29548
20
-1.84889
11
2.29735
21
-1.85264
0
LINE
8
BLACK
6
CONTINUOUS
10
2.29735
20
-1.85264
11
2.2975
21
-1.85312
0
LINE
8
BLACK
6
CONTINUOUS
10
2.2975
20
-1.85312
11
2.29758
21
-1.85324
0
LINE
8
BLACK
6
CONTINUOUS
10
2.29758
20
-1.85324
11
2.29945
21
-1.86074
0
LINE
8
BLACK
6
CONTINUOUS
10
2.29945
20
-1.86074
11
2.29949
21
-1.86133
0
LINE
8
BLACK
6
CONTINUOUS
10
2.29949
20
-1.86133
11
2.29954
21
-1.86145
0
LINE
8
BLACK
6
CONTINUOUS
10
2.29954
20
-1.86145
11
2.29954
21
-1.86708
0
LINE
8
BLACK
6
CONTINUOUS
10
2.29954
20
-1.86708
11
2.29944
21
-1.86766
0
LINE
8
BLACK
6
CONTINUOUS
10
2.29944
20
-1.86766
11
2.29945
21
-1.8678
0
LINE
8
BLACK
6
CONTINUOUS
10
2.29945
20
-1.8678
11
2.29758
21
-1.87529
0
LINE
8
BLACK
6
CONTINUOUS
10
2.29758
20
-1.87529
11
2.29737
21
-1.87576
0
LINE
8
BLACK
6
CONTINUOUS
10
2.29737
20
-1.87576
11
2.29735
21
-1.8759
0
LINE
8
BLACK
6
CONTINUOUS
10
2.29735
20
-1.8759
11
2.29548
21
-1.87965
0
LINE
8
BLACK
6
CONTINUOUS
10
2.29548
20
-1.87965
11
2.29495
21
-1.88036
0
LINE
8
BLACK
6
CONTINUOUS
10
2.29495
20
-1.88036
11
2.29493
21
-1.88042
0
LINE
8
BLACK
6
CONTINUOUS
10
2.29493
20
-1.88042
11
2.29118
21
-1.88417
0
LINE
8
BLACK
6
CONTINUOUS
10
2.29118
20
-1.88417
11
2.29034
21
-1.88475
0
LINE
8
BLACK
6
CONTINUOUS
10
2.29034
20
-1.88475
11
2.29016
21
-1.88477
0
LINE
8
BLACK
6
CONTINUOUS
10
2.29016
20
-1.88477
11
2.29002
21
-1.88488
0
LINE
8
BLACK
6
CONTINUOUS
10
2.29002
20
-1.88488
11
2.2844
21
-1.88675
0
LINE
8
BLACK
6
CONTINUOUS
10
2.2844
20
-1.88675
11
2.28353
21
-1.88688
0
LINE
8
BLACK
6
CONTINUOUS
10
2.28353
20
-1.88688
11
2.28346
21
-1.8869
0
LINE
8
BLACK
6
CONTINUOUS
10
2.28346
20
-1.8869
11
2.27409
21
-1.8869
0
LINE
8
BLACK
6
CONTINUOUS
10
2.27409
20
-1.8869
11
2.27371
21
-1.88684
0
LINE
8
BLACK
6
CONTINUOUS
10
2.27371
20
-1.88684
11
2.27358
21
-1.88686
0
LINE
8
BLACK
6
CONTINUOUS
10
2.27358
20
-1.88686
11
2.27346
21
-1.88679
0
LINE
8
BLACK
6
CONTINUOUS
10
2.27346
20
-1.88679
11
2.27308
21
-1.88673
0
LINE
8
BLACK
6
CONTINUOUS
10
2.27308
20
-1.88673
11
2.27249
21
-1.88623
0
LINE
8
BLACK
6
CONTINUOUS
10
2.27249
20
-1.88623
11
2.27183
21
-1.88585
0
LINE
8
BLACK
6
CONTINUOUS
10
2.27183
20
-1.88585
11
2.27174
21
-1.8856
0
LINE
8
BLACK
6
CONTINUOUS
10
2.27174
20
-1.8856
11
2.27153
21
-1.88543
0
LINE
8
BLACK
6
CONTINUOUS
10
2.27153
20
-1.88543
11
2.2714
21
-1.88467
0
LINE
8
BLACK
6
CONTINUOUS
10
2.2714
20
-1.88467
11
2.27114
21
-1.88395
0
LINE
8
BLACK
6
CONTINUOUS
10
2.27114
20
-1.88395
11
2.27114
21
-1.84458
0
LINE
8
BLACK
6
CONTINUOUS
10
2.27114
20
-1.84458
11
2.27121
21
-1.8442
0
LINE
8
BLACK
6
CONTINUOUS
10
2.27121
20
-1.8442
11
2.27118
21
-1.84407
0
LINE
8
BLACK
6
CONTINUOUS
10
2.27118
20
-1.84407
11
2.27125
21
-1.84396
0
LINE
8
BLACK
6
CONTINUOUS
10
2.27125
20
-1.84396
11
2.27132
21
-1.84357
0
LINE
8
BLACK
6
CONTINUOUS
10
2.27132
20
-1.84357
11
2.27181
21
-1.84298
0
LINE
8
BLACK
6
CONTINUOUS
10
2.27181
20
-1.84298
11
2.27219
21
-1.84232
0
LINE
8
BLACK
6
CONTINUOUS
10
2.27219
20
-1.84232
11
2.27244
21
-1.84223
0
LINE
8
BLACK
6
CONTINUOUS
10
2.27244
20
-1.84223
11
2.27261
21
-1.84202
0
LINE
8
BLACK
6
CONTINUOUS
10
2.27261
20
-1.84202
11
2.27337
21
-1.84189
0
LINE
8
BLACK
6
CONTINUOUS
10
2.27337
20
-1.84189
11
2.27409
21
-1.84163
0
LINE
8
BLACK
6
CONTINUOUS
10
2.27409
20
-1.84163
11
2.28346
21
-1.84163
0
LINE
8
BLACK
6
CONTINUOUS
10
2.28346
20
-1.84163
11
2.28433
21
-1.84178
0
LINE
8
BLACK
6
CONTINUOUS
10
2.27704
20
-1.84753
11
2.27704
21
-1.881
0
LINE
8
BLACK
6
CONTINUOUS
10
2.27704
20
-1.881
11
2.28299
21
-1.881
0
LINE
8
BLACK
6
CONTINUOUS
10
2.28299
20
-1.881
11
2.28749
21
-1.8795
0
LINE
8
BLACK
6
CONTINUOUS
10
2.28749
20
-1.8795
11
2.29041
21
-1.87658
0
LINE
8
BLACK
6
CONTINUOUS
10
2.29041
20
-1.87658
11
2.29193
21
-1.87355
0
LINE
8
BLACK
6
CONTINUOUS
10
2.29193
20
-1.87355
11
2.29364
21
-1.86672
0
LINE
8
BLACK
6
CONTINUOUS
10
2.29364
20
-1.86672
11
2.29364
21
-1.86182
0
LINE
8
BLACK
6
CONTINUOUS
10
2.29364
20
-1.86182
11
2.29193
21
-1.85499
0
LINE
8
BLACK
6
CONTINUOUS
10
2.29193
20
-1.85499
11
2.29041
21
-1.85196
0
LINE
8
BLACK
6
CONTINUOUS
10
2.29041
20
-1.85196
11
2.28749
21
-1.84904
0
LINE
8
BLACK
6
CONTINUOUS
10
2.28749
20
-1.84904
11
2.28299
21
-1.84753
0
LINE
8
BLACK
6
CONTINUOUS
10
2.28299
20
-1.84753
11
2.27704
21
-1.84753
0
LINE
8
BLACK
6
CONTINUOUS
10
2.32318
20
-1.8417
11
2.32335
21
-1.84167
0
LINE
8
BLACK
6
CONTINUOUS
10
2.32335
20
-1.84167
11
2.32409
21
-1.8421
0
LINE
8
BLACK
6
CONTINUOUS
10
2.32409
20
-1.8421
11
2.32487
21
-1.84245
0
LINE
8
BLACK
6
CONTINUOUS
10
2.32487
20
-1.84245
11
2.32495
21
-1.8426
0
LINE
8
BLACK
6
CONTINUOUS
10
2.32495
20
-1.8426
11
2.3251
21
-1.84268
0
LINE
8
BLACK
6
CONTINUOUS
10
2.3251
20
-1.84268
11
2.32539
21
-1.84349
0
LINE
8
BLACK
6
CONTINUOUS
10
2.32539
20
-1.84349
11
2.32577
21
-1.84426
0
LINE
8
BLACK
6
CONTINUOUS
10
2.32577
20
-1.84426
11
2.32573
21
-1.84442
0
LINE
8
BLACK
6
CONTINUOUS
10
2.32573
20
-1.84442
11
2.32579
21
-1.84458
0
LINE
8
BLACK
6
CONTINUOUS
10
2.32579
20
-1.84458
11
2.32579
21
-1.881
0
LINE
8
BLACK
6
CONTINUOUS
10
2.32579
20
-1.881
11
2.33408
21
-1.881
0
LINE
8
BLACK
6
CONTINUOUS
10
2.33408
20
-1.881
11
2.33509
21
-1.88118
0
LINE
8
BLACK
6
CONTINUOUS
10
2.33509
20
-1.88118
11
2.33664
21
-1.88248
0
LINE
8
BLACK
6
CONTINUOUS
10
2.33664
20
-1.88248
11
2.33699
21
-1.88446
0
LINE
8
BLACK
6
CONTINUOUS
10
2.33699
20
-1.88446
11
2.33598
21
-1.88621
0
LINE
8
BLACK
6
CONTINUOUS
10
2.33598
20
-1.88621
11
2.33408
21
-1.8869
0
LINE
8
BLACK
6
CONTINUOUS
10
2.33408
20
-1.8869
11
2.31159
21
-1.8869
0
LINE
8
BLACK
6
CONTINUOUS
10
2.31159
20
-1.8869
11
2.31058
21
-1.88673
0
LINE
8
BLACK
6
CONTINUOUS
10
2.31058
20
-1.88673
11
2.30903
21
-1.88543
0
LINE
8
BLACK
6
CONTINUOUS
10
2.30903
20
-1.88543
11
2.30868
21
-1.88344
0
LINE
8
BLACK
6
CONTINUOUS
10
2.30868
20
-1.88344
11
2.30969
21
-1.88169
0
LINE
8
BLACK
6
CONTINUOUS
10
2.30969
20
-1.88169
11
2.31159
21
-1.881
0
LINE
8
BLACK
6
CONTINUOUS
10
2.31159
20
-1.881
11
2.31988
21
-1.881
0
LINE
8
BLACK
6
CONTINUOUS
10
2.31988
20
-1.881
11
2.31988
21
-1.85359
0
LINE
8
BLACK
6
CONTINUOUS
10
2.31988
20
-1.85359
11
2.31742
21
-1.85604
0
LINE
8
BLACK
6
CONTINUOUS
10
2.31742
20
-1.85604
11
2.3167
21
-1.85655
0
LINE
8
BLACK
6
CONTINUOUS
10
2.3167
20
-1.85655
11
2.31666
21
-1.8566
0
LINE
8
BLACK
6
CONTINUOUS
10
2.31666
20
-1.8566
11
2.31291
21
-1.85847
0
LINE
8
BLACK
6
CONTINUOUS
10
2.31291
20
-1.85847
11
2.31192
21
-1.85876
0
LINE
8
BLACK
6
CONTINUOUS
10
2.31192
20
-1.85876
11
2.30996
21
-1.85829
0
LINE
8
BLACK
6
CONTINUOUS
10
2.30996
20
-1.85829
11
2.30876
21
-1.85667
0
LINE
8
BLACK
6
CONTINUOUS
10
2.30876
20
-1.85667
11
2.30888
21
-1.85466
0
LINE
8
BLACK
6
CONTINUOUS
10
2.30888
20
-1.85466
11
2.31027
21
-1.85319
0
LINE
8
BLACK
6
CONTINUOUS
10
2.31027
20
-1.85319
11
2.31359
21
-1.85153
0
LINE
8
BLACK
6
CONTINUOUS
10
2.31359
20
-1.85153
11
2.31679
21
-1.84833
0
LINE
8
BLACK
6
CONTINUOUS
10
2.31679
20
-1.84833
11
2.32038
21
-1.84294
0
LINE
8
BLACK
6
CONTINUOUS
10
2.32038
20
-1.84294
11
2.32109
21
-1.8422
0
LINE
8
BLACK
6
CONTINUOUS
10
2.32109
20
-1.8422
11
2.32125
21
-1.84215
0
LINE
8
BLACK
6
CONTINUOUS
10
2.32125
20
-1.84215
11
2.32136
21
-1.84202
0
LINE
8
BLACK
6
CONTINUOUS
10
2.32136
20
-1.84202
11
2.3222
21
-1.84188
0
LINE
8
BLACK
6
CONTINUOUS
10
2.3222
20
-1.84188
11
2.32302
21
-1.84164
0
LINE
8
BLACK
6
CONTINUOUS
10
2.32302
20
-1.84164
11
2.32318
21
-1.8417
0
LINE
8
BLACK
6
CONTINUOUS
10
1.9186
20
-1.78337
11
1.91929
21
-1.78504
0
LINE
8
BLACK
6
CONTINUOUS
10
1.91929
20
-1.78504
11
1.9186
21
-1.78671
0
LINE
8
BLACK
6
CONTINUOUS
10
1.9186
20
-1.78671
11
1.91693
21
-1.7874
0
LINE
8
BLACK
6
CONTINUOUS
10
1.91693
20
-1.7874
11
1.82087
21
-1.7874
0
LINE
8
BLACK
6
CONTINUOUS
10
1.82087
20
-1.7874
11
1.82087
21
-1.88346
0
LINE
8
BLACK
6
CONTINUOUS
10
1.82087
20
-1.88346
11
1.82017
21
-1.88513
0
LINE
8
BLACK
6
CONTINUOUS
10
1.82017
20
-1.88513
11
1.8185
21
-1.88583
0
LINE
8
BLACK
6
CONTINUOUS
10
1.8185
20
-1.88583
11
1.81683
21
-1.88513
0
LINE
8
BLACK
6
CONTINUOUS
10
1.81683
20
-1.88513
11
1.81614
21
-1.88346
0
LINE
8
BLACK
6
CONTINUOUS
10
1.81614
20
-1.88346
11
1.81614
21
-1.78504
0
LINE
8
BLACK
6
CONTINUOUS
10
1.81614
20
-1.78504
11
1.81683
21
-1.78337
0
LINE
8
BLACK
6
CONTINUOUS
10
1.81683
20
-1.78337
11
1.8185
21
-1.78268
0
LINE
8
BLACK
6
CONTINUOUS
10
1.8185
20
-1.78268
11
1.91693
21
-1.78268
0
LINE
8
BLACK
6
CONTINUOUS
10
1.91693
20
-1.78268
11
1.9186
21
-1.78337
0
LINE
8
BLACK
6
CONTINUOUS
10
2.26211
20
-1.84065
11
2.26142
21
-1.83898
0
LINE
8
BLACK
6
CONTINUOUS
10
2.26142
20
-1.83898
11
2.26211
21
-1.83731
0
LINE
8
BLACK
6
CONTINUOUS
10
2.26211
20
-1.83731
11
2.26378
21
-1.83661
0
LINE
8
BLACK
6
CONTINUOUS
10
2.26378
20
-1.83661
11
2.36713
21
-1.83661
0
LINE
8
BLACK
6
CONTINUOUS
10
2.36713
20
-1.83661
11
2.36713
21
-1.76575
0
LINE
8
BLACK
6
CONTINUOUS
10
2.36713
20
-1.76575
11
2.26378
21
-1.76575
0
LINE
8
BLACK
6
CONTINUOUS
10
2.26378
20
-1.76575
11
2.26211
21
-1.76506
0
LINE
8
BLACK
6
CONTINUOUS
10
2.26211
20
-1.76506
11
2.26142
21
-1.76339
0
LINE
8
BLACK
6
CONTINUOUS
10
2.26142
20
-1.76339
11
2.26211
21
-1.76172
0
LINE
8
BLACK
6
CONTINUOUS
10
2.26211
20
-1.76172
11
2.26378
21
-1.76102
0
LINE
8
BLACK
6
CONTINUOUS
10
2.26378
20
-1.76102
11
2.36949
21
-1.76102
0
LINE
8
BLACK
6
CONTINUOUS
10
2.36949
20
-1.76102
11
2.37116
21
-1.76172
0
LINE
8
BLACK
6
CONTINUOUS
10
2.37116
20
-1.76172
11
2.37185
21
-1.76339
0
LINE
8
BLACK
6
CONTINUOUS
10
2.37185
20
-1.76339
11
2.37185
21
-1.83898
0
LINE
8
BLACK
6
CONTINUOUS
10
2.37185
20
-1.83898
11
2.37116
21
-1.84065
0
LINE
8
BLACK
6
CONTINUOUS
10
2.37116
20
-1.84065
11
2.36949
21
-1.84134
0
LINE
8
BLACK
6
CONTINUOUS
10
2.36949
20
-1.84134
11
2.26378
21
-1.84134
0
LINE
8
BLACK
6
CONTINUOUS
10
2.26378
20
-1.84134
11
2.26211
21
-1.84065
0
CIRCLE
8
BLACK
10
1.92126
20
-1.89961
40
0.019685
0
CIRCLE
8
BLACK
10
1.92126
20
-1.99803
40
0.019685
  0
ENDSEC
  0
EOF
