  0
SECTION
  2
HEADER
  9
$ANGBASE
  50
0.0
  9
$ANGDIR
  70
1
  9
$MEASUREMENT
  70
0
  0
ENDSEC
  0
SECTION
  2
TABLES
  0
TABLE
  2
LTYPE
  70
4
  0
LTYPE
  5
40F
  2
CONTINUOUS
  70
0
  3
Solid line
  72
65
  73
0
  40
0.0
  0
LTYPE
  5
410
  2
DASHDOT
 70
0
  3
Dash Dot ____ _ ____ _
 72
65
 73
4
 40
2.0
 49
1.25
 49
-0.25
 49
0.25
 49
-0.25
  0
LTYPE
  5
411
  2
DASHED
 70
0
  3
Dashed __ __ __ __ __
 72
65
 73
2
 40
0.75
 49
0.5
 49
-0.25
  0
LTYPE
  5
43B
  2
DOTTED
 70
0
  3
Dotted .  .  .  .
 72
65
 73
2
 40
0.2
 49
0.0
 49
-0.2
  0
ENDTAB
  0
TABLE
  2
STYLE
  70
4
  0
STYLE
  2
KICAD
  70
0
  40
0
  41
1
  42
1
  50
0
  71
0
  3
isocp.shx
  0
STYLE
  2
KICADB
  70
0
  40
0
  41
1
  42
1
  50
0
  71
0
  3
isocp.shx
  0
STYLE
  2
KICADI
  70
0
  40
0
  41
1
  42
1
  50
15
  71
0
  3
isocp.shx
  0
STYLE
  2
KICADBI
  70
0
  40
0
  41
1
  42
1
  50
15
  71
0
  3
isocp.shx
  0
ENDTAB
  0
TABLE
  2
LAYER
  70
1
  0
LAYER
  2
BLACK
  70
0
  62
7
  6
CONTINUOUS
  0
ENDTAB
  0
ENDSEC
  0
SECTION
  2
ENTITIES
0
LINE
8
BLACK
6
CONTINUOUS
10
2.27397
20
-2.05824
11
2.27413
21
-2.05821
0
LINE
8
BLACK
6
CONTINUOUS
10
2.27413
20
-2.05821
11
2.27488
21
-2.05864
0
LINE
8
BLACK
6
CONTINUOUS
10
2.27488
20
-2.05864
11
2.27566
21
-2.05898
0
LINE
8
BLACK
6
CONTINUOUS
10
2.27566
20
-2.05898
11
2.27574
21
-2.05913
0
LINE
8
BLACK
6
CONTINUOUS
10
2.27574
20
-2.05913
11
2.27588
21
-2.05922
0
LINE
8
BLACK
6
CONTINUOUS
10
2.27588
20
-2.05922
11
2.27618
21
-2.06002
0
LINE
8
BLACK
6
CONTINUOUS
10
2.27618
20
-2.06002
11
2.27656
21
-2.06079
0
LINE
8
BLACK
6
CONTINUOUS
10
2.27656
20
-2.06079
11
2.27652
21
-2.06096
0
LINE
8
BLACK
6
CONTINUOUS
10
2.27652
20
-2.06096
11
2.27657
21
-2.06112
0
LINE
8
BLACK
6
CONTINUOUS
10
2.27657
20
-2.06112
11
2.27657
21
-2.09753
0
LINE
8
BLACK
6
CONTINUOUS
10
2.27657
20
-2.09753
11
2.28487
21
-2.09753
0
LINE
8
BLACK
6
CONTINUOUS
10
2.28487
20
-2.09753
11
2.28588
21
-2.09771
0
LINE
8
BLACK
6
CONTINUOUS
10
2.28588
20
-2.09771
11
2.28743
21
-2.09901
0
LINE
8
BLACK
6
CONTINUOUS
10
2.28743
20
-2.09901
11
2.28778
21
-2.101
0
LINE
8
BLACK
6
CONTINUOUS
10
2.28778
20
-2.101
11
2.28677
21
-2.10275
0
LINE
8
BLACK
6
CONTINUOUS
10
2.28677
20
-2.10275
11
2.28487
21
-2.10344
0
LINE
8
BLACK
6
CONTINUOUS
10
2.28487
20
-2.10344
11
2.26237
21
-2.10344
0
LINE
8
BLACK
6
CONTINUOUS
10
2.26237
20
-2.10344
11
2.26136
21
-2.10326
0
LINE
8
BLACK
6
CONTINUOUS
10
2.26136
20
-2.10326
11
2.25982
21
-2.10196
0
LINE
8
BLACK
6
CONTINUOUS
10
2.25982
20
-2.10196
11
2.25947
21
-2.09997
0
LINE
8
BLACK
6
CONTINUOUS
10
2.25947
20
-2.09997
11
2.26048
21
-2.09823
0
LINE
8
BLACK
6
CONTINUOUS
10
2.26048
20
-2.09823
11
2.26237
21
-2.09753
0
LINE
8
BLACK
6
CONTINUOUS
10
2.26237
20
-2.09753
11
2.27067
21
-2.09753
0
LINE
8
BLACK
6
CONTINUOUS
10
2.27067
20
-2.09753
11
2.27067
21
-2.07012
0
LINE
8
BLACK
6
CONTINUOUS
10
2.27067
20
-2.07012
11
2.26821
21
-2.07258
0
LINE
8
BLACK
6
CONTINUOUS
10
2.26821
20
-2.07258
11
2.26749
21
-2.07309
0
LINE
8
BLACK
6
CONTINUOUS
10
2.26749
20
-2.07309
11
2.26744
21
-2.07313
0
LINE
8
BLACK
6
CONTINUOUS
10
2.26744
20
-2.07313
11
2.26369
21
-2.07501
0
LINE
8
BLACK
6
CONTINUOUS
10
2.26369
20
-2.07501
11
2.26271
21
-2.0753
0
LINE
8
BLACK
6
CONTINUOUS
10
2.26271
20
-2.0753
11
2.26075
21
-2.07483
0
LINE
8
BLACK
6
CONTINUOUS
10
2.26075
20
-2.07483
11
2.25954
21
-2.07321
0
LINE
8
BLACK
6
CONTINUOUS
10
2.25954
20
-2.07321
11
2.25966
21
-2.07119
0
LINE
8
BLACK
6
CONTINUOUS
10
2.25966
20
-2.07119
11
2.26105
21
-2.06972
0
LINE
8
BLACK
6
CONTINUOUS
10
2.26105
20
-2.06972
11
2.26437
21
-2.06806
0
LINE
8
BLACK
6
CONTINUOUS
10
2.26437
20
-2.06806
11
2.26758
21
-2.06486
0
LINE
8
BLACK
6
CONTINUOUS
10
2.26758
20
-2.06486
11
2.27117
21
-2.05948
0
LINE
8
BLACK
6
CONTINUOUS
10
2.27117
20
-2.05948
11
2.27187
21
-2.05874
0
LINE
8
BLACK
6
CONTINUOUS
10
2.27187
20
-2.05874
11
2.27204
21
-2.05869
0
LINE
8
BLACK
6
CONTINUOUS
10
2.27204
20
-2.05869
11
2.27215
21
-2.05856
0
LINE
8
BLACK
6
CONTINUOUS
10
2.27215
20
-2.05856
11
2.27299
21
-2.05841
0
LINE
8
BLACK
6
CONTINUOUS
10
2.27299
20
-2.05841
11
2.27381
21
-2.05817
0
LINE
8
BLACK
6
CONTINUOUS
10
2.27381
20
-2.05817
11
2.27397
21
-2.05824
0
LINE
8
BLACK
6
CONTINUOUS
10
2.24089
20
-2.05834
11
2.24102
21
-2.05846
0
LINE
8
BLACK
6
CONTINUOUS
10
2.24102
20
-2.05846
11
2.2412
21
-2.05848
0
LINE
8
BLACK
6
CONTINUOUS
10
2.2412
20
-2.05848
11
2.24495
21
-2.06035
0
LINE
8
BLACK
6
CONTINUOUS
10
2.24495
20
-2.06035
11
2.24566
21
-2.06088
0
LINE
8
BLACK
6
CONTINUOUS
10
2.24566
20
-2.06088
11
2.24571
21
-2.0609
0
LINE
8
BLACK
6
CONTINUOUS
10
2.24571
20
-2.0609
11
2.24759
21
-2.06278
0
LINE
8
BLACK
6
CONTINUOUS
10
2.24759
20
-2.06278
11
2.24809
21
-2.0635
0
LINE
8
BLACK
6
CONTINUOUS
10
2.24809
20
-2.0635
11
2.24814
21
-2.06355
0
LINE
8
BLACK
6
CONTINUOUS
10
2.24814
20
-2.06355
11
2.25002
21
-2.0673
0
LINE
8
BLACK
6
CONTINUOUS
10
2.25002
20
-2.0673
11
2.25031
21
-2.06828
0
LINE
8
BLACK
6
CONTINUOUS
10
2.25031
20
-2.06828
11
2.25027
21
-2.06845
0
LINE
8
BLACK
6
CONTINUOUS
10
2.25027
20
-2.06845
11
2.25033
21
-2.06862
0
LINE
8
BLACK
6
CONTINUOUS
10
2.25033
20
-2.06862
11
2.25033
21
-2.07424
0
LINE
8
BLACK
6
CONTINUOUS
10
2.25033
20
-2.07424
11
2.25015
21
-2.07525
0
LINE
8
BLACK
6
CONTINUOUS
10
2.25015
20
-2.07525
11
2.25004
21
-2.07539
0
LINE
8
BLACK
6
CONTINUOUS
10
2.25004
20
-2.07539
11
2.25002
21
-2.07556
0
LINE
8
BLACK
6
CONTINUOUS
10
2.25002
20
-2.07556
11
2.24814
21
-2.07931
0
LINE
8
BLACK
6
CONTINUOUS
10
2.24814
20
-2.07931
11
2.24762
21
-2.08002
0
LINE
8
BLACK
6
CONTINUOUS
10
2.24762
20
-2.08002
11
2.24759
21
-2.08008
0
LINE
8
BLACK
6
CONTINUOUS
10
2.24759
20
-2.08008
11
2.24571
21
-2.08195
0
LINE
8
BLACK
6
CONTINUOUS
10
2.24571
20
-2.08195
11
2.24499
21
-2.08246
0
LINE
8
BLACK
6
CONTINUOUS
10
2.24499
20
-2.08246
11
2.24495
21
-2.08251
0
LINE
8
BLACK
6
CONTINUOUS
10
2.24495
20
-2.08251
11
2.2412
21
-2.08438
0
LINE
8
BLACK
6
CONTINUOUS
10
2.2412
20
-2.08438
11
2.24021
21
-2.08467
0
LINE
8
BLACK
6
CONTINUOUS
10
2.24021
20
-2.08467
11
2.24004
21
-2.08463
0
LINE
8
BLACK
6
CONTINUOUS
10
2.24004
20
-2.08463
11
2.23991
21
-2.08468
0
LINE
8
BLACK
6
CONTINUOUS
10
2.23991
20
-2.08468
11
2.24979
21
-2.09879
0
LINE
8
BLACK
6
CONTINUOUS
10
2.24979
20
-2.09879
11
2.25023
21
-2.09972
0
LINE
8
BLACK
6
CONTINUOUS
10
2.25023
20
-2.09972
11
2.25005
21
-2.10174
0
LINE
8
BLACK
6
CONTINUOUS
10
2.25005
20
-2.10174
11
2.24862
21
-2.10316
0
LINE
8
BLACK
6
CONTINUOUS
10
2.24862
20
-2.10316
11
2.24661
21
-2.10334
0
LINE
8
BLACK
6
CONTINUOUS
10
2.24661
20
-2.10334
11
2.24496
21
-2.10218
0
LINE
8
BLACK
6
CONTINUOUS
10
2.24496
20
-2.10218
11
2.23271
21
-2.08469
0
LINE
8
BLACK
6
CONTINUOUS
10
2.23271
20
-2.08469
11
2.22783
21
-2.08469
0
LINE
8
BLACK
6
CONTINUOUS
10
2.22783
20
-2.08469
11
2.22783
21
-2.10049
0
LINE
8
BLACK
6
CONTINUOUS
10
2.22783
20
-2.10049
11
2.22765
21
-2.1015
0
LINE
8
BLACK
6
CONTINUOUS
10
2.22765
20
-2.1015
11
2.22635
21
-2.10304
0
LINE
8
BLACK
6
CONTINUOUS
10
2.22635
20
-2.10304
11
2.22437
21
-2.1034
0
LINE
8
BLACK
6
CONTINUOUS
10
2.22437
20
-2.1034
11
2.22262
21
-2.10239
0
LINE
8
BLACK
6
CONTINUOUS
10
2.22262
20
-2.10239
11
2.22193
21
-2.10049
0
LINE
8
BLACK
6
CONTINUOUS
10
2.22193
20
-2.10049
11
2.22193
21
-2.06112
0
LINE
8
BLACK
6
CONTINUOUS
10
2.22193
20
-2.06112
11
2.22199
21
-2.06073
0
LINE
8
BLACK
6
CONTINUOUS
10
2.22199
20
-2.06073
11
2.22197
21
-2.0606
0
LINE
8
BLACK
6
CONTINUOUS
10
2.22197
20
-2.0606
11
2.22204
21
-2.06049
0
LINE
8
BLACK
6
CONTINUOUS
10
2.22204
20
-2.06049
11
2.2221
21
-2.06011
0
LINE
8
BLACK
6
CONTINUOUS
10
2.2221
20
-2.06011
11
2.2226
21
-2.05952
0
LINE
8
BLACK
6
CONTINUOUS
10
2.2226
20
-2.05952
11
2.22298
21
-2.05886
0
LINE
8
BLACK
6
CONTINUOUS
10
2.22298
20
-2.05886
11
2.22323
21
-2.05876
0
LINE
8
BLACK
6
CONTINUOUS
10
2.22323
20
-2.05876
11
2.2234
21
-2.05856
0
LINE
8
BLACK
6
CONTINUOUS
10
2.2234
20
-2.05856
11
2.22416
21
-2.05843
0
LINE
8
BLACK
6
CONTINUOUS
10
2.22416
20
-2.05843
11
2.22488
21
-2.05816
0
LINE
8
BLACK
6
CONTINUOUS
10
2.22488
20
-2.05816
11
2.23988
21
-2.05816
0
LINE
8
BLACK
6
CONTINUOUS
10
2.23988
20
-2.05816
11
2.24089
21
-2.05834
0
LINE
8
BLACK
6
CONTINUOUS
10
2.22783
20
-2.06407
11
2.22783
21
-2.07879
0
LINE
8
BLACK
6
CONTINUOUS
10
2.22783
20
-2.07879
11
2.23918
21
-2.07879
0
LINE
8
BLACK
6
CONTINUOUS
10
2.23918
20
-2.07879
11
2.24188
21
-2.07744
0
LINE
8
BLACK
6
CONTINUOUS
10
2.24188
20
-2.07744
11
2.24307
21
-2.07624
0
LINE
8
BLACK
6
CONTINUOUS
10
2.24307
20
-2.07624
11
2.24442
21
-2.07354
0
LINE
8
BLACK
6
CONTINUOUS
10
2.24442
20
-2.07354
11
2.24442
21
-2.06931
0
LINE
8
BLACK
6
CONTINUOUS
10
2.24442
20
-2.06931
11
2.24307
21
-2.06662
0
LINE
8
BLACK
6
CONTINUOUS
10
2.24307
20
-2.06662
11
2.24188
21
-2.06542
0
LINE
8
BLACK
6
CONTINUOUS
10
2.24188
20
-2.06542
11
2.23918
21
-2.06407
0
LINE
8
BLACK
6
CONTINUOUS
10
2.23918
20
-2.06407
11
2.22783
21
-2.06407
0
LINE
8
BLACK
6
CONTINUOUS
10
1.94675
20
-2.10246
11
1.94606
21
-2.10079
0
LINE
8
BLACK
6
CONTINUOUS
10
1.94606
20
-2.10079
11
1.94606
21
-1.79685
0
LINE
8
BLACK
6
CONTINUOUS
10
1.94606
20
-1.79685
11
1.94675
21
-1.79518
0
LINE
8
BLACK
6
CONTINUOUS
10
1.94675
20
-1.79518
11
1.94843
21
-1.79449
0
LINE
8
BLACK
6
CONTINUOUS
10
1.94843
20
-1.79449
11
2.10669
21
-1.79449
0
LINE
8
BLACK
6
CONTINUOUS
10
2.10669
20
-1.79449
11
2.10836
21
-1.79518
0
LINE
8
BLACK
6
CONTINUOUS
10
2.10836
20
-1.79518
11
2.10906
21
-1.79685
0
LINE
8
BLACK
6
CONTINUOUS
10
2.10906
20
-1.79685
11
2.10906
21
-2.10079
0
LINE
8
BLACK
6
CONTINUOUS
10
2.10906
20
-2.10079
11
2.10836
21
-2.10246
0
LINE
8
BLACK
6
CONTINUOUS
10
2.10836
20
-2.10246
11
2.10669
21
-2.10315
0
LINE
8
BLACK
6
CONTINUOUS
10
2.10669
20
-2.10315
11
1.94843
21
-2.10315
0
LINE
8
BLACK
6
CONTINUOUS
10
1.94843
20
-2.10315
11
1.94675
21
-2.10246
0
LINE
8
BLACK
6
CONTINUOUS
10
1.95079
20
-2.06378
11
1.95079
21
-2.09843
0
LINE
8
BLACK
6
CONTINUOUS
10
1.95079
20
-2.09843
11
2.00512
21
-2.09843
0
LINE
8
BLACK
6
CONTINUOUS
10
2.00512
20
-2.09843
11
2.00512
21
-2.06378
0
LINE
8
BLACK
6
CONTINUOUS
10
2.00512
20
-2.06378
11
1.95079
21
-2.06378
0
LINE
8
BLACK
6
CONTINUOUS
10
1.95079
20
-2.05906
11
2.00748
21
-2.05906
0
LINE
8
BLACK
6
CONTINUOUS
10
2.00748
20
-2.05906
11
2.00915
21
-2.05975
0
LINE
8
BLACK
6
CONTINUOUS
10
2.00915
20
-2.05975
11
2.00984
21
-2.06142
0
LINE
8
BLACK
6
CONTINUOUS
10
2.00984
20
-2.06142
11
2.00984
21
-2.09843
0
LINE
8
BLACK
6
CONTINUOUS
10
2.00984
20
-2.09843
11
2.03701
21
-2.09843
0
LINE
8
BLACK
6
CONTINUOUS
10
2.03701
20
-2.09843
11
2.03701
21
-2.0811
0
LINE
8
BLACK
6
CONTINUOUS
10
2.03701
20
-2.0811
11
2.0377
21
-2.07943
0
LINE
8
BLACK
6
CONTINUOUS
10
2.0377
20
-2.07943
11
2.03937
21
-2.07874
0
LINE
8
BLACK
6
CONTINUOUS
10
2.03937
20
-2.07874
11
2.08465
21
-2.07874
0
LINE
8
BLACK
6
CONTINUOUS
10
2.08465
20
-2.07874
11
2.08465
21
-1.8189
0
LINE
8
BLACK
6
CONTINUOUS
10
2.08465
20
-1.8189
11
2.03937
21
-1.8189
0
LINE
8
BLACK
6
CONTINUOUS
10
2.03937
20
-1.8189
11
2.0377
21
-1.81821
0
LINE
8
BLACK
6
CONTINUOUS
10
2.0377
20
-1.81821
11
2.03701
21
-1.81654
0
LINE
8
BLACK
6
CONTINUOUS
10
2.03701
20
-1.81654
11
2.03701
21
-1.79921
0
LINE
8
BLACK
6
CONTINUOUS
10
2.03701
20
-1.79921
11
2.00984
21
-1.79921
0
LINE
8
BLACK
6
CONTINUOUS
10
2.00984
20
-1.79921
11
2.00984
21
-1.83622
0
LINE
8
BLACK
6
CONTINUOUS
10
2.00984
20
-1.83622
11
2.00915
21
-1.83789
0
LINE
8
BLACK
6
CONTINUOUS
10
2.00915
20
-1.83789
11
2.00748
21
-1.83858
0
LINE
8
BLACK
6
CONTINUOUS
10
2.00748
20
-1.83858
11
1.95079
21
-1.83858
0
LINE
8
BLACK
6
CONTINUOUS
10
1.95079
20
-1.83858
11
1.95079
21
-2.05906
0
LINE
8
BLACK
6
CONTINUOUS
10
2.08937
20
-1.81654
11
2.08937
21
-2.0811
0
LINE
8
BLACK
6
CONTINUOUS
10
2.08937
20
-2.0811
11
2.08868
21
-2.08277
0
LINE
8
BLACK
6
CONTINUOUS
10
2.08868
20
-2.08277
11
2.08701
21
-2.08346
0
LINE
8
BLACK
6
CONTINUOUS
10
2.08701
20
-2.08346
11
2.04173
21
-2.08346
0
LINE
8
BLACK
6
CONTINUOUS
10
2.04173
20
-2.08346
11
2.04173
21
-2.09843
0
LINE
8
BLACK
6
CONTINUOUS
10
2.04173
20
-2.09843
11
2.10433
21
-2.09843
0
LINE
8
BLACK
6
CONTINUOUS
10
2.10433
20
-2.09843
11
2.10433
21
-1.79921
0
LINE
8
BLACK
6
CONTINUOUS
10
2.10433
20
-1.79921
11
2.04173
21
-1.79921
0
LINE
8
BLACK
6
CONTINUOUS
10
2.04173
20
-1.79921
11
2.04173
21
-1.81417
0
LINE
8
BLACK
6
CONTINUOUS
10
2.04173
20
-1.81417
11
2.08701
21
-1.81417
0
LINE
8
BLACK
6
CONTINUOUS
10
2.08701
20
-1.81417
11
2.08868
21
-1.81487
0
LINE
8
BLACK
6
CONTINUOUS
10
2.08868
20
-1.81487
11
2.08937
21
-1.81654
0
LINE
8
BLACK
6
CONTINUOUS
10
1.95079
20
-1.79921
11
1.95079
21
-1.83386
0
LINE
8
BLACK
6
CONTINUOUS
10
1.95079
20
-1.83386
11
2.00512
21
-1.83386
0
LINE
8
BLACK
6
CONTINUOUS
10
2.00512
20
-1.83386
11
2.00512
21
-1.79921
0
LINE
8
BLACK
6
CONTINUOUS
10
2.00512
20
-1.79921
11
1.95079
21
-1.79921
0
LINE
8
BLACK
6
CONTINUOUS
10
2.26455
20
-2.04498
11
2.26524
21
-2.04665
0
LINE
8
BLACK
6
CONTINUOUS
10
2.26524
20
-2.04665
11
2.26455
21
-2.04832
0
LINE
8
BLACK
6
CONTINUOUS
10
2.26455
20
-2.04832
11
2.26288
21
-2.04902
0
LINE
8
BLACK
6
CONTINUOUS
10
2.26288
20
-2.04902
11
2.245
21
-2.04902
0
LINE
8
BLACK
6
CONTINUOUS
10
2.245
20
-2.04902
11
2.24333
21
-2.04832
0
LINE
8
BLACK
6
CONTINUOUS
10
2.24333
20
-2.04832
11
2.24264
21
-2.04665
0
LINE
8
BLACK
6
CONTINUOUS
10
2.24264
20
-2.04665
11
2.24333
21
-2.04498
0
LINE
8
BLACK
6
CONTINUOUS
10
2.24333
20
-2.04498
11
2.245
21
-2.04429
0
LINE
8
BLACK
6
CONTINUOUS
10
2.245
20
-2.04429
11
2.26288
21
-2.04429
0
LINE
8
BLACK
6
CONTINUOUS
10
2.26288
20
-2.04429
11
2.26455
21
-2.04498
0
LINE
8
BLACK
6
CONTINUOUS
10
2.26455
20
-1.98711
11
2.26524
21
-1.98878
0
LINE
8
BLACK
6
CONTINUOUS
10
2.26524
20
-1.98878
11
2.26455
21
-1.99045
0
LINE
8
BLACK
6
CONTINUOUS
10
2.26455
20
-1.99045
11
2.26288
21
-1.99114
0
LINE
8
BLACK
6
CONTINUOUS
10
2.26288
20
-1.99114
11
2.245
21
-1.99114
0
LINE
8
BLACK
6
CONTINUOUS
10
2.245
20
-1.99114
11
2.24333
21
-1.99045
0
LINE
8
BLACK
6
CONTINUOUS
10
2.24333
20
-1.99045
11
2.24264
21
-1.98878
0
LINE
8
BLACK
6
CONTINUOUS
10
2.24264
20
-1.98878
11
2.24333
21
-1.98711
0
LINE
8
BLACK
6
CONTINUOUS
10
2.24333
20
-1.98711
11
2.245
21
-1.98642
0
LINE
8
BLACK
6
CONTINUOUS
10
2.245
20
-1.98642
11
2.26288
21
-1.98642
0
LINE
8
BLACK
6
CONTINUOUS
10
2.26288
20
-1.98642
11
2.26455
21
-1.98711
0
LINE
8
BLACK
6
CONTINUOUS
10
2.15704
20
-1.95914
11
2.1571
21
-1.95914
0
LINE
8
BLACK
6
CONTINUOUS
10
2.1571
20
-1.95914
11
2.16273
21
-1.96102
0
LINE
8
BLACK
6
CONTINUOUS
10
2.16273
20
-1.96102
11
2.16363
21
-1.9615
0
LINE
8
BLACK
6
CONTINUOUS
10
2.16363
20
-1.9615
11
2.16372
21
-1.96165
0
LINE
8
BLACK
6
CONTINUOUS
10
2.16372
20
-1.96165
11
2.16388
21
-1.96173
0
LINE
8
BLACK
6
CONTINUOUS
10
2.16388
20
-1.96173
11
2.16763
21
-1.96548
0
LINE
8
BLACK
6
CONTINUOUS
10
2.16763
20
-1.96548
11
2.16822
21
-1.96632
0
LINE
8
BLACK
6
CONTINUOUS
10
2.16822
20
-1.96632
11
2.16823
21
-1.96649
0
LINE
8
BLACK
6
CONTINUOUS
10
2.16823
20
-1.96649
11
2.16834
21
-1.96663
0
LINE
8
BLACK
6
CONTINUOUS
10
2.16834
20
-1.96663
11
2.17022
21
-1.97226
0
LINE
8
BLACK
6
CONTINUOUS
10
2.17022
20
-1.97226
11
2.17035
21
-1.97313
0
LINE
8
BLACK
6
CONTINUOUS
10
2.17035
20
-1.97313
11
2.17037
21
-1.97319
0
LINE
8
BLACK
6
CONTINUOUS
10
2.17037
20
-1.97319
11
2.17037
21
-1.97694
0
LINE
8
BLACK
6
CONTINUOUS
10
2.17037
20
-1.97694
11
2.17019
21
-1.97795
0
LINE
8
BLACK
6
CONTINUOUS
10
2.17019
20
-1.97795
11
2.16889
21
-1.9795
0
LINE
8
BLACK
6
CONTINUOUS
10
2.16889
20
-1.9795
11
2.1669
21
-1.97985
0
LINE
8
BLACK
6
CONTINUOUS
10
2.1669
20
-1.97985
11
2.16515
21
-1.97884
0
LINE
8
BLACK
6
CONTINUOUS
10
2.16515
20
-1.97884
11
2.16446
21
-1.97694
0
LINE
8
BLACK
6
CONTINUOUS
10
2.16446
20
-1.97694
11
2.16446
21
-1.97367
0
LINE
8
BLACK
6
CONTINUOUS
10
2.16446
20
-1.97367
11
2.16296
21
-1.96916
0
LINE
8
BLACK
6
CONTINUOUS
10
2.16296
20
-1.96916
11
2.1602
21
-1.9664
0
LINE
8
BLACK
6
CONTINUOUS
10
2.1602
20
-1.9664
11
2.15569
21
-1.9649
0
LINE
8
BLACK
6
CONTINUOUS
10
2.15569
20
-1.9649
11
2.12805
21
-1.9649
0
LINE
8
BLACK
6
CONTINUOUS
10
2.12805
20
-1.9649
11
2.12704
21
-1.96472
0
LINE
8
BLACK
6
CONTINUOUS
10
2.12704
20
-1.96472
11
2.12549
21
-1.96342
0
LINE
8
BLACK
6
CONTINUOUS
10
2.12549
20
-1.96342
11
2.12514
21
-1.96143
0
LINE
8
BLACK
6
CONTINUOUS
10
2.12514
20
-1.96143
11
2.12615
21
-1.95968
0
LINE
8
BLACK
6
CONTINUOUS
10
2.12615
20
-1.95968
11
2.12805
21
-1.95899
0
LINE
8
BLACK
6
CONTINUOUS
10
2.12805
20
-1.95899
11
2.15617
21
-1.95899
0
LINE
8
BLACK
6
CONTINUOUS
10
2.15617
20
-1.95899
11
2.15704
21
-1.95914
0
LINE
8
BLACK
6
CONTINUOUS
10
2.23512
20
-1.91068
11
2.23519
21
-1.91068
0
LINE
8
BLACK
6
CONTINUOUS
10
2.23519
20
-1.91068
11
2.24081
21
-1.91255
0
LINE
8
BLACK
6
CONTINUOUS
10
2.24081
20
-1.91255
11
2.24171
21
-1.91304
0
LINE
8
BLACK
6
CONTINUOUS
10
2.24171
20
-1.91304
11
2.2418
21
-1.91319
0
LINE
8
BLACK
6
CONTINUOUS
10
2.2418
20
-1.91319
11
2.24196
21
-1.91327
0
LINE
8
BLACK
6
CONTINUOUS
10
2.24196
20
-1.91327
11
2.24571
21
-1.91702
0
LINE
8
BLACK
6
CONTINUOUS
10
2.24571
20
-1.91702
11
2.24622
21
-1.91774
0
LINE
8
BLACK
6
CONTINUOUS
10
2.24622
20
-1.91774
11
2.24627
21
-1.91778
0
LINE
8
BLACK
6
CONTINUOUS
10
2.24627
20
-1.91778
11
2.24814
21
-1.92153
0
LINE
8
BLACK
6
CONTINUOUS
10
2.24814
20
-1.92153
11
2.24829
21
-1.92202
0
LINE
8
BLACK
6
CONTINUOUS
10
2.24829
20
-1.92202
11
2.24837
21
-1.92214
0
LINE
8
BLACK
6
CONTINUOUS
10
2.24837
20
-1.92214
11
2.25024
21
-1.92964
0
LINE
8
BLACK
6
CONTINUOUS
10
2.25024
20
-1.92964
11
2.25028
21
-1.93022
0
LINE
8
BLACK
6
CONTINUOUS
10
2.25028
20
-1.93022
11
2.25033
21
-1.93035
0
LINE
8
BLACK
6
CONTINUOUS
10
2.25033
20
-1.93035
11
2.25033
21
-1.93598
0
LINE
8
BLACK
6
CONTINUOUS
10
2.25033
20
-1.93598
11
2.25023
21
-1.93656
0
LINE
8
BLACK
6
CONTINUOUS
10
2.25023
20
-1.93656
11
2.25024
21
-1.93669
0
LINE
8
BLACK
6
CONTINUOUS
10
2.25024
20
-1.93669
11
2.24837
21
-1.94419
0
LINE
8
BLACK
6
CONTINUOUS
10
2.24837
20
-1.94419
11
2.24816
21
-1.94466
0
LINE
8
BLACK
6
CONTINUOUS
10
2.24816
20
-1.94466
11
2.24814
21
-1.9448
0
LINE
8
BLACK
6
CONTINUOUS
10
2.24814
20
-1.9448
11
2.24627
21
-1.94855
0
LINE
8
BLACK
6
CONTINUOUS
10
2.24627
20
-1.94855
11
2.24574
21
-1.94925
0
LINE
8
BLACK
6
CONTINUOUS
10
2.24574
20
-1.94925
11
2.24571
21
-1.94931
0
LINE
8
BLACK
6
CONTINUOUS
10
2.24571
20
-1.94931
11
2.24196
21
-1.95306
0
LINE
8
BLACK
6
CONTINUOUS
10
2.24196
20
-1.95306
11
2.24112
21
-1.95365
0
LINE
8
BLACK
6
CONTINUOUS
10
2.24112
20
-1.95365
11
2.24095
21
-1.95367
0
LINE
8
BLACK
6
CONTINUOUS
10
2.24095
20
-1.95367
11
2.24081
21
-1.95378
0
LINE
8
BLACK
6
CONTINUOUS
10
2.24081
20
-1.95378
11
2.23519
21
-1.95565
0
LINE
8
BLACK
6
CONTINUOUS
10
2.23519
20
-1.95565
11
2.23431
21
-1.95578
0
LINE
8
BLACK
6
CONTINUOUS
10
2.23431
20
-1.95578
11
2.23425
21
-1.9558
0
LINE
8
BLACK
6
CONTINUOUS
10
2.23425
20
-1.9558
11
2.22488
21
-1.9558
0
LINE
8
BLACK
6
CONTINUOUS
10
2.22488
20
-1.9558
11
2.22449
21
-1.95573
0
LINE
8
BLACK
6
CONTINUOUS
10
2.22449
20
-1.95573
11
2.22437
21
-1.95576
0
LINE
8
BLACK
6
CONTINUOUS
10
2.22437
20
-1.95576
11
2.22425
21
-1.95569
0
LINE
8
BLACK
6
CONTINUOUS
10
2.22425
20
-1.95569
11
2.22387
21
-1.95562
0
LINE
8
BLACK
6
CONTINUOUS
10
2.22387
20
-1.95562
11
2.22328
21
-1.95513
0
LINE
8
BLACK
6
CONTINUOUS
10
2.22328
20
-1.95513
11
2.22262
21
-1.95475
0
LINE
8
BLACK
6
CONTINUOUS
10
2.22262
20
-1.95475
11
2.22253
21
-1.9545
0
LINE
8
BLACK
6
CONTINUOUS
10
2.22253
20
-1.9545
11
2.22232
21
-1.95433
0
LINE
8
BLACK
6
CONTINUOUS
10
2.22232
20
-1.95433
11
2.22219
21
-1.95357
0
LINE
8
BLACK
6
CONTINUOUS
10
2.22219
20
-1.95357
11
2.22193
21
-1.95285
0
LINE
8
BLACK
6
CONTINUOUS
10
2.22193
20
-1.95285
11
2.22193
21
-1.91348
0
LINE
8
BLACK
6
CONTINUOUS
10
2.22193
20
-1.91348
11
2.22199
21
-1.9131
0
LINE
8
BLACK
6
CONTINUOUS
10
2.22199
20
-1.9131
11
2.22197
21
-1.91297
0
LINE
8
BLACK
6
CONTINUOUS
10
2.22197
20
-1.91297
11
2.22204
21
-1.91285
0
LINE
8
BLACK
6
CONTINUOUS
10
2.22204
20
-1.91285
11
2.2221
21
-1.91247
0
LINE
8
BLACK
6
CONTINUOUS
10
2.2221
20
-1.91247
11
2.2226
21
-1.91188
0
LINE
8
BLACK
6
CONTINUOUS
10
2.2226
20
-1.91188
11
2.22298
21
-1.91122
0
LINE
8
BLACK
6
CONTINUOUS
10
2.22298
20
-1.91122
11
2.22323
21
-1.91113
0
LINE
8
BLACK
6
CONTINUOUS
10
2.22323
20
-1.91113
11
2.2234
21
-1.91092
0
LINE
8
BLACK
6
CONTINUOUS
10
2.2234
20
-1.91092
11
2.22416
21
-1.91079
0
LINE
8
BLACK
6
CONTINUOUS
10
2.22416
20
-1.91079
11
2.22488
21
-1.91053
0
LINE
8
BLACK
6
CONTINUOUS
10
2.22488
20
-1.91053
11
2.23425
21
-1.91053
0
LINE
8
BLACK
6
CONTINUOUS
10
2.23425
20
-1.91053
11
2.23512
21
-1.91068
0
LINE
8
BLACK
6
CONTINUOUS
10
2.22783
20
-1.91643
11
2.22783
21
-1.9499
0
LINE
8
BLACK
6
CONTINUOUS
10
2.22783
20
-1.9499
11
2.23377
21
-1.9499
0
LINE
8
BLACK
6
CONTINUOUS
10
2.23377
20
-1.9499
11
2.23828
21
-1.94839
0
LINE
8
BLACK
6
CONTINUOUS
10
2.23828
20
-1.94839
11
2.2412
21
-1.94548
0
LINE
8
BLACK
6
CONTINUOUS
10
2.2412
20
-1.94548
11
2.24271
21
-1.94245
0
LINE
8
BLACK
6
CONTINUOUS
10
2.24271
20
-1.94245
11
2.24442
21
-1.93561
0
LINE
8
BLACK
6
CONTINUOUS
10
2.24442
20
-1.93561
11
2.24442
21
-1.93072
0
LINE
8
BLACK
6
CONTINUOUS
10
2.24442
20
-1.93072
11
2.24271
21
-1.92388
0
LINE
8
BLACK
6
CONTINUOUS
10
2.24271
20
-1.92388
11
2.2412
21
-1.92085
0
LINE
8
BLACK
6
CONTINUOUS
10
2.2412
20
-1.92085
11
2.23828
21
-1.91794
0
LINE
8
BLACK
6
CONTINUOUS
10
2.23828
20
-1.91794
11
2.23377
21
-1.91643
0
LINE
8
BLACK
6
CONTINUOUS
10
2.23377
20
-1.91643
11
2.22783
21
-1.91643
0
LINE
8
BLACK
6
CONTINUOUS
10
2.27397
20
-1.9106
11
2.27413
21
-1.91057
0
LINE
8
BLACK
6
CONTINUOUS
10
2.27413
20
-1.91057
11
2.27488
21
-1.911
0
LINE
8
BLACK
6
CONTINUOUS
10
2.27488
20
-1.911
11
2.27566
21
-1.91134
0
LINE
8
BLACK
6
CONTINUOUS
10
2.27566
20
-1.91134
11
2.27574
21
-1.9115
0
LINE
8
BLACK
6
CONTINUOUS
10
2.27574
20
-1.9115
11
2.27588
21
-1.91158
0
LINE
8
BLACK
6
CONTINUOUS
10
2.27588
20
-1.91158
11
2.27618
21
-1.91239
0
LINE
8
BLACK
6
CONTINUOUS
10
2.27618
20
-1.91239
11
2.27656
21
-1.91315
0
LINE
8
BLACK
6
CONTINUOUS
10
2.27656
20
-1.91315
11
2.27652
21
-1.91332
0
LINE
8
BLACK
6
CONTINUOUS
10
2.27652
20
-1.91332
11
2.27657
21
-1.91348
0
LINE
8
BLACK
6
CONTINUOUS
10
2.27657
20
-1.91348
11
2.27657
21
-1.9499
0
LINE
8
BLACK
6
CONTINUOUS
10
2.27657
20
-1.9499
11
2.28487
21
-1.9499
0
LINE
8
BLACK
6
CONTINUOUS
10
2.28487
20
-1.9499
11
2.28588
21
-1.95007
0
LINE
8
BLACK
6
CONTINUOUS
10
2.28588
20
-1.95007
11
2.28743
21
-1.95137
0
LINE
8
BLACK
6
CONTINUOUS
10
2.28743
20
-1.95137
11
2.28778
21
-1.95336
0
LINE
8
BLACK
6
CONTINUOUS
10
2.28778
20
-1.95336
11
2.28677
21
-1.95511
0
LINE
8
BLACK
6
CONTINUOUS
10
2.28677
20
-1.95511
11
2.28487
21
-1.9558
0
LINE
8
BLACK
6
CONTINUOUS
10
2.28487
20
-1.9558
11
2.26237
21
-1.9558
0
LINE
8
BLACK
6
CONTINUOUS
10
2.26237
20
-1.9558
11
2.26136
21
-1.95562
0
LINE
8
BLACK
6
CONTINUOUS
10
2.26136
20
-1.95562
11
2.25982
21
-1.95433
0
LINE
8
BLACK
6
CONTINUOUS
10
2.25982
20
-1.95433
11
2.25947
21
-1.95234
0
LINE
8
BLACK
6
CONTINUOUS
10
2.25947
20
-1.95234
11
2.26048
21
-1.95059
0
LINE
8
BLACK
6
CONTINUOUS
10
2.26048
20
-1.95059
11
2.26237
21
-1.9499
0
LINE
8
BLACK
6
CONTINUOUS
10
2.26237
20
-1.9499
11
2.27067
21
-1.9499
0
LINE
8
BLACK
6
CONTINUOUS
10
2.27067
20
-1.9499
11
2.27067
21
-1.92248
0
LINE
8
BLACK
6
CONTINUOUS
10
2.27067
20
-1.92248
11
2.26821
21
-1.92494
0
LINE
8
BLACK
6
CONTINUOUS
10
2.26821
20
-1.92494
11
2.26749
21
-1.92545
0
LINE
8
BLACK
6
CONTINUOUS
10
2.26749
20
-1.92545
11
2.26744
21
-1.92549
0
LINE
8
BLACK
6
CONTINUOUS
10
2.26744
20
-1.92549
11
2.26369
21
-1.92737
0
LINE
8
BLACK
6
CONTINUOUS
10
2.26369
20
-1.92737
11
2.26271
21
-1.92766
0
LINE
8
BLACK
6
CONTINUOUS
10
2.26271
20
-1.92766
11
2.26075
21
-1.92719
0
LINE
8
BLACK
6
CONTINUOUS
10
2.26075
20
-1.92719
11
2.25954
21
-1.92557
0
LINE
8
BLACK
6
CONTINUOUS
10
2.25954
20
-1.92557
11
2.25966
21
-1.92355
0
LINE
8
BLACK
6
CONTINUOUS
10
2.25966
20
-1.92355
11
2.26105
21
-1.92209
0
LINE
8
BLACK
6
CONTINUOUS
10
2.26105
20
-1.92209
11
2.26437
21
-1.92043
0
LINE
8
BLACK
6
CONTINUOUS
10
2.26437
20
-1.92043
11
2.26758
21
-1.91722
0
LINE
8
BLACK
6
CONTINUOUS
10
2.26758
20
-1.91722
11
2.27117
21
-1.91184
0
LINE
8
BLACK
6
CONTINUOUS
10
2.27117
20
-1.91184
11
2.27187
21
-1.9111
0
LINE
8
BLACK
6
CONTINUOUS
10
2.27187
20
-1.9111
11
2.27204
21
-1.91105
0
LINE
8
BLACK
6
CONTINUOUS
10
2.27204
20
-1.91105
11
2.27215
21
-1.91092
0
LINE
8
BLACK
6
CONTINUOUS
10
2.27215
20
-1.91092
11
2.27299
21
-1.91077
0
LINE
8
BLACK
6
CONTINUOUS
10
2.27299
20
-1.91077
11
2.27381
21
-1.91053
0
LINE
8
BLACK
6
CONTINUOUS
10
2.27381
20
-1.91053
11
2.27397
21
-1.9106
0
LINE
8
BLACK
6
CONTINUOUS
10
2.16968
20
-1.92067
11
2.17037
21
-1.92257
0
LINE
8
BLACK
6
CONTINUOUS
10
2.17037
20
-1.92257
11
2.17037
21
-1.94507
0
LINE
8
BLACK
6
CONTINUOUS
10
2.17037
20
-1.94507
11
2.17019
21
-1.94608
0
LINE
8
BLACK
6
CONTINUOUS
10
2.17019
20
-1.94608
11
2.16889
21
-1.94763
0
LINE
8
BLACK
6
CONTINUOUS
10
2.16889
20
-1.94763
11
2.1669
21
-1.94798
0
LINE
8
BLACK
6
CONTINUOUS
10
2.1669
20
-1.94798
11
2.16515
21
-1.94697
0
LINE
8
BLACK
6
CONTINUOUS
10
2.16515
20
-1.94697
11
2.16446
21
-1.94507
0
LINE
8
BLACK
6
CONTINUOUS
10
2.16446
20
-1.94507
11
2.16446
21
-1.93677
0
LINE
8
BLACK
6
CONTINUOUS
10
2.16446
20
-1.93677
11
2.13705
21
-1.93677
0
LINE
8
BLACK
6
CONTINUOUS
10
2.13705
20
-1.93677
11
2.13951
21
-1.93923
0
LINE
8
BLACK
6
CONTINUOUS
10
2.13951
20
-1.93923
11
2.14001
21
-1.93996
0
LINE
8
BLACK
6
CONTINUOUS
10
2.14001
20
-1.93996
11
2.14006
21
-1.94
0
LINE
8
BLACK
6
CONTINUOUS
10
2.14006
20
-1.94
11
2.14194
21
-1.94375
0
LINE
8
BLACK
6
CONTINUOUS
10
2.14194
20
-1.94375
11
2.14223
21
-1.94473
0
LINE
8
BLACK
6
CONTINUOUS
10
2.14223
20
-1.94473
11
2.14176
21
-1.9467
0
LINE
8
BLACK
6
CONTINUOUS
10
2.14176
20
-1.9467
11
2.14014
21
-1.9479
0
LINE
8
BLACK
6
CONTINUOUS
10
2.14014
20
-1.9479
11
2.13812
21
-1.94778
0
LINE
8
BLACK
6
CONTINUOUS
10
2.13812
20
-1.94778
11
2.13665
21
-1.94639
0
LINE
8
BLACK
6
CONTINUOUS
10
2.13665
20
-1.94639
11
2.13499
21
-1.94307
0
LINE
8
BLACK
6
CONTINUOUS
10
2.13499
20
-1.94307
11
2.13179
21
-1.93986
0
LINE
8
BLACK
6
CONTINUOUS
10
2.13179
20
-1.93986
11
2.12641
21
-1.93628
0
LINE
8
BLACK
6
CONTINUOUS
10
2.12641
20
-1.93628
11
2.12567
21
-1.93557
0
LINE
8
BLACK
6
CONTINUOUS
10
2.12567
20
-1.93557
11
2.12562
21
-1.93541
0
LINE
8
BLACK
6
CONTINUOUS
10
2.12562
20
-1.93541
11
2.12549
21
-1.9353
0
LINE
8
BLACK
6
CONTINUOUS
10
2.12549
20
-1.9353
11
2.12534
21
-1.93445
0
LINE
8
BLACK
6
CONTINUOUS
10
2.12534
20
-1.93445
11
2.1251
21
-1.93363
0
LINE
8
BLACK
6
CONTINUOUS
10
2.1251
20
-1.93363
11
2.12517
21
-1.93348
0
LINE
8
BLACK
6
CONTINUOUS
10
2.12517
20
-1.93348
11
2.12514
21
-1.93331
0
LINE
8
BLACK
6
CONTINUOUS
10
2.12514
20
-1.93331
11
2.12557
21
-1.93257
0
LINE
8
BLACK
6
CONTINUOUS
10
2.12557
20
-1.93257
11
2.12591
21
-1.93178
0
LINE
8
BLACK
6
CONTINUOUS
10
2.12591
20
-1.93178
11
2.12606
21
-1.93171
0
LINE
8
BLACK
6
CONTINUOUS
10
2.12606
20
-1.93171
11
2.12615
21
-1.93156
0
LINE
8
BLACK
6
CONTINUOUS
10
2.12615
20
-1.93156
11
2.12695
21
-1.93127
0
LINE
8
BLACK
6
CONTINUOUS
10
2.12695
20
-1.93127
11
2.12772
21
-1.93089
0
LINE
8
BLACK
6
CONTINUOUS
10
2.12772
20
-1.93089
11
2.12789
21
-1.93093
0
LINE
8
BLACK
6
CONTINUOUS
10
2.12789
20
-1.93093
11
2.12805
21
-1.93087
0
LINE
8
BLACK
6
CONTINUOUS
10
2.12805
20
-1.93087
11
2.16446
21
-1.93087
0
LINE
8
BLACK
6
CONTINUOUS
10
2.16446
20
-1.93087
11
2.16446
21
-1.92257
0
LINE
8
BLACK
6
CONTINUOUS
10
2.16446
20
-1.92257
11
2.16464
21
-1.92156
0
LINE
8
BLACK
6
CONTINUOUS
10
2.16464
20
-1.92156
11
2.16594
21
-1.92002
0
LINE
8
BLACK
6
CONTINUOUS
10
2.16594
20
-1.92002
11
2.16793
21
-1.91966
0
LINE
8
BLACK
6
CONTINUOUS
10
2.16793
20
-1.91966
11
2.16968
21
-1.92067
0
LINE
8
BLACK
6
CONTINUOUS
10
2.2129
20
-1.90954
11
2.2122
21
-1.90787
0
LINE
8
BLACK
6
CONTINUOUS
10
2.2122
20
-1.90787
11
2.2129
21
-1.9062
0
LINE
8
BLACK
6
CONTINUOUS
10
2.2129
20
-1.9062
11
2.21457
21
-1.90551
0
LINE
8
BLACK
6
CONTINUOUS
10
2.21457
20
-1.90551
11
2.31791
21
-1.90551
0
LINE
8
BLACK
6
CONTINUOUS
10
2.31791
20
-1.90551
11
2.31791
21
-1.83465
0
LINE
8
BLACK
6
CONTINUOUS
10
2.31791
20
-1.83465
11
2.21457
21
-1.83465
0
LINE
8
BLACK
6
CONTINUOUS
10
2.21457
20
-1.83465
11
2.2129
21
-1.83395
0
LINE
8
BLACK
6
CONTINUOUS
10
2.2129
20
-1.83395
11
2.2122
21
-1.83228
0
LINE
8
BLACK
6
CONTINUOUS
10
2.2122
20
-1.83228
11
2.2129
21
-1.83061
0
LINE
8
BLACK
6
CONTINUOUS
10
2.2129
20
-1.83061
11
2.21457
21
-1.82992
0
LINE
8
BLACK
6
CONTINUOUS
10
2.21457
20
-1.82992
11
2.32028
21
-1.82992
0
LINE
8
BLACK
6
CONTINUOUS
10
2.32028
20
-1.82992
11
2.32195
21
-1.83061
0
LINE
8
BLACK
6
CONTINUOUS
10
2.32195
20
-1.83061
11
2.32264
21
-1.83228
0
LINE
8
BLACK
6
CONTINUOUS
10
2.32264
20
-1.83228
11
2.32264
21
-1.90787
0
LINE
8
BLACK
6
CONTINUOUS
10
2.32264
20
-1.90787
11
2.32195
21
-1.90954
0
LINE
8
BLACK
6
CONTINUOUS
10
2.32195
20
-1.90954
11
2.32028
21
-1.91024
0
LINE
8
BLACK
6
CONTINUOUS
10
2.32028
20
-1.91024
11
2.21457
21
-1.91024
0
LINE
8
BLACK
6
CONTINUOUS
10
2.21457
20
-1.91024
11
2.2129
21
-1.90954
0
LINE
8
BLACK
6
CONTINUOUS
10
2.03671
20
-1.78337
11
2.0374
21
-1.78504
0
LINE
8
BLACK
6
CONTINUOUS
10
2.0374
20
-1.78504
11
2.03671
21
-1.78671
0
LINE
8
BLACK
6
CONTINUOUS
10
2.03671
20
-1.78671
11
2.03504
21
-1.7874
0
LINE
8
BLACK
6
CONTINUOUS
10
2.03504
20
-1.7874
11
1.93898
21
-1.7874
0
LINE
8
BLACK
6
CONTINUOUS
10
1.93898
20
-1.7874
11
1.93898
21
-1.88346
0
LINE
8
BLACK
6
CONTINUOUS
10
1.93898
20
-1.88346
11
1.93828
21
-1.88513
0
LINE
8
BLACK
6
CONTINUOUS
10
1.93828
20
-1.88513
11
1.93661
21
-1.88583
0
LINE
8
BLACK
6
CONTINUOUS
10
1.93661
20
-1.88583
11
1.93494
21
-1.88513
0
LINE
8
BLACK
6
CONTINUOUS
10
1.93494
20
-1.88513
11
1.93425
21
-1.88346
0
LINE
8
BLACK
6
CONTINUOUS
10
1.93425
20
-1.88346
11
1.93425
21
-1.78504
0
LINE
8
BLACK
6
CONTINUOUS
10
1.93425
20
-1.78504
11
1.93494
21
-1.78337
0
LINE
8
BLACK
6
CONTINUOUS
10
1.93494
20
-1.78337
11
1.93661
21
-1.78268
0
LINE
8
BLACK
6
CONTINUOUS
10
1.93661
20
-1.78268
11
2.03504
21
-1.78268
0
LINE
8
BLACK
6
CONTINUOUS
10
2.03504
20
-1.78268
11
2.03671
21
-1.78337
0
CIRCLE
8
BLACK
10
2.03937
20
-1.89961
40
0.019685
0
CIRCLE
8
BLACK
10
2.03937
20
-1.99803
40
0.019685
  0
ENDSEC
  0
EOF
