  0
SECTION
  2
HEADER
  9
$ANGBASE
  50
0.0
  9
$ANGDIR
  70
1
  9
$MEASUREMENT
  70
0
  0
ENDSEC
  0
SECTION
  2
TABLES
  0
TABLE
  2
LTYPE
  70
4
  0
LTYPE
  5
40F
  2
CONTINUOUS
  70
0
  3
Solid line
  72
65
  73
0
  40
0.0
  0
LTYPE
  5
410
  2
DASHDOT
 70
0
  3
Dash Dot ____ _ ____ _
 72
65
 73
4
 40
2.0
 49
1.25
 49
-0.25
 49
0.25
 49
-0.25
  0
LTYPE
  5
411
  2
DASHED
 70
0
  3
Dashed __ __ __ __ __
 72
65
 73
2
 40
0.75
 49
0.5
 49
-0.25
  0
LTYPE
  5
43B
  2
DOTTED
 70
0
  3
Dotted .  .  .  .
 72
65
 73
2
 40
0.2
 49
0.0
 49
-0.2
  0
ENDTAB
  0
TABLE
  2
STYLE
  70
4
  0
STYLE
  2
KICAD
  70
0
  40
0
  41
1
  42
1
  50
0
  71
0
  3
isocp.shx
  0
STYLE
  2
KICADB
  70
0
  40
0
  41
1
  42
1
  50
0
  71
0
  3
isocp.shx
  0
STYLE
  2
KICADI
  70
0
  40
0
  41
1
  42
1
  50
15
  71
0
  3
isocp.shx
  0
STYLE
  2
KICADBI
  70
0
  40
0
  41
1
  42
1
  50
15
  71
0
  3
isocp.shx
  0
ENDTAB
  0
TABLE
  2
LAYER
  70
1
  0
LAYER
  2
BLACK
  70
0
  62
7
  6
CONTINUOUS
  0
ENDTAB
  0
ENDSEC
  0
SECTION
  2
ENTITIES
0
LINE
8
BLACK
6
CONTINUOUS
10
2.35333
20
-1.77435
11
2.35644
21
-1.77643
0
LINE
8
BLACK
6
CONTINUOUS
10
2.35644
20
-1.77643
11
2.35852
21
-1.77955
0
LINE
8
BLACK
6
CONTINUOUS
10
2.35852
20
-1.77955
11
2.35925
21
-1.78322
0
LINE
8
BLACK
6
CONTINUOUS
10
2.35925
20
-1.78322
11
2.35925
21
-1.81914
0
LINE
8
BLACK
6
CONTINUOUS
10
2.35925
20
-1.81914
11
2.35852
21
-1.82282
0
LINE
8
BLACK
6
CONTINUOUS
10
2.35852
20
-1.82282
11
2.35644
21
-1.82593
0
LINE
8
BLACK
6
CONTINUOUS
10
2.35644
20
-1.82593
11
2.35333
21
-1.82801
0
LINE
8
BLACK
6
CONTINUOUS
10
2.35333
20
-1.82801
11
2.34966
21
-1.82874
0
LINE
8
BLACK
6
CONTINUOUS
10
2.34966
20
-1.82874
11
2.34498
21
-1.82874
0
LINE
8
BLACK
6
CONTINUOUS
10
2.34498
20
-1.82874
11
2.34498
21
-2.05906
0
LINE
8
BLACK
6
CONTINUOUS
10
2.34498
20
-2.05906
11
2.3563
21
-2.05906
0
LINE
8
BLACK
6
CONTINUOUS
10
2.3563
20
-2.05906
11
2.36007
21
-2.0598
0
LINE
8
BLACK
6
CONTINUOUS
10
2.36007
20
-2.0598
11
2.36326
21
-2.06194
0
LINE
8
BLACK
6
CONTINUOUS
10
2.36326
20
-2.06194
11
2.36539
21
-2.06513
0
LINE
8
BLACK
6
CONTINUOUS
10
2.36539
20
-2.06513
11
2.36614
21
-2.0689
0
LINE
8
BLACK
6
CONTINUOUS
10
2.36614
20
-2.0689
11
2.36614
21
-2.10433
0
LINE
8
BLACK
6
CONTINUOUS
10
2.36614
20
-2.10433
11
2.36539
21
-2.1081
0
LINE
8
BLACK
6
CONTINUOUS
10
2.36539
20
-2.1081
11
2.36326
21
-2.11129
0
LINE
8
BLACK
6
CONTINUOUS
10
2.36326
20
-2.11129
11
2.36007
21
-2.11342
0
LINE
8
BLACK
6
CONTINUOUS
10
2.36007
20
-2.11342
11
2.3563
21
-2.11417
0
LINE
8
BLACK
6
CONTINUOUS
10
2.3563
20
-2.11417
11
2.32874
21
-2.11417
0
LINE
8
BLACK
6
CONTINUOUS
10
2.32874
20
-2.11417
11
2.32497
21
-2.11342
0
LINE
8
BLACK
6
CONTINUOUS
10
2.32497
20
-2.11342
11
2.32178
21
-2.11129
0
LINE
8
BLACK
6
CONTINUOUS
10
2.32178
20
-2.11129
11
2.31965
21
-2.1081
0
LINE
8
BLACK
6
CONTINUOUS
10
2.31965
20
-2.1081
11
2.3189
21
-2.10433
0
LINE
8
BLACK
6
CONTINUOUS
10
2.3189
20
-2.10433
11
2.3189
21
-2.0689
0
LINE
8
BLACK
6
CONTINUOUS
10
2.3189
20
-2.0689
11
2.31965
21
-2.06513
0
LINE
8
BLACK
6
CONTINUOUS
10
2.31965
20
-2.06513
11
2.32178
21
-2.06194
0
LINE
8
BLACK
6
CONTINUOUS
10
2.32178
20
-2.06194
11
2.32497
21
-2.0598
0
LINE
8
BLACK
6
CONTINUOUS
10
2.32497
20
-2.0598
11
2.32874
21
-2.05906
0
LINE
8
BLACK
6
CONTINUOUS
10
2.32874
20
-2.05906
11
2.33514
21
-2.05906
0
LINE
8
BLACK
6
CONTINUOUS
10
2.33514
20
-2.05906
11
2.33514
21
-1.82874
0
LINE
8
BLACK
6
CONTINUOUS
10
2.33514
20
-1.82874
11
2.33046
21
-1.82874
0
LINE
8
BLACK
6
CONTINUOUS
10
2.33046
20
-1.82874
11
2.32679
21
-1.82801
0
LINE
8
BLACK
6
CONTINUOUS
10
2.32679
20
-1.82801
11
2.32368
21
-1.82593
0
LINE
8
BLACK
6
CONTINUOUS
10
2.32368
20
-1.82593
11
2.3216
21
-1.82282
0
LINE
8
BLACK
6
CONTINUOUS
10
2.3216
20
-1.82282
11
2.32087
21
-1.81914
0
LINE
8
BLACK
6
CONTINUOUS
10
2.32087
20
-1.81914
11
2.32087
21
-1.78322
0
LINE
8
BLACK
6
CONTINUOUS
10
2.32087
20
-1.78322
11
2.3216
21
-1.77955
0
LINE
8
BLACK
6
CONTINUOUS
10
2.3216
20
-1.77955
11
2.32368
21
-1.77643
0
LINE
8
BLACK
6
CONTINUOUS
10
2.32368
20
-1.77643
11
2.32679
21
-1.77435
0
LINE
8
BLACK
6
CONTINUOUS
10
2.32679
20
-1.77435
11
2.33046
21
-1.77362
0
LINE
8
BLACK
6
CONTINUOUS
10
2.33046
20
-1.77362
11
2.34966
21
-1.77362
0
LINE
8
BLACK
6
CONTINUOUS
10
2.34966
20
-1.77362
11
2.35333
21
-1.77435
0
LINE
8
BLACK
6
CONTINUOUS
10
1.82199
20
-1.75458
11
1.8241
21
-1.75275
0
LINE
8
BLACK
6
CONTINUOUS
10
1.8241
20
-1.75275
11
1.82616
21
-1.7523
0
LINE
8
BLACK
6
CONTINUOUS
10
1.82616
20
-1.7523
11
2.2337
21
-1.7523
0
LINE
8
BLACK
6
CONTINUOUS
10
2.2337
20
-1.7523
11
2.23638
21
-1.75309
0
LINE
8
BLACK
6
CONTINUOUS
10
2.23638
20
-1.75309
11
2.23821
21
-1.7552
0
LINE
8
BLACK
6
CONTINUOUS
10
2.23821
20
-1.7552
11
2.23861
21
-1.75797
0
LINE
8
BLACK
6
CONTINUOUS
10
2.23861
20
-1.75797
11
2.23744
21
-1.76051
0
LINE
8
BLACK
6
CONTINUOUS
10
2.23744
20
-1.76051
11
2.23721
21
-1.76077
0
LINE
8
BLACK
6
CONTINUOUS
10
2.23721
20
-1.76077
11
2.23324
21
-1.76474
0
LINE
8
BLACK
6
CONTINUOUS
10
2.23324
20
-1.76474
11
2.22962
21
-1.77062
0
LINE
8
BLACK
6
CONTINUOUS
10
2.22962
20
-1.77062
11
2.22953
21
-1.77089
0
LINE
8
BLACK
6
CONTINUOUS
10
2.22953
20
-1.77089
11
2.22888
21
-1.77284
0
LINE
8
BLACK
6
CONTINUOUS
10
2.22888
20
-1.77284
11
2.22729
21
-1.77514
0
LINE
8
BLACK
6
CONTINUOUS
10
2.22729
20
-1.77514
11
2.22471
21
-1.77621
0
LINE
8
BLACK
6
CONTINUOUS
10
2.22471
20
-1.77621
11
2.22417
21
-1.77624
0
LINE
8
BLACK
6
CONTINUOUS
10
2.22417
20
-1.77624
11
2.02279
21
-1.77624
0
LINE
8
BLACK
6
CONTINUOUS
10
2.02279
20
-1.77624
11
2.02235
21
-1.77622
0
LINE
8
BLACK
6
CONTINUOUS
10
2.02235
20
-1.77622
11
2.02205
21
-1.77615
0
LINE
8
BLACK
6
CONTINUOUS
10
2.02205
20
-1.77615
11
2.02174
21
-1.77616
0
LINE
8
BLACK
6
CONTINUOUS
10
2.02174
20
-1.77616
11
2.02174
21
-1.77616
0
LINE
8
BLACK
6
CONTINUOUS
10
2.02174
20
-1.77616
11
2.01937
21
-1.77624
0
LINE
8
BLACK
6
CONTINUOUS
10
2.01937
20
-1.77624
11
2.01921
21
-1.77624
0
LINE
8
BLACK
6
CONTINUOUS
10
2.01921
20
-1.77624
11
2.01812
21
-1.77624
0
LINE
8
BLACK
6
CONTINUOUS
10
2.01812
20
-1.77624
11
2.01796
21
-1.77626
0
LINE
8
BLACK
6
CONTINUOUS
10
2.01796
20
-1.77626
11
2.01749
21
-1.7763
0
LINE
8
BLACK
6
CONTINUOUS
10
2.01749
20
-1.7763
11
2.01575
21
-1.77635
0
LINE
8
BLACK
6
CONTINUOUS
10
2.01575
20
-1.77635
11
2.01545
21
-1.77644
0
LINE
8
BLACK
6
CONTINUOUS
10
2.01545
20
-1.77644
11
2.01545
21
-1.77644
0
LINE
8
BLACK
6
CONTINUOUS
10
2.01545
20
-1.77644
11
2.01499
21
-1.77657
0
LINE
8
BLACK
6
CONTINUOUS
10
2.01499
20
-1.77657
11
2.01422
21
-1.77673
0
LINE
8
BLACK
6
CONTINUOUS
10
2.01422
20
-1.77673
11
2.01343
21
-1.77683
0
LINE
8
BLACK
6
CONTINUOUS
10
2.01343
20
-1.77683
11
2.01314
21
-1.77695
0
LINE
8
BLACK
6
CONTINUOUS
10
2.01314
20
-1.77695
11
2.01314
21
-1.77695
0
LINE
8
BLACK
6
CONTINUOUS
10
2.01314
20
-1.77695
11
2.01181
21
-1.77747
0
LINE
8
BLACK
6
CONTINUOUS
10
2.01181
20
-1.77747
11
2.01137
21
-1.77762
0
LINE
8
BLACK
6
CONTINUOUS
10
2.01137
20
-1.77762
11
2.0097
21
-1.77811
0
LINE
8
BLACK
6
CONTINUOUS
10
2.0097
20
-1.77811
11
2.00943
21
-1.77827
0
LINE
8
BLACK
6
CONTINUOUS
10
2.00943
20
-1.77827
11
2.00901
21
-1.77852
0
LINE
8
BLACK
6
CONTINUOUS
10
2.00901
20
-1.77852
11
2.00832
21
-1.77886
0
LINE
8
BLACK
6
CONTINUOUS
10
2.00832
20
-1.77886
11
2.00757
21
-1.77915
0
LINE
8
BLACK
6
CONTINUOUS
10
2.00757
20
-1.77915
11
2.00732
21
-1.77934
0
LINE
8
BLACK
6
CONTINUOUS
10
2.00732
20
-1.77934
11
2.00732
21
-1.77934
0
LINE
8
BLACK
6
CONTINUOUS
10
2.00732
20
-1.77934
11
2.00617
21
-1.78017
0
LINE
8
BLACK
6
CONTINUOUS
10
2.00617
20
-1.78017
11
2.00578
21
-1.78043
0
LINE
8
BLACK
6
CONTINUOUS
10
2.00578
20
-1.78043
11
2.00455
21
-1.78116
0
LINE
8
BLACK
6
CONTINUOUS
10
2.00455
20
-1.78116
11
2.00455
21
-1.78116
0
LINE
8
BLACK
6
CONTINUOUS
10
2.00455
20
-1.78116
11
2.00428
21
-1.78132
0
LINE
8
BLACK
6
CONTINUOUS
10
2.00428
20
-1.78132
11
2.00371
21
-1.78188
0
LINE
8
BLACK
6
CONTINUOUS
10
2.00371
20
-1.78188
11
2.00312
21
-1.78239
0
LINE
8
BLACK
6
CONTINUOUS
10
2.00312
20
-1.78239
11
2.00248
21
-1.78286
0
LINE
8
BLACK
6
CONTINUOUS
10
2.00248
20
-1.78286
11
2.00228
21
-1.7831
0
LINE
8
BLACK
6
CONTINUOUS
10
2.00228
20
-1.7831
11
2.00137
21
-1.7842
0
LINE
8
BLACK
6
CONTINUOUS
10
2.00137
20
-1.7842
11
2.00105
21
-1.78454
0
LINE
8
BLACK
6
CONTINUOUS
10
2.00105
20
-1.78454
11
1.94093
21
-1.84467
0
LINE
8
BLACK
6
CONTINUOUS
10
1.94093
20
-1.84467
11
1.93847
21
-1.84601
0
LINE
8
BLACK
6
CONTINUOUS
10
1.93847
20
-1.84601
11
1.93742
21
-1.84612
0
LINE
8
BLACK
6
CONTINUOUS
10
1.93742
20
-1.84612
11
1.88975
21
-1.84612
0
LINE
8
BLACK
6
CONTINUOUS
10
1.88975
20
-1.84612
11
1.88962
21
-1.84614
0
LINE
8
BLACK
6
CONTINUOUS
10
1.88962
20
-1.84614
11
1.88962
21
-1.84614
0
LINE
8
BLACK
6
CONTINUOUS
10
1.88962
20
-1.84614
11
1.88585
21
-1.84653
0
LINE
8
BLACK
6
CONTINUOUS
10
1.88585
20
-1.84653
11
1.88585
21
-1.84653
0
LINE
8
BLACK
6
CONTINUOUS
10
1.88585
20
-1.84653
11
1.88558
21
-1.84655
0
LINE
8
BLACK
6
CONTINUOUS
10
1.88558
20
-1.84655
11
1.88533
21
-1.84664
0
LINE
8
BLACK
6
CONTINUOUS
10
1.88533
20
-1.84664
11
1.88533
21
-1.84664
0
LINE
8
BLACK
6
CONTINUOUS
10
1.88533
20
-1.84664
11
1.88051
21
-1.84825
0
LINE
8
BLACK
6
CONTINUOUS
10
1.88051
20
-1.84825
11
1.87898
21
-1.84876
0
LINE
8
BLACK
6
CONTINUOUS
10
1.87898
20
-1.84876
11
1.87306
21
-1.85242
0
LINE
8
BLACK
6
CONTINUOUS
10
1.87306
20
-1.85242
11
1.86814
21
-1.85735
0
LINE
8
BLACK
6
CONTINUOUS
10
1.86814
20
-1.85735
11
1.86448
21
-1.86328
0
LINE
8
BLACK
6
CONTINUOUS
10
1.86448
20
-1.86328
11
1.86229
21
-1.86989
0
LINE
8
BLACK
6
CONTINUOUS
10
1.86229
20
-1.86989
11
1.86187
21
-1.874
0
LINE
8
BLACK
6
CONTINUOUS
10
1.86187
20
-1.874
11
1.86187
21
-1.92521
0
LINE
8
BLACK
6
CONTINUOUS
10
1.86187
20
-1.92521
11
1.8623
21
-1.92938
0
LINE
8
BLACK
6
CONTINUOUS
10
1.8623
20
-1.92938
11
1.86451
21
-1.93598
0
LINE
8
BLACK
6
CONTINUOUS
10
1.86451
20
-1.93598
11
1.86817
21
-1.9419
0
LINE
8
BLACK
6
CONTINUOUS
10
1.86817
20
-1.9419
11
1.8731
21
-1.94682
0
LINE
8
BLACK
6
CONTINUOUS
10
1.8731
20
-1.94682
11
1.87883
21
-1.95036
0
LINE
8
BLACK
6
CONTINUOUS
10
1.87883
20
-1.95036
11
1.87885
21
-1.95037
0
LINE
8
BLACK
6
CONTINUOUS
10
1.87885
20
-1.95037
11
1.88072
21
-1.95245
0
LINE
8
BLACK
6
CONTINUOUS
10
1.88072
20
-1.95245
11
1.88117
21
-1.9552
0
LINE
8
BLACK
6
CONTINUOUS
10
1.88117
20
-1.9552
11
1.88006
21
-1.95777
0
LINE
8
BLACK
6
CONTINUOUS
10
1.88006
20
-1.95777
11
1.87967
21
-1.95818
0
LINE
8
BLACK
6
CONTINUOUS
10
1.87967
20
-1.95818
11
1.87532
21
-1.96233
0
LINE
8
BLACK
6
CONTINUOUS
10
1.87532
20
-1.96233
11
1.87504
21
-1.96265
0
LINE
8
BLACK
6
CONTINUOUS
10
1.87504
20
-1.96265
11
1.86988
21
-1.96959
0
LINE
8
BLACK
6
CONTINUOUS
10
1.86988
20
-1.96959
11
1.86966
21
-1.96994
0
LINE
8
BLACK
6
CONTINUOUS
10
1.86966
20
-1.96994
11
1.86573
21
-1.97766
0
LINE
8
BLACK
6
CONTINUOUS
10
1.86573
20
-1.97766
11
1.86558
21
-1.97804
0
LINE
8
BLACK
6
CONTINUOUS
10
1.86558
20
-1.97804
11
1.86301
21
-1.98631
0
LINE
8
BLACK
6
CONTINUOUS
10
1.86301
20
-1.98631
11
1.86292
21
-1.98672
0
LINE
8
BLACK
6
CONTINUOUS
10
1.86292
20
-1.98672
11
1.86284
21
-1.98732
0
LINE
8
BLACK
6
CONTINUOUS
10
1.86284
20
-1.98732
11
1.86293
21
-1.98788
0
LINE
8
BLACK
6
CONTINUOUS
10
1.86293
20
-1.98788
11
1.86345
21
-1.98803
0
LINE
8
BLACK
6
CONTINUOUS
10
1.86345
20
-1.98803
11
1.88352
21
-1.98803
0
LINE
8
BLACK
6
CONTINUOUS
10
1.88352
20
-1.98803
11
1.88581
21
-1.98232
0
LINE
8
BLACK
6
CONTINUOUS
10
1.88581
20
-1.98232
11
1.88987
21
-1.97634
0
LINE
8
BLACK
6
CONTINUOUS
10
1.88987
20
-1.97634
11
1.89512
21
-1.97138
0
LINE
8
BLACK
6
CONTINUOUS
10
1.89512
20
-1.97138
11
1.90132
21
-1.96765
0
LINE
8
BLACK
6
CONTINUOUS
10
1.90132
20
-1.96765
11
1.90817
21
-1.96535
0
LINE
8
BLACK
6
CONTINUOUS
10
1.90817
20
-1.96535
11
1.91535
21
-1.96457
0
LINE
8
BLACK
6
CONTINUOUS
10
1.91535
20
-1.96457
11
1.92717
21
-1.96457
0
LINE
8
BLACK
6
CONTINUOUS
10
1.92717
20
-1.96457
11
1.9309
21
-1.96478
0
LINE
8
BLACK
6
CONTINUOUS
10
1.9309
20
-1.96478
11
1.93795
21
-1.96635
0
LINE
8
BLACK
6
CONTINUOUS
10
1.93795
20
-1.96635
11
1.9445
21
-1.96941
0
LINE
8
BLACK
6
CONTINUOUS
10
1.9445
20
-1.96941
11
1.95024
21
-1.9738
0
LINE
8
BLACK
6
CONTINUOUS
10
1.95024
20
-1.9738
11
1.95491
21
-1.97932
0
LINE
8
BLACK
6
CONTINUOUS
10
1.95491
20
-1.97932
11
1.95828
21
-1.98571
0
LINE
8
BLACK
6
CONTINUOUS
10
1.95828
20
-1.98571
11
1.95892
21
-1.98803
0
LINE
8
BLACK
6
CONTINUOUS
10
1.95892
20
-1.98803
11
1.97898
21
-1.98803
0
LINE
8
BLACK
6
CONTINUOUS
10
1.97898
20
-1.98803
11
1.97952
21
-1.98788
0
LINE
8
BLACK
6
CONTINUOUS
10
1.97952
20
-1.98788
11
1.97958
21
-1.98746
0
LINE
8
BLACK
6
CONTINUOUS
10
1.97958
20
-1.98746
11
1.9786
21
-1.98282
0
LINE
8
BLACK
6
CONTINUOUS
10
1.9786
20
-1.98282
11
1.97848
21
-1.98242
0
LINE
8
BLACK
6
CONTINUOUS
10
1.97848
20
-1.98242
11
1.9753
21
-1.97437
0
LINE
8
BLACK
6
CONTINUOUS
10
1.9753
20
-1.97437
11
1.97512
21
-1.97399
0
LINE
8
BLACK
6
CONTINUOUS
10
1.97512
20
-1.97399
11
1.97063
21
-1.9666
0
LINE
8
BLACK
6
CONTINUOUS
10
1.97063
20
-1.9666
11
1.97038
21
-1.96626
0
LINE
8
BLACK
6
CONTINUOUS
10
1.97038
20
-1.96626
11
1.96471
21
-1.95972
0
LINE
8
BLACK
6
CONTINUOUS
10
1.96471
20
-1.95972
11
1.96441
21
-1.95943
0
LINE
8
BLACK
6
CONTINUOUS
10
1.96441
20
-1.95943
11
1.96317
21
-1.95841
0
LINE
8
BLACK
6
CONTINUOUS
10
1.96317
20
-1.95841
11
1.96159
21
-1.9561
0
LINE
8
BLACK
6
CONTINUOUS
10
1.96159
20
-1.9561
11
1.96152
21
-1.95331
0
LINE
8
BLACK
6
CONTINUOUS
10
1.96152
20
-1.95331
11
1.96296
21
-1.95091
0
LINE
8
BLACK
6
CONTINUOUS
10
1.96296
20
-1.95091
11
1.9637
21
-1.95036
0
LINE
8
BLACK
6
CONTINUOUS
10
1.9637
20
-1.95036
11
1.96922
21
-1.94694
0
LINE
8
BLACK
6
CONTINUOUS
10
1.96922
20
-1.94694
11
1.96946
21
-1.94679
0
LINE
8
BLACK
6
CONTINUOUS
10
1.96946
20
-1.94679
11
1.97438
21
-1.94186
0
LINE
8
BLACK
6
CONTINUOUS
10
1.97438
20
-1.94186
11
1.97804
21
-1.93593
0
LINE
8
BLACK
6
CONTINUOUS
10
1.97804
20
-1.93593
11
1.98023
21
-1.92933
0
LINE
8
BLACK
6
CONTINUOUS
10
1.98023
20
-1.92933
11
1.98065
21
-1.92521
0
LINE
8
BLACK
6
CONTINUOUS
10
1.98065
20
-1.92521
11
1.98065
21
-1.87754
0
LINE
8
BLACK
6
CONTINUOUS
10
1.98065
20
-1.87754
11
1.98144
21
-1.87486
0
LINE
8
BLACK
6
CONTINUOUS
10
1.98144
20
-1.87486
11
1.9821
21
-1.87404
0
LINE
8
BLACK
6
CONTINUOUS
10
1.9821
20
-1.87404
11
2.02856
21
-1.82757
0
LINE
8
BLACK
6
CONTINUOUS
10
2.02856
20
-1.82757
11
2.03102
21
-1.82624
0
LINE
8
BLACK
6
CONTINUOUS
10
2.03102
20
-1.82624
11
2.03207
21
-1.82612
0
LINE
8
BLACK
6
CONTINUOUS
10
2.03207
20
-1.82612
11
2.22418
21
-1.82612
0
LINE
8
BLACK
6
CONTINUOUS
10
2.22418
20
-1.82612
11
2.22686
21
-1.82691
0
LINE
8
BLACK
6
CONTINUOUS
10
2.22686
20
-1.82691
11
2.22869
21
-1.82902
0
LINE
8
BLACK
6
CONTINUOUS
10
2.22869
20
-1.82902
11
2.22888
21
-1.82951
0
LINE
8
BLACK
6
CONTINUOUS
10
2.22888
20
-1.82951
11
2.22933
21
-1.83087
0
LINE
8
BLACK
6
CONTINUOUS
10
2.22933
20
-1.83087
11
2.22964
21
-1.83179
0
LINE
8
BLACK
6
CONTINUOUS
10
2.22964
20
-1.83179
11
2.23328
21
-1.83766
0
LINE
8
BLACK
6
CONTINUOUS
10
2.23328
20
-1.83766
11
2.23816
21
-1.84254
0
LINE
8
BLACK
6
CONTINUOUS
10
2.23816
20
-1.84254
11
2.24404
21
-1.84617
0
LINE
8
BLACK
6
CONTINUOUS
10
2.24404
20
-1.84617
11
2.24432
21
-1.84626
0
LINE
8
BLACK
6
CONTINUOUS
10
2.24432
20
-1.84626
11
2.24432
21
-1.84626
0
LINE
8
BLACK
6
CONTINUOUS
10
2.24432
20
-1.84626
11
2.25034
21
-1.84826
0
LINE
8
BLACK
6
CONTINUOUS
10
2.25034
20
-1.84826
11
2.25034
21
-1.84826
0
LINE
8
BLACK
6
CONTINUOUS
10
2.25034
20
-1.84826
11
2.2506
21
-1.84834
0
LINE
8
BLACK
6
CONTINUOUS
10
2.2506
20
-1.84834
11
2.25468
21
-1.84876
0
LINE
8
BLACK
6
CONTINUOUS
10
2.25468
20
-1.84876
11
2.26615
21
-1.84876
0
LINE
8
BLACK
6
CONTINUOUS
10
2.26615
20
-1.84876
11
2.2778
21
-1.84876
0
LINE
8
BLACK
6
CONTINUOUS
10
2.2778
20
-1.84876
11
2.28193
21
-1.84833
0
LINE
8
BLACK
6
CONTINUOUS
10
2.28193
20
-1.84833
11
2.28219
21
-1.84825
0
LINE
8
BLACK
6
CONTINUOUS
10
2.28219
20
-1.84825
11
2.28219
21
-1.84825
0
LINE
8
BLACK
6
CONTINUOUS
10
2.28219
20
-1.84825
11
2.28821
21
-1.84624
0
LINE
8
BLACK
6
CONTINUOUS
10
2.28821
20
-1.84624
11
2.28849
21
-1.84615
0
LINE
8
BLACK
6
CONTINUOUS
10
2.28849
20
-1.84615
11
2.29436
21
-1.84251
0
LINE
8
BLACK
6
CONTINUOUS
10
2.29436
20
-1.84251
11
2.29924
21
-1.83762
0
LINE
8
BLACK
6
CONTINUOUS
10
2.29924
20
-1.83762
11
2.29931
21
-1.83751
0
LINE
8
BLACK
6
CONTINUOUS
10
2.29931
20
-1.83751
11
2.30154
21
-1.83593
0
LINE
8
BLACK
6
CONTINUOUS
10
2.30154
20
-1.83593
11
2.30433
21
-1.8358
0
LINE
8
BLACK
6
CONTINUOUS
10
2.30433
20
-1.8358
11
2.30675
21
-1.8372
0
LINE
8
BLACK
6
CONTINUOUS
10
2.30675
20
-1.8372
11
2.30697
21
-1.83746
0
LINE
8
BLACK
6
CONTINUOUS
10
2.30697
20
-1.83746
11
2.30709
21
-1.83766
0
LINE
8
BLACK
6
CONTINUOUS
10
2.30709
20
-1.83766
11
2.31198
21
-1.84254
0
LINE
8
BLACK
6
CONTINUOUS
10
2.31198
20
-1.84254
11
2.31223
21
-1.8427
0
LINE
8
BLACK
6
CONTINUOUS
10
2.31223
20
-1.8427
11
2.31223
21
-1.8427
0
LINE
8
BLACK
6
CONTINUOUS
10
2.31223
20
-1.8427
11
2.31276
21
-1.84302
0
LINE
8
BLACK
6
CONTINUOUS
10
2.31276
20
-1.84302
11
2.31463
21
-1.8451
0
LINE
8
BLACK
6
CONTINUOUS
10
2.31463
20
-1.8451
11
2.31512
21
-1.84725
0
LINE
8
BLACK
6
CONTINUOUS
10
2.31512
20
-1.84725
11
2.31512
21
-2.03944
0
LINE
8
BLACK
6
CONTINUOUS
10
2.31512
20
-2.03944
11
2.31433
21
-2.04213
0
LINE
8
BLACK
6
CONTINUOUS
10
2.31433
20
-2.04213
11
2.31277
21
-2.04366
0
LINE
8
BLACK
6
CONTINUOUS
10
2.31277
20
-2.04366
11
2.31007
21
-2.04534
0
LINE
8
BLACK
6
CONTINUOUS
10
2.31007
20
-2.04534
11
2.30986
21
-2.04554
0
LINE
8
BLACK
6
CONTINUOUS
10
2.30986
20
-2.04554
11
2.30665
21
-2.04876
0
LINE
8
BLACK
6
CONTINUOUS
10
2.30665
20
-2.04876
11
2.3042
21
-2.0501
0
LINE
8
BLACK
6
CONTINUOUS
10
2.3042
20
-2.0501
11
2.30141
21
-2.0499
0
LINE
8
BLACK
6
CONTINUOUS
10
2.30141
20
-2.0499
11
2.29963
21
-2.04876
0
LINE
8
BLACK
6
CONTINUOUS
10
2.29963
20
-2.04876
11
2.29638
21
-2.04552
0
LINE
8
BLACK
6
CONTINUOUS
10
2.29638
20
-2.04552
11
2.29594
21
-2.04517
0
LINE
8
BLACK
6
CONTINUOUS
10
2.29594
20
-2.04517
11
2.2905
21
-2.04182
0
LINE
8
BLACK
6
CONTINUOUS
10
2.2905
20
-2.04182
11
2.28998
21
-2.04158
0
LINE
8
BLACK
6
CONTINUOUS
10
2.28998
20
-2.04158
11
2.28391
21
-2.03956
0
LINE
8
BLACK
6
CONTINUOUS
10
2.28391
20
-2.03956
11
2.28338
21
-2.03945
0
LINE
8
BLACK
6
CONTINUOUS
10
2.28338
20
-2.03945
11
2.27967
21
-2.03907
0
LINE
8
BLACK
6
CONTINUOUS
10
2.27967
20
-2.03907
11
2.27942
21
-2.03906
0
LINE
8
BLACK
6
CONTINUOUS
10
2.27942
20
-2.03906
11
2.27449
21
-2.03906
0
LINE
8
BLACK
6
CONTINUOUS
10
2.27449
20
-2.03906
11
2.27389
21
-2.03923
0
LINE
8
BLACK
6
CONTINUOUS
10
2.27389
20
-2.03923
11
2.27385
21
-2.03929
0
LINE
8
BLACK
6
CONTINUOUS
10
2.27385
20
-2.03929
11
2.27378
21
-2.03959
0
LINE
8
BLACK
6
CONTINUOUS
10
2.27378
20
-2.03959
11
2.27378
21
-2.05906
0
LINE
8
BLACK
6
CONTINUOUS
10
2.27378
20
-2.05906
11
2.27756
21
-2.05906
0
LINE
8
BLACK
6
CONTINUOUS
10
2.27756
20
-2.05906
11
2.28133
21
-2.0598
0
LINE
8
BLACK
6
CONTINUOUS
10
2.28133
20
-2.0598
11
2.28452
21
-2.06194
0
LINE
8
BLACK
6
CONTINUOUS
10
2.28452
20
-2.06194
11
2.28665
21
-2.06513
0
LINE
8
BLACK
6
CONTINUOUS
10
2.28665
20
-2.06513
11
2.2874
21
-2.0689
0
LINE
8
BLACK
6
CONTINUOUS
10
2.2874
20
-2.0689
11
2.2874
21
-2.10433
0
LINE
8
BLACK
6
CONTINUOUS
10
2.2874
20
-2.10433
11
2.28665
21
-2.1081
0
LINE
8
BLACK
6
CONTINUOUS
10
2.28665
20
-2.1081
11
2.28452
21
-2.11129
0
LINE
8
BLACK
6
CONTINUOUS
10
2.28452
20
-2.11129
11
2.28133
21
-2.11342
0
LINE
8
BLACK
6
CONTINUOUS
10
2.28133
20
-2.11342
11
2.27756
21
-2.11417
0
LINE
8
BLACK
6
CONTINUOUS
10
2.27756
20
-2.11417
11
2.25
21
-2.11417
0
LINE
8
BLACK
6
CONTINUOUS
10
2.25
20
-2.11417
11
2.24623
21
-2.11342
0
LINE
8
BLACK
6
CONTINUOUS
10
2.24623
20
-2.11342
11
2.24304
21
-2.11129
0
LINE
8
BLACK
6
CONTINUOUS
10
2.24304
20
-2.11129
11
2.24091
21
-2.1081
0
LINE
8
BLACK
6
CONTINUOUS
10
2.24091
20
-2.1081
11
2.24016
21
-2.10433
0
LINE
8
BLACK
6
CONTINUOUS
10
2.24016
20
-2.10433
11
2.24016
21
-2.09661
0
LINE
8
BLACK
6
CONTINUOUS
10
2.24016
20
-2.09661
11
2.22087
21
-2.09661
0
LINE
8
BLACK
6
CONTINUOUS
10
2.22087
20
-2.09661
11
2.22027
21
-2.09679
0
LINE
8
BLACK
6
CONTINUOUS
10
2.22027
20
-2.09679
11
2.22022
21
-2.09685
0
LINE
8
BLACK
6
CONTINUOUS
10
2.22022
20
-2.09685
11
2.22016
21
-2.09715
0
LINE
8
BLACK
6
CONTINUOUS
10
2.22016
20
-2.09715
11
2.22016
21
-2.10618
0
LINE
8
BLACK
6
CONTINUOUS
10
2.22016
20
-2.10618
11
2.22017
21
-2.10644
0
LINE
8
BLACK
6
CONTINUOUS
10
2.22017
20
-2.10644
11
2.22056
21
-2.1102
0
LINE
8
BLACK
6
CONTINUOUS
10
2.22056
20
-2.1102
11
2.22068
21
-2.11073
0
LINE
8
BLACK
6
CONTINUOUS
10
2.22068
20
-2.11073
11
2.2227
21
-2.1168
0
LINE
8
BLACK
6
CONTINUOUS
10
2.2227
20
-2.1168
11
2.22294
21
-2.11732
0
LINE
8
BLACK
6
CONTINUOUS
10
2.22294
20
-2.11732
11
2.2263
21
-2.12275
0
LINE
8
BLACK
6
CONTINUOUS
10
2.2263
20
-2.12275
11
2.22666
21
-2.1232
0
LINE
8
BLACK
6
CONTINUOUS
10
2.22666
20
-2.1232
11
2.23049
21
-2.12702
0
LINE
8
BLACK
6
CONTINUOUS
10
2.23049
20
-2.12702
11
2.23183
21
-2.12947
0
LINE
8
BLACK
6
CONTINUOUS
10
2.23183
20
-2.12947
11
2.23163
21
-2.13226
0
LINE
8
BLACK
6
CONTINUOUS
10
2.23163
20
-2.13226
11
2.22996
21
-2.1345
0
LINE
8
BLACK
6
CONTINUOUS
10
2.22996
20
-2.1345
11
2.22734
21
-2.13548
0
LINE
8
BLACK
6
CONTINUOUS
10
2.22734
20
-2.13548
11
2.22698
21
-2.13549
0
LINE
8
BLACK
6
CONTINUOUS
10
2.22698
20
-2.13549
11
1.82616
21
-2.13549
0
LINE
8
BLACK
6
CONTINUOUS
10
1.82616
20
-2.13549
11
1.82348
21
-2.1347
0
LINE
8
BLACK
6
CONTINUOUS
10
1.82348
20
-2.1347
11
1.82165
21
-2.13259
0
LINE
8
BLACK
6
CONTINUOUS
10
1.82165
20
-2.13259
11
1.8212
21
-2.13053
0
LINE
8
BLACK
6
CONTINUOUS
10
1.8212
20
-2.13053
11
1.8212
21
-1.75726
0
LINE
8
BLACK
6
CONTINUOUS
10
1.8212
20
-1.75726
11
1.82199
21
-1.75458
0
LINE
8
BLACK
6
CONTINUOUS
10
1.9319
20
-2.05129
11
1.936
21
-2.05094
0
LINE
8
BLACK
6
CONTINUOUS
10
1.936
20
-2.05094
11
1.93641
21
-2.05087
0
LINE
8
BLACK
6
CONTINUOUS
10
1.93641
20
-2.05087
11
1.94478
21
-2.0487
0
LINE
8
BLACK
6
CONTINUOUS
10
1.94478
20
-2.0487
11
1.94518
21
-2.04856
0
LINE
8
BLACK
6
CONTINUOUS
10
1.94518
20
-2.04856
11
1.95058
21
-2.04612
0
LINE
8
BLACK
6
CONTINUOUS
10
1.95058
20
-2.04612
11
1.93497
21
-2.03051
0
LINE
8
BLACK
6
CONTINUOUS
10
1.93497
20
-2.03051
11
1.93435
21
-2.03072
0
LINE
8
BLACK
6
CONTINUOUS
10
1.93435
20
-2.03072
11
1.93126
21
-2.03105
0
LINE
8
BLACK
6
CONTINUOUS
10
1.93126
20
-2.03105
11
1.93126
21
-2.05063
0
LINE
8
BLACK
6
CONTINUOUS
10
1.93126
20
-2.05063
11
1.93143
21
-2.05121
0
LINE
8
BLACK
6
CONTINUOUS
10
1.93143
20
-2.05121
11
1.9319
21
-2.05129
0
LINE
8
BLACK
6
CONTINUOUS
10
2.22039
20
-2.07655
11
2.22069
21
-2.07661
0
LINE
8
BLACK
6
CONTINUOUS
10
2.22069
20
-2.07661
11
2.24016
21
-2.07661
0
LINE
8
BLACK
6
CONTINUOUS
10
2.24016
20
-2.07661
11
2.24016
21
-2.0689
0
LINE
8
BLACK
6
CONTINUOUS
10
2.24016
20
-2.0689
11
2.24091
21
-2.06513
0
LINE
8
BLACK
6
CONTINUOUS
10
2.24091
20
-2.06513
11
2.24304
21
-2.06194
0
LINE
8
BLACK
6
CONTINUOUS
10
2.24304
20
-2.06194
11
2.24623
21
-2.0598
0
LINE
8
BLACK
6
CONTINUOUS
10
2.24623
20
-2.0598
11
2.25
21
-2.05906
0
LINE
8
BLACK
6
CONTINUOUS
10
2.25
20
-2.05906
11
2.25378
21
-2.05906
0
LINE
8
BLACK
6
CONTINUOUS
10
2.25378
20
-2.05906
11
2.25378
21
-2.03977
0
LINE
8
BLACK
6
CONTINUOUS
10
2.25378
20
-2.03977
11
2.2536
21
-2.03917
0
LINE
8
BLACK
6
CONTINUOUS
10
2.2536
20
-2.03917
11
2.25355
21
-2.03912
0
LINE
8
BLACK
6
CONTINUOUS
10
2.25355
20
-2.03912
11
2.25325
21
-2.03906
0
LINE
8
BLACK
6
CONTINUOUS
10
2.25325
20
-2.03906
11
2.24815
21
-2.03906
0
LINE
8
BLACK
6
CONTINUOUS
10
2.24815
20
-2.03906
11
2.24789
21
-2.03907
0
LINE
8
BLACK
6
CONTINUOUS
10
2.24789
20
-2.03907
11
2.24413
21
-2.03946
0
LINE
8
BLACK
6
CONTINUOUS
10
2.24413
20
-2.03946
11
2.2436
21
-2.03957
0
LINE
8
BLACK
6
CONTINUOUS
10
2.2436
20
-2.03957
11
2.23753
21
-2.0416
0
LINE
8
BLACK
6
CONTINUOUS
10
2.23753
20
-2.0416
11
2.23701
21
-2.04184
0
LINE
8
BLACK
6
CONTINUOUS
10
2.23701
20
-2.04184
11
2.23158
21
-2.0452
0
LINE
8
BLACK
6
CONTINUOUS
10
2.23158
20
-2.0452
11
2.23113
21
-2.04556
0
LINE
8
BLACK
6
CONTINUOUS
10
2.23113
20
-2.04556
11
2.22662
21
-2.05007
0
LINE
8
BLACK
6
CONTINUOUS
10
2.22662
20
-2.05007
11
2.22627
21
-2.05052
0
LINE
8
BLACK
6
CONTINUOUS
10
2.22627
20
-2.05052
11
2.22292
21
-2.05595
0
LINE
8
BLACK
6
CONTINUOUS
10
2.22292
20
-2.05595
11
2.22268
21
-2.05647
0
LINE
8
BLACK
6
CONTINUOUS
10
2.22268
20
-2.05647
11
2.22066
21
-2.06255
0
LINE
8
BLACK
6
CONTINUOUS
10
2.22066
20
-2.06255
11
2.22055
21
-2.06307
0
LINE
8
BLACK
6
CONTINUOUS
10
2.22055
20
-2.06307
11
2.22017
21
-2.06679
0
LINE
8
BLACK
6
CONTINUOUS
10
2.22017
20
-2.06679
11
2.22016
21
-2.06704
0
LINE
8
BLACK
6
CONTINUOUS
10
2.22016
20
-2.06704
11
2.22016
21
-2.0759
0
LINE
8
BLACK
6
CONTINUOUS
10
2.22016
20
-2.0759
11
2.22033
21
-2.0765
0
LINE
8
BLACK
6
CONTINUOUS
10
2.22033
20
-2.0765
11
2.22039
21
-2.07655
0
LINE
8
BLACK
6
CONTINUOUS
10
1.959
20
-2.00803
11
1.95671
21
-2.01374
0
LINE
8
BLACK
6
CONTINUOUS
10
1.95671
20
-2.01374
11
1.95265
21
-2.01972
0
LINE
8
BLACK
6
CONTINUOUS
10
1.95265
20
-2.01972
11
1.9474
21
-2.02469
0
LINE
8
BLACK
6
CONTINUOUS
10
1.9474
20
-2.02469
11
1.94469
21
-2.02631
0
LINE
8
BLACK
6
CONTINUOUS
10
1.94469
20
-2.02631
11
1.95926
21
-2.04088
0
LINE
8
BLACK
6
CONTINUOUS
10
1.95926
20
-2.04088
11
1.96061
21
-2.03997
0
LINE
8
BLACK
6
CONTINUOUS
10
1.96061
20
-2.03997
11
1.96094
21
-2.0397
0
LINE
8
BLACK
6
CONTINUOUS
10
1.96094
20
-2.0397
11
1.9672
21
-2.03373
0
LINE
8
BLACK
6
CONTINUOUS
10
1.9672
20
-2.03373
11
1.96748
21
-2.03342
0
LINE
8
BLACK
6
CONTINUOUS
10
1.96748
20
-2.03342
11
1.97264
21
-2.02648
0
LINE
8
BLACK
6
CONTINUOUS
10
1.97264
20
-2.02648
11
1.97286
21
-2.02612
0
LINE
8
BLACK
6
CONTINUOUS
10
1.97286
20
-2.02612
11
1.97679
21
-2.01841
0
LINE
8
BLACK
6
CONTINUOUS
10
1.97679
20
-2.01841
11
1.97694
21
-2.01802
0
LINE
8
BLACK
6
CONTINUOUS
10
1.97694
20
-2.01802
11
1.97951
21
-2.00975
0
LINE
8
BLACK
6
CONTINUOUS
10
1.97951
20
-2.00975
11
1.9796
21
-2.00935
0
LINE
8
BLACK
6
CONTINUOUS
10
1.9796
20
-2.00935
11
1.97968
21
-2.00874
0
LINE
8
BLACK
6
CONTINUOUS
10
1.97968
20
-2.00874
11
1.97959
21
-2.00818
0
LINE
8
BLACK
6
CONTINUOUS
10
1.97959
20
-2.00818
11
1.97907
21
-2.00803
0
LINE
8
BLACK
6
CONTINUOUS
10
1.97907
20
-2.00803
11
1.959
21
-2.00803
0
LINE
8
BLACK
6
CONTINUOUS
10
1.90457
20
-2.02971
11
1.89802
21
-2.02666
0
LINE
8
BLACK
6
CONTINUOUS
10
1.89802
20
-2.02666
11
1.89228
21
-2.02227
0
LINE
8
BLACK
6
CONTINUOUS
10
1.89228
20
-2.02227
11
1.88761
21
-2.01674
0
LINE
8
BLACK
6
CONTINUOUS
10
1.88761
20
-2.01674
11
1.88424
21
-2.01035
0
LINE
8
BLACK
6
CONTINUOUS
10
1.88424
20
-2.01035
11
1.8836
21
-2.00803
0
LINE
8
BLACK
6
CONTINUOUS
10
1.8836
20
-2.00803
11
1.86354
21
-2.00803
0
LINE
8
BLACK
6
CONTINUOUS
10
1.86354
20
-2.00803
11
1.863
21
-2.00819
0
LINE
8
BLACK
6
CONTINUOUS
10
1.863
20
-2.00819
11
1.86294
21
-2.00861
0
LINE
8
BLACK
6
CONTINUOUS
10
1.86294
20
-2.00861
11
1.86392
21
-2.01324
0
LINE
8
BLACK
6
CONTINUOUS
10
1.86392
20
-2.01324
11
1.86404
21
-2.01365
0
LINE
8
BLACK
6
CONTINUOUS
10
1.86404
20
-2.01365
11
1.86722
21
-2.02169
0
LINE
8
BLACK
6
CONTINUOUS
10
1.86722
20
-2.02169
11
1.8674
21
-2.02207
0
LINE
8
BLACK
6
CONTINUOUS
10
1.8674
20
-2.02207
11
1.87189
21
-2.02947
0
LINE
8
BLACK
6
CONTINUOUS
10
1.87189
20
-2.02947
11
1.87214
21
-2.02981
0
LINE
8
BLACK
6
CONTINUOUS
10
1.87214
20
-2.02981
11
1.87781
21
-2.03634
0
LINE
8
BLACK
6
CONTINUOUS
10
1.87781
20
-2.03634
11
1.87811
21
-2.03663
0
LINE
8
BLACK
6
CONTINUOUS
10
1.87811
20
-2.03663
11
1.8848
21
-2.04212
0
LINE
8
BLACK
6
CONTINUOUS
10
1.8848
20
-2.04212
11
1.88514
21
-2.04236
0
LINE
8
BLACK
6
CONTINUOUS
10
1.88514
20
-2.04236
11
1.89266
21
-2.04664
0
LINE
8
BLACK
6
CONTINUOUS
10
1.89266
20
-2.04664
11
1.89305
21
-2.04681
0
LINE
8
BLACK
6
CONTINUOUS
10
1.89305
20
-2.04681
11
1.90118
21
-2.04976
0
LINE
8
BLACK
6
CONTINUOUS
10
1.90118
20
-2.04976
11
1.90158
21
-2.04987
0
LINE
8
BLACK
6
CONTINUOUS
10
1.90158
20
-2.04987
11
1.91014
21
-2.05142
0
LINE
8
BLACK
6
CONTINUOUS
10
1.91014
20
-2.05142
11
1.91047
21
-2.05146
0
LINE
8
BLACK
6
CONTINUOUS
10
1.91047
20
-2.05146
11
1.91064
21
-2.05147
0
LINE
8
BLACK
6
CONTINUOUS
10
1.91064
20
-2.05147
11
1.91115
21
-2.05132
0
LINE
8
BLACK
6
CONTINUOUS
10
1.91115
20
-2.05132
11
1.91119
21
-2.05127
0
LINE
8
BLACK
6
CONTINUOUS
10
1.91119
20
-2.05127
11
1.91126
21
-2.05096
0
LINE
8
BLACK
6
CONTINUOUS
10
1.91126
20
-2.05096
11
1.91126
21
-2.03121
0
LINE
8
BLACK
6
CONTINUOUS
10
1.91126
20
-2.03121
11
1.90457
21
-2.02971
0
LINE
8
BLACK
6
CONTINUOUS
10
2.27951
20
-1.77435
11
2.28262
21
-1.77643
0
LINE
8
BLACK
6
CONTINUOUS
10
2.28262
20
-1.77643
11
2.2847
21
-1.77955
0
LINE
8
BLACK
6
CONTINUOUS
10
2.2847
20
-1.77955
11
2.28543
21
-1.78322
0
LINE
8
BLACK
6
CONTINUOUS
10
2.28543
20
-1.78322
11
2.28543
21
-1.81914
0
LINE
8
BLACK
6
CONTINUOUS
10
2.28543
20
-1.81914
11
2.2847
21
-1.82282
0
LINE
8
BLACK
6
CONTINUOUS
10
2.2847
20
-1.82282
11
2.28262
21
-1.82593
0
LINE
8
BLACK
6
CONTINUOUS
10
2.28262
20
-1.82593
11
2.27951
21
-1.82801
0
LINE
8
BLACK
6
CONTINUOUS
10
2.27951
20
-1.82801
11
2.27584
21
-1.82874
0
LINE
8
BLACK
6
CONTINUOUS
10
2.27584
20
-1.82874
11
2.25664
21
-1.82874
0
LINE
8
BLACK
6
CONTINUOUS
10
2.25664
20
-1.82874
11
2.25297
21
-1.82801
0
LINE
8
BLACK
6
CONTINUOUS
10
2.25297
20
-1.82801
11
2.24986
21
-1.82593
0
LINE
8
BLACK
6
CONTINUOUS
10
2.24986
20
-1.82593
11
2.24778
21
-1.82282
0
LINE
8
BLACK
6
CONTINUOUS
10
2.24778
20
-1.82282
11
2.24705
21
-1.81914
0
LINE
8
BLACK
6
CONTINUOUS
10
2.24705
20
-1.81914
11
2.24705
21
-1.8061
0
LINE
8
BLACK
6
CONTINUOUS
10
2.24705
20
-1.8061
11
2.02172
21
-1.8061
0
LINE
8
BLACK
6
CONTINUOUS
10
2.02172
20
-1.8061
11
1.95817
21
-1.86966
0
LINE
8
BLACK
6
CONTINUOUS
10
1.95817
20
-1.86966
11
1.95988
21
-1.87222
0
LINE
8
BLACK
6
CONTINUOUS
10
1.95988
20
-1.87222
11
1.96063
21
-1.87598
0
LINE
8
BLACK
6
CONTINUOUS
10
1.96063
20
-1.87598
11
1.96063
21
-1.92323
0
LINE
8
BLACK
6
CONTINUOUS
10
1.96063
20
-1.92323
11
1.95988
21
-1.92699
0
LINE
8
BLACK
6
CONTINUOUS
10
1.95988
20
-1.92699
11
1.95775
21
-1.93019
0
LINE
8
BLACK
6
CONTINUOUS
10
1.95775
20
-1.93019
11
1.95455
21
-1.93232
0
LINE
8
BLACK
6
CONTINUOUS
10
1.95455
20
-1.93232
11
1.95079
21
-1.93307
0
LINE
8
BLACK
6
CONTINUOUS
10
1.95079
20
-1.93307
11
1.89173
21
-1.93307
0
LINE
8
BLACK
6
CONTINUOUS
10
1.89173
20
-1.93307
11
1.88797
21
-1.93232
0
LINE
8
BLACK
6
CONTINUOUS
10
1.88797
20
-1.93232
11
1.88477
21
-1.93019
0
LINE
8
BLACK
6
CONTINUOUS
10
1.88477
20
-1.93019
11
1.88264
21
-1.92699
0
LINE
8
BLACK
6
CONTINUOUS
10
1.88264
20
-1.92699
11
1.88189
21
-1.92323
0
LINE
8
BLACK
6
CONTINUOUS
10
1.88189
20
-1.92323
11
1.88189
21
-1.87598
0
LINE
8
BLACK
6
CONTINUOUS
10
1.88189
20
-1.87598
11
1.88264
21
-1.87222
0
LINE
8
BLACK
6
CONTINUOUS
10
1.88264
20
-1.87222
11
1.88477
21
-1.86902
0
LINE
8
BLACK
6
CONTINUOUS
10
1.88477
20
-1.86902
11
1.88797
21
-1.86689
0
LINE
8
BLACK
6
CONTINUOUS
10
1.88797
20
-1.86689
11
1.89173
21
-1.86614
0
LINE
8
BLACK
6
CONTINUOUS
10
1.89173
20
-1.86614
11
1.94776
21
-1.86614
0
LINE
8
BLACK
6
CONTINUOUS
10
1.94776
20
-1.86614
11
2.01621
21
-1.7977
0
LINE
8
BLACK
6
CONTINUOUS
10
2.01621
20
-1.7977
11
2.01691
21
-1.79718
0
LINE
8
BLACK
6
CONTINUOUS
10
2.01691
20
-1.79718
11
2.01703
21
-1.79704
0
LINE
8
BLACK
6
CONTINUOUS
10
2.01703
20
-1.79704
11
2.01713
21
-1.79701
0
LINE
8
BLACK
6
CONTINUOUS
10
2.01713
20
-1.79701
11
2.01734
21
-1.79686
0
LINE
8
BLACK
6
CONTINUOUS
10
2.01734
20
-1.79686
11
2.01852
21
-1.7966
0
LINE
8
BLACK
6
CONTINUOUS
10
2.01852
20
-1.7966
11
2.01969
21
-1.79626
0
LINE
8
BLACK
6
CONTINUOUS
10
2.01969
20
-1.79626
11
2.24705
21
-1.79626
0
LINE
8
BLACK
6
CONTINUOUS
10
2.24705
20
-1.79626
11
2.24705
21
-1.78322
0
LINE
8
BLACK
6
CONTINUOUS
10
2.24705
20
-1.78322
11
2.24778
21
-1.77955
0
LINE
8
BLACK
6
CONTINUOUS
10
2.24778
20
-1.77955
11
2.24986
21
-1.77643
0
LINE
8
BLACK
6
CONTINUOUS
10
2.24986
20
-1.77643
11
2.25297
21
-1.77435
0
LINE
8
BLACK
6
CONTINUOUS
10
2.25297
20
-1.77435
11
2.25664
21
-1.77362
0
LINE
8
BLACK
6
CONTINUOUS
10
2.25664
20
-1.77362
11
2.27584
21
-1.77362
0
LINE
8
BLACK
6
CONTINUOUS
10
2.27584
20
-1.77362
11
2.27951
21
-1.77435
0
CIRCLE
8
BLACK
10
1.92126
20
-1.89961
40
0.019685
0
CIRCLE
8
BLACK
10
1.92126
20
-1.99803
40
0.019685
  0
ENDSEC
  0
EOF
