  0
SECTION
  2
HEADER
  9
$ANGBASE
  50
0.0
  9
$ANGDIR
  70
1
  9
$MEASUREMENT
  70
0
  0
ENDSEC
  0
SECTION
  2
TABLES
  0
TABLE
  2
LTYPE
  70
4
  0
LTYPE
  5
40F
  2
CONTINUOUS
  70
0
  3
Solid line
  72
65
  73
0
  40
0.0
  0
LTYPE
  5
410
  2
DASHDOT
 70
0
  3
Dash Dot ____ _ ____ _
 72
65
 73
4
 40
2.0
 49
1.25
 49
-0.25
 49
0.25
 49
-0.25
  0
LTYPE
  5
411
  2
DASHED
 70
0
  3
Dashed __ __ __ __ __
 72
65
 73
2
 40
0.75
 49
0.5
 49
-0.25
  0
LTYPE
  5
43B
  2
DOTTED
 70
0
  3
Dotted .  .  .  .
 72
65
 73
2
 40
0.2
 49
0.0
 49
-0.2
  0
ENDTAB
  0
TABLE
  2
STYLE
  70
4
  0
STYLE
  2
KICAD
  70
0
  40
0
  41
1
  42
1
  50
0
  71
0
  3
isocp.shx
  0
STYLE
  2
KICADB
  70
0
  40
0
  41
1
  42
1
  50
0
  71
0
  3
isocp.shx
  0
STYLE
  2
KICADI
  70
0
  40
0
  41
1
  42
1
  50
15
  71
0
  3
isocp.shx
  0
STYLE
  2
KICADBI
  70
0
  40
0
  41
1
  42
1
  50
15
  71
0
  3
isocp.shx
  0
ENDTAB
  0
TABLE
  2
LAYER
  70
1
  0
LAYER
  2
BLACK
  70
0
  62
7
  6
CONTINUOUS
  0
ENDTAB
  0
ENDSEC
  0
SECTION
  2
ENTITIES
0
LINE
8
BLACK
6
CONTINUOUS
10
1.92166
20
-2.0939
11
1.92354
21
-2.09577
0
LINE
8
BLACK
6
CONTINUOUS
10
1.92354
20
-2.09577
11
1.92412
21
-2.09661
0
LINE
8
BLACK
6
CONTINUOUS
10
1.92412
20
-2.09661
11
1.92414
21
-2.09679
0
LINE
8
BLACK
6
CONTINUOUS
10
1.92414
20
-2.09679
11
1.92425
21
-2.09693
0
LINE
8
BLACK
6
CONTINUOUS
10
1.92425
20
-2.09693
11
1.92612
21
-2.10255
0
LINE
8
BLACK
6
CONTINUOUS
10
1.92612
20
-2.10255
11
1.92625
21
-2.10343
0
LINE
8
BLACK
6
CONTINUOUS
10
1.92625
20
-2.10343
11
1.92627
21
-2.10349
0
LINE
8
BLACK
6
CONTINUOUS
10
1.92627
20
-2.10349
11
1.92627
21
-2.10724
0
LINE
8
BLACK
6
CONTINUOUS
10
1.92627
20
-2.10724
11
1.92612
21
-2.10811
0
LINE
8
BLACK
6
CONTINUOUS
10
1.92612
20
-2.10811
11
1.92612
21
-2.10817
0
LINE
8
BLACK
6
CONTINUOUS
10
1.92612
20
-2.10817
11
1.92425
21
-2.11379
0
LINE
8
BLACK
6
CONTINUOUS
10
1.92425
20
-2.11379
11
1.92376
21
-2.1147
0
LINE
8
BLACK
6
CONTINUOUS
10
1.92376
20
-2.1147
11
1.92361
21
-2.11479
0
LINE
8
BLACK
6
CONTINUOUS
10
1.92361
20
-2.11479
11
1.92354
21
-2.11495
0
LINE
8
BLACK
6
CONTINUOUS
10
1.92354
20
-2.11495
11
1.91979
21
-2.1187
0
LINE
8
BLACK
6
CONTINUOUS
10
1.91979
20
-2.1187
11
1.91906
21
-2.1192
0
LINE
8
BLACK
6
CONTINUOUS
10
1.91906
20
-2.1192
11
1.91902
21
-2.11925
0
LINE
8
BLACK
6
CONTINUOUS
10
1.91902
20
-2.11925
11
1.91527
21
-2.12113
0
LINE
8
BLACK
6
CONTINUOUS
10
1.91527
20
-2.12113
11
1.91478
21
-2.12127
0
LINE
8
BLACK
6
CONTINUOUS
10
1.91478
20
-2.12127
11
1.91466
21
-2.12135
0
LINE
8
BLACK
6
CONTINUOUS
10
1.91466
20
-2.12135
11
1.90717
21
-2.12322
0
LINE
8
BLACK
6
CONTINUOUS
10
1.90717
20
-2.12322
11
1.90658
21
-2.12327
0
LINE
8
BLACK
6
CONTINUOUS
10
1.90658
20
-2.12327
11
1.90645
21
-2.12331
0
LINE
8
BLACK
6
CONTINUOUS
10
1.90645
20
-2.12331
11
1.90082
21
-2.12331
0
LINE
8
BLACK
6
CONTINUOUS
10
1.90082
20
-2.12331
11
1.90024
21
-2.12321
0
LINE
8
BLACK
6
CONTINUOUS
10
1.90024
20
-2.12321
11
1.90011
21
-2.12322
0
LINE
8
BLACK
6
CONTINUOUS
10
1.90011
20
-2.12322
11
1.89261
21
-2.12135
0
LINE
8
BLACK
6
CONTINUOUS
10
1.89261
20
-2.12135
11
1.89214
21
-2.12114
0
LINE
8
BLACK
6
CONTINUOUS
10
1.89214
20
-2.12114
11
1.89201
21
-2.12113
0
LINE
8
BLACK
6
CONTINUOUS
10
1.89201
20
-2.12113
11
1.88826
21
-2.11925
0
LINE
8
BLACK
6
CONTINUOUS
10
1.88826
20
-2.11925
11
1.88755
21
-2.11873
0
LINE
8
BLACK
6
CONTINUOUS
10
1.88755
20
-2.11873
11
1.88749
21
-2.1187
0
LINE
8
BLACK
6
CONTINUOUS
10
1.88749
20
-2.1187
11
1.88374
21
-2.11495
0
LINE
8
BLACK
6
CONTINUOUS
10
1.88374
20
-2.11495
11
1.88315
21
-2.11411
0
LINE
8
BLACK
6
CONTINUOUS
10
1.88315
20
-2.11411
11
1.88314
21
-2.11393
0
LINE
8
BLACK
6
CONTINUOUS
10
1.88314
20
-2.11393
11
1.88303
21
-2.11379
0
LINE
8
BLACK
6
CONTINUOUS
10
1.88303
20
-2.11379
11
1.88115
21
-2.10817
0
LINE
8
BLACK
6
CONTINUOUS
10
1.88115
20
-2.10817
11
1.88102
21
-2.1073
0
LINE
8
BLACK
6
CONTINUOUS
10
1.88102
20
-2.1073
11
1.881
21
-2.10724
0
LINE
8
BLACK
6
CONTINUOUS
10
1.881
20
-2.10724
11
1.881
21
-2.10349
0
LINE
8
BLACK
6
CONTINUOUS
10
1.881
20
-2.10349
11
1.88115
21
-2.10262
0
LINE
8
BLACK
6
CONTINUOUS
10
1.88115
20
-2.10262
11
1.88115
21
-2.10255
0
LINE
8
BLACK
6
CONTINUOUS
10
1.88115
20
-2.10255
11
1.88303
21
-2.09693
0
LINE
8
BLACK
6
CONTINUOUS
10
1.88303
20
-2.09693
11
1.88351
21
-2.09603
0
LINE
8
BLACK
6
CONTINUOUS
10
1.88351
20
-2.09603
11
1.88366
21
-2.09593
0
LINE
8
BLACK
6
CONTINUOUS
10
1.88366
20
-2.09593
11
1.88374
21
-2.09577
0
LINE
8
BLACK
6
CONTINUOUS
10
1.88374
20
-2.09577
11
1.88561
21
-2.0939
0
LINE
8
BLACK
6
CONTINUOUS
10
1.88561
20
-2.0939
11
1.88645
21
-2.09331
0
LINE
8
BLACK
6
CONTINUOUS
10
1.88645
20
-2.09331
11
1.88847
21
-2.09314
0
LINE
8
BLACK
6
CONTINUOUS
10
1.88847
20
-2.09314
11
1.89012
21
-2.09429
0
LINE
8
BLACK
6
CONTINUOUS
10
1.89012
20
-2.09429
11
1.89064
21
-2.09625
0
LINE
8
BLACK
6
CONTINUOUS
10
1.89064
20
-2.09625
11
1.88979
21
-2.09808
0
LINE
8
BLACK
6
CONTINUOUS
10
1.88979
20
-2.09808
11
1.88841
21
-2.09946
0
LINE
8
BLACK
6
CONTINUOUS
10
1.88841
20
-2.09946
11
1.8869
21
-2.10397
0
LINE
8
BLACK
6
CONTINUOUS
10
1.8869
20
-2.10397
11
1.8869
21
-2.10676
0
LINE
8
BLACK
6
CONTINUOUS
10
1.8869
20
-2.10676
11
1.88841
21
-2.11127
0
LINE
8
BLACK
6
CONTINUOUS
10
1.88841
20
-2.11127
11
1.89133
21
-2.11418
0
LINE
8
BLACK
6
CONTINUOUS
10
1.89133
20
-2.11418
11
1.89436
21
-2.1157
0
LINE
8
BLACK
6
CONTINUOUS
10
1.89436
20
-2.1157
11
1.90119
21
-2.11741
0
LINE
8
BLACK
6
CONTINUOUS
10
1.90119
20
-2.11741
11
1.90609
21
-2.11741
0
LINE
8
BLACK
6
CONTINUOUS
10
1.90609
20
-2.11741
11
1.91292
21
-2.1157
0
LINE
8
BLACK
6
CONTINUOUS
10
1.91292
20
-2.1157
11
1.91595
21
-2.11418
0
LINE
8
BLACK
6
CONTINUOUS
10
1.91595
20
-2.11418
11
1.91887
21
-2.11127
0
LINE
8
BLACK
6
CONTINUOUS
10
1.91887
20
-2.11127
11
1.92037
21
-2.10676
0
LINE
8
BLACK
6
CONTINUOUS
10
1.92037
20
-2.10676
11
1.92037
21
-2.10397
0
LINE
8
BLACK
6
CONTINUOUS
10
1.92037
20
-2.10397
11
1.91887
21
-2.09946
0
LINE
8
BLACK
6
CONTINUOUS
10
1.91887
20
-2.09946
11
1.91748
21
-2.09808
0
LINE
8
BLACK
6
CONTINUOUS
10
1.91748
20
-2.09808
11
1.9169
21
-2.09724
0
LINE
8
BLACK
6
CONTINUOUS
10
1.9169
20
-2.09724
11
1.91672
21
-2.09522
0
LINE
8
BLACK
6
CONTINUOUS
10
1.91672
20
-2.09522
11
1.91788
21
-2.09357
0
LINE
8
BLACK
6
CONTINUOUS
10
1.91788
20
-2.09357
11
1.91983
21
-2.09305
0
LINE
8
BLACK
6
CONTINUOUS
10
1.91983
20
-2.09305
11
1.92166
21
-2.0939
0
LINE
8
BLACK
6
CONTINUOUS
10
1.95136
20
-2.09785
11
1.95079
21
-2.09646
0
LINE
8
BLACK
6
CONTINUOUS
10
1.95079
20
-2.09646
11
1.95079
21
-1.80118
0
LINE
8
BLACK
6
CONTINUOUS
10
1.95079
20
-1.80118
11
1.95136
21
-1.79979
0
LINE
8
BLACK
6
CONTINUOUS
10
1.95136
20
-1.79979
11
1.95276
21
-1.79921
0
LINE
8
BLACK
6
CONTINUOUS
10
1.95276
20
-1.79921
11
2.10236
21
-1.79921
0
LINE
8
BLACK
6
CONTINUOUS
10
2.10236
20
-1.79921
11
2.10375
21
-1.79979
0
LINE
8
BLACK
6
CONTINUOUS
10
2.10375
20
-1.79979
11
2.10433
21
-1.80118
0
LINE
8
BLACK
6
CONTINUOUS
10
2.10433
20
-1.80118
11
2.10433
21
-2.09646
0
LINE
8
BLACK
6
CONTINUOUS
10
2.10433
20
-2.09646
11
2.10375
21
-2.09785
0
LINE
8
BLACK
6
CONTINUOUS
10
2.10375
20
-2.09785
11
2.10236
21
-2.09843
0
LINE
8
BLACK
6
CONTINUOUS
10
2.10236
20
-2.09843
11
1.95276
21
-2.09843
0
LINE
8
BLACK
6
CONTINUOUS
10
1.95276
20
-2.09843
11
1.95136
21
-2.09785
0
LINE
8
BLACK
6
CONTINUOUS
10
1.95472
20
-1.80315
11
1.95472
21
-2.09449
0
LINE
8
BLACK
6
CONTINUOUS
10
1.95472
20
-2.09449
11
2.10039
21
-2.09449
0
LINE
8
BLACK
6
CONTINUOUS
10
2.10039
20
-2.09449
11
2.10039
21
-1.80315
0
LINE
8
BLACK
6
CONTINUOUS
10
2.10039
20
-1.80315
11
1.95472
21
-1.80315
0
LINE
8
BLACK
6
CONTINUOUS
10
1.98775
20
-1.95914
11
1.98781
21
-1.95914
0
LINE
8
BLACK
6
CONTINUOUS
10
1.98781
20
-1.95914
11
1.99343
21
-1.96102
0
LINE
8
BLACK
6
CONTINUOUS
10
1.99343
20
-1.96102
11
1.99434
21
-1.9615
0
LINE
8
BLACK
6
CONTINUOUS
10
1.99434
20
-1.9615
11
1.99443
21
-1.96165
0
LINE
8
BLACK
6
CONTINUOUS
10
1.99443
20
-1.96165
11
1.99459
21
-1.96173
0
LINE
8
BLACK
6
CONTINUOUS
10
1.99459
20
-1.96173
11
1.99834
21
-1.96548
0
LINE
8
BLACK
6
CONTINUOUS
10
1.99834
20
-1.96548
11
1.99893
21
-1.96632
0
LINE
8
BLACK
6
CONTINUOUS
10
1.99893
20
-1.96632
11
1.99894
21
-1.96649
0
LINE
8
BLACK
6
CONTINUOUS
10
1.99894
20
-1.96649
11
1.99905
21
-1.96663
0
LINE
8
BLACK
6
CONTINUOUS
10
1.99905
20
-1.96663
11
2.00093
21
-1.97226
0
LINE
8
BLACK
6
CONTINUOUS
10
2.00093
20
-1.97226
11
2.00106
21
-1.97313
0
LINE
8
BLACK
6
CONTINUOUS
10
2.00106
20
-1.97313
11
2.00108
21
-1.97319
0
LINE
8
BLACK
6
CONTINUOUS
10
2.00108
20
-1.97319
11
2.00108
21
-1.97694
0
LINE
8
BLACK
6
CONTINUOUS
10
2.00108
20
-1.97694
11
2.0009
21
-1.97795
0
LINE
8
BLACK
6
CONTINUOUS
10
2.0009
20
-1.97795
11
1.9996
21
-1.9795
0
LINE
8
BLACK
6
CONTINUOUS
10
1.9996
20
-1.9795
11
1.99761
21
-1.97985
0
LINE
8
BLACK
6
CONTINUOUS
10
1.99761
20
-1.97985
11
1.99586
21
-1.97884
0
LINE
8
BLACK
6
CONTINUOUS
10
1.99586
20
-1.97884
11
1.99517
21
-1.97694
0
LINE
8
BLACK
6
CONTINUOUS
10
1.99517
20
-1.97694
11
1.99517
21
-1.97367
0
LINE
8
BLACK
6
CONTINUOUS
10
1.99517
20
-1.97367
11
1.99367
21
-1.96916
0
LINE
8
BLACK
6
CONTINUOUS
10
1.99367
20
-1.96916
11
1.99091
21
-1.9664
0
LINE
8
BLACK
6
CONTINUOUS
10
1.99091
20
-1.9664
11
1.9864
21
-1.9649
0
LINE
8
BLACK
6
CONTINUOUS
10
1.9864
20
-1.9649
11
1.95876
21
-1.9649
0
LINE
8
BLACK
6
CONTINUOUS
10
1.95876
20
-1.9649
11
1.95775
21
-1.96472
0
LINE
8
BLACK
6
CONTINUOUS
10
1.95775
20
-1.96472
11
1.9562
21
-1.96342
0
LINE
8
BLACK
6
CONTINUOUS
10
1.9562
20
-1.96342
11
1.95585
21
-1.96143
0
LINE
8
BLACK
6
CONTINUOUS
10
1.95585
20
-1.96143
11
1.95686
21
-1.95968
0
LINE
8
BLACK
6
CONTINUOUS
10
1.95686
20
-1.95968
11
1.95876
21
-1.95899
0
LINE
8
BLACK
6
CONTINUOUS
10
1.95876
20
-1.95899
11
1.98688
21
-1.95899
0
LINE
8
BLACK
6
CONTINUOUS
10
1.98688
20
-1.95899
11
1.98775
21
-1.95914
0
LINE
8
BLACK
6
CONTINUOUS
10
2.00039
20
-1.92067
11
2.00108
21
-1.92257
0
LINE
8
BLACK
6
CONTINUOUS
10
2.00108
20
-1.92257
11
2.00108
21
-1.94507
0
LINE
8
BLACK
6
CONTINUOUS
10
2.00108
20
-1.94507
11
2.0009
21
-1.94608
0
LINE
8
BLACK
6
CONTINUOUS
10
2.0009
20
-1.94608
11
1.9996
21
-1.94763
0
LINE
8
BLACK
6
CONTINUOUS
10
1.9996
20
-1.94763
11
1.99761
21
-1.94798
0
LINE
8
BLACK
6
CONTINUOUS
10
1.99761
20
-1.94798
11
1.99586
21
-1.94697
0
LINE
8
BLACK
6
CONTINUOUS
10
1.99586
20
-1.94697
11
1.99517
21
-1.94507
0
LINE
8
BLACK
6
CONTINUOUS
10
1.99517
20
-1.94507
11
1.99517
21
-1.93677
0
LINE
8
BLACK
6
CONTINUOUS
10
1.99517
20
-1.93677
11
1.96776
21
-1.93677
0
LINE
8
BLACK
6
CONTINUOUS
10
1.96776
20
-1.93677
11
1.97022
21
-1.93923
0
LINE
8
BLACK
6
CONTINUOUS
10
1.97022
20
-1.93923
11
1.97072
21
-1.93996
0
LINE
8
BLACK
6
CONTINUOUS
10
1.97072
20
-1.93996
11
1.97077
21
-1.94
0
LINE
8
BLACK
6
CONTINUOUS
10
1.97077
20
-1.94
11
1.97264
21
-1.94375
0
LINE
8
BLACK
6
CONTINUOUS
10
1.97264
20
-1.94375
11
1.97294
21
-1.94473
0
LINE
8
BLACK
6
CONTINUOUS
10
1.97294
20
-1.94473
11
1.97247
21
-1.9467
0
LINE
8
BLACK
6
CONTINUOUS
10
1.97247
20
-1.9467
11
1.97085
21
-1.9479
0
LINE
8
BLACK
6
CONTINUOUS
10
1.97085
20
-1.9479
11
1.96883
21
-1.94778
0
LINE
8
BLACK
6
CONTINUOUS
10
1.96883
20
-1.94778
11
1.96736
21
-1.94639
0
LINE
8
BLACK
6
CONTINUOUS
10
1.96736
20
-1.94639
11
1.9657
21
-1.94307
0
LINE
8
BLACK
6
CONTINUOUS
10
1.9657
20
-1.94307
11
1.9625
21
-1.93986
0
LINE
8
BLACK
6
CONTINUOUS
10
1.9625
20
-1.93986
11
1.95712
21
-1.93628
0
LINE
8
BLACK
6
CONTINUOUS
10
1.95712
20
-1.93628
11
1.95638
21
-1.93557
0
LINE
8
BLACK
6
CONTINUOUS
10
1.95638
20
-1.93557
11
1.95633
21
-1.93541
0
LINE
8
BLACK
6
CONTINUOUS
10
1.95633
20
-1.93541
11
1.9562
21
-1.9353
0
LINE
8
BLACK
6
CONTINUOUS
10
1.9562
20
-1.9353
11
1.95605
21
-1.93445
0
LINE
8
BLACK
6
CONTINUOUS
10
1.95605
20
-1.93445
11
1.95581
21
-1.93363
0
LINE
8
BLACK
6
CONTINUOUS
10
1.95581
20
-1.93363
11
1.95588
21
-1.93348
0
LINE
8
BLACK
6
CONTINUOUS
10
1.95588
20
-1.93348
11
1.95585
21
-1.93331
0
LINE
8
BLACK
6
CONTINUOUS
10
1.95585
20
-1.93331
11
1.95628
21
-1.93257
0
LINE
8
BLACK
6
CONTINUOUS
10
1.95628
20
-1.93257
11
1.95662
21
-1.93178
0
LINE
8
BLACK
6
CONTINUOUS
10
1.95662
20
-1.93178
11
1.95677
21
-1.93171
0
LINE
8
BLACK
6
CONTINUOUS
10
1.95677
20
-1.93171
11
1.95686
21
-1.93156
0
LINE
8
BLACK
6
CONTINUOUS
10
1.95686
20
-1.93156
11
1.95766
21
-1.93127
0
LINE
8
BLACK
6
CONTINUOUS
10
1.95766
20
-1.93127
11
1.95843
21
-1.93089
0
LINE
8
BLACK
6
CONTINUOUS
10
1.95843
20
-1.93089
11
1.9586
21
-1.93093
0
LINE
8
BLACK
6
CONTINUOUS
10
1.9586
20
-1.93093
11
1.95876
21
-1.93087
0
LINE
8
BLACK
6
CONTINUOUS
10
1.95876
20
-1.93087
11
1.99517
21
-1.93087
0
LINE
8
BLACK
6
CONTINUOUS
10
1.99517
20
-1.93087
11
1.99517
21
-1.92257
0
LINE
8
BLACK
6
CONTINUOUS
10
1.99517
20
-1.92257
11
1.99535
21
-1.92156
0
LINE
8
BLACK
6
CONTINUOUS
10
1.99535
20
-1.92156
11
1.99665
21
-1.92002
0
LINE
8
BLACK
6
CONTINUOUS
10
1.99665
20
-1.92002
11
1.99864
21
-1.91966
0
LINE
8
BLACK
6
CONTINUOUS
10
1.99864
20
-1.91966
11
2.00039
21
-1.92067
0
LINE
8
BLACK
6
CONTINUOUS
10
1.91683
20
-2.05759
11
1.91697
21
-2.05771
0
LINE
8
BLACK
6
CONTINUOUS
10
1.91697
20
-2.05771
11
1.91714
21
-2.05773
0
LINE
8
BLACK
6
CONTINUOUS
10
1.91714
20
-2.05773
11
1.92089
21
-2.0596
0
LINE
8
BLACK
6
CONTINUOUS
10
1.92089
20
-2.0596
11
1.9216
21
-2.06013
0
LINE
8
BLACK
6
CONTINUOUS
10
1.9216
20
-2.06013
11
1.92166
21
-2.06015
0
LINE
8
BLACK
6
CONTINUOUS
10
1.92166
20
-2.06015
11
1.92354
21
-2.06203
0
LINE
8
BLACK
6
CONTINUOUS
10
1.92354
20
-2.06203
11
1.92404
21
-2.06275
0
LINE
8
BLACK
6
CONTINUOUS
10
1.92404
20
-2.06275
11
1.92409
21
-2.0628
0
LINE
8
BLACK
6
CONTINUOUS
10
1.92409
20
-2.0628
11
1.92596
21
-2.06655
0
LINE
8
BLACK
6
CONTINUOUS
10
1.92596
20
-2.06655
11
1.92626
21
-2.06753
0
LINE
8
BLACK
6
CONTINUOUS
10
1.92626
20
-2.06753
11
1.92621
21
-2.0677
0
LINE
8
BLACK
6
CONTINUOUS
10
1.92621
20
-2.0677
11
1.92627
21
-2.06787
0
LINE
8
BLACK
6
CONTINUOUS
10
1.92627
20
-2.06787
11
1.92627
21
-2.07349
0
LINE
8
BLACK
6
CONTINUOUS
10
1.92627
20
-2.07349
11
1.9261
21
-2.0745
0
LINE
8
BLACK
6
CONTINUOUS
10
1.9261
20
-2.0745
11
1.92598
21
-2.07464
0
LINE
8
BLACK
6
CONTINUOUS
10
1.92598
20
-2.07464
11
1.92596
21
-2.07481
0
LINE
8
BLACK
6
CONTINUOUS
10
1.92596
20
-2.07481
11
1.92409
21
-2.07856
0
LINE
8
BLACK
6
CONTINUOUS
10
1.92409
20
-2.07856
11
1.92356
21
-2.07927
0
LINE
8
BLACK
6
CONTINUOUS
10
1.92356
20
-2.07927
11
1.92354
21
-2.07933
0
LINE
8
BLACK
6
CONTINUOUS
10
1.92354
20
-2.07933
11
1.92166
21
-2.0812
0
LINE
8
BLACK
6
CONTINUOUS
10
1.92166
20
-2.0812
11
1.92094
21
-2.08171
0
LINE
8
BLACK
6
CONTINUOUS
10
1.92094
20
-2.08171
11
1.92089
21
-2.08176
0
LINE
8
BLACK
6
CONTINUOUS
10
1.92089
20
-2.08176
11
1.91714
21
-2.08363
0
LINE
8
BLACK
6
CONTINUOUS
10
1.91714
20
-2.08363
11
1.91616
21
-2.08392
0
LINE
8
BLACK
6
CONTINUOUS
10
1.91616
20
-2.08392
11
1.91599
21
-2.08388
0
LINE
8
BLACK
6
CONTINUOUS
10
1.91599
20
-2.08388
11
1.91582
21
-2.08394
0
LINE
8
BLACK
6
CONTINUOUS
10
1.91582
20
-2.08394
11
1.90457
21
-2.08394
0
LINE
8
BLACK
6
CONTINUOUS
10
1.90457
20
-2.08394
11
1.90356
21
-2.08376
0
LINE
8
BLACK
6
CONTINUOUS
10
1.90356
20
-2.08376
11
1.90343
21
-2.08365
0
LINE
8
BLACK
6
CONTINUOUS
10
1.90343
20
-2.08365
11
1.90325
21
-2.08363
0
LINE
8
BLACK
6
CONTINUOUS
10
1.90325
20
-2.08363
11
1.8995
21
-2.08176
0
LINE
8
BLACK
6
CONTINUOUS
10
1.8995
20
-2.08176
11
1.8988
21
-2.08123
0
LINE
8
BLACK
6
CONTINUOUS
10
1.8988
20
-2.08123
11
1.89874
21
-2.0812
0
LINE
8
BLACK
6
CONTINUOUS
10
1.89874
20
-2.0812
11
1.89686
21
-2.07933
0
LINE
8
BLACK
6
CONTINUOUS
10
1.89686
20
-2.07933
11
1.89636
21
-2.07861
0
LINE
8
BLACK
6
CONTINUOUS
10
1.89636
20
-2.07861
11
1.89631
21
-2.07856
0
LINE
8
BLACK
6
CONTINUOUS
10
1.89631
20
-2.07856
11
1.89443
21
-2.07481
0
LINE
8
BLACK
6
CONTINUOUS
10
1.89443
20
-2.07481
11
1.89414
21
-2.07383
0
LINE
8
BLACK
6
CONTINUOUS
10
1.89414
20
-2.07383
11
1.89418
21
-2.07366
0
LINE
8
BLACK
6
CONTINUOUS
10
1.89418
20
-2.07366
11
1.89412
21
-2.07349
0
LINE
8
BLACK
6
CONTINUOUS
10
1.89412
20
-2.07349
11
1.89412
21
-2.06787
0
LINE
8
BLACK
6
CONTINUOUS
10
1.89412
20
-2.06787
11
1.8943
21
-2.06686
0
LINE
8
BLACK
6
CONTINUOUS
10
1.8943
20
-2.06686
11
1.89441
21
-2.06672
0
LINE
8
BLACK
6
CONTINUOUS
10
1.89441
20
-2.06672
11
1.89443
21
-2.06655
0
LINE
8
BLACK
6
CONTINUOUS
10
1.89443
20
-2.06655
11
1.89631
21
-2.0628
0
LINE
8
BLACK
6
CONTINUOUS
10
1.89631
20
-2.0628
11
1.89684
21
-2.06209
0
LINE
8
BLACK
6
CONTINUOUS
10
1.89684
20
-2.06209
11
1.89686
21
-2.06203
0
LINE
8
BLACK
6
CONTINUOUS
10
1.89686
20
-2.06203
11
1.89874
21
-2.06015
0
LINE
8
BLACK
6
CONTINUOUS
10
1.89874
20
-2.06015
11
1.89946
21
-2.05965
0
LINE
8
BLACK
6
CONTINUOUS
10
1.89946
20
-2.05965
11
1.8995
21
-2.0596
0
LINE
8
BLACK
6
CONTINUOUS
10
1.8995
20
-2.0596
11
1.90325
21
-2.05773
0
LINE
8
BLACK
6
CONTINUOUS
10
1.90325
20
-2.05773
11
1.90424
21
-2.05743
0
LINE
8
BLACK
6
CONTINUOUS
10
1.90424
20
-2.05743
11
1.90441
21
-2.05748
0
LINE
8
BLACK
6
CONTINUOUS
10
1.90441
20
-2.05748
11
1.90457
21
-2.05741
0
LINE
8
BLACK
6
CONTINUOUS
10
1.90457
20
-2.05741
11
1.91582
21
-2.05741
0
LINE
8
BLACK
6
CONTINUOUS
10
1.91582
20
-2.05741
11
1.91683
21
-2.05759
0
LINE
8
BLACK
6
CONTINUOUS
10
1.90527
20
-2.06332
11
1.90257
21
-2.06467
0
LINE
8
BLACK
6
CONTINUOUS
10
1.90257
20
-2.06467
11
1.90138
21
-2.06587
0
LINE
8
BLACK
6
CONTINUOUS
10
1.90138
20
-2.06587
11
1.90003
21
-2.06856
0
LINE
8
BLACK
6
CONTINUOUS
10
1.90003
20
-2.06856
11
1.90003
21
-2.07279
0
LINE
8
BLACK
6
CONTINUOUS
10
1.90003
20
-2.07279
11
1.90138
21
-2.07549
0
LINE
8
BLACK
6
CONTINUOUS
10
1.90138
20
-2.07549
11
1.90257
21
-2.07669
0
LINE
8
BLACK
6
CONTINUOUS
10
1.90257
20
-2.07669
11
1.90527
21
-2.07804
0
LINE
8
BLACK
6
CONTINUOUS
10
1.90527
20
-2.07804
11
1.91513
21
-2.07804
0
LINE
8
BLACK
6
CONTINUOUS
10
1.91513
20
-2.07804
11
1.91782
21
-2.07669
0
LINE
8
BLACK
6
CONTINUOUS
10
1.91782
20
-2.07669
11
1.91902
21
-2.07549
0
LINE
8
BLACK
6
CONTINUOUS
10
1.91902
20
-2.07549
11
1.92037
21
-2.07279
0
LINE
8
BLACK
6
CONTINUOUS
10
1.92037
20
-2.07279
11
1.92037
21
-2.06856
0
LINE
8
BLACK
6
CONTINUOUS
10
1.92037
20
-2.06856
11
1.91902
21
-2.06587
0
LINE
8
BLACK
6
CONTINUOUS
10
1.91902
20
-2.06587
11
1.91782
21
-2.06467
0
LINE
8
BLACK
6
CONTINUOUS
10
1.91782
20
-2.06467
11
1.91513
21
-2.06332
0
LINE
8
BLACK
6
CONTINUOUS
10
1.91513
20
-2.06332
11
1.90527
21
-2.06332
0
LINE
8
BLACK
6
CONTINUOUS
10
1.92433
20
-2.02385
11
1.92588
21
-2.02515
0
LINE
8
BLACK
6
CONTINUOUS
10
1.92588
20
-2.02515
11
1.92623
21
-2.02713
0
LINE
8
BLACK
6
CONTINUOUS
10
1.92623
20
-2.02713
11
1.92522
21
-2.02888
0
LINE
8
BLACK
6
CONTINUOUS
10
1.92522
20
-2.02888
11
1.92332
21
-2.02957
0
LINE
8
BLACK
6
CONTINUOUS
10
1.92332
20
-2.02957
11
1.9034
21
-2.02957
0
LINE
8
BLACK
6
CONTINUOUS
10
1.9034
20
-2.02957
11
1.90115
21
-2.0307
0
LINE
8
BLACK
6
CONTINUOUS
10
1.90115
20
-2.0307
11
1.90003
21
-2.03294
0
LINE
8
BLACK
6
CONTINUOUS
10
1.90003
20
-2.03294
11
1.90003
21
-2.03717
0
LINE
8
BLACK
6
CONTINUOUS
10
1.90003
20
-2.03717
11
1.90138
21
-2.03987
0
LINE
8
BLACK
6
CONTINUOUS
10
1.90138
20
-2.03987
11
1.90205
21
-2.04054
0
LINE
8
BLACK
6
CONTINUOUS
10
1.90205
20
-2.04054
11
1.92332
21
-2.04054
0
LINE
8
BLACK
6
CONTINUOUS
10
1.92332
20
-2.04054
11
1.92433
21
-2.04072
0
LINE
8
BLACK
6
CONTINUOUS
10
1.92433
20
-2.04072
11
1.92588
21
-2.04202
0
LINE
8
BLACK
6
CONTINUOUS
10
1.92588
20
-2.04202
11
1.92623
21
-2.04401
0
LINE
8
BLACK
6
CONTINUOUS
10
1.92623
20
-2.04401
11
1.92522
21
-2.04576
0
LINE
8
BLACK
6
CONTINUOUS
10
1.92522
20
-2.04576
11
1.92332
21
-2.04645
0
LINE
8
BLACK
6
CONTINUOUS
10
1.92332
20
-2.04645
11
1.89708
21
-2.04645
0
LINE
8
BLACK
6
CONTINUOUS
10
1.89708
20
-2.04645
11
1.89607
21
-2.04627
0
LINE
8
BLACK
6
CONTINUOUS
10
1.89607
20
-2.04627
11
1.89452
21
-2.04497
0
LINE
8
BLACK
6
CONTINUOUS
10
1.89452
20
-2.04497
11
1.89417
21
-2.04298
0
LINE
8
BLACK
6
CONTINUOUS
10
1.89417
20
-2.04298
11
1.89518
21
-2.04123
0
LINE
8
BLACK
6
CONTINUOUS
10
1.89518
20
-2.04123
11
1.89541
21
-2.04115
0
LINE
8
BLACK
6
CONTINUOUS
10
1.89541
20
-2.04115
11
1.89443
21
-2.03919
0
LINE
8
BLACK
6
CONTINUOUS
10
1.89443
20
-2.03919
11
1.89414
21
-2.03821
0
LINE
8
BLACK
6
CONTINUOUS
10
1.89414
20
-2.03821
11
1.89418
21
-2.03804
0
LINE
8
BLACK
6
CONTINUOUS
10
1.89418
20
-2.03804
11
1.89412
21
-2.03787
0
LINE
8
BLACK
6
CONTINUOUS
10
1.89412
20
-2.03787
11
1.89412
21
-2.03225
0
LINE
8
BLACK
6
CONTINUOUS
10
1.89412
20
-2.03225
11
1.8943
21
-2.03124
0
LINE
8
BLACK
6
CONTINUOUS
10
1.8943
20
-2.03124
11
1.89441
21
-2.0311
0
LINE
8
BLACK
6
CONTINUOUS
10
1.89441
20
-2.0311
11
1.89443
21
-2.03093
0
LINE
8
BLACK
6
CONTINUOUS
10
1.89443
20
-2.03093
11
1.89631
21
-2.02718
0
LINE
8
BLACK
6
CONTINUOUS
10
1.89631
20
-2.02718
11
1.89692
21
-2.02635
0
LINE
8
BLACK
6
CONTINUOUS
10
1.89692
20
-2.02635
11
1.89733
21
-2.02618
0
LINE
8
BLACK
6
CONTINUOUS
10
1.89733
20
-2.02618
11
1.89763
21
-2.02586
0
LINE
8
BLACK
6
CONTINUOUS
10
1.89763
20
-2.02586
11
1.90138
21
-2.02398
0
LINE
8
BLACK
6
CONTINUOUS
10
1.90138
20
-2.02398
11
1.90236
21
-2.02369
0
LINE
8
BLACK
6
CONTINUOUS
10
1.90236
20
-2.02369
11
1.90253
21
-2.02373
0
LINE
8
BLACK
6
CONTINUOUS
10
1.90253
20
-2.02373
11
1.9027
21
-2.02367
0
LINE
8
BLACK
6
CONTINUOUS
10
1.9027
20
-2.02367
11
1.92332
21
-2.02367
0
LINE
8
BLACK
6
CONTINUOUS
10
1.92332
20
-2.02367
11
1.92433
21
-2.02385
0
LINE
8
BLACK
6
CONTINUOUS
10
2.21318
20
-2.04371
11
2.2126
21
-2.04232
0
LINE
8
BLACK
6
CONTINUOUS
10
2.2126
20
-2.04232
11
2.2126
21
-1.99311
0
LINE
8
BLACK
6
CONTINUOUS
10
2.2126
20
-1.99311
11
2.21318
21
-1.99172
0
LINE
8
BLACK
6
CONTINUOUS
10
2.21318
20
-1.99172
11
2.21457
21
-1.99114
0
LINE
8
BLACK
6
CONTINUOUS
10
2.21457
20
-1.99114
11
2.29331
21
-1.99114
0
LINE
8
BLACK
6
CONTINUOUS
10
2.29331
20
-1.99114
11
2.2947
21
-1.99172
0
LINE
8
BLACK
6
CONTINUOUS
10
2.2947
20
-1.99172
11
2.29528
21
-1.99311
0
LINE
8
BLACK
6
CONTINUOUS
10
2.29528
20
-1.99311
11
2.29528
21
-2.04232
0
LINE
8
BLACK
6
CONTINUOUS
10
2.29528
20
-2.04232
11
2.2947
21
-2.04371
0
LINE
8
BLACK
6
CONTINUOUS
10
2.2947
20
-2.04371
11
2.29331
21
-2.04429
0
LINE
8
BLACK
6
CONTINUOUS
10
2.29331
20
-2.04429
11
2.21457
21
-2.04429
0
LINE
8
BLACK
6
CONTINUOUS
10
2.21457
20
-2.04429
11
2.21318
21
-2.04371
0
LINE
8
BLACK
6
CONTINUOUS
10
2.21654
20
-1.99508
11
2.21654
21
-2.04035
0
LINE
8
BLACK
6
CONTINUOUS
10
2.21654
20
-2.04035
11
2.29134
21
-2.04035
0
LINE
8
BLACK
6
CONTINUOUS
10
2.29134
20
-2.04035
11
2.29134
21
-1.99508
0
LINE
8
BLACK
6
CONTINUOUS
10
2.29134
20
-1.99508
11
2.21654
21
-1.99508
0
LINE
8
BLACK
6
CONTINUOUS
10
2.25704
20
-2.02774
11
2.25658
21
-2.02662
0
LINE
8
BLACK
6
CONTINUOUS
10
2.25658
20
-2.02662
11
2.25704
21
-2.02551
0
LINE
8
BLACK
6
CONTINUOUS
10
2.25704
20
-2.02551
11
2.25816
21
-2.02505
0
LINE
8
BLACK
6
CONTINUOUS
10
2.25816
20
-2.02505
11
2.2622
21
-2.02505
0
LINE
8
BLACK
6
CONTINUOUS
10
2.2622
20
-2.02505
11
2.2622
21
-2.01168
0
LINE
8
BLACK
6
CONTINUOUS
10
2.2622
20
-2.01168
11
2.26114
21
-2.01274
0
LINE
8
BLACK
6
CONTINUOUS
10
2.26114
20
-2.01274
11
2.2609
21
-2.01284
0
LINE
8
BLACK
6
CONTINUOUS
10
2.2609
20
-2.01284
11
2.26073
21
-2.01303
0
LINE
8
BLACK
6
CONTINUOUS
10
2.26073
20
-2.01303
11
2.25886
21
-2.01397
0
LINE
8
BLACK
6
CONTINUOUS
10
2.25886
20
-2.01397
11
2.25766
21
-2.01405
0
LINE
8
BLACK
6
CONTINUOUS
10
2.25766
20
-2.01405
11
2.25675
21
-2.01327
0
LINE
8
BLACK
6
CONTINUOUS
10
2.25675
20
-2.01327
11
2.25666
21
-2.01206
0
LINE
8
BLACK
6
CONTINUOUS
10
2.25666
20
-2.01206
11
2.25745
21
-2.01115
0
LINE
8
BLACK
6
CONTINUOUS
10
2.25745
20
-2.01115
11
2.2591
21
-2.01033
0
LINE
8
BLACK
6
CONTINUOUS
10
2.2591
20
-2.01033
11
2.26068
21
-2.00875
0
LINE
8
BLACK
6
CONTINUOUS
10
2.26068
20
-2.00875
11
2.26247
21
-2.00606
0
LINE
8
BLACK
6
CONTINUOUS
10
2.26247
20
-2.00606
11
2.2626
21
-2.00597
0
LINE
8
BLACK
6
CONTINUOUS
10
2.2626
20
-2.00597
11
2.26267
21
-2.00582
0
LINE
8
BLACK
6
CONTINUOUS
10
2.26267
20
-2.00582
11
2.26309
21
-2.00565
0
LINE
8
BLACK
6
CONTINUOUS
10
2.26309
20
-2.00565
11
2.26347
21
-2.00539
0
LINE
8
BLACK
6
CONTINUOUS
10
2.26347
20
-2.00539
11
2.26363
21
-2.00542
0
LINE
8
BLACK
6
CONTINUOUS
10
2.26363
20
-2.00542
11
2.26378
21
-2.00536
0
LINE
8
BLACK
6
CONTINUOUS
10
2.26378
20
-2.00536
11
2.2642
21
-2.00554
0
LINE
8
BLACK
6
CONTINUOUS
10
2.2642
20
-2.00554
11
2.26465
21
-2.00563
0
LINE
8
BLACK
6
CONTINUOUS
10
2.26465
20
-2.00563
11
2.26474
21
-2.00576
0
LINE
8
BLACK
6
CONTINUOUS
10
2.26474
20
-2.00576
11
2.26489
21
-2.00582
0
LINE
8
BLACK
6
CONTINUOUS
10
2.26489
20
-2.00582
11
2.26507
21
-2.00625
0
LINE
8
BLACK
6
CONTINUOUS
10
2.26507
20
-2.00625
11
2.26532
21
-2.00663
0
LINE
8
BLACK
6
CONTINUOUS
10
2.26532
20
-2.00663
11
2.26529
21
-2.00679
0
LINE
8
BLACK
6
CONTINUOUS
10
2.26529
20
-2.00679
11
2.26535
21
-2.00694
0
LINE
8
BLACK
6
CONTINUOUS
10
2.26535
20
-2.00694
11
2.26535
21
-2.02505
0
LINE
8
BLACK
6
CONTINUOUS
10
2.26535
20
-2.02505
11
2.2694
21
-2.02505
0
LINE
8
BLACK
6
CONTINUOUS
10
2.2694
20
-2.02505
11
2.27052
21
-2.02551
0
LINE
8
BLACK
6
CONTINUOUS
10
2.27052
20
-2.02551
11
2.27098
21
-2.02662
0
LINE
8
BLACK
6
CONTINUOUS
10
2.27098
20
-2.02662
11
2.27052
21
-2.02774
0
LINE
8
BLACK
6
CONTINUOUS
10
2.27052
20
-2.02774
11
2.2694
21
-2.0282
0
LINE
8
BLACK
6
CONTINUOUS
10
2.2694
20
-2.0282
11
2.25816
21
-2.0282
0
LINE
8
BLACK
6
CONTINUOUS
10
2.25816
20
-2.0282
11
2.25704
21
-2.02774
0
LINE
8
BLACK
6
CONTINUOUS
10
2.24725
20
-2.0055
11
2.24761
21
-2.00553
0
LINE
8
BLACK
6
CONTINUOUS
10
2.24761
20
-2.00553
11
2.24949
21
-2.00647
0
LINE
8
BLACK
6
CONTINUOUS
10
2.24949
20
-2.00647
11
2.24966
21
-2.00666
0
LINE
8
BLACK
6
CONTINUOUS
10
2.24966
20
-2.00666
11
2.24989
21
-2.00676
0
LINE
8
BLACK
6
CONTINUOUS
10
2.24989
20
-2.00676
11
2.25083
21
-2.0077
0
LINE
8
BLACK
6
CONTINUOUS
10
2.25083
20
-2.0077
11
2.25093
21
-2.00794
0
LINE
8
BLACK
6
CONTINUOUS
10
2.25093
20
-2.00794
11
2.25113
21
-2.00811
0
LINE
8
BLACK
6
CONTINUOUS
10
2.25113
20
-2.00811
11
2.25206
21
-2.00998
0
LINE
8
BLACK
6
CONTINUOUS
10
2.25206
20
-2.00998
11
2.25209
21
-2.01035
0
LINE
8
BLACK
6
CONTINUOUS
10
2.25209
20
-2.01035
11
2.25223
21
-2.01069
0
LINE
8
BLACK
6
CONTINUOUS
10
2.25223
20
-2.01069
11
2.25223
21
-2.0135
0
LINE
8
BLACK
6
CONTINUOUS
10
2.25223
20
-2.0135
11
2.25209
21
-2.01384
0
LINE
8
BLACK
6
CONTINUOUS
10
2.25209
20
-2.01384
11
2.25206
21
-2.0142
0
LINE
8
BLACK
6
CONTINUOUS
10
2.25206
20
-2.0142
11
2.25113
21
-2.01608
0
LINE
8
BLACK
6
CONTINUOUS
10
2.25113
20
-2.01608
11
2.25093
21
-2.01625
0
LINE
8
BLACK
6
CONTINUOUS
10
2.25093
20
-2.01625
11
2.25083
21
-2.01649
0
LINE
8
BLACK
6
CONTINUOUS
10
2.25083
20
-2.01649
11
2.24989
21
-2.01742
0
LINE
8
BLACK
6
CONTINUOUS
10
2.24989
20
-2.01742
11
2.24966
21
-2.01752
0
LINE
8
BLACK
6
CONTINUOUS
10
2.24966
20
-2.01752
11
2.24949
21
-2.01772
0
LINE
8
BLACK
6
CONTINUOUS
10
2.24949
20
-2.01772
11
2.24761
21
-2.01866
0
LINE
8
BLACK
6
CONTINUOUS
10
2.24761
20
-2.01866
11
2.24725
21
-2.01868
0
LINE
8
BLACK
6
CONTINUOUS
10
2.24725
20
-2.01868
11
2.24707
21
-2.01875
0
LINE
8
BLACK
6
CONTINUOUS
10
2.24707
20
-2.01875
11
2.25195
21
-2.02572
0
LINE
8
BLACK
6
CONTINUOUS
10
2.25195
20
-2.02572
11
2.25221
21
-2.0269
0
LINE
8
BLACK
6
CONTINUOUS
10
2.25221
20
-2.0269
11
2.25156
21
-2.02791
0
LINE
8
BLACK
6
CONTINUOUS
10
2.25156
20
-2.02791
11
2.25038
21
-2.02817
0
LINE
8
BLACK
6
CONTINUOUS
10
2.25038
20
-2.02817
11
2.24937
21
-2.02752
0
LINE
8
BLACK
6
CONTINUOUS
10
2.24937
20
-2.02752
11
2.24327
21
-2.01882
0
LINE
8
BLACK
6
CONTINUOUS
10
2.24327
20
-2.01882
11
2.24098
21
-2.01882
0
LINE
8
BLACK
6
CONTINUOUS
10
2.24098
20
-2.01882
11
2.24098
21
-2.02662
0
LINE
8
BLACK
6
CONTINUOUS
10
2.24098
20
-2.02662
11
2.24052
21
-2.02774
0
LINE
8
BLACK
6
CONTINUOUS
10
2.24052
20
-2.02774
11
2.23941
21
-2.0282
0
LINE
8
BLACK
6
CONTINUOUS
10
2.23941
20
-2.0282
11
2.23829
21
-2.02774
0
LINE
8
BLACK
6
CONTINUOUS
10
2.23829
20
-2.02774
11
2.23783
21
-2.02662
0
LINE
8
BLACK
6
CONTINUOUS
10
2.23783
20
-2.02662
11
2.23783
21
-2.00694
0
LINE
8
BLACK
6
CONTINUOUS
10
2.23783
20
-2.00694
11
2.23829
21
-2.00582
0
LINE
8
BLACK
6
CONTINUOUS
10
2.23829
20
-2.00582
11
2.23941
21
-2.00536
0
LINE
8
BLACK
6
CONTINUOUS
10
2.23941
20
-2.00536
11
2.24691
21
-2.00536
0
LINE
8
BLACK
6
CONTINUOUS
10
2.24691
20
-2.00536
11
2.24725
21
-2.0055
0
LINE
8
BLACK
6
CONTINUOUS
10
2.24098
20
-2.00851
11
2.24098
21
-2.01567
0
LINE
8
BLACK
6
CONTINUOUS
10
2.24098
20
-2.01567
11
2.24653
21
-2.01567
0
LINE
8
BLACK
6
CONTINUOUS
10
2.24653
20
-2.01567
11
2.24785
21
-2.01502
0
LINE
8
BLACK
6
CONTINUOUS
10
2.24785
20
-2.01502
11
2.24842
21
-2.01444
0
LINE
8
BLACK
6
CONTINUOUS
10
2.24842
20
-2.01444
11
2.24908
21
-2.01313
0
LINE
8
BLACK
6
CONTINUOUS
10
2.24908
20
-2.01313
11
2.24908
21
-2.01106
0
LINE
8
BLACK
6
CONTINUOUS
10
2.24908
20
-2.01106
11
2.24842
21
-2.00974
0
LINE
8
BLACK
6
CONTINUOUS
10
2.24842
20
-2.00974
11
2.24785
21
-2.00917
0
LINE
8
BLACK
6
CONTINUOUS
10
2.24785
20
-2.00917
11
2.24653
21
-2.00851
0
LINE
8
BLACK
6
CONTINUOUS
10
2.24653
20
-2.00851
11
2.24098
21
-2.00851
0
LINE
8
BLACK
6
CONTINUOUS
10
1.92433
20
-1.98823
11
1.92588
21
-1.98952
0
LINE
8
BLACK
6
CONTINUOUS
10
1.92588
20
-1.98952
11
1.92623
21
-1.99151
0
LINE
8
BLACK
6
CONTINUOUS
10
1.92623
20
-1.99151
11
1.92522
21
-1.99326
0
LINE
8
BLACK
6
CONTINUOUS
10
1.92522
20
-1.99326
11
1.92332
21
-1.99395
0
LINE
8
BLACK
6
CONTINUOUS
10
1.92332
20
-1.99395
11
1.9034
21
-1.99395
0
LINE
8
BLACK
6
CONTINUOUS
10
1.9034
20
-1.99395
11
1.90115
21
-1.99508
0
LINE
8
BLACK
6
CONTINUOUS
10
1.90115
20
-1.99508
11
1.90003
21
-1.99732
0
LINE
8
BLACK
6
CONTINUOUS
10
1.90003
20
-1.99732
11
1.90003
21
-2.00155
0
LINE
8
BLACK
6
CONTINUOUS
10
1.90003
20
-2.00155
11
1.90138
21
-2.00425
0
LINE
8
BLACK
6
CONTINUOUS
10
1.90138
20
-2.00425
11
1.90205
21
-2.00492
0
LINE
8
BLACK
6
CONTINUOUS
10
1.90205
20
-2.00492
11
1.92332
21
-2.00492
0
LINE
8
BLACK
6
CONTINUOUS
10
1.92332
20
-2.00492
11
1.92433
21
-2.0051
0
LINE
8
BLACK
6
CONTINUOUS
10
1.92433
20
-2.0051
11
1.92588
21
-2.0064
0
LINE
8
BLACK
6
CONTINUOUS
10
1.92588
20
-2.0064
11
1.92623
21
-2.00839
0
LINE
8
BLACK
6
CONTINUOUS
10
1.92623
20
-2.00839
11
1.92522
21
-2.01014
0
LINE
8
BLACK
6
CONTINUOUS
10
1.92522
20
-2.01014
11
1.92332
21
-2.01083
0
LINE
8
BLACK
6
CONTINUOUS
10
1.92332
20
-2.01083
11
1.89708
21
-2.01083
0
LINE
8
BLACK
6
CONTINUOUS
10
1.89708
20
-2.01083
11
1.89607
21
-2.01065
0
LINE
8
BLACK
6
CONTINUOUS
10
1.89607
20
-2.01065
11
1.89452
21
-2.00935
0
LINE
8
BLACK
6
CONTINUOUS
10
1.89452
20
-2.00935
11
1.89417
21
-2.00736
0
LINE
8
BLACK
6
CONTINUOUS
10
1.89417
20
-2.00736
11
1.89518
21
-2.00561
0
LINE
8
BLACK
6
CONTINUOUS
10
1.89518
20
-2.00561
11
1.89541
21
-2.00553
0
LINE
8
BLACK
6
CONTINUOUS
10
1.89541
20
-2.00553
11
1.89443
21
-2.00357
0
LINE
8
BLACK
6
CONTINUOUS
10
1.89443
20
-2.00357
11
1.89414
21
-2.00259
0
LINE
8
BLACK
6
CONTINUOUS
10
1.89414
20
-2.00259
11
1.89418
21
-2.00242
0
LINE
8
BLACK
6
CONTINUOUS
10
1.89418
20
-2.00242
11
1.89412
21
-2.00225
0
LINE
8
BLACK
6
CONTINUOUS
10
1.89412
20
-2.00225
11
1.89412
21
-1.99663
0
LINE
8
BLACK
6
CONTINUOUS
10
1.89412
20
-1.99663
11
1.8943
21
-1.99562
0
LINE
8
BLACK
6
CONTINUOUS
10
1.8943
20
-1.99562
11
1.89441
21
-1.99548
0
LINE
8
BLACK
6
CONTINUOUS
10
1.89441
20
-1.99548
11
1.89443
21
-1.9953
0
LINE
8
BLACK
6
CONTINUOUS
10
1.89443
20
-1.9953
11
1.89631
21
-1.99156
0
LINE
8
BLACK
6
CONTINUOUS
10
1.89631
20
-1.99156
11
1.89692
21
-1.99073
0
LINE
8
BLACK
6
CONTINUOUS
10
1.89692
20
-1.99073
11
1.89733
21
-1.99056
0
LINE
8
BLACK
6
CONTINUOUS
10
1.89733
20
-1.99056
11
1.89763
21
-1.99023
0
LINE
8
BLACK
6
CONTINUOUS
10
1.89763
20
-1.99023
11
1.90138
21
-1.98836
0
LINE
8
BLACK
6
CONTINUOUS
10
1.90138
20
-1.98836
11
1.90236
21
-1.98807
0
LINE
8
BLACK
6
CONTINUOUS
10
1.90236
20
-1.98807
11
1.90253
21
-1.98811
0
LINE
8
BLACK
6
CONTINUOUS
10
1.90253
20
-1.98811
11
1.9027
21
-1.98805
0
LINE
8
BLACK
6
CONTINUOUS
10
1.9027
20
-1.98805
11
1.92332
21
-1.98805
0
LINE
8
BLACK
6
CONTINUOUS
10
1.92332
20
-1.98805
11
1.92433
21
-1.98823
0
LINE
8
BLACK
6
CONTINUOUS
10
1.92933
20
-1.94973
11
1.93002
21
-1.95163
0
LINE
8
BLACK
6
CONTINUOUS
10
1.93002
20
-1.95163
11
1.93002
21
-1.98163
0
LINE
8
BLACK
6
CONTINUOUS
10
1.93002
20
-1.98163
11
1.92985
21
-1.98264
0
LINE
8
BLACK
6
CONTINUOUS
10
1.92985
20
-1.98264
11
1.92855
21
-1.98418
0
LINE
8
BLACK
6
CONTINUOUS
10
1.92855
20
-1.98418
11
1.92656
21
-1.98454
0
LINE
8
BLACK
6
CONTINUOUS
10
1.92656
20
-1.98454
11
1.92481
21
-1.98353
0
LINE
8
BLACK
6
CONTINUOUS
10
1.92481
20
-1.98353
11
1.92412
21
-1.98163
0
LINE
8
BLACK
6
CONTINUOUS
10
1.92412
20
-1.98163
11
1.92412
21
-1.95163
0
LINE
8
BLACK
6
CONTINUOUS
10
1.92412
20
-1.95163
11
1.9243
21
-1.95062
0
LINE
8
BLACK
6
CONTINUOUS
10
1.9243
20
-1.95062
11
1.9256
21
-1.94907
0
LINE
8
BLACK
6
CONTINUOUS
10
1.9256
20
-1.94907
11
1.92758
21
-1.94872
0
LINE
8
BLACK
6
CONTINUOUS
10
1.92758
20
-1.94872
11
1.92933
21
-1.94973
0
LINE
8
BLACK
6
CONTINUOUS
10
2.25963
20
-1.92842
11
2.25977
21
-1.92853
0
LINE
8
BLACK
6
CONTINUOUS
10
2.25977
20
-1.92853
11
2.25994
21
-1.92856
0
LINE
8
BLACK
6
CONTINUOUS
10
2.25994
20
-1.92856
11
2.26369
21
-1.93043
0
LINE
8
BLACK
6
CONTINUOUS
10
2.26369
20
-1.93043
11
2.2644
21
-1.93096
0
LINE
8
BLACK
6
CONTINUOUS
10
2.2644
20
-1.93096
11
2.26446
21
-1.93098
0
LINE
8
BLACK
6
CONTINUOUS
10
2.26446
20
-1.93098
11
2.26634
21
-1.93286
0
LINE
8
BLACK
6
CONTINUOUS
10
2.26634
20
-1.93286
11
2.26684
21
-1.93358
0
LINE
8
BLACK
6
CONTINUOUS
10
2.26684
20
-1.93358
11
2.26689
21
-1.93363
0
LINE
8
BLACK
6
CONTINUOUS
10
2.26689
20
-1.93363
11
2.26876
21
-1.93737
0
LINE
8
BLACK
6
CONTINUOUS
10
2.26876
20
-1.93737
11
2.26906
21
-1.93836
0
LINE
8
BLACK
6
CONTINUOUS
10
2.26906
20
-1.93836
11
2.26902
21
-1.93853
0
LINE
8
BLACK
6
CONTINUOUS
10
2.26902
20
-1.93853
11
2.26908
21
-1.9387
0
LINE
8
BLACK
6
CONTINUOUS
10
2.26908
20
-1.9387
11
2.26908
21
-1.94432
0
LINE
8
BLACK
6
CONTINUOUS
10
2.26908
20
-1.94432
11
2.2689
21
-1.94533
0
LINE
8
BLACK
6
CONTINUOUS
10
2.2689
20
-1.94533
11
2.26878
21
-1.94546
0
LINE
8
BLACK
6
CONTINUOUS
10
2.26878
20
-1.94546
11
2.26876
21
-1.94564
0
LINE
8
BLACK
6
CONTINUOUS
10
2.26876
20
-1.94564
11
2.26689
21
-1.94939
0
LINE
8
BLACK
6
CONTINUOUS
10
2.26689
20
-1.94939
11
2.26636
21
-1.9501
0
LINE
8
BLACK
6
CONTINUOUS
10
2.26636
20
-1.9501
11
2.26634
21
-1.95016
0
LINE
8
BLACK
6
CONTINUOUS
10
2.26634
20
-1.95016
11
2.26446
21
-1.95203
0
LINE
8
BLACK
6
CONTINUOUS
10
2.26446
20
-1.95203
11
2.26374
21
-1.95254
0
LINE
8
BLACK
6
CONTINUOUS
10
2.26374
20
-1.95254
11
2.26369
21
-1.95258
0
LINE
8
BLACK
6
CONTINUOUS
10
2.26369
20
-1.95258
11
2.25994
21
-1.95446
0
LINE
8
BLACK
6
CONTINUOUS
10
2.25994
20
-1.95446
11
2.25896
21
-1.95475
0
LINE
8
BLACK
6
CONTINUOUS
10
2.25896
20
-1.95475
11
2.25879
21
-1.95471
0
LINE
8
BLACK
6
CONTINUOUS
10
2.25879
20
-1.95471
11
2.25866
21
-1.95476
0
LINE
8
BLACK
6
CONTINUOUS
10
2.25866
20
-1.95476
11
2.26854
21
-1.96887
0
LINE
8
BLACK
6
CONTINUOUS
10
2.26854
20
-1.96887
11
2.26898
21
-1.9698
0
LINE
8
BLACK
6
CONTINUOUS
10
2.26898
20
-1.9698
11
2.2688
21
-1.97181
0
LINE
8
BLACK
6
CONTINUOUS
10
2.2688
20
-1.97181
11
2.26737
21
-1.97324
0
LINE
8
BLACK
6
CONTINUOUS
10
2.26737
20
-1.97324
11
2.26536
21
-1.97342
0
LINE
8
BLACK
6
CONTINUOUS
10
2.26536
20
-1.97342
11
2.2637
21
-1.97226
0
LINE
8
BLACK
6
CONTINUOUS
10
2.2637
20
-1.97226
11
2.25146
21
-1.95477
0
LINE
8
BLACK
6
CONTINUOUS
10
2.25146
20
-1.95477
11
2.24658
21
-1.95477
0
LINE
8
BLACK
6
CONTINUOUS
10
2.24658
20
-1.95477
11
2.24658
21
-1.97057
0
LINE
8
BLACK
6
CONTINUOUS
10
2.24658
20
-1.97057
11
2.2464
21
-1.97158
0
LINE
8
BLACK
6
CONTINUOUS
10
2.2464
20
-1.97158
11
2.2451
21
-1.97312
0
LINE
8
BLACK
6
CONTINUOUS
10
2.2451
20
-1.97312
11
2.24311
21
-1.97347
0
LINE
8
BLACK
6
CONTINUOUS
10
2.24311
20
-1.97347
11
2.24136
21
-1.97246
0
LINE
8
BLACK
6
CONTINUOUS
10
2.24136
20
-1.97246
11
2.24067
21
-1.97057
0
LINE
8
BLACK
6
CONTINUOUS
10
2.24067
20
-1.97057
11
2.24067
21
-1.9312
0
LINE
8
BLACK
6
CONTINUOUS
10
2.24067
20
-1.9312
11
2.24074
21
-1.93081
0
LINE
8
BLACK
6
CONTINUOUS
10
2.24074
20
-1.93081
11
2.24072
21
-1.93068
0
LINE
8
BLACK
6
CONTINUOUS
10
2.24072
20
-1.93068
11
2.24078
21
-1.93057
0
LINE
8
BLACK
6
CONTINUOUS
10
2.24078
20
-1.93057
11
2.24085
21
-1.93019
0
LINE
8
BLACK
6
CONTINUOUS
10
2.24085
20
-1.93019
11
2.24134
21
-1.9296
0
LINE
8
BLACK
6
CONTINUOUS
10
2.24134
20
-1.9296
11
2.24173
21
-1.92893
0
LINE
8
BLACK
6
CONTINUOUS
10
2.24173
20
-1.92893
11
2.24198
21
-1.92884
0
LINE
8
BLACK
6
CONTINUOUS
10
2.24198
20
-1.92884
11
2.24215
21
-1.92864
0
LINE
8
BLACK
6
CONTINUOUS
10
2.24215
20
-1.92864
11
2.2429
21
-1.92851
0
LINE
8
BLACK
6
CONTINUOUS
10
2.2429
20
-1.92851
11
2.24363
21
-1.92824
0
LINE
8
BLACK
6
CONTINUOUS
10
2.24363
20
-1.92824
11
2.25862
21
-1.92824
0
LINE
8
BLACK
6
CONTINUOUS
10
2.25862
20
-1.92824
11
2.25963
21
-1.92842
0
LINE
8
BLACK
6
CONTINUOUS
10
2.24658
20
-1.93415
11
2.24658
21
-1.94887
0
LINE
8
BLACK
6
CONTINUOUS
10
2.24658
20
-1.94887
11
2.25793
21
-1.94887
0
LINE
8
BLACK
6
CONTINUOUS
10
2.25793
20
-1.94887
11
2.26062
21
-1.94752
0
LINE
8
BLACK
6
CONTINUOUS
10
2.26062
20
-1.94752
11
2.26182
21
-1.94632
0
LINE
8
BLACK
6
CONTINUOUS
10
2.26182
20
-1.94632
11
2.26317
21
-1.94362
0
LINE
8
BLACK
6
CONTINUOUS
10
2.26317
20
-1.94362
11
2.26317
21
-1.93939
0
LINE
8
BLACK
6
CONTINUOUS
10
2.26317
20
-1.93939
11
2.26182
21
-1.93669
0
LINE
8
BLACK
6
CONTINUOUS
10
2.26182
20
-1.93669
11
2.26062
21
-1.9355
0
LINE
8
BLACK
6
CONTINUOUS
10
2.26062
20
-1.9355
11
2.25793
21
-1.93415
0
LINE
8
BLACK
6
CONTINUOUS
10
2.25793
20
-1.93415
11
2.24658
21
-1.93415
0
LINE
8
BLACK
6
CONTINUOUS
10
1.9089
20
-1.91878
11
1.90904
21
-1.91877
0
LINE
8
BLACK
6
CONTINUOUS
10
1.90904
20
-1.91877
11
1.91654
21
-1.92064
0
LINE
8
BLACK
6
CONTINUOUS
10
1.91654
20
-1.92064
11
1.917
21
-1.92085
0
LINE
8
BLACK
6
CONTINUOUS
10
1.917
20
-1.92085
11
1.91714
21
-1.92087
0
LINE
8
BLACK
6
CONTINUOUS
10
1.91714
20
-1.92087
11
1.92089
21
-1.92274
0
LINE
8
BLACK
6
CONTINUOUS
10
1.92089
20
-1.92274
11
1.9216
21
-1.92327
0
LINE
8
BLACK
6
CONTINUOUS
10
1.9216
20
-1.92327
11
1.92166
21
-1.9233
0
LINE
8
BLACK
6
CONTINUOUS
10
1.92166
20
-1.9233
11
1.92354
21
-1.92517
0
LINE
8
BLACK
6
CONTINUOUS
10
1.92354
20
-1.92517
11
1.92404
21
-1.92589
0
LINE
8
BLACK
6
CONTINUOUS
10
1.92404
20
-1.92589
11
1.92409
21
-1.92594
0
LINE
8
BLACK
6
CONTINUOUS
10
1.92409
20
-1.92594
11
1.92596
21
-1.92969
0
LINE
8
BLACK
6
CONTINUOUS
10
1.92596
20
-1.92969
11
1.92626
21
-1.93067
0
LINE
8
BLACK
6
CONTINUOUS
10
1.92626
20
-1.93067
11
1.92621
21
-1.93084
0
LINE
8
BLACK
6
CONTINUOUS
10
1.92621
20
-1.93084
11
1.92627
21
-1.93101
0
LINE
8
BLACK
6
CONTINUOUS
10
1.92627
20
-1.93101
11
1.92627
21
-1.93476
0
LINE
8
BLACK
6
CONTINUOUS
10
1.92627
20
-1.93476
11
1.9261
21
-1.93577
0
LINE
8
BLACK
6
CONTINUOUS
10
1.9261
20
-1.93577
11
1.92598
21
-1.9359
0
LINE
8
BLACK
6
CONTINUOUS
10
1.92598
20
-1.9359
11
1.92596
21
-1.93608
0
LINE
8
BLACK
6
CONTINUOUS
10
1.92596
20
-1.93608
11
1.92409
21
-1.93983
0
LINE
8
BLACK
6
CONTINUOUS
10
1.92409
20
-1.93983
11
1.92356
21
-1.94054
0
LINE
8
BLACK
6
CONTINUOUS
10
1.92356
20
-1.94054
11
1.92354
21
-1.9406
0
LINE
8
BLACK
6
CONTINUOUS
10
1.92354
20
-1.9406
11
1.92166
21
-1.94247
0
LINE
8
BLACK
6
CONTINUOUS
10
1.92166
20
-1.94247
11
1.92094
21
-1.94298
0
LINE
8
BLACK
6
CONTINUOUS
10
1.92094
20
-1.94298
11
1.92089
21
-1.94302
0
LINE
8
BLACK
6
CONTINUOUS
10
1.92089
20
-1.94302
11
1.91714
21
-1.9449
0
LINE
8
BLACK
6
CONTINUOUS
10
1.91714
20
-1.9449
11
1.91666
21
-1.94504
0
LINE
8
BLACK
6
CONTINUOUS
10
1.91666
20
-1.94504
11
1.91654
21
-1.94512
0
LINE
8
BLACK
6
CONTINUOUS
10
1.91654
20
-1.94512
11
1.90904
21
-1.947
0
LINE
8
BLACK
6
CONTINUOUS
10
1.90904
20
-1.947
11
1.90845
21
-1.94704
0
LINE
8
BLACK
6
CONTINUOUS
10
1.90845
20
-1.94704
11
1.90832
21
-1.94708
0
LINE
8
BLACK
6
CONTINUOUS
10
1.90832
20
-1.94708
11
1.89895
21
-1.94708
0
LINE
8
BLACK
6
CONTINUOUS
10
1.89895
20
-1.94708
11
1.89837
21
-1.94698
0
LINE
8
BLACK
6
CONTINUOUS
10
1.89837
20
-1.94698
11
1.89823
21
-1.947
0
LINE
8
BLACK
6
CONTINUOUS
10
1.89823
20
-1.947
11
1.89073
21
-1.94512
0
LINE
8
BLACK
6
CONTINUOUS
10
1.89073
20
-1.94512
11
1.89027
21
-1.94491
0
LINE
8
BLACK
6
CONTINUOUS
10
1.89027
20
-1.94491
11
1.89013
21
-1.9449
0
LINE
8
BLACK
6
CONTINUOUS
10
1.89013
20
-1.9449
11
1.88638
21
-1.94302
0
LINE
8
BLACK
6
CONTINUOUS
10
1.88638
20
-1.94302
11
1.88567
21
-1.9425
0
LINE
8
BLACK
6
CONTINUOUS
10
1.88567
20
-1.9425
11
1.88561
21
-1.94247
0
LINE
8
BLACK
6
CONTINUOUS
10
1.88561
20
-1.94247
11
1.88374
21
-1.9406
0
LINE
8
BLACK
6
CONTINUOUS
10
1.88374
20
-1.9406
11
1.88323
21
-1.93987
0
LINE
8
BLACK
6
CONTINUOUS
10
1.88323
20
-1.93987
11
1.88319
21
-1.93983
0
LINE
8
BLACK
6
CONTINUOUS
10
1.88319
20
-1.93983
11
1.88131
21
-1.93608
0
LINE
8
BLACK
6
CONTINUOUS
10
1.88131
20
-1.93608
11
1.88102
21
-1.9351
0
LINE
8
BLACK
6
CONTINUOUS
10
1.88102
20
-1.9351
11
1.88106
21
-1.93492
0
LINE
8
BLACK
6
CONTINUOUS
10
1.88106
20
-1.93492
11
1.881
21
-1.93476
0
LINE
8
BLACK
6
CONTINUOUS
10
1.881
20
-1.93476
11
1.881
21
-1.93101
0
LINE
8
BLACK
6
CONTINUOUS
10
1.881
20
-1.93101
11
1.88118
21
-1.93
0
LINE
8
BLACK
6
CONTINUOUS
10
1.88118
20
-1.93
11
1.88129
21
-1.92986
0
LINE
8
BLACK
6
CONTINUOUS
10
1.88129
20
-1.92986
11
1.88131
21
-1.92969
0
LINE
8
BLACK
6
CONTINUOUS
10
1.88131
20
-1.92969
11
1.88319
21
-1.92594
0
LINE
8
BLACK
6
CONTINUOUS
10
1.88319
20
-1.92594
11
1.88371
21
-1.92523
0
LINE
8
BLACK
6
CONTINUOUS
10
1.88371
20
-1.92523
11
1.88374
21
-1.92517
0
LINE
8
BLACK
6
CONTINUOUS
10
1.88374
20
-1.92517
11
1.88561
21
-1.9233
0
LINE
8
BLACK
6
CONTINUOUS
10
1.88561
20
-1.9233
11
1.88634
21
-1.92279
0
LINE
8
BLACK
6
CONTINUOUS
10
1.88634
20
-1.92279
11
1.88638
21
-1.92274
0
LINE
8
BLACK
6
CONTINUOUS
10
1.88638
20
-1.92274
11
1.89013
21
-1.92087
0
LINE
8
BLACK
6
CONTINUOUS
10
1.89013
20
-1.92087
11
1.89062
21
-1.92072
0
LINE
8
BLACK
6
CONTINUOUS
10
1.89062
20
-1.92072
11
1.89073
21
-1.92064
0
LINE
8
BLACK
6
CONTINUOUS
10
1.89073
20
-1.92064
11
1.89823
21
-1.91877
0
LINE
8
BLACK
6
CONTINUOUS
10
1.89823
20
-1.91877
11
1.89882
21
-1.91873
0
LINE
8
BLACK
6
CONTINUOUS
10
1.89882
20
-1.91873
11
1.89895
21
-1.91868
0
LINE
8
BLACK
6
CONTINUOUS
10
1.89895
20
-1.91868
11
1.90832
21
-1.91868
0
LINE
8
BLACK
6
CONTINUOUS
10
1.90832
20
-1.91868
11
1.9089
21
-1.91878
0
LINE
8
BLACK
6
CONTINUOUS
10
1.89931
20
-1.92459
11
1.89248
21
-1.9263
0
LINE
8
BLACK
6
CONTINUOUS
10
1.89248
20
-1.9263
11
1.88945
21
-1.92781
0
LINE
8
BLACK
6
CONTINUOUS
10
1.88945
20
-1.92781
11
1.88825
21
-1.92901
0
LINE
8
BLACK
6
CONTINUOUS
10
1.88825
20
-1.92901
11
1.8869
21
-1.93171
0
LINE
8
BLACK
6
CONTINUOUS
10
1.8869
20
-1.93171
11
1.8869
21
-1.93406
0
LINE
8
BLACK
6
CONTINUOUS
10
1.8869
20
-1.93406
11
1.88825
21
-1.93676
0
LINE
8
BLACK
6
CONTINUOUS
10
1.88825
20
-1.93676
11
1.88945
21
-1.93796
0
LINE
8
BLACK
6
CONTINUOUS
10
1.88945
20
-1.93796
11
1.89248
21
-1.93947
0
LINE
8
BLACK
6
CONTINUOUS
10
1.89248
20
-1.93947
11
1.89931
21
-1.94118
0
LINE
8
BLACK
6
CONTINUOUS
10
1.89931
20
-1.94118
11
1.90796
21
-1.94118
0
LINE
8
BLACK
6
CONTINUOUS
10
1.90796
20
-1.94118
11
1.91479
21
-1.93947
0
LINE
8
BLACK
6
CONTINUOUS
10
1.91479
20
-1.93947
11
1.91782
21
-1.93796
0
LINE
8
BLACK
6
CONTINUOUS
10
1.91782
20
-1.93796
11
1.91902
21
-1.93676
0
LINE
8
BLACK
6
CONTINUOUS
10
1.91902
20
-1.93676
11
1.92037
21
-1.93406
0
LINE
8
BLACK
6
CONTINUOUS
10
1.92037
20
-1.93406
11
1.92037
21
-1.93171
0
LINE
8
BLACK
6
CONTINUOUS
10
1.92037
20
-1.93171
11
1.91902
21
-1.92901
0
LINE
8
BLACK
6
CONTINUOUS
10
1.91902
20
-1.92901
11
1.91782
21
-1.92781
0
LINE
8
BLACK
6
CONTINUOUS
10
1.91782
20
-1.92781
11
1.91479
21
-1.9263
0
LINE
8
BLACK
6
CONTINUOUS
10
1.91479
20
-1.9263
11
1.90796
21
-1.92459
0
LINE
8
BLACK
6
CONTINUOUS
10
1.90796
20
-1.92459
11
1.89931
21
-1.92459
0
LINE
8
BLACK
6
CONTINUOUS
10
1.92558
20
-1.88224
11
1.92627
21
-1.88414
0
LINE
8
BLACK
6
CONTINUOUS
10
1.92627
20
-1.88414
11
1.92627
21
-1.90664
0
LINE
8
BLACK
6
CONTINUOUS
10
1.92627
20
-1.90664
11
1.9261
21
-1.90765
0
LINE
8
BLACK
6
CONTINUOUS
10
1.9261
20
-1.90765
11
1.9248
21
-1.90919
0
LINE
8
BLACK
6
CONTINUOUS
10
1.9248
20
-1.90919
11
1.92281
21
-1.90954
0
LINE
8
BLACK
6
CONTINUOUS
10
1.92281
20
-1.90954
11
1.92106
21
-1.90853
0
LINE
8
BLACK
6
CONTINUOUS
10
1.92106
20
-1.90853
11
1.92037
21
-1.90664
0
LINE
8
BLACK
6
CONTINUOUS
10
1.92037
20
-1.90664
11
1.92037
21
-1.89834
0
LINE
8
BLACK
6
CONTINUOUS
10
1.92037
20
-1.89834
11
1.89296
21
-1.89834
0
LINE
8
BLACK
6
CONTINUOUS
10
1.89296
20
-1.89834
11
1.89541
21
-1.9008
0
LINE
8
BLACK
6
CONTINUOUS
10
1.89541
20
-1.9008
11
1.89592
21
-1.90152
0
LINE
8
BLACK
6
CONTINUOUS
10
1.89592
20
-1.90152
11
1.89597
21
-1.90157
0
LINE
8
BLACK
6
CONTINUOUS
10
1.89597
20
-1.90157
11
1.89784
21
-1.90532
0
LINE
8
BLACK
6
CONTINUOUS
10
1.89784
20
-1.90532
11
1.89813
21
-1.9063
0
LINE
8
BLACK
6
CONTINUOUS
10
1.89813
20
-1.9063
11
1.89766
21
-1.90826
0
LINE
8
BLACK
6
CONTINUOUS
10
1.89766
20
-1.90826
11
1.89604
21
-1.90947
0
LINE
8
BLACK
6
CONTINUOUS
10
1.89604
20
-1.90947
11
1.89403
21
-1.90935
0
LINE
8
BLACK
6
CONTINUOUS
10
1.89403
20
-1.90935
11
1.89256
21
-1.90796
0
LINE
8
BLACK
6
CONTINUOUS
10
1.89256
20
-1.90796
11
1.8909
21
-1.90464
0
LINE
8
BLACK
6
CONTINUOUS
10
1.8909
20
-1.90464
11
1.8877
21
-1.90143
0
LINE
8
BLACK
6
CONTINUOUS
10
1.8877
20
-1.90143
11
1.88231
21
-1.89784
0
LINE
8
BLACK
6
CONTINUOUS
10
1.88231
20
-1.89784
11
1.88157
21
-1.89714
0
LINE
8
BLACK
6
CONTINUOUS
10
1.88157
20
-1.89714
11
1.88152
21
-1.89697
0
LINE
8
BLACK
6
CONTINUOUS
10
1.88152
20
-1.89697
11
1.88139
21
-1.89686
0
LINE
8
BLACK
6
CONTINUOUS
10
1.88139
20
-1.89686
11
1.88125
21
-1.89602
0
LINE
8
BLACK
6
CONTINUOUS
10
1.88125
20
-1.89602
11
1.88101
21
-1.8952
0
LINE
8
BLACK
6
CONTINUOUS
10
1.88101
20
-1.8952
11
1.88107
21
-1.89504
0
LINE
8
BLACK
6
CONTINUOUS
10
1.88107
20
-1.89504
11
1.88104
21
-1.89488
0
LINE
8
BLACK
6
CONTINUOUS
10
1.88104
20
-1.89488
11
1.88147
21
-1.89413
0
LINE
8
BLACK
6
CONTINUOUS
10
1.88147
20
-1.89413
11
1.88182
21
-1.89335
0
LINE
8
BLACK
6
CONTINUOUS
10
1.88182
20
-1.89335
11
1.88197
21
-1.89327
0
LINE
8
BLACK
6
CONTINUOUS
10
1.88197
20
-1.89327
11
1.88205
21
-1.89313
0
LINE
8
BLACK
6
CONTINUOUS
10
1.88205
20
-1.89313
11
1.88286
21
-1.89283
0
LINE
8
BLACK
6
CONTINUOUS
10
1.88286
20
-1.89283
11
1.88363
21
-1.89245
0
LINE
8
BLACK
6
CONTINUOUS
10
1.88363
20
-1.89245
11
1.88379
21
-1.89249
0
LINE
8
BLACK
6
CONTINUOUS
10
1.88379
20
-1.89249
11
1.88395
21
-1.89244
0
LINE
8
BLACK
6
CONTINUOUS
10
1.88395
20
-1.89244
11
1.92037
21
-1.89244
0
LINE
8
BLACK
6
CONTINUOUS
10
1.92037
20
-1.89244
11
1.92037
21
-1.88414
0
LINE
8
BLACK
6
CONTINUOUS
10
1.92037
20
-1.88414
11
1.92055
21
-1.88313
0
LINE
8
BLACK
6
CONTINUOUS
10
1.92055
20
-1.88313
11
1.92185
21
-1.88158
0
LINE
8
BLACK
6
CONTINUOUS
10
1.92185
20
-1.88158
11
1.92383
21
-1.88123
0
LINE
8
BLACK
6
CONTINUOUS
10
1.92383
20
-1.88123
11
1.92558
21
-1.88224
0
LINE
8
BLACK
6
CONTINUOUS
10
2.21318
20
-1.89509
11
2.2126
21
-1.8937
0
LINE
8
BLACK
6
CONTINUOUS
10
2.2126
20
-1.8937
11
2.2126
21
-1.84646
0
LINE
8
BLACK
6
CONTINUOUS
10
2.2126
20
-1.84646
11
2.21318
21
-1.84506
0
LINE
8
BLACK
6
CONTINUOUS
10
2.21318
20
-1.84506
11
2.21457
21
-1.84449
0
LINE
8
BLACK
6
CONTINUOUS
10
2.21457
20
-1.84449
11
2.29331
21
-1.84449
0
LINE
8
BLACK
6
CONTINUOUS
10
2.29331
20
-1.84449
11
2.2947
21
-1.84506
0
LINE
8
BLACK
6
CONTINUOUS
10
2.2947
20
-1.84506
11
2.29528
21
-1.84646
0
LINE
8
BLACK
6
CONTINUOUS
10
2.29528
20
-1.84646
11
2.29528
21
-1.88189
0
LINE
8
BLACK
6
CONTINUOUS
10
2.29528
20
-1.88189
11
2.29476
21
-1.88313
0
LINE
8
BLACK
6
CONTINUOUS
10
2.29476
20
-1.88313
11
2.2947
21
-1.88328
0
LINE
8
BLACK
6
CONTINUOUS
10
2.2947
20
-1.88328
11
2.28289
21
-1.89509
0
LINE
8
BLACK
6
CONTINUOUS
10
2.28289
20
-1.89509
11
2.2815
21
-1.89567
0
LINE
8
BLACK
6
CONTINUOUS
10
2.2815
20
-1.89567
11
2.21457
21
-1.89567
0
LINE
8
BLACK
6
CONTINUOUS
10
2.21457
20
-1.89567
11
2.21318
21
-1.89509
0
LINE
8
BLACK
6
CONTINUOUS
10
2.21654
20
-1.84843
11
2.21654
21
-1.89173
0
LINE
8
BLACK
6
CONTINUOUS
10
2.21654
20
-1.89173
11
2.28068
21
-1.89173
0
LINE
8
BLACK
6
CONTINUOUS
10
2.28068
20
-1.89173
11
2.29134
21
-1.88107
0
LINE
8
BLACK
6
CONTINUOUS
10
2.29134
20
-1.88107
11
2.29134
21
-1.84843
0
LINE
8
BLACK
6
CONTINUOUS
10
2.29134
20
-1.84843
11
2.21654
21
-1.84843
0
LINE
8
BLACK
6
CONTINUOUS
10
2.24433
20
-1.85782
11
2.24459
21
-1.8578
0
LINE
8
BLACK
6
CONTINUOUS
10
2.24459
20
-1.8578
11
2.2474
21
-1.85874
0
LINE
8
BLACK
6
CONTINUOUS
10
2.2474
20
-1.85874
11
2.24768
21
-1.85898
0
LINE
8
BLACK
6
CONTINUOUS
10
2.24768
20
-1.85898
11
2.24802
21
-1.85912
0
LINE
8
BLACK
6
CONTINUOUS
10
2.24802
20
-1.85912
11
2.24989
21
-1.861
0
LINE
8
BLACK
6
CONTINUOUS
10
2.24989
20
-1.861
11
2.24999
21
-1.86124
0
LINE
8
BLACK
6
CONTINUOUS
10
2.24999
20
-1.86124
11
2.25019
21
-1.86141
0
LINE
8
BLACK
6
CONTINUOUS
10
2.25019
20
-1.86141
11
2.25113
21
-1.86328
0
LINE
8
BLACK
6
CONTINUOUS
10
2.25113
20
-1.86328
11
2.25114
21
-1.86346
0
LINE
8
BLACK
6
CONTINUOUS
10
2.25114
20
-1.86346
11
2.25125
21
-1.8636
0
LINE
8
BLACK
6
CONTINUOUS
10
2.25125
20
-1.8636
11
2.25218
21
-1.86735
0
LINE
8
BLACK
6
CONTINUOUS
10
2.25218
20
-1.86735
11
2.25215
21
-1.86755
0
LINE
8
BLACK
6
CONTINUOUS
10
2.25215
20
-1.86755
11
2.25223
21
-1.86774
0
LINE
8
BLACK
6
CONTINUOUS
10
2.25223
20
-1.86774
11
2.25223
21
-1.87055
0
LINE
8
BLACK
6
CONTINUOUS
10
2.25223
20
-1.87055
11
2.25215
21
-1.87073
0
LINE
8
BLACK
6
CONTINUOUS
10
2.25215
20
-1.87073
11
2.25218
21
-1.87093
0
LINE
8
BLACK
6
CONTINUOUS
10
2.25218
20
-1.87093
11
2.25125
21
-1.87468
0
LINE
8
BLACK
6
CONTINUOUS
10
2.25125
20
-1.87468
11
2.25114
21
-1.87482
0
LINE
8
BLACK
6
CONTINUOUS
10
2.25114
20
-1.87482
11
2.25113
21
-1.875
0
LINE
8
BLACK
6
CONTINUOUS
10
2.25113
20
-1.875
11
2.25019
21
-1.87688
0
LINE
8
BLACK
6
CONTINUOUS
10
2.25019
20
-1.87688
11
2.24999
21
-1.87705
0
LINE
8
BLACK
6
CONTINUOUS
10
2.24999
20
-1.87705
11
2.24989
21
-1.87729
0
LINE
8
BLACK
6
CONTINUOUS
10
2.24989
20
-1.87729
11
2.24802
21
-1.87916
0
LINE
8
BLACK
6
CONTINUOUS
10
2.24802
20
-1.87916
11
2.24768
21
-1.8793
0
LINE
8
BLACK
6
CONTINUOUS
10
2.24768
20
-1.8793
11
2.2474
21
-1.87954
0
LINE
8
BLACK
6
CONTINUOUS
10
2.2474
20
-1.87954
11
2.24459
21
-1.88048
0
LINE
8
BLACK
6
CONTINUOUS
10
2.24459
20
-1.88048
11
2.24433
21
-1.88046
0
LINE
8
BLACK
6
CONTINUOUS
10
2.24433
20
-1.88046
11
2.24409
21
-1.88056
0
LINE
8
BLACK
6
CONTINUOUS
10
2.24409
20
-1.88056
11
2.23941
21
-1.88056
0
LINE
8
BLACK
6
CONTINUOUS
10
2.23941
20
-1.88056
11
2.23829
21
-1.8801
0
LINE
8
BLACK
6
CONTINUOUS
10
2.23829
20
-1.8801
11
2.23783
21
-1.87898
0
LINE
8
BLACK
6
CONTINUOUS
10
2.23783
20
-1.87898
11
2.23783
21
-1.8593
0
LINE
8
BLACK
6
CONTINUOUS
10
2.23783
20
-1.8593
11
2.23829
21
-1.85819
0
LINE
8
BLACK
6
CONTINUOUS
10
2.23829
20
-1.85819
11
2.23941
21
-1.85772
0
LINE
8
BLACK
6
CONTINUOUS
10
2.23941
20
-1.85772
11
2.24409
21
-1.85772
0
LINE
8
BLACK
6
CONTINUOUS
10
2.24409
20
-1.85772
11
2.24433
21
-1.85782
0
LINE
8
BLACK
6
CONTINUOUS
10
2.24098
20
-1.86087
11
2.24098
21
-1.87741
0
LINE
8
BLACK
6
CONTINUOUS
10
2.24098
20
-1.87741
11
2.24384
21
-1.87741
0
LINE
8
BLACK
6
CONTINUOUS
10
2.24384
20
-1.87741
11
2.24606
21
-1.87667
0
LINE
8
BLACK
6
CONTINUOUS
10
2.24606
20
-1.87667
11
2.24749
21
-1.87524
0
LINE
8
BLACK
6
CONTINUOUS
10
2.24749
20
-1.87524
11
2.24823
21
-1.87375
0
LINE
8
BLACK
6
CONTINUOUS
10
2.24823
20
-1.87375
11
2.24908
21
-1.87035
0
LINE
8
BLACK
6
CONTINUOUS
10
2.24908
20
-1.87035
11
2.24908
21
-1.86793
0
LINE
8
BLACK
6
CONTINUOUS
10
2.24908
20
-1.86793
11
2.24823
21
-1.86454
0
LINE
8
BLACK
6
CONTINUOUS
10
2.24823
20
-1.86454
11
2.24749
21
-1.86304
0
LINE
8
BLACK
6
CONTINUOUS
10
2.24749
20
-1.86304
11
2.24606
21
-1.86161
0
LINE
8
BLACK
6
CONTINUOUS
10
2.24606
20
-1.86161
11
2.24384
21
-1.86087
0
LINE
8
BLACK
6
CONTINUOUS
10
2.24384
20
-1.86087
11
2.24098
21
-1.86087
0
LINE
8
BLACK
6
CONTINUOUS
10
2.25704
20
-1.8801
11
2.25658
21
-1.87898
0
LINE
8
BLACK
6
CONTINUOUS
10
2.25658
20
-1.87898
11
2.25704
21
-1.87787
0
LINE
8
BLACK
6
CONTINUOUS
10
2.25704
20
-1.87787
11
2.25816
21
-1.87741
0
LINE
8
BLACK
6
CONTINUOUS
10
2.25816
20
-1.87741
11
2.2622
21
-1.87741
0
LINE
8
BLACK
6
CONTINUOUS
10
2.2622
20
-1.87741
11
2.2622
21
-1.86404
0
LINE
8
BLACK
6
CONTINUOUS
10
2.2622
20
-1.86404
11
2.26114
21
-1.8651
0
LINE
8
BLACK
6
CONTINUOUS
10
2.26114
20
-1.8651
11
2.2609
21
-1.8652
0
LINE
8
BLACK
6
CONTINUOUS
10
2.2609
20
-1.8652
11
2.26073
21
-1.86539
0
LINE
8
BLACK
6
CONTINUOUS
10
2.26073
20
-1.86539
11
2.25886
21
-1.86633
0
LINE
8
BLACK
6
CONTINUOUS
10
2.25886
20
-1.86633
11
2.25766
21
-1.86642
0
LINE
8
BLACK
6
CONTINUOUS
10
2.25766
20
-1.86642
11
2.25675
21
-1.86563
0
LINE
8
BLACK
6
CONTINUOUS
10
2.25675
20
-1.86563
11
2.25666
21
-1.86443
0
LINE
8
BLACK
6
CONTINUOUS
10
2.25666
20
-1.86443
11
2.25745
21
-1.86351
0
LINE
8
BLACK
6
CONTINUOUS
10
2.25745
20
-1.86351
11
2.2591
21
-1.86269
0
LINE
8
BLACK
6
CONTINUOUS
10
2.2591
20
-1.86269
11
2.26068
21
-1.86111
0
LINE
8
BLACK
6
CONTINUOUS
10
2.26068
20
-1.86111
11
2.26247
21
-1.85843
0
LINE
8
BLACK
6
CONTINUOUS
10
2.26247
20
-1.85843
11
2.2626
21
-1.85834
0
LINE
8
BLACK
6
CONTINUOUS
10
2.2626
20
-1.85834
11
2.26267
21
-1.85819
0
LINE
8
BLACK
6
CONTINUOUS
10
2.26267
20
-1.85819
11
2.26309
21
-1.85801
0
LINE
8
BLACK
6
CONTINUOUS
10
2.26309
20
-1.85801
11
2.26347
21
-1.85775
0
LINE
8
BLACK
6
CONTINUOUS
10
2.26347
20
-1.85775
11
2.26363
21
-1.85779
0
LINE
8
BLACK
6
CONTINUOUS
10
2.26363
20
-1.85779
11
2.26378
21
-1.85772
0
LINE
8
BLACK
6
CONTINUOUS
10
2.26378
20
-1.85772
11
2.2642
21
-1.8579
0
LINE
8
BLACK
6
CONTINUOUS
10
2.2642
20
-1.8579
11
2.26465
21
-1.85799
0
LINE
8
BLACK
6
CONTINUOUS
10
2.26465
20
-1.85799
11
2.26474
21
-1.85812
0
LINE
8
BLACK
6
CONTINUOUS
10
2.26474
20
-1.85812
11
2.26489
21
-1.85819
0
LINE
8
BLACK
6
CONTINUOUS
10
2.26489
20
-1.85819
11
2.26507
21
-1.85861
0
LINE
8
BLACK
6
CONTINUOUS
10
2.26507
20
-1.85861
11
2.26532
21
-1.85899
0
LINE
8
BLACK
6
CONTINUOUS
10
2.26532
20
-1.85899
11
2.26529
21
-1.85915
0
LINE
8
BLACK
6
CONTINUOUS
10
2.26529
20
-1.85915
11
2.26535
21
-1.8593
0
LINE
8
BLACK
6
CONTINUOUS
10
2.26535
20
-1.8593
11
2.26535
21
-1.87741
0
LINE
8
BLACK
6
CONTINUOUS
10
2.26535
20
-1.87741
11
2.2694
21
-1.87741
0
LINE
8
BLACK
6
CONTINUOUS
10
2.2694
20
-1.87741
11
2.27052
21
-1.87787
0
LINE
8
BLACK
6
CONTINUOUS
10
2.27052
20
-1.87787
11
2.27098
21
-1.87898
0
LINE
8
BLACK
6
CONTINUOUS
10
2.27098
20
-1.87898
11
2.27052
21
-1.8801
0
LINE
8
BLACK
6
CONTINUOUS
10
2.27052
20
-1.8801
11
2.2694
21
-1.88056
0
LINE
8
BLACK
6
CONTINUOUS
10
2.2694
20
-1.88056
11
2.25816
21
-1.88056
0
LINE
8
BLACK
6
CONTINUOUS
10
2.25816
20
-1.88056
11
2.25704
21
-1.8801
0
LINE
8
BLACK
6
CONTINUOUS
10
2.03643
20
-1.78365
11
2.03701
21
-1.78504
0
LINE
8
BLACK
6
CONTINUOUS
10
2.03701
20
-1.78504
11
2.03643
21
-1.78643
0
LINE
8
BLACK
6
CONTINUOUS
10
2.03643
20
-1.78643
11
2.03504
21
-1.78701
0
LINE
8
BLACK
6
CONTINUOUS
10
2.03504
20
-1.78701
11
1.93858
21
-1.78701
0
LINE
8
BLACK
6
CONTINUOUS
10
1.93858
20
-1.78701
11
1.93858
21
-1.88346
0
LINE
8
BLACK
6
CONTINUOUS
10
1.93858
20
-1.88346
11
1.93801
21
-1.88486
0
LINE
8
BLACK
6
CONTINUOUS
10
1.93801
20
-1.88486
11
1.93661
21
-1.88543
0
LINE
8
BLACK
6
CONTINUOUS
10
1.93661
20
-1.88543
11
1.93522
21
-1.88486
0
LINE
8
BLACK
6
CONTINUOUS
10
1.93522
20
-1.88486
11
1.93465
21
-1.88346
0
LINE
8
BLACK
6
CONTINUOUS
10
1.93465
20
-1.88346
11
1.93465
21
-1.78504
0
LINE
8
BLACK
6
CONTINUOUS
10
1.93465
20
-1.78504
11
1.93522
21
-1.78365
0
LINE
8
BLACK
6
CONTINUOUS
10
1.93522
20
-1.78365
11
1.93661
21
-1.78307
0
LINE
8
BLACK
6
CONTINUOUS
10
1.93661
20
-1.78307
11
2.03504
21
-1.78307
0
LINE
8
BLACK
6
CONTINUOUS
10
2.03504
20
-1.78307
11
2.03643
21
-1.78365
0
LINE
8
BLACK
6
CONTINUOUS
10
1.8989
20
-1.84807
11
1.9102
21
-1.85695
0
LINE
8
BLACK
6
CONTINUOUS
10
1.9102
20
-1.85695
11
1.9215
21
-1.84807
0
LINE
8
BLACK
6
CONTINUOUS
10
1.9215
20
-1.84807
11
1.9224
21
-1.84759
0
LINE
8
BLACK
6
CONTINUOUS
10
1.9224
20
-1.84759
11
1.92442
21
-1.84765
0
LINE
8
BLACK
6
CONTINUOUS
10
1.92442
20
-1.84765
11
1.92593
21
-1.849
0
LINE
8
BLACK
6
CONTINUOUS
10
1.92593
20
-1.849
11
1.92621
21
-1.851
0
LINE
8
BLACK
6
CONTINUOUS
10
1.92621
20
-1.851
11
1.92515
21
-1.85272
0
LINE
8
BLACK
6
CONTINUOUS
10
1.92515
20
-1.85272
11
1.91498
21
-1.8607
0
LINE
8
BLACK
6
CONTINUOUS
10
1.91498
20
-1.8607
11
1.92515
21
-1.86869
0
LINE
8
BLACK
6
CONTINUOUS
10
1.92515
20
-1.86869
11
1.92583
21
-1.86946
0
LINE
8
BLACK
6
CONTINUOUS
10
1.92583
20
-1.86946
11
1.92624
21
-1.87144
0
LINE
8
BLACK
6
CONTINUOUS
10
1.92624
20
-1.87144
11
1.92529
21
-1.87322
0
LINE
8
BLACK
6
CONTINUOUS
10
1.92529
20
-1.87322
11
1.92342
21
-1.87397
0
LINE
8
BLACK
6
CONTINUOUS
10
1.92342
20
-1.87397
11
1.9215
21
-1.87334
0
LINE
8
BLACK
6
CONTINUOUS
10
1.9215
20
-1.87334
11
1.9102
21
-1.86446
0
LINE
8
BLACK
6
CONTINUOUS
10
1.9102
20
-1.86446
11
1.8989
21
-1.87334
0
LINE
8
BLACK
6
CONTINUOUS
10
1.8989
20
-1.87334
11
1.898
21
-1.87382
0
LINE
8
BLACK
6
CONTINUOUS
10
1.898
20
-1.87382
11
1.89598
21
-1.87376
0
LINE
8
BLACK
6
CONTINUOUS
10
1.89598
20
-1.87376
11
1.89447
21
-1.87241
0
LINE
8
BLACK
6
CONTINUOUS
10
1.89447
20
-1.87241
11
1.89419
21
-1.87041
0
LINE
8
BLACK
6
CONTINUOUS
10
1.89419
20
-1.87041
11
1.89525
21
-1.86869
0
LINE
8
BLACK
6
CONTINUOUS
10
1.89525
20
-1.86869
11
1.90542
21
-1.8607
0
LINE
8
BLACK
6
CONTINUOUS
10
1.90542
20
-1.8607
11
1.89525
21
-1.85272
0
LINE
8
BLACK
6
CONTINUOUS
10
1.89525
20
-1.85272
11
1.89457
21
-1.85195
0
LINE
8
BLACK
6
CONTINUOUS
10
1.89457
20
-1.85195
11
1.89415
21
-1.84997
0
LINE
8
BLACK
6
CONTINUOUS
10
1.89415
20
-1.84997
11
1.89511
21
-1.84819
0
LINE
8
BLACK
6
CONTINUOUS
10
1.89511
20
-1.84819
11
1.89698
21
-1.84744
0
LINE
8
BLACK
6
CONTINUOUS
10
1.89698
20
-1.84744
11
1.8989
21
-1.84807
0
LINE
8
BLACK
6
CONTINUOUS
10
1.9089
20
-1.81192
11
1.90904
21
-1.81191
0
LINE
8
BLACK
6
CONTINUOUS
10
1.90904
20
-1.81191
11
1.91654
21
-1.81378
0
LINE
8
BLACK
6
CONTINUOUS
10
1.91654
20
-1.81378
11
1.917
21
-1.81399
0
LINE
8
BLACK
6
CONTINUOUS
10
1.917
20
-1.81399
11
1.91714
21
-1.81401
0
LINE
8
BLACK
6
CONTINUOUS
10
1.91714
20
-1.81401
11
1.92089
21
-1.81588
0
LINE
8
BLACK
6
CONTINUOUS
10
1.92089
20
-1.81588
11
1.9216
21
-1.81641
0
LINE
8
BLACK
6
CONTINUOUS
10
1.9216
20
-1.81641
11
1.92166
21
-1.81643
0
LINE
8
BLACK
6
CONTINUOUS
10
1.92166
20
-1.81643
11
1.92354
21
-1.81831
0
LINE
8
BLACK
6
CONTINUOUS
10
1.92354
20
-1.81831
11
1.92404
21
-1.81903
0
LINE
8
BLACK
6
CONTINUOUS
10
1.92404
20
-1.81903
11
1.92409
21
-1.81908
0
LINE
8
BLACK
6
CONTINUOUS
10
1.92409
20
-1.81908
11
1.92596
21
-1.82283
0
LINE
8
BLACK
6
CONTINUOUS
10
1.92596
20
-1.82283
11
1.92626
21
-1.82381
0
LINE
8
BLACK
6
CONTINUOUS
10
1.92626
20
-1.82381
11
1.92621
21
-1.82398
0
LINE
8
BLACK
6
CONTINUOUS
10
1.92621
20
-1.82398
11
1.92627
21
-1.82415
0
LINE
8
BLACK
6
CONTINUOUS
10
1.92627
20
-1.82415
11
1.92627
21
-1.8279
0
LINE
8
BLACK
6
CONTINUOUS
10
1.92627
20
-1.8279
11
1.9261
21
-1.82891
0
LINE
8
BLACK
6
CONTINUOUS
10
1.9261
20
-1.82891
11
1.92598
21
-1.82904
0
LINE
8
BLACK
6
CONTINUOUS
10
1.92598
20
-1.82904
11
1.92596
21
-1.82922
0
LINE
8
BLACK
6
CONTINUOUS
10
1.92596
20
-1.82922
11
1.92409
21
-1.83297
0
LINE
8
BLACK
6
CONTINUOUS
10
1.92409
20
-1.83297
11
1.92356
21
-1.83368
0
LINE
8
BLACK
6
CONTINUOUS
10
1.92356
20
-1.83368
11
1.92354
21
-1.83373
0
LINE
8
BLACK
6
CONTINUOUS
10
1.92354
20
-1.83373
11
1.92166
21
-1.83561
0
LINE
8
BLACK
6
CONTINUOUS
10
1.92166
20
-1.83561
11
1.92094
21
-1.83611
0
LINE
8
BLACK
6
CONTINUOUS
10
1.92094
20
-1.83611
11
1.92089
21
-1.83616
0
LINE
8
BLACK
6
CONTINUOUS
10
1.92089
20
-1.83616
11
1.91714
21
-1.83804
0
LINE
8
BLACK
6
CONTINUOUS
10
1.91714
20
-1.83804
11
1.91666
21
-1.83818
0
LINE
8
BLACK
6
CONTINUOUS
10
1.91666
20
-1.83818
11
1.91654
21
-1.83826
0
LINE
8
BLACK
6
CONTINUOUS
10
1.91654
20
-1.83826
11
1.90904
21
-1.84013
0
LINE
8
BLACK
6
CONTINUOUS
10
1.90904
20
-1.84013
11
1.90845
21
-1.84018
0
LINE
8
BLACK
6
CONTINUOUS
10
1.90845
20
-1.84018
11
1.90832
21
-1.84022
0
LINE
8
BLACK
6
CONTINUOUS
10
1.90832
20
-1.84022
11
1.89895
21
-1.84022
0
LINE
8
BLACK
6
CONTINUOUS
10
1.89895
20
-1.84022
11
1.89837
21
-1.84012
0
LINE
8
BLACK
6
CONTINUOUS
10
1.89837
20
-1.84012
11
1.89823
21
-1.84013
0
LINE
8
BLACK
6
CONTINUOUS
10
1.89823
20
-1.84013
11
1.89073
21
-1.83826
0
LINE
8
BLACK
6
CONTINUOUS
10
1.89073
20
-1.83826
11
1.89027
21
-1.83805
0
LINE
8
BLACK
6
CONTINUOUS
10
1.89027
20
-1.83805
11
1.89013
21
-1.83804
0
LINE
8
BLACK
6
CONTINUOUS
10
1.89013
20
-1.83804
11
1.88638
21
-1.83616
0
LINE
8
BLACK
6
CONTINUOUS
10
1.88638
20
-1.83616
11
1.88567
21
-1.83564
0
LINE
8
BLACK
6
CONTINUOUS
10
1.88567
20
-1.83564
11
1.88561
21
-1.83561
0
LINE
8
BLACK
6
CONTINUOUS
10
1.88561
20
-1.83561
11
1.88374
21
-1.83373
0
LINE
8
BLACK
6
CONTINUOUS
10
1.88374
20
-1.83373
11
1.88323
21
-1.83301
0
LINE
8
BLACK
6
CONTINUOUS
10
1.88323
20
-1.83301
11
1.88319
21
-1.83297
0
LINE
8
BLACK
6
CONTINUOUS
10
1.88319
20
-1.83297
11
1.88131
21
-1.82922
0
LINE
8
BLACK
6
CONTINUOUS
10
1.88131
20
-1.82922
11
1.88102
21
-1.82823
0
LINE
8
BLACK
6
CONTINUOUS
10
1.88102
20
-1.82823
11
1.88106
21
-1.82806
0
LINE
8
BLACK
6
CONTINUOUS
10
1.88106
20
-1.82806
11
1.881
21
-1.8279
0
LINE
8
BLACK
6
CONTINUOUS
10
1.881
20
-1.8279
11
1.881
21
-1.82415
0
LINE
8
BLACK
6
CONTINUOUS
10
1.881
20
-1.82415
11
1.88118
21
-1.82314
0
LINE
8
BLACK
6
CONTINUOUS
10
1.88118
20
-1.82314
11
1.88129
21
-1.823
0
LINE
8
BLACK
6
CONTINUOUS
10
1.88129
20
-1.823
11
1.88131
21
-1.82283
0
LINE
8
BLACK
6
CONTINUOUS
10
1.88131
20
-1.82283
11
1.88319
21
-1.81908
0
LINE
8
BLACK
6
CONTINUOUS
10
1.88319
20
-1.81908
11
1.88371
21
-1.81837
0
LINE
8
BLACK
6
CONTINUOUS
10
1.88371
20
-1.81837
11
1.88374
21
-1.81831
0
LINE
8
BLACK
6
CONTINUOUS
10
1.88374
20
-1.81831
11
1.88561
21
-1.81643
0
LINE
8
BLACK
6
CONTINUOUS
10
1.88561
20
-1.81643
11
1.88634
21
-1.81593
0
LINE
8
BLACK
6
CONTINUOUS
10
1.88634
20
-1.81593
11
1.88638
21
-1.81588
0
LINE
8
BLACK
6
CONTINUOUS
10
1.88638
20
-1.81588
11
1.89013
21
-1.81401
0
LINE
8
BLACK
6
CONTINUOUS
10
1.89013
20
-1.81401
11
1.89062
21
-1.81386
0
LINE
8
BLACK
6
CONTINUOUS
10
1.89062
20
-1.81386
11
1.89073
21
-1.81378
0
LINE
8
BLACK
6
CONTINUOUS
10
1.89073
20
-1.81378
11
1.89823
21
-1.81191
0
LINE
8
BLACK
6
CONTINUOUS
10
1.89823
20
-1.81191
11
1.89882
21
-1.81187
0
LINE
8
BLACK
6
CONTINUOUS
10
1.89882
20
-1.81187
11
1.89895
21
-1.81182
0
LINE
8
BLACK
6
CONTINUOUS
10
1.89895
20
-1.81182
11
1.90832
21
-1.81182
0
LINE
8
BLACK
6
CONTINUOUS
10
1.90832
20
-1.81182
11
1.9089
21
-1.81192
0
LINE
8
BLACK
6
CONTINUOUS
10
1.89931
20
-1.81773
11
1.89248
21
-1.81943
0
LINE
8
BLACK
6
CONTINUOUS
10
1.89248
20
-1.81943
11
1.88945
21
-1.82095
0
LINE
8
BLACK
6
CONTINUOUS
10
1.88945
20
-1.82095
11
1.88825
21
-1.82215
0
LINE
8
BLACK
6
CONTINUOUS
10
1.88825
20
-1.82215
11
1.8869
21
-1.82484
0
LINE
8
BLACK
6
CONTINUOUS
10
1.8869
20
-1.82484
11
1.8869
21
-1.8272
0
LINE
8
BLACK
6
CONTINUOUS
10
1.8869
20
-1.8272
11
1.88825
21
-1.8299
0
LINE
8
BLACK
6
CONTINUOUS
10
1.88825
20
-1.8299
11
1.88945
21
-1.83109
0
LINE
8
BLACK
6
CONTINUOUS
10
1.88945
20
-1.83109
11
1.89248
21
-1.83261
0
LINE
8
BLACK
6
CONTINUOUS
10
1.89248
20
-1.83261
11
1.89931
21
-1.83432
0
LINE
8
BLACK
6
CONTINUOUS
10
1.89931
20
-1.83432
11
1.90796
21
-1.83432
0
LINE
8
BLACK
6
CONTINUOUS
10
1.90796
20
-1.83432
11
1.91479
21
-1.83261
0
LINE
8
BLACK
6
CONTINUOUS
10
1.91479
20
-1.83261
11
1.91782
21
-1.83109
0
LINE
8
BLACK
6
CONTINUOUS
10
1.91782
20
-1.83109
11
1.91902
21
-1.8299
0
LINE
8
BLACK
6
CONTINUOUS
10
1.91902
20
-1.8299
11
1.92037
21
-1.8272
0
LINE
8
BLACK
6
CONTINUOUS
10
1.92037
20
-1.8272
11
1.92037
21
-1.82484
0
LINE
8
BLACK
6
CONTINUOUS
10
1.92037
20
-1.82484
11
1.91902
21
-1.82215
0
LINE
8
BLACK
6
CONTINUOUS
10
1.91902
20
-1.82215
11
1.91782
21
-1.82095
0
LINE
8
BLACK
6
CONTINUOUS
10
1.91782
20
-1.82095
11
1.91479
21
-1.81943
0
LINE
8
BLACK
6
CONTINUOUS
10
1.91479
20
-1.81943
11
1.90796
21
-1.81773
0
LINE
8
BLACK
6
CONTINUOUS
10
1.90796
20
-1.81773
11
1.89931
21
-1.81773
0
LINE
8
BLACK
6
CONTINUOUS
10
2.26151
20
-1.78078
11
2.26306
21
-1.78208
0
LINE
8
BLACK
6
CONTINUOUS
10
2.26306
20
-1.78208
11
2.26341
21
-1.78407
0
LINE
8
BLACK
6
CONTINUOUS
10
2.26341
20
-1.78407
11
2.2624
21
-1.78582
0
LINE
8
BLACK
6
CONTINUOUS
10
2.2624
20
-1.78582
11
2.2605
21
-1.78651
0
LINE
8
BLACK
6
CONTINUOUS
10
2.2605
20
-1.78651
11
2.2447
21
-1.78651
0
LINE
8
BLACK
6
CONTINUOUS
10
2.2447
20
-1.78651
11
2.2447
21
-1.79935
0
LINE
8
BLACK
6
CONTINUOUS
10
2.2447
20
-1.79935
11
2.25487
21
-1.79935
0
LINE
8
BLACK
6
CONTINUOUS
10
2.25487
20
-1.79935
11
2.25588
21
-1.79953
0
LINE
8
BLACK
6
CONTINUOUS
10
2.25588
20
-1.79953
11
2.25743
21
-1.80083
0
LINE
8
BLACK
6
CONTINUOUS
10
2.25743
20
-1.80083
11
2.25778
21
-1.80282
0
LINE
8
BLACK
6
CONTINUOUS
10
2.25778
20
-1.80282
11
2.25677
21
-1.80457
0
LINE
8
BLACK
6
CONTINUOUS
10
2.25677
20
-1.80457
11
2.25487
21
-1.80526
0
LINE
8
BLACK
6
CONTINUOUS
10
2.25487
20
-1.80526
11
2.2447
21
-1.80526
0
LINE
8
BLACK
6
CONTINUOUS
10
2.2447
20
-1.80526
11
2.2447
21
-1.81998
0
LINE
8
BLACK
6
CONTINUOUS
10
2.2447
20
-1.81998
11
2.2605
21
-1.81998
0
LINE
8
BLACK
6
CONTINUOUS
10
2.2605
20
-1.81998
11
2.26151
21
-1.82015
0
LINE
8
BLACK
6
CONTINUOUS
10
2.26151
20
-1.82015
11
2.26306
21
-1.82145
0
LINE
8
BLACK
6
CONTINUOUS
10
2.26306
20
-1.82145
11
2.26341
21
-1.82344
0
LINE
8
BLACK
6
CONTINUOUS
10
2.26341
20
-1.82344
11
2.2624
21
-1.82519
0
LINE
8
BLACK
6
CONTINUOUS
10
2.2624
20
-1.82519
11
2.2605
21
-1.82588
0
LINE
8
BLACK
6
CONTINUOUS
10
2.2605
20
-1.82588
11
2.24175
21
-1.82588
0
LINE
8
BLACK
6
CONTINUOUS
10
2.24175
20
-1.82588
11
2.24137
21
-1.82581
0
LINE
8
BLACK
6
CONTINUOUS
10
2.24137
20
-1.82581
11
2.24124
21
-1.82584
0
LINE
8
BLACK
6
CONTINUOUS
10
2.24124
20
-1.82584
11
2.24112
21
-1.82577
0
LINE
8
BLACK
6
CONTINUOUS
10
2.24112
20
-1.82577
11
2.24074
21
-1.8257
0
LINE
8
BLACK
6
CONTINUOUS
10
2.24074
20
-1.8257
11
2.24015
21
-1.82521
0
LINE
8
BLACK
6
CONTINUOUS
10
2.24015
20
-1.82521
11
2.23949
21
-1.82483
0
LINE
8
BLACK
6
CONTINUOUS
10
2.23949
20
-1.82483
11
2.2394
21
-1.82458
0
LINE
8
BLACK
6
CONTINUOUS
10
2.2394
20
-1.82458
11
2.23919
21
-1.8244
0
LINE
8
BLACK
6
CONTINUOUS
10
2.23919
20
-1.8244
11
2.23906
21
-1.82365
0
LINE
8
BLACK
6
CONTINUOUS
10
2.23906
20
-1.82365
11
2.2388
21
-1.82293
0
LINE
8
BLACK
6
CONTINUOUS
10
2.2388
20
-1.82293
11
2.2388
21
-1.78356
0
LINE
8
BLACK
6
CONTINUOUS
10
2.2388
20
-1.78356
11
2.23887
21
-1.78317
0
LINE
8
BLACK
6
CONTINUOUS
10
2.23887
20
-1.78317
11
2.23884
21
-1.78305
0
LINE
8
BLACK
6
CONTINUOUS
10
2.23884
20
-1.78305
11
2.23891
21
-1.78293
0
LINE
8
BLACK
6
CONTINUOUS
10
2.23891
20
-1.78293
11
2.23898
21
-1.78255
0
LINE
8
BLACK
6
CONTINUOUS
10
2.23898
20
-1.78255
11
2.23947
21
-1.78196
0
LINE
8
BLACK
6
CONTINUOUS
10
2.23947
20
-1.78196
11
2.23985
21
-1.7813
0
LINE
8
BLACK
6
CONTINUOUS
10
2.23985
20
-1.7813
11
2.2401
21
-1.78121
0
LINE
8
BLACK
6
CONTINUOUS
10
2.2401
20
-1.78121
11
2.24027
21
-1.781
0
LINE
8
BLACK
6
CONTINUOUS
10
2.24027
20
-1.781
11
2.24103
21
-1.78087
0
LINE
8
BLACK
6
CONTINUOUS
10
2.24103
20
-1.78087
11
2.24175
21
-1.78061
0
LINE
8
BLACK
6
CONTINUOUS
10
2.24175
20
-1.78061
11
2.2605
21
-1.78061
0
LINE
8
BLACK
6
CONTINUOUS
10
2.2605
20
-1.78061
11
2.26151
21
-1.78078
0
LINE
8
BLACK
6
CONTINUOUS
10
2.28761
20
-1.78076
11
2.28768
21
-1.78076
0
LINE
8
BLACK
6
CONTINUOUS
10
2.28768
20
-1.78076
11
2.2933
21
-1.78263
0
LINE
8
BLACK
6
CONTINUOUS
10
2.2933
20
-1.78263
11
2.29421
21
-1.78312
0
LINE
8
BLACK
6
CONTINUOUS
10
2.29421
20
-1.78312
11
2.2943
21
-1.78327
0
LINE
8
BLACK
6
CONTINUOUS
10
2.2943
20
-1.78327
11
2.29446
21
-1.78335
0
LINE
8
BLACK
6
CONTINUOUS
10
2.29446
20
-1.78335
11
2.29821
21
-1.78709
0
LINE
8
BLACK
6
CONTINUOUS
10
2.29821
20
-1.78709
11
2.29871
21
-1.78782
0
LINE
8
BLACK
6
CONTINUOUS
10
2.29871
20
-1.78782
11
2.29876
21
-1.78786
0
LINE
8
BLACK
6
CONTINUOUS
10
2.29876
20
-1.78786
11
2.30063
21
-1.79161
0
LINE
8
BLACK
6
CONTINUOUS
10
2.30063
20
-1.79161
11
2.30078
21
-1.7921
0
LINE
8
BLACK
6
CONTINUOUS
10
2.30078
20
-1.7921
11
2.30086
21
-1.79222
0
LINE
8
BLACK
6
CONTINUOUS
10
2.30086
20
-1.79222
11
2.30273
21
-1.79972
0
LINE
8
BLACK
6
CONTINUOUS
10
2.30273
20
-1.79972
11
2.30277
21
-1.8003
0
LINE
8
BLACK
6
CONTINUOUS
10
2.30277
20
-1.8003
11
2.30282
21
-1.80043
0
LINE
8
BLACK
6
CONTINUOUS
10
2.30282
20
-1.80043
11
2.30282
21
-1.80606
0
LINE
8
BLACK
6
CONTINUOUS
10
2.30282
20
-1.80606
11
2.30272
21
-1.80664
0
LINE
8
BLACK
6
CONTINUOUS
10
2.30272
20
-1.80664
11
2.30273
21
-1.80677
0
LINE
8
BLACK
6
CONTINUOUS
10
2.30273
20
-1.80677
11
2.30086
21
-1.81427
0
LINE
8
BLACK
6
CONTINUOUS
10
2.30086
20
-1.81427
11
2.30065
21
-1.81474
0
LINE
8
BLACK
6
CONTINUOUS
10
2.30065
20
-1.81474
11
2.30063
21
-1.81488
0
LINE
8
BLACK
6
CONTINUOUS
10
2.30063
20
-1.81488
11
2.29876
21
-1.81862
0
LINE
8
BLACK
6
CONTINUOUS
10
2.29876
20
-1.81862
11
2.29823
21
-1.81933
0
LINE
8
BLACK
6
CONTINUOUS
10
2.29823
20
-1.81933
11
2.29821
21
-1.81939
0
LINE
8
BLACK
6
CONTINUOUS
10
2.29821
20
-1.81939
11
2.29446
21
-1.82314
0
LINE
8
BLACK
6
CONTINUOUS
10
2.29446
20
-1.82314
11
2.29362
21
-1.82373
0
LINE
8
BLACK
6
CONTINUOUS
10
2.29362
20
-1.82373
11
2.29344
21
-1.82375
0
LINE
8
BLACK
6
CONTINUOUS
10
2.29344
20
-1.82375
11
2.2933
21
-1.82385
0
LINE
8
BLACK
6
CONTINUOUS
10
2.2933
20
-1.82385
11
2.28768
21
-1.82573
0
LINE
8
BLACK
6
CONTINUOUS
10
2.28768
20
-1.82573
11
2.28681
21
-1.82586
0
LINE
8
BLACK
6
CONTINUOUS
10
2.28681
20
-1.82586
11
2.28675
21
-1.82588
0
LINE
8
BLACK
6
CONTINUOUS
10
2.28675
20
-1.82588
11
2.27737
21
-1.82588
0
LINE
8
BLACK
6
CONTINUOUS
10
2.27737
20
-1.82588
11
2.27699
21
-1.82581
0
LINE
8
BLACK
6
CONTINUOUS
10
2.27699
20
-1.82581
11
2.27686
21
-1.82584
0
LINE
8
BLACK
6
CONTINUOUS
10
2.27686
20
-1.82584
11
2.27675
21
-1.82577
0
LINE
8
BLACK
6
CONTINUOUS
10
2.27675
20
-1.82577
11
2.27636
21
-1.8257
0
LINE
8
BLACK
6
CONTINUOUS
10
2.27636
20
-1.8257
11
2.27577
21
-1.82521
0
LINE
8
BLACK
6
CONTINUOUS
10
2.27577
20
-1.82521
11
2.27511
21
-1.82483
0
LINE
8
BLACK
6
CONTINUOUS
10
2.27511
20
-1.82483
11
2.27502
21
-1.82458
0
LINE
8
BLACK
6
CONTINUOUS
10
2.27502
20
-1.82458
11
2.27481
21
-1.8244
0
LINE
8
BLACK
6
CONTINUOUS
10
2.27481
20
-1.8244
11
2.27468
21
-1.82365
0
LINE
8
BLACK
6
CONTINUOUS
10
2.27468
20
-1.82365
11
2.27442
21
-1.82293
0
LINE
8
BLACK
6
CONTINUOUS
10
2.27442
20
-1.82293
11
2.27442
21
-1.78356
0
LINE
8
BLACK
6
CONTINUOUS
10
2.27442
20
-1.78356
11
2.27449
21
-1.78317
0
LINE
8
BLACK
6
CONTINUOUS
10
2.27449
20
-1.78317
11
2.27446
21
-1.78305
0
LINE
8
BLACK
6
CONTINUOUS
10
2.27446
20
-1.78305
11
2.27453
21
-1.78293
0
LINE
8
BLACK
6
CONTINUOUS
10
2.27453
20
-1.78293
11
2.2746
21
-1.78255
0
LINE
8
BLACK
6
CONTINUOUS
10
2.2746
20
-1.78255
11
2.27509
21
-1.78196
0
LINE
8
BLACK
6
CONTINUOUS
10
2.27509
20
-1.78196
11
2.27547
21
-1.7813
0
LINE
8
BLACK
6
CONTINUOUS
10
2.27547
20
-1.7813
11
2.27572
21
-1.78121
0
LINE
8
BLACK
6
CONTINUOUS
10
2.27572
20
-1.78121
11
2.2759
21
-1.781
0
LINE
8
BLACK
6
CONTINUOUS
10
2.2759
20
-1.781
11
2.27665
21
-1.78087
0
LINE
8
BLACK
6
CONTINUOUS
10
2.27665
20
-1.78087
11
2.27737
21
-1.78061
0
LINE
8
BLACK
6
CONTINUOUS
10
2.27737
20
-1.78061
11
2.28675
21
-1.78061
0
LINE
8
BLACK
6
CONTINUOUS
10
2.28675
20
-1.78061
11
2.28761
21
-1.78076
0
LINE
8
BLACK
6
CONTINUOUS
10
2.28032
20
-1.78651
11
2.28032
21
-1.81998
0
LINE
8
BLACK
6
CONTINUOUS
10
2.28032
20
-1.81998
11
2.28627
21
-1.81998
0
LINE
8
BLACK
6
CONTINUOUS
10
2.28627
20
-1.81998
11
2.29077
21
-1.81847
0
LINE
8
BLACK
6
CONTINUOUS
10
2.29077
20
-1.81847
11
2.29369
21
-1.81555
0
LINE
8
BLACK
6
CONTINUOUS
10
2.29369
20
-1.81555
11
2.29521
21
-1.81252
0
LINE
8
BLACK
6
CONTINUOUS
10
2.29521
20
-1.81252
11
2.29692
21
-1.80569
0
LINE
8
BLACK
6
CONTINUOUS
10
2.29692
20
-1.80569
11
2.29692
21
-1.80079
0
LINE
8
BLACK
6
CONTINUOUS
10
2.29692
20
-1.80079
11
2.29521
21
-1.79396
0
LINE
8
BLACK
6
CONTINUOUS
10
2.29521
20
-1.79396
11
2.29369
21
-1.79093
0
LINE
8
BLACK
6
CONTINUOUS
10
2.29369
20
-1.79093
11
2.29077
21
-1.78801
0
LINE
8
BLACK
6
CONTINUOUS
10
2.29077
20
-1.78801
11
2.28627
21
-1.78651
0
LINE
8
BLACK
6
CONTINUOUS
10
2.28627
20
-1.78651
11
2.28032
21
-1.78651
0
LINE
8
BLACK
6
CONTINUOUS
10
2.21214
20
-1.78166
11
2.21283
21
-1.78356
0
LINE
8
BLACK
6
CONTINUOUS
10
2.21283
20
-1.78356
11
2.21283
21
-1.81998
0
LINE
8
BLACK
6
CONTINUOUS
10
2.21283
20
-1.81998
11
2.22863
21
-1.81998
0
LINE
8
BLACK
6
CONTINUOUS
10
2.22863
20
-1.81998
11
2.22964
21
-1.82015
0
LINE
8
BLACK
6
CONTINUOUS
10
2.22964
20
-1.82015
11
2.23118
21
-1.82145
0
LINE
8
BLACK
6
CONTINUOUS
10
2.23118
20
-1.82145
11
2.23154
21
-1.82344
0
LINE
8
BLACK
6
CONTINUOUS
10
2.23154
20
-1.82344
11
2.23053
21
-1.82519
0
LINE
8
BLACK
6
CONTINUOUS
10
2.23053
20
-1.82519
11
2.22863
21
-1.82588
0
LINE
8
BLACK
6
CONTINUOUS
10
2.22863
20
-1.82588
11
2.20988
21
-1.82588
0
LINE
8
BLACK
6
CONTINUOUS
10
2.20988
20
-1.82588
11
2.2095
21
-1.82581
0
LINE
8
BLACK
6
CONTINUOUS
10
2.2095
20
-1.82581
11
2.20937
21
-1.82584
0
LINE
8
BLACK
6
CONTINUOUS
10
2.20937
20
-1.82584
11
2.20925
21
-1.82577
0
LINE
8
BLACK
6
CONTINUOUS
10
2.20925
20
-1.82577
11
2.20887
21
-1.8257
0
LINE
8
BLACK
6
CONTINUOUS
10
2.20887
20
-1.8257
11
2.20828
21
-1.82521
0
LINE
8
BLACK
6
CONTINUOUS
10
2.20828
20
-1.82521
11
2.20762
21
-1.82483
0
LINE
8
BLACK
6
CONTINUOUS
10
2.20762
20
-1.82483
11
2.20753
21
-1.82458
0
LINE
8
BLACK
6
CONTINUOUS
10
2.20753
20
-1.82458
11
2.20732
21
-1.8244
0
LINE
8
BLACK
6
CONTINUOUS
10
2.20732
20
-1.8244
11
2.20719
21
-1.82365
0
LINE
8
BLACK
6
CONTINUOUS
10
2.20719
20
-1.82365
11
2.20693
21
-1.82293
0
LINE
8
BLACK
6
CONTINUOUS
10
2.20693
20
-1.82293
11
2.20693
21
-1.78356
0
LINE
8
BLACK
6
CONTINUOUS
10
2.20693
20
-1.78356
11
2.20711
21
-1.78255
0
LINE
8
BLACK
6
CONTINUOUS
10
2.20711
20
-1.78255
11
2.2084
21
-1.781
0
LINE
8
BLACK
6
CONTINUOUS
10
2.2084
20
-1.781
11
2.21039
21
-1.78065
0
LINE
8
BLACK
6
CONTINUOUS
10
2.21039
20
-1.78065
11
2.21214
21
-1.78166
0
LINE
8
BLACK
6
CONTINUOUS
10
1.89607
20
-1.77448
11
1.89613
21
-1.77448
0
LINE
8
BLACK
6
CONTINUOUS
10
1.89613
20
-1.77448
11
1.90176
21
-1.77635
0
LINE
8
BLACK
6
CONTINUOUS
10
1.90176
20
-1.77635
11
1.90266
21
-1.77684
0
LINE
8
BLACK
6
CONTINUOUS
10
1.90266
20
-1.77684
11
1.90275
21
-1.77699
0
LINE
8
BLACK
6
CONTINUOUS
10
1.90275
20
-1.77699
11
1.90291
21
-1.77706
0
LINE
8
BLACK
6
CONTINUOUS
10
1.90291
20
-1.77706
11
1.92037
21
-1.79452
0
LINE
8
BLACK
6
CONTINUOUS
10
1.92037
20
-1.79452
11
1.92037
21
-1.77728
0
LINE
8
BLACK
6
CONTINUOUS
10
1.92037
20
-1.77728
11
1.92055
21
-1.77627
0
LINE
8
BLACK
6
CONTINUOUS
10
1.92055
20
-1.77627
11
1.92185
21
-1.77472
0
LINE
8
BLACK
6
CONTINUOUS
10
1.92185
20
-1.77472
11
1.92383
21
-1.77437
0
LINE
8
BLACK
6
CONTINUOUS
10
1.92383
20
-1.77437
11
1.92558
21
-1.77538
0
LINE
8
BLACK
6
CONTINUOUS
10
1.92558
20
-1.77538
11
1.92627
21
-1.77728
0
LINE
8
BLACK
6
CONTINUOUS
10
1.92627
20
-1.77728
11
1.92627
21
-1.80165
0
LINE
8
BLACK
6
CONTINUOUS
10
1.92627
20
-1.80165
11
1.92616
21
-1.80228
0
LINE
8
BLACK
6
CONTINUOUS
10
1.92616
20
-1.80228
11
1.92617
21
-1.80241
0
LINE
8
BLACK
6
CONTINUOUS
10
1.92617
20
-1.80241
11
1.92613
21
-1.80248
0
LINE
8
BLACK
6
CONTINUOUS
10
1.92613
20
-1.80248
11
1.9261
21
-1.80266
0
LINE
8
BLACK
6
CONTINUOUS
10
1.9261
20
-1.80266
11
1.92553
21
-1.80334
0
LINE
8
BLACK
6
CONTINUOUS
10
1.92553
20
-1.80334
11
1.92502
21
-1.80407
0
LINE
8
BLACK
6
CONTINUOUS
10
1.92502
20
-1.80407
11
1.92489
21
-1.8041
0
LINE
8
BLACK
6
CONTINUOUS
10
1.92489
20
-1.8041
11
1.9248
21
-1.80421
0
LINE
8
BLACK
6
CONTINUOUS
10
1.9248
20
-1.80421
11
1.92392
21
-1.80436
0
LINE
8
BLACK
6
CONTINUOUS
10
1.92392
20
-1.80436
11
1.92306
21
-1.80459
0
LINE
8
BLACK
6
CONTINUOUS
10
1.92306
20
-1.80459
11
1.92294
21
-1.80453
0
LINE
8
BLACK
6
CONTINUOUS
10
1.92294
20
-1.80453
11
1.92281
21
-1.80456
0
LINE
8
BLACK
6
CONTINUOUS
10
1.92281
20
-1.80456
11
1.92204
21
-1.80411
0
LINE
8
BLACK
6
CONTINUOUS
10
1.92204
20
-1.80411
11
1.92123
21
-1.80374
0
LINE
8
BLACK
6
CONTINUOUS
10
1.92123
20
-1.80374
11
1.89923
21
-1.78173
0
LINE
8
BLACK
6
CONTINUOUS
10
1.89923
20
-1.78173
11
1.89472
21
-1.78023
0
LINE
8
BLACK
6
CONTINUOUS
10
1.89472
20
-1.78023
11
1.89215
21
-1.78023
0
LINE
8
BLACK
6
CONTINUOUS
10
1.89215
20
-1.78023
11
1.88945
21
-1.78158
0
LINE
8
BLACK
6
CONTINUOUS
10
1.88945
20
-1.78158
11
1.88825
21
-1.78278
0
LINE
8
BLACK
6
CONTINUOUS
10
1.88825
20
-1.78278
11
1.8869
21
-1.78547
0
LINE
8
BLACK
6
CONTINUOUS
10
1.8869
20
-1.78547
11
1.8869
21
-1.79345
0
LINE
8
BLACK
6
CONTINUOUS
10
1.8869
20
-1.79345
11
1.88825
21
-1.79615
0
LINE
8
BLACK
6
CONTINUOUS
10
1.88825
20
-1.79615
11
1.88979
21
-1.79769
0
LINE
8
BLACK
6
CONTINUOUS
10
1.88979
20
-1.79769
11
1.89038
21
-1.79853
0
LINE
8
BLACK
6
CONTINUOUS
10
1.89038
20
-1.79853
11
1.89055
21
-1.80054
0
LINE
8
BLACK
6
CONTINUOUS
10
1.89055
20
-1.80054
11
1.8894
21
-1.80219
0
LINE
8
BLACK
6
CONTINUOUS
10
1.8894
20
-1.80219
11
1.88744
21
-1.80272
0
LINE
8
BLACK
6
CONTINUOUS
10
1.88744
20
-1.80272
11
1.88561
21
-1.80186
0
LINE
8
BLACK
6
CONTINUOUS
10
1.88561
20
-1.80186
11
1.88374
21
-1.79999
0
LINE
8
BLACK
6
CONTINUOUS
10
1.88374
20
-1.79999
11
1.88323
21
-1.79927
0
LINE
8
BLACK
6
CONTINUOUS
10
1.88323
20
-1.79927
11
1.88319
21
-1.79922
0
LINE
8
BLACK
6
CONTINUOUS
10
1.88319
20
-1.79922
11
1.88131
21
-1.79547
0
LINE
8
BLACK
6
CONTINUOUS
10
1.88131
20
-1.79547
11
1.88102
21
-1.79449
0
LINE
8
BLACK
6
CONTINUOUS
10
1.88102
20
-1.79449
11
1.88106
21
-1.79432
0
LINE
8
BLACK
6
CONTINUOUS
10
1.88106
20
-1.79432
11
1.881
21
-1.79415
0
LINE
8
BLACK
6
CONTINUOUS
10
1.881
20
-1.79415
11
1.881
21
-1.78478
0
LINE
8
BLACK
6
CONTINUOUS
10
1.881
20
-1.78478
11
1.88118
21
-1.78377
0
LINE
8
BLACK
6
CONTINUOUS
10
1.88118
20
-1.78377
11
1.88129
21
-1.78363
0
LINE
8
BLACK
6
CONTINUOUS
10
1.88129
20
-1.78363
11
1.88131
21
-1.78346
0
LINE
8
BLACK
6
CONTINUOUS
10
1.88131
20
-1.78346
11
1.88319
21
-1.77971
0
LINE
8
BLACK
6
CONTINUOUS
10
1.88319
20
-1.77971
11
1.88371
21
-1.779
0
LINE
8
BLACK
6
CONTINUOUS
10
1.88371
20
-1.779
11
1.88374
21
-1.77894
0
LINE
8
BLACK
6
CONTINUOUS
10
1.88374
20
-1.77894
11
1.88561
21
-1.77706
0
LINE
8
BLACK
6
CONTINUOUS
10
1.88561
20
-1.77706
11
1.88634
21
-1.77656
0
LINE
8
BLACK
6
CONTINUOUS
10
1.88634
20
-1.77656
11
1.88638
21
-1.77651
0
LINE
8
BLACK
6
CONTINUOUS
10
1.88638
20
-1.77651
11
1.89013
21
-1.77464
0
LINE
8
BLACK
6
CONTINUOUS
10
1.89013
20
-1.77464
11
1.89111
21
-1.77434
0
LINE
8
BLACK
6
CONTINUOUS
10
1.89111
20
-1.77434
11
1.89129
21
-1.77439
0
LINE
8
BLACK
6
CONTINUOUS
10
1.89129
20
-1.77439
11
1.89145
21
-1.77433
0
LINE
8
BLACK
6
CONTINUOUS
10
1.89145
20
-1.77433
11
1.8952
21
-1.77433
0
LINE
8
BLACK
6
CONTINUOUS
10
1.8952
20
-1.77433
11
1.89607
21
-1.77448
  0
ENDSEC
  0
EOF
