  0
SECTION
  2
HEADER
  9
$ANGBASE
  50
0.0
  9
$ANGDIR
  70
1
  9
$MEASUREMENT
  70
0
  0
ENDSEC
  0
SECTION
  2
TABLES
  0
TABLE
  2
LTYPE
  70
4
  0
LTYPE
  5
40F
  2
CONTINUOUS
  70
0
  3
Solid line
  72
65
  73
0
  40
0.0
  0
LTYPE
  5
410
  2
DASHDOT
 70
0
  3
Dash Dot ____ _ ____ _
 72
65
 73
4
 40
2.0
 49
1.25
 49
-0.25
 49
0.25
 49
-0.25
  0
LTYPE
  5
411
  2
DASHED
 70
0
  3
Dashed __ __ __ __ __
 72
65
 73
2
 40
0.75
 49
0.5
 49
-0.25
  0
LTYPE
  5
43B
  2
DOTTED
 70
0
  3
Dotted .  .  .  .
 72
65
 73
2
 40
0.2
 49
0.0
 49
-0.2
  0
ENDTAB
  0
TABLE
  2
STYLE
  70
4
  0
STYLE
  2
KICAD
  70
0
  40
0
  41
1
  42
1
  50
0
  71
0
  3
isocp.shx
  0
STYLE
  2
KICADB
  70
0
  40
0
  41
1
  42
1
  50
0
  71
0
  3
isocp.shx
  0
STYLE
  2
KICADI
  70
0
  40
0
  41
1
  42
1
  50
15
  71
0
  3
isocp.shx
  0
STYLE
  2
KICADBI
  70
0
  40
0
  41
1
  42
1
  50
15
  71
0
  3
isocp.shx
  0
ENDTAB
  0
TABLE
  2
LAYER
  70
1
  0
LAYER
  2
BLACK
  70
0
  62
7
  6
CONTINUOUS
  0
ENDTAB
  0
ENDSEC
  0
SECTION
  2
ENTITIES
0
LINE
8
BLACK
6
CONTINUOUS
10
2.31085
20
-1.99091
11
2.31405
21
-1.99304
0
LINE
8
BLACK
6
CONTINUOUS
10
2.31405
20
-1.99304
11
2.31618
21
-1.99623
0
LINE
8
BLACK
6
CONTINUOUS
10
2.31618
20
-1.99623
11
2.31693
21
-2
0
LINE
8
BLACK
6
CONTINUOUS
10
2.31693
20
-2
11
2.31693
21
-2.03543
0
LINE
8
BLACK
6
CONTINUOUS
10
2.31693
20
-2.03543
11
2.31618
21
-2.0392
0
LINE
8
BLACK
6
CONTINUOUS
10
2.31618
20
-2.0392
11
2.31405
21
-2.04239
0
LINE
8
BLACK
6
CONTINUOUS
10
2.31405
20
-2.04239
11
2.31085
21
-2.04453
0
LINE
8
BLACK
6
CONTINUOUS
10
2.31085
20
-2.04453
11
2.30709
21
-2.04528
0
LINE
8
BLACK
6
CONTINUOUS
10
2.30709
20
-2.04528
11
2.27953
21
-2.04528
0
LINE
8
BLACK
6
CONTINUOUS
10
2.27953
20
-2.04528
11
2.27576
21
-2.04453
0
LINE
8
BLACK
6
CONTINUOUS
10
2.27576
20
-2.04453
11
2.27257
21
-2.04239
0
LINE
8
BLACK
6
CONTINUOUS
10
2.27257
20
-2.04239
11
2.27043
21
-2.0392
0
LINE
8
BLACK
6
CONTINUOUS
10
2.27043
20
-2.0392
11
2.26969
21
-2.03543
0
LINE
8
BLACK
6
CONTINUOUS
10
2.26969
20
-2.03543
11
2.26969
21
-2
0
LINE
8
BLACK
6
CONTINUOUS
10
2.26969
20
-2
11
2.27043
21
-1.99623
0
LINE
8
BLACK
6
CONTINUOUS
10
2.27043
20
-1.99623
11
2.27257
21
-1.99304
0
LINE
8
BLACK
6
CONTINUOUS
10
2.27257
20
-1.99304
11
2.27576
21
-1.99091
0
LINE
8
BLACK
6
CONTINUOUS
10
2.27576
20
-1.99091
11
2.27953
21
-1.99016
0
LINE
8
BLACK
6
CONTINUOUS
10
2.27953
20
-1.99016
11
2.30709
21
-1.99016
0
LINE
8
BLACK
6
CONTINUOUS
10
2.30709
20
-1.99016
11
2.31085
21
-1.99091
0
LINE
8
BLACK
6
CONTINUOUS
10
2.23211
20
-1.99091
11
2.23531
21
-1.99304
0
LINE
8
BLACK
6
CONTINUOUS
10
2.23531
20
-1.99304
11
2.23744
21
-1.99623
0
LINE
8
BLACK
6
CONTINUOUS
10
2.23744
20
-1.99623
11
2.23819
21
-2
0
LINE
8
BLACK
6
CONTINUOUS
10
2.23819
20
-2
11
2.23819
21
-2.03543
0
LINE
8
BLACK
6
CONTINUOUS
10
2.23819
20
-2.03543
11
2.23744
21
-2.0392
0
LINE
8
BLACK
6
CONTINUOUS
10
2.23744
20
-2.0392
11
2.23531
21
-2.04239
0
LINE
8
BLACK
6
CONTINUOUS
10
2.23531
20
-2.04239
11
2.23211
21
-2.04453
0
LINE
8
BLACK
6
CONTINUOUS
10
2.23211
20
-2.04453
11
2.22835
21
-2.04528
0
LINE
8
BLACK
6
CONTINUOUS
10
2.22835
20
-2.04528
11
2.20079
21
-2.04528
0
LINE
8
BLACK
6
CONTINUOUS
10
2.20079
20
-2.04528
11
2.19702
21
-2.04453
0
LINE
8
BLACK
6
CONTINUOUS
10
2.19702
20
-2.04453
11
2.19383
21
-2.04239
0
LINE
8
BLACK
6
CONTINUOUS
10
2.19383
20
-2.04239
11
2.19169
21
-2.0392
0
LINE
8
BLACK
6
CONTINUOUS
10
2.19169
20
-2.0392
11
2.19094
21
-2.03543
0
LINE
8
BLACK
6
CONTINUOUS
10
2.19094
20
-2.03543
11
2.19094
21
-2
0
LINE
8
BLACK
6
CONTINUOUS
10
2.19094
20
-2
11
2.19169
21
-1.99623
0
LINE
8
BLACK
6
CONTINUOUS
10
2.19169
20
-1.99623
11
2.19383
21
-1.99304
0
LINE
8
BLACK
6
CONTINUOUS
10
2.19383
20
-1.99304
11
2.19702
21
-1.99091
0
LINE
8
BLACK
6
CONTINUOUS
10
2.19702
20
-1.99091
11
2.20079
21
-1.99016
0
LINE
8
BLACK
6
CONTINUOUS
10
2.20079
20
-1.99016
11
2.22835
21
-1.99016
0
LINE
8
BLACK
6
CONTINUOUS
10
2.22835
20
-1.99016
11
2.23211
21
-1.99091
0
LINE
8
BLACK
6
CONTINUOUS
10
2.04901
20
-1.96478
11
2.05606
21
-1.96635
0
LINE
8
BLACK
6
CONTINUOUS
10
2.05606
20
-1.96635
11
2.06261
21
-1.96941
0
LINE
8
BLACK
6
CONTINUOUS
10
2.06261
20
-1.96941
11
2.06835
21
-1.9738
0
LINE
8
BLACK
6
CONTINUOUS
10
2.06835
20
-1.9738
11
2.07302
21
-1.97932
0
LINE
8
BLACK
6
CONTINUOUS
10
2.07302
20
-1.97932
11
2.07639
21
-1.98571
0
LINE
8
BLACK
6
CONTINUOUS
10
2.07639
20
-1.98571
11
2.07831
21
-1.99268
0
LINE
8
BLACK
6
CONTINUOUS
10
2.07831
20
-1.99268
11
2.07869
21
-1.9999
0
LINE
8
BLACK
6
CONTINUOUS
10
2.07869
20
-1.9999
11
2.07751
21
-2.00703
0
LINE
8
BLACK
6
CONTINUOUS
10
2.07751
20
-2.00703
11
2.07482
21
-2.01374
0
LINE
8
BLACK
6
CONTINUOUS
10
2.07482
20
-2.01374
11
2.07076
21
-2.01972
0
LINE
8
BLACK
6
CONTINUOUS
10
2.07076
20
-2.01972
11
2.06551
21
-2.02469
0
LINE
8
BLACK
6
CONTINUOUS
10
2.06551
20
-2.02469
11
2.05931
21
-2.02841
0
LINE
8
BLACK
6
CONTINUOUS
10
2.05931
20
-2.02841
11
2.05246
21
-2.03072
0
LINE
8
BLACK
6
CONTINUOUS
10
2.05246
20
-2.03072
11
2.04528
21
-2.0315
0
LINE
8
BLACK
6
CONTINUOUS
10
2.04528
20
-2.0315
11
2.03346
21
-2.0315
0
LINE
8
BLACK
6
CONTINUOUS
10
2.03346
20
-2.0315
11
2.02973
21
-2.03129
0
LINE
8
BLACK
6
CONTINUOUS
10
2.02973
20
-2.03129
11
2.02268
21
-2.02971
0
LINE
8
BLACK
6
CONTINUOUS
10
2.02268
20
-2.02971
11
2.01613
21
-2.02666
0
LINE
8
BLACK
6
CONTINUOUS
10
2.01613
20
-2.02666
11
2.01039
21
-2.02227
0
LINE
8
BLACK
6
CONTINUOUS
10
2.01039
20
-2.02227
11
2.00572
21
-2.01674
0
LINE
8
BLACK
6
CONTINUOUS
10
2.00572
20
-2.01674
11
2.00235
21
-2.01035
0
LINE
8
BLACK
6
CONTINUOUS
10
2.00235
20
-2.01035
11
2.00043
21
-2.00338
0
LINE
8
BLACK
6
CONTINUOUS
10
2.00043
20
-2.00338
11
2.00005
21
-1.99616
0
LINE
8
BLACK
6
CONTINUOUS
10
2.00005
20
-1.99616
11
2.00123
21
-1.98903
0
LINE
8
BLACK
6
CONTINUOUS
10
2.00123
20
-1.98903
11
2.00392
21
-1.98232
0
LINE
8
BLACK
6
CONTINUOUS
10
2.00392
20
-1.98232
11
2.00798
21
-1.97634
0
LINE
8
BLACK
6
CONTINUOUS
10
2.00798
20
-1.97634
11
2.01323
21
-1.97138
0
LINE
8
BLACK
6
CONTINUOUS
10
2.01323
20
-1.97138
11
2.01943
21
-1.96765
0
LINE
8
BLACK
6
CONTINUOUS
10
2.01943
20
-1.96765
11
2.02628
21
-1.96535
0
LINE
8
BLACK
6
CONTINUOUS
10
2.02628
20
-1.96535
11
2.03346
21
-1.96457
0
LINE
8
BLACK
6
CONTINUOUS
10
2.03346
20
-1.96457
11
2.04528
21
-1.96457
0
LINE
8
BLACK
6
CONTINUOUS
10
2.04528
20
-1.96457
11
2.04901
21
-1.96478
0
LINE
8
BLACK
6
CONTINUOUS
10
2.07266
20
-1.86689
11
2.07586
21
-1.86902
0
LINE
8
BLACK
6
CONTINUOUS
10
2.07586
20
-1.86902
11
2.07799
21
-1.87222
0
LINE
8
BLACK
6
CONTINUOUS
10
2.07799
20
-1.87222
11
2.07874
21
-1.87598
0
LINE
8
BLACK
6
CONTINUOUS
10
2.07874
20
-1.87598
11
2.07874
21
-1.92323
0
LINE
8
BLACK
6
CONTINUOUS
10
2.07874
20
-1.92323
11
2.07799
21
-1.92699
0
LINE
8
BLACK
6
CONTINUOUS
10
2.07799
20
-1.92699
11
2.07586
21
-1.93019
0
LINE
8
BLACK
6
CONTINUOUS
10
2.07586
20
-1.93019
11
2.07266
21
-1.93232
0
LINE
8
BLACK
6
CONTINUOUS
10
2.07266
20
-1.93232
11
2.0689
21
-1.93307
0
LINE
8
BLACK
6
CONTINUOUS
10
2.0689
20
-1.93307
11
2.00984
21
-1.93307
0
LINE
8
BLACK
6
CONTINUOUS
10
2.00984
20
-1.93307
11
2.00608
21
-1.93232
0
LINE
8
BLACK
6
CONTINUOUS
10
2.00608
20
-1.93232
11
2.00288
21
-1.93019
0
LINE
8
BLACK
6
CONTINUOUS
10
2.00288
20
-1.93019
11
2.00075
21
-1.92699
0
LINE
8
BLACK
6
CONTINUOUS
10
2.00075
20
-1.92699
11
2
21
-1.92323
0
LINE
8
BLACK
6
CONTINUOUS
10
2
20
-1.92323
11
2
21
-1.87598
0
LINE
8
BLACK
6
CONTINUOUS
10
2
20
-1.87598
11
2.00075
21
-1.87222
0
LINE
8
BLACK
6
CONTINUOUS
10
2.00075
20
-1.87222
11
2.00288
21
-1.86902
0
LINE
8
BLACK
6
CONTINUOUS
10
2.00288
20
-1.86902
11
2.00608
21
-1.86689
0
LINE
8
BLACK
6
CONTINUOUS
10
2.00608
20
-1.86689
11
2.00984
21
-1.86614
0
LINE
8
BLACK
6
CONTINUOUS
10
2.00984
20
-1.86614
11
2.0689
21
-1.86614
0
LINE
8
BLACK
6
CONTINUOUS
10
2.0689
20
-1.86614
11
2.07266
21
-1.86689
0
LINE
8
BLACK
6
CONTINUOUS
10
2.30412
20
-1.84325
11
2.30723
21
-1.84533
0
LINE
8
BLACK
6
CONTINUOUS
10
2.30723
20
-1.84533
11
2.30931
21
-1.84844
0
LINE
8
BLACK
6
CONTINUOUS
10
2.30931
20
-1.84844
11
2.31004
21
-1.85212
0
LINE
8
BLACK
6
CONTINUOUS
10
2.31004
20
-1.85212
11
2.31004
21
-1.88804
0
LINE
8
BLACK
6
CONTINUOUS
10
2.31004
20
-1.88804
11
2.30931
21
-1.89171
0
LINE
8
BLACK
6
CONTINUOUS
10
2.30931
20
-1.89171
11
2.30723
21
-1.89483
0
LINE
8
BLACK
6
CONTINUOUS
10
2.30723
20
-1.89483
11
2.30412
21
-1.89691
0
LINE
8
BLACK
6
CONTINUOUS
10
2.30412
20
-1.89691
11
2.30044
21
-1.89764
0
LINE
8
BLACK
6
CONTINUOUS
10
2.30044
20
-1.89764
11
2.28125
21
-1.89764
0
LINE
8
BLACK
6
CONTINUOUS
10
2.28125
20
-1.89764
11
2.27758
21
-1.89691
0
LINE
8
BLACK
6
CONTINUOUS
10
2.27758
20
-1.89691
11
2.27446
21
-1.89483
0
LINE
8
BLACK
6
CONTINUOUS
10
2.27446
20
-1.89483
11
2.27238
21
-1.89171
0
LINE
8
BLACK
6
CONTINUOUS
10
2.27238
20
-1.89171
11
2.27165
21
-1.88804
0
LINE
8
BLACK
6
CONTINUOUS
10
2.27165
20
-1.88804
11
2.27165
21
-1.85212
0
LINE
8
BLACK
6
CONTINUOUS
10
2.27165
20
-1.85212
11
2.27238
21
-1.84844
0
LINE
8
BLACK
6
CONTINUOUS
10
2.27238
20
-1.84844
11
2.27446
21
-1.84533
0
LINE
8
BLACK
6
CONTINUOUS
10
2.27446
20
-1.84533
11
2.27758
21
-1.84325
0
LINE
8
BLACK
6
CONTINUOUS
10
2.27758
20
-1.84325
11
2.28125
21
-1.84252
0
LINE
8
BLACK
6
CONTINUOUS
10
2.28125
20
-1.84252
11
2.30044
21
-1.84252
0
LINE
8
BLACK
6
CONTINUOUS
10
2.30044
20
-1.84252
11
2.30412
21
-1.84325
0
LINE
8
BLACK
6
CONTINUOUS
10
2.2303
20
-1.84325
11
2.23341
21
-1.84533
0
LINE
8
BLACK
6
CONTINUOUS
10
2.23341
20
-1.84533
11
2.23549
21
-1.84844
0
LINE
8
BLACK
6
CONTINUOUS
10
2.23549
20
-1.84844
11
2.23622
21
-1.85212
0
LINE
8
BLACK
6
CONTINUOUS
10
2.23622
20
-1.85212
11
2.23622
21
-1.88804
0
LINE
8
BLACK
6
CONTINUOUS
10
2.23622
20
-1.88804
11
2.23549
21
-1.89171
0
LINE
8
BLACK
6
CONTINUOUS
10
2.23549
20
-1.89171
11
2.23341
21
-1.89483
0
LINE
8
BLACK
6
CONTINUOUS
10
2.23341
20
-1.89483
11
2.2303
21
-1.89691
0
LINE
8
BLACK
6
CONTINUOUS
10
2.2303
20
-1.89691
11
2.22662
21
-1.89764
0
LINE
8
BLACK
6
CONTINUOUS
10
2.22662
20
-1.89764
11
2.20743
21
-1.89764
0
LINE
8
BLACK
6
CONTINUOUS
10
2.20743
20
-1.89764
11
2.20376
21
-1.89691
0
LINE
8
BLACK
6
CONTINUOUS
10
2.20376
20
-1.89691
11
2.20065
21
-1.89483
0
LINE
8
BLACK
6
CONTINUOUS
10
2.20065
20
-1.89483
11
2.19857
21
-1.89171
0
LINE
8
BLACK
6
CONTINUOUS
10
2.19857
20
-1.89171
11
2.19783
21
-1.88804
0
LINE
8
BLACK
6
CONTINUOUS
10
2.19783
20
-1.88804
11
2.19783
21
-1.85212
0
LINE
8
BLACK
6
CONTINUOUS
10
2.19783
20
-1.85212
11
2.19857
21
-1.84844
0
LINE
8
BLACK
6
CONTINUOUS
10
2.19857
20
-1.84844
11
2.20065
21
-1.84533
0
LINE
8
BLACK
6
CONTINUOUS
10
2.20065
20
-1.84533
11
2.20376
21
-1.84325
0
LINE
8
BLACK
6
CONTINUOUS
10
2.20376
20
-1.84325
11
2.20743
21
-1.84252
0
LINE
8
BLACK
6
CONTINUOUS
10
2.20743
20
-1.84252
11
2.22662
21
-1.84252
0
LINE
8
BLACK
6
CONTINUOUS
10
2.22662
20
-1.84252
11
2.2303
21
-1.84325
  0
ENDSEC
  0
EOF
