  0
SECTION
  2
HEADER
  9
$ANGBASE
  50
0.0
  9
$ANGDIR
  70
1
  9
$MEASUREMENT
  70
0
  0
ENDSEC
  0
SECTION
  2
TABLES
  0
TABLE
  2
LTYPE
  70
4
  0
LTYPE
  5
40F
  2
CONTINUOUS
  70
0
  3
Solid line
  72
65
  73
0
  40
0.0
  0
LTYPE
  5
410
  2
DASHDOT
 70
0
  3
Dash Dot ____ _ ____ _
 72
65
 73
4
 40
2.0
 49
1.25
 49
-0.25
 49
0.25
 49
-0.25
  0
LTYPE
  5
411
  2
DASHED
 70
0
  3
Dashed __ __ __ __ __
 72
65
 73
2
 40
0.75
 49
0.5
 49
-0.25
  0
LTYPE
  5
43B
  2
DOTTED
 70
0
  3
Dotted .  .  .  .
 72
65
 73
2
 40
0.2
 49
0.0
 49
-0.2
  0
ENDTAB
  0
TABLE
  2
STYLE
  70
4
  0
STYLE
  2
KICAD
  70
0
  40
0
  41
1
  42
1
  50
0
  71
0
  3
isocp.shx
  0
STYLE
  2
KICADB
  70
0
  40
0
  41
1
  42
1
  50
0
  71
0
  3
isocp.shx
  0
STYLE
  2
KICADI
  70
0
  40
0
  41
1
  42
1
  50
15
  71
0
  3
isocp.shx
  0
STYLE
  2
KICADBI
  70
0
  40
0
  41
1
  42
1
  50
15
  71
0
  3
isocp.shx
  0
ENDTAB
  0
TABLE
  2
LAYER
  70
1
  0
LAYER
  2
BLACK
  70
0
  62
7
  6
CONTINUOUS
  0
ENDTAB
  0
ENDSEC
  0
SECTION
  2
ENTITIES
0
LINE
8
BLACK
6
CONTINUOUS
10
2.36007
20
-2.0598
11
2.36326
21
-2.06194
0
LINE
8
BLACK
6
CONTINUOUS
10
2.36326
20
-2.06194
11
2.36539
21
-2.06513
0
LINE
8
BLACK
6
CONTINUOUS
10
2.36539
20
-2.06513
11
2.36614
21
-2.0689
0
LINE
8
BLACK
6
CONTINUOUS
10
2.36614
20
-2.0689
11
2.36614
21
-2.10433
0
LINE
8
BLACK
6
CONTINUOUS
10
2.36614
20
-2.10433
11
2.36539
21
-2.1081
0
LINE
8
BLACK
6
CONTINUOUS
10
2.36539
20
-2.1081
11
2.36326
21
-2.11129
0
LINE
8
BLACK
6
CONTINUOUS
10
2.36326
20
-2.11129
11
2.36007
21
-2.11342
0
LINE
8
BLACK
6
CONTINUOUS
10
2.36007
20
-2.11342
11
2.3563
21
-2.11417
0
LINE
8
BLACK
6
CONTINUOUS
10
2.3563
20
-2.11417
11
2.32874
21
-2.11417
0
LINE
8
BLACK
6
CONTINUOUS
10
2.32874
20
-2.11417
11
2.32497
21
-2.11342
0
LINE
8
BLACK
6
CONTINUOUS
10
2.32497
20
-2.11342
11
2.32178
21
-2.11129
0
LINE
8
BLACK
6
CONTINUOUS
10
2.32178
20
-2.11129
11
2.31965
21
-2.1081
0
LINE
8
BLACK
6
CONTINUOUS
10
2.31965
20
-2.1081
11
2.3189
21
-2.10433
0
LINE
8
BLACK
6
CONTINUOUS
10
2.3189
20
-2.10433
11
2.3189
21
-2.0689
0
LINE
8
BLACK
6
CONTINUOUS
10
2.3189
20
-2.0689
11
2.31965
21
-2.06513
0
LINE
8
BLACK
6
CONTINUOUS
10
2.31965
20
-2.06513
11
2.32178
21
-2.06194
0
LINE
8
BLACK
6
CONTINUOUS
10
2.32178
20
-2.06194
11
2.32497
21
-2.0598
0
LINE
8
BLACK
6
CONTINUOUS
10
2.32497
20
-2.0598
11
2.32874
21
-2.05906
0
LINE
8
BLACK
6
CONTINUOUS
10
2.32874
20
-2.05906
11
2.3563
21
-2.05906
0
LINE
8
BLACK
6
CONTINUOUS
10
2.3563
20
-2.05906
11
2.36007
21
-2.0598
0
LINE
8
BLACK
6
CONTINUOUS
10
2.28133
20
-2.0598
11
2.28452
21
-2.06194
0
LINE
8
BLACK
6
CONTINUOUS
10
2.28452
20
-2.06194
11
2.28665
21
-2.06513
0
LINE
8
BLACK
6
CONTINUOUS
10
2.28665
20
-2.06513
11
2.2874
21
-2.0689
0
LINE
8
BLACK
6
CONTINUOUS
10
2.2874
20
-2.0689
11
2.2874
21
-2.10433
0
LINE
8
BLACK
6
CONTINUOUS
10
2.2874
20
-2.10433
11
2.28665
21
-2.1081
0
LINE
8
BLACK
6
CONTINUOUS
10
2.28665
20
-2.1081
11
2.28452
21
-2.11129
0
LINE
8
BLACK
6
CONTINUOUS
10
2.28452
20
-2.11129
11
2.28133
21
-2.11342
0
LINE
8
BLACK
6
CONTINUOUS
10
2.28133
20
-2.11342
11
2.27756
21
-2.11417
0
LINE
8
BLACK
6
CONTINUOUS
10
2.27756
20
-2.11417
11
2.25
21
-2.11417
0
LINE
8
BLACK
6
CONTINUOUS
10
2.25
20
-2.11417
11
2.24623
21
-2.11342
0
LINE
8
BLACK
6
CONTINUOUS
10
2.24623
20
-2.11342
11
2.24304
21
-2.11129
0
LINE
8
BLACK
6
CONTINUOUS
10
2.24304
20
-2.11129
11
2.24091
21
-2.1081
0
LINE
8
BLACK
6
CONTINUOUS
10
2.24091
20
-2.1081
11
2.24016
21
-2.10433
0
LINE
8
BLACK
6
CONTINUOUS
10
2.24016
20
-2.10433
11
2.24016
21
-2.0689
0
LINE
8
BLACK
6
CONTINUOUS
10
2.24016
20
-2.0689
11
2.24091
21
-2.06513
0
LINE
8
BLACK
6
CONTINUOUS
10
2.24091
20
-2.06513
11
2.24304
21
-2.06194
0
LINE
8
BLACK
6
CONTINUOUS
10
2.24304
20
-2.06194
11
2.24623
21
-2.0598
0
LINE
8
BLACK
6
CONTINUOUS
10
2.24623
20
-2.0598
11
2.25
21
-2.05906
0
LINE
8
BLACK
6
CONTINUOUS
10
2.25
20
-2.05906
11
2.27756
21
-2.05906
0
LINE
8
BLACK
6
CONTINUOUS
10
2.27756
20
-2.05906
11
2.28133
21
-2.0598
0
LINE
8
BLACK
6
CONTINUOUS
10
2.35333
20
-1.77435
11
2.35644
21
-1.77643
0
LINE
8
BLACK
6
CONTINUOUS
10
2.35644
20
-1.77643
11
2.35852
21
-1.77955
0
LINE
8
BLACK
6
CONTINUOUS
10
2.35852
20
-1.77955
11
2.35925
21
-1.78322
0
LINE
8
BLACK
6
CONTINUOUS
10
2.35925
20
-1.78322
11
2.35925
21
-1.81914
0
LINE
8
BLACK
6
CONTINUOUS
10
2.35925
20
-1.81914
11
2.35852
21
-1.82282
0
LINE
8
BLACK
6
CONTINUOUS
10
2.35852
20
-1.82282
11
2.35644
21
-1.82593
0
LINE
8
BLACK
6
CONTINUOUS
10
2.35644
20
-1.82593
11
2.35333
21
-1.82801
0
LINE
8
BLACK
6
CONTINUOUS
10
2.35333
20
-1.82801
11
2.34966
21
-1.82874
0
LINE
8
BLACK
6
CONTINUOUS
10
2.34966
20
-1.82874
11
2.33046
21
-1.82874
0
LINE
8
BLACK
6
CONTINUOUS
10
2.33046
20
-1.82874
11
2.32679
21
-1.82801
0
LINE
8
BLACK
6
CONTINUOUS
10
2.32679
20
-1.82801
11
2.32368
21
-1.82593
0
LINE
8
BLACK
6
CONTINUOUS
10
2.32368
20
-1.82593
11
2.3216
21
-1.82282
0
LINE
8
BLACK
6
CONTINUOUS
10
2.3216
20
-1.82282
11
2.32087
21
-1.81914
0
LINE
8
BLACK
6
CONTINUOUS
10
2.32087
20
-1.81914
11
2.32087
21
-1.78322
0
LINE
8
BLACK
6
CONTINUOUS
10
2.32087
20
-1.78322
11
2.3216
21
-1.77955
0
LINE
8
BLACK
6
CONTINUOUS
10
2.3216
20
-1.77955
11
2.32368
21
-1.77643
0
LINE
8
BLACK
6
CONTINUOUS
10
2.32368
20
-1.77643
11
2.32679
21
-1.77435
0
LINE
8
BLACK
6
CONTINUOUS
10
2.32679
20
-1.77435
11
2.33046
21
-1.77362
0
LINE
8
BLACK
6
CONTINUOUS
10
2.33046
20
-1.77362
11
2.34966
21
-1.77362
0
LINE
8
BLACK
6
CONTINUOUS
10
2.34966
20
-1.77362
11
2.35333
21
-1.77435
0
LINE
8
BLACK
6
CONTINUOUS
10
2.27951
20
-1.77435
11
2.28262
21
-1.77643
0
LINE
8
BLACK
6
CONTINUOUS
10
2.28262
20
-1.77643
11
2.2847
21
-1.77955
0
LINE
8
BLACK
6
CONTINUOUS
10
2.2847
20
-1.77955
11
2.28543
21
-1.78322
0
LINE
8
BLACK
6
CONTINUOUS
10
2.28543
20
-1.78322
11
2.28543
21
-1.81914
0
LINE
8
BLACK
6
CONTINUOUS
10
2.28543
20
-1.81914
11
2.2847
21
-1.82282
0
LINE
8
BLACK
6
CONTINUOUS
10
2.2847
20
-1.82282
11
2.28262
21
-1.82593
0
LINE
8
BLACK
6
CONTINUOUS
10
2.28262
20
-1.82593
11
2.27951
21
-1.82801
0
LINE
8
BLACK
6
CONTINUOUS
10
2.27951
20
-1.82801
11
2.27584
21
-1.82874
0
LINE
8
BLACK
6
CONTINUOUS
10
2.27584
20
-1.82874
11
2.25664
21
-1.82874
0
LINE
8
BLACK
6
CONTINUOUS
10
2.25664
20
-1.82874
11
2.25297
21
-1.82801
0
LINE
8
BLACK
6
CONTINUOUS
10
2.25297
20
-1.82801
11
2.24986
21
-1.82593
0
LINE
8
BLACK
6
CONTINUOUS
10
2.24986
20
-1.82593
11
2.24778
21
-1.82282
0
LINE
8
BLACK
6
CONTINUOUS
10
2.24778
20
-1.82282
11
2.24705
21
-1.81914
0
LINE
8
BLACK
6
CONTINUOUS
10
2.24705
20
-1.81914
11
2.24705
21
-1.78322
0
LINE
8
BLACK
6
CONTINUOUS
10
2.24705
20
-1.78322
11
2.24778
21
-1.77955
0
LINE
8
BLACK
6
CONTINUOUS
10
2.24778
20
-1.77955
11
2.24986
21
-1.77643
0
LINE
8
BLACK
6
CONTINUOUS
10
2.24986
20
-1.77643
11
2.25297
21
-1.77435
0
LINE
8
BLACK
6
CONTINUOUS
10
2.25297
20
-1.77435
11
2.25664
21
-1.77362
0
LINE
8
BLACK
6
CONTINUOUS
10
2.25664
20
-1.77362
11
2.27584
21
-1.77362
0
LINE
8
BLACK
6
CONTINUOUS
10
2.27584
20
-1.77362
11
2.27951
21
-1.77435
  0
ENDSEC
  0
EOF
