  0
SECTION
  2
HEADER
  9
$ANGBASE
  50
0.0
  9
$ANGDIR
  70
1
  9
$MEASUREMENT
  70
0
  0
ENDSEC
  0
SECTION
  2
TABLES
  0
TABLE
  2
LTYPE
  70
4
  0
LTYPE
  5
40F
  2
CONTINUOUS
  70
0
  3
Solid line
  72
65
  73
0
  40
0.0
  0
LTYPE
  5
410
  2
DASHDOT
 70
0
  3
Dash Dot ____ _ ____ _
 72
65
 73
4
 40
2.0
 49
1.25
 49
-0.25
 49
0.25
 49
-0.25
  0
LTYPE
  5
411
  2
DASHED
 70
0
  3
Dashed __ __ __ __ __
 72
65
 73
2
 40
0.75
 49
0.5
 49
-0.25
  0
LTYPE
  5
43B
  2
DOTTED
 70
0
  3
Dotted .  .  .  .
 72
65
 73
2
 40
0.2
 49
0.0
 49
-0.2
  0
ENDTAB
  0
TABLE
  2
STYLE
  70
4
  0
STYLE
  2
KICAD
  70
0
  40
0
  41
1
  42
1
  50
0
  71
0
  3
isocp.shx
  0
STYLE
  2
KICADB
  70
0
  40
0
  41
1
  42
1
  50
0
  71
0
  3
isocp.shx
  0
STYLE
  2
KICADI
  70
0
  40
0
  41
1
  42
1
  50
15
  71
0
  3
isocp.shx
  0
STYLE
  2
KICADBI
  70
0
  40
0
  41
1
  42
1
  50
15
  71
0
  3
isocp.shx
  0
ENDTAB
  0
TABLE
  2
LAYER
  70
1
  0
LAYER
  2
BLACK
  70
0
  62
7
  6
CONTINUOUS
  0
ENDTAB
  0
ENDSEC
  0
SECTION
  2
ENTITIES
0
LINE
8
BLACK
6
CONTINUOUS
10
1.80355
20
-2.0939
11
1.80542
21
-2.09577
0
LINE
8
BLACK
6
CONTINUOUS
10
1.80542
20
-2.09577
11
1.80601
21
-2.09661
0
LINE
8
BLACK
6
CONTINUOUS
10
1.80601
20
-2.09661
11
1.80603
21
-2.09679
0
LINE
8
BLACK
6
CONTINUOUS
10
1.80603
20
-2.09679
11
1.80614
21
-2.09693
0
LINE
8
BLACK
6
CONTINUOUS
10
1.80614
20
-2.09693
11
1.80801
21
-2.10255
0
LINE
8
BLACK
6
CONTINUOUS
10
1.80801
20
-2.10255
11
1.80814
21
-2.10343
0
LINE
8
BLACK
6
CONTINUOUS
10
1.80814
20
-2.10343
11
1.80816
21
-2.10349
0
LINE
8
BLACK
6
CONTINUOUS
10
1.80816
20
-2.10349
11
1.80816
21
-2.10724
0
LINE
8
BLACK
6
CONTINUOUS
10
1.80816
20
-2.10724
11
1.80801
21
-2.10811
0
LINE
8
BLACK
6
CONTINUOUS
10
1.80801
20
-2.10811
11
1.80801
21
-2.10817
0
LINE
8
BLACK
6
CONTINUOUS
10
1.80801
20
-2.10817
11
1.80614
21
-2.11379
0
LINE
8
BLACK
6
CONTINUOUS
10
1.80614
20
-2.11379
11
1.80565
21
-2.1147
0
LINE
8
BLACK
6
CONTINUOUS
10
1.80565
20
-2.1147
11
1.8055
21
-2.11479
0
LINE
8
BLACK
6
CONTINUOUS
10
1.8055
20
-2.11479
11
1.80542
21
-2.11495
0
LINE
8
BLACK
6
CONTINUOUS
10
1.80542
20
-2.11495
11
1.80168
21
-2.1187
0
LINE
8
BLACK
6
CONTINUOUS
10
1.80168
20
-2.1187
11
1.80095
21
-2.1192
0
LINE
8
BLACK
6
CONTINUOUS
10
1.80095
20
-2.1192
11
1.80091
21
-2.11925
0
LINE
8
BLACK
6
CONTINUOUS
10
1.80091
20
-2.11925
11
1.79716
21
-2.12113
0
LINE
8
BLACK
6
CONTINUOUS
10
1.79716
20
-2.12113
11
1.79667
21
-2.12127
0
LINE
8
BLACK
6
CONTINUOUS
10
1.79667
20
-2.12127
11
1.79655
21
-2.12135
0
LINE
8
BLACK
6
CONTINUOUS
10
1.79655
20
-2.12135
11
1.78906
21
-2.12322
0
LINE
8
BLACK
6
CONTINUOUS
10
1.78906
20
-2.12322
11
1.78847
21
-2.12327
0
LINE
8
BLACK
6
CONTINUOUS
10
1.78847
20
-2.12327
11
1.78834
21
-2.12331
0
LINE
8
BLACK
6
CONTINUOUS
10
1.78834
20
-2.12331
11
1.78271
21
-2.12331
0
LINE
8
BLACK
6
CONTINUOUS
10
1.78271
20
-2.12331
11
1.78213
21
-2.12321
0
LINE
8
BLACK
6
CONTINUOUS
10
1.78213
20
-2.12321
11
1.782
21
-2.12322
0
LINE
8
BLACK
6
CONTINUOUS
10
1.782
20
-2.12322
11
1.7745
21
-2.12135
0
LINE
8
BLACK
6
CONTINUOUS
10
1.7745
20
-2.12135
11
1.77403
21
-2.12114
0
LINE
8
BLACK
6
CONTINUOUS
10
1.77403
20
-2.12114
11
1.7739
21
-2.12113
0
LINE
8
BLACK
6
CONTINUOUS
10
1.7739
20
-2.12113
11
1.77015
21
-2.11925
0
LINE
8
BLACK
6
CONTINUOUS
10
1.77015
20
-2.11925
11
1.76944
21
-2.11873
0
LINE
8
BLACK
6
CONTINUOUS
10
1.76944
20
-2.11873
11
1.76938
21
-2.1187
0
LINE
8
BLACK
6
CONTINUOUS
10
1.76938
20
-2.1187
11
1.76563
21
-2.11495
0
LINE
8
BLACK
6
CONTINUOUS
10
1.76563
20
-2.11495
11
1.76504
21
-2.11411
0
LINE
8
BLACK
6
CONTINUOUS
10
1.76504
20
-2.11411
11
1.76503
21
-2.11393
0
LINE
8
BLACK
6
CONTINUOUS
10
1.76503
20
-2.11393
11
1.76492
21
-2.11379
0
LINE
8
BLACK
6
CONTINUOUS
10
1.76492
20
-2.11379
11
1.76304
21
-2.10817
0
LINE
8
BLACK
6
CONTINUOUS
10
1.76304
20
-2.10817
11
1.76291
21
-2.1073
0
LINE
8
BLACK
6
CONTINUOUS
10
1.76291
20
-2.1073
11
1.76289
21
-2.10724
0
LINE
8
BLACK
6
CONTINUOUS
10
1.76289
20
-2.10724
11
1.76289
21
-2.10349
0
LINE
8
BLACK
6
CONTINUOUS
10
1.76289
20
-2.10349
11
1.76304
21
-2.10262
0
LINE
8
BLACK
6
CONTINUOUS
10
1.76304
20
-2.10262
11
1.76304
21
-2.10255
0
LINE
8
BLACK
6
CONTINUOUS
10
1.76304
20
-2.10255
11
1.76492
21
-2.09693
0
LINE
8
BLACK
6
CONTINUOUS
10
1.76492
20
-2.09693
11
1.7654
21
-2.09603
0
LINE
8
BLACK
6
CONTINUOUS
10
1.7654
20
-2.09603
11
1.76555
21
-2.09593
0
LINE
8
BLACK
6
CONTINUOUS
10
1.76555
20
-2.09593
11
1.76563
21
-2.09577
0
LINE
8
BLACK
6
CONTINUOUS
10
1.76563
20
-2.09577
11
1.7675
21
-2.0939
0
LINE
8
BLACK
6
CONTINUOUS
10
1.7675
20
-2.0939
11
1.76834
21
-2.09331
0
LINE
8
BLACK
6
CONTINUOUS
10
1.76834
20
-2.09331
11
1.77036
21
-2.09314
0
LINE
8
BLACK
6
CONTINUOUS
10
1.77036
20
-2.09314
11
1.77201
21
-2.09429
0
LINE
8
BLACK
6
CONTINUOUS
10
1.77201
20
-2.09429
11
1.77253
21
-2.09625
0
LINE
8
BLACK
6
CONTINUOUS
10
1.77253
20
-2.09625
11
1.77168
21
-2.09808
0
LINE
8
BLACK
6
CONTINUOUS
10
1.77168
20
-2.09808
11
1.7703
21
-2.09946
0
LINE
8
BLACK
6
CONTINUOUS
10
1.7703
20
-2.09946
11
1.76879
21
-2.10397
0
LINE
8
BLACK
6
CONTINUOUS
10
1.76879
20
-2.10397
11
1.76879
21
-2.10676
0
LINE
8
BLACK
6
CONTINUOUS
10
1.76879
20
-2.10676
11
1.7703
21
-2.11127
0
LINE
8
BLACK
6
CONTINUOUS
10
1.7703
20
-2.11127
11
1.77322
21
-2.11418
0
LINE
8
BLACK
6
CONTINUOUS
10
1.77322
20
-2.11418
11
1.77625
21
-2.1157
0
LINE
8
BLACK
6
CONTINUOUS
10
1.77625
20
-2.1157
11
1.78308
21
-2.11741
0
LINE
8
BLACK
6
CONTINUOUS
10
1.78308
20
-2.11741
11
1.78798
21
-2.11741
0
LINE
8
BLACK
6
CONTINUOUS
10
1.78798
20
-2.11741
11
1.79481
21
-2.1157
0
LINE
8
BLACK
6
CONTINUOUS
10
1.79481
20
-2.1157
11
1.79784
21
-2.11418
0
LINE
8
BLACK
6
CONTINUOUS
10
1.79784
20
-2.11418
11
1.80076
21
-2.11127
0
LINE
8
BLACK
6
CONTINUOUS
10
1.80076
20
-2.11127
11
1.80226
21
-2.10676
0
LINE
8
BLACK
6
CONTINUOUS
10
1.80226
20
-2.10676
11
1.80226
21
-2.10397
0
LINE
8
BLACK
6
CONTINUOUS
10
1.80226
20
-2.10397
11
1.80076
21
-2.09946
0
LINE
8
BLACK
6
CONTINUOUS
10
1.80076
20
-2.09946
11
1.79937
21
-2.09808
0
LINE
8
BLACK
6
CONTINUOUS
10
1.79937
20
-2.09808
11
1.79879
21
-2.09724
0
LINE
8
BLACK
6
CONTINUOUS
10
1.79879
20
-2.09724
11
1.79861
21
-2.09522
0
LINE
8
BLACK
6
CONTINUOUS
10
1.79861
20
-2.09522
11
1.79977
21
-2.09357
0
LINE
8
BLACK
6
CONTINUOUS
10
1.79977
20
-2.09357
11
1.80172
21
-2.09305
0
LINE
8
BLACK
6
CONTINUOUS
10
1.80172
20
-2.09305
11
1.80355
21
-2.0939
0
LINE
8
BLACK
6
CONTINUOUS
10
2.26239
20
-2.11261
11
2.26181
21
-2.11122
0
LINE
8
BLACK
6
CONTINUOUS
10
2.26181
20
-2.11122
11
2.26181
21
-2.06201
0
LINE
8
BLACK
6
CONTINUOUS
10
2.26181
20
-2.06201
11
2.26239
21
-2.06062
0
LINE
8
BLACK
6
CONTINUOUS
10
2.26239
20
-2.06062
11
2.26378
21
-2.06004
0
LINE
8
BLACK
6
CONTINUOUS
10
2.26378
20
-2.06004
11
2.34252
21
-2.06004
0
LINE
8
BLACK
6
CONTINUOUS
10
2.34252
20
-2.06004
11
2.34391
21
-2.06062
0
LINE
8
BLACK
6
CONTINUOUS
10
2.34391
20
-2.06062
11
2.34449
21
-2.06201
0
LINE
8
BLACK
6
CONTINUOUS
10
2.34449
20
-2.06201
11
2.34449
21
-2.11122
0
LINE
8
BLACK
6
CONTINUOUS
10
2.34449
20
-2.11122
11
2.34391
21
-2.11261
0
LINE
8
BLACK
6
CONTINUOUS
10
2.34391
20
-2.11261
11
2.34252
21
-2.11319
0
LINE
8
BLACK
6
CONTINUOUS
10
2.34252
20
-2.11319
11
2.26378
21
-2.11319
0
LINE
8
BLACK
6
CONTINUOUS
10
2.26378
20
-2.11319
11
2.26239
21
-2.11261
0
LINE
8
BLACK
6
CONTINUOUS
10
2.26575
20
-2.06398
11
2.26575
21
-2.10925
0
LINE
8
BLACK
6
CONTINUOUS
10
2.26575
20
-2.10925
11
2.34055
21
-2.10925
0
LINE
8
BLACK
6
CONTINUOUS
10
2.34055
20
-2.10925
11
2.34055
21
-2.06398
0
LINE
8
BLACK
6
CONTINUOUS
10
2.34055
20
-2.06398
11
2.26575
21
-2.06398
0
LINE
8
BLACK
6
CONTINUOUS
10
2.30625
20
-2.09663
11
2.30579
21
-2.09552
0
LINE
8
BLACK
6
CONTINUOUS
10
2.30579
20
-2.09552
11
2.30625
21
-2.09441
0
LINE
8
BLACK
6
CONTINUOUS
10
2.30625
20
-2.09441
11
2.30737
21
-2.09394
0
LINE
8
BLACK
6
CONTINUOUS
10
2.30737
20
-2.09394
11
2.31142
21
-2.09394
0
LINE
8
BLACK
6
CONTINUOUS
10
2.31142
20
-2.09394
11
2.31142
21
-2.08057
0
LINE
8
BLACK
6
CONTINUOUS
10
2.31142
20
-2.08057
11
2.31036
21
-2.08163
0
LINE
8
BLACK
6
CONTINUOUS
10
2.31036
20
-2.08163
11
2.31012
21
-2.08173
0
LINE
8
BLACK
6
CONTINUOUS
10
2.31012
20
-2.08173
11
2.30995
21
-2.08193
0
LINE
8
BLACK
6
CONTINUOUS
10
2.30995
20
-2.08193
11
2.30807
21
-2.08287
0
LINE
8
BLACK
6
CONTINUOUS
10
2.30807
20
-2.08287
11
2.30687
21
-2.08295
0
LINE
8
BLACK
6
CONTINUOUS
10
2.30687
20
-2.08295
11
2.30596
21
-2.08216
0
LINE
8
BLACK
6
CONTINUOUS
10
2.30596
20
-2.08216
11
2.30587
21
-2.08096
0
LINE
8
BLACK
6
CONTINUOUS
10
2.30587
20
-2.08096
11
2.30666
21
-2.08005
0
LINE
8
BLACK
6
CONTINUOUS
10
2.30666
20
-2.08005
11
2.30831
21
-2.07923
0
LINE
8
BLACK
6
CONTINUOUS
10
2.30831
20
-2.07923
11
2.30989
21
-2.07764
0
LINE
8
BLACK
6
CONTINUOUS
10
2.30989
20
-2.07764
11
2.31168
21
-2.07496
0
LINE
8
BLACK
6
CONTINUOUS
10
2.31168
20
-2.07496
11
2.31182
21
-2.07487
0
LINE
8
BLACK
6
CONTINUOUS
10
2.31182
20
-2.07487
11
2.31188
21
-2.07472
0
LINE
8
BLACK
6
CONTINUOUS
10
2.31188
20
-2.07472
11
2.3123
21
-2.07455
0
LINE
8
BLACK
6
CONTINUOUS
10
2.3123
20
-2.07455
11
2.31268
21
-2.07429
0
LINE
8
BLACK
6
CONTINUOUS
10
2.31268
20
-2.07429
11
2.31284
21
-2.07432
0
LINE
8
BLACK
6
CONTINUOUS
10
2.31284
20
-2.07432
11
2.31299
21
-2.07426
0
LINE
8
BLACK
6
CONTINUOUS
10
2.31299
20
-2.07426
11
2.31342
21
-2.07443
0
LINE
8
BLACK
6
CONTINUOUS
10
2.31342
20
-2.07443
11
2.31387
21
-2.07452
0
LINE
8
BLACK
6
CONTINUOUS
10
2.31387
20
-2.07452
11
2.31396
21
-2.07466
0
LINE
8
BLACK
6
CONTINUOUS
10
2.31396
20
-2.07466
11
2.31411
21
-2.07472
0
LINE
8
BLACK
6
CONTINUOUS
10
2.31411
20
-2.07472
11
2.31428
21
-2.07514
0
LINE
8
BLACK
6
CONTINUOUS
10
2.31428
20
-2.07514
11
2.31454
21
-2.07553
0
LINE
8
BLACK
6
CONTINUOUS
10
2.31454
20
-2.07553
11
2.3145
21
-2.07568
0
LINE
8
BLACK
6
CONTINUOUS
10
2.3145
20
-2.07568
11
2.31457
21
-2.07583
0
LINE
8
BLACK
6
CONTINUOUS
10
2.31457
20
-2.07583
11
2.31457
21
-2.09394
0
LINE
8
BLACK
6
CONTINUOUS
10
2.31457
20
-2.09394
11
2.31862
21
-2.09394
0
LINE
8
BLACK
6
CONTINUOUS
10
2.31862
20
-2.09394
11
2.31973
21
-2.09441
0
LINE
8
BLACK
6
CONTINUOUS
10
2.31973
20
-2.09441
11
2.32019
21
-2.09552
0
LINE
8
BLACK
6
CONTINUOUS
10
2.32019
20
-2.09552
11
2.31973
21
-2.09663
0
LINE
8
BLACK
6
CONTINUOUS
10
2.31973
20
-2.09663
11
2.31862
21
-2.09709
0
LINE
8
BLACK
6
CONTINUOUS
10
2.31862
20
-2.09709
11
2.30737
21
-2.09709
0
LINE
8
BLACK
6
CONTINUOUS
10
2.30737
20
-2.09709
11
2.30625
21
-2.09663
0
LINE
8
BLACK
6
CONTINUOUS
10
2.29646
20
-2.0744
11
2.29682
21
-2.07443
0
LINE
8
BLACK
6
CONTINUOUS
10
2.29682
20
-2.07443
11
2.2987
21
-2.07536
0
LINE
8
BLACK
6
CONTINUOUS
10
2.2987
20
-2.07536
11
2.29887
21
-2.07556
0
LINE
8
BLACK
6
CONTINUOUS
10
2.29887
20
-2.07556
11
2.29911
21
-2.07566
0
LINE
8
BLACK
6
CONTINUOUS
10
2.29911
20
-2.07566
11
2.30004
21
-2.0766
0
LINE
8
BLACK
6
CONTINUOUS
10
2.30004
20
-2.0766
11
2.30014
21
-2.07683
0
LINE
8
BLACK
6
CONTINUOUS
10
2.30014
20
-2.07683
11
2.30034
21
-2.077
0
LINE
8
BLACK
6
CONTINUOUS
10
2.30034
20
-2.077
11
2.30128
21
-2.07888
0
LINE
8
BLACK
6
CONTINUOUS
10
2.30128
20
-2.07888
11
2.3013
21
-2.07925
0
LINE
8
BLACK
6
CONTINUOUS
10
2.3013
20
-2.07925
11
2.30144
21
-2.07958
0
LINE
8
BLACK
6
CONTINUOUS
10
2.30144
20
-2.07958
11
2.30144
21
-2.0824
0
LINE
8
BLACK
6
CONTINUOUS
10
2.30144
20
-2.0824
11
2.3013
21
-2.08273
0
LINE
8
BLACK
6
CONTINUOUS
10
2.3013
20
-2.08273
11
2.30128
21
-2.0831
0
LINE
8
BLACK
6
CONTINUOUS
10
2.30128
20
-2.0831
11
2.30034
21
-2.08497
0
LINE
8
BLACK
6
CONTINUOUS
10
2.30034
20
-2.08497
11
2.30014
21
-2.08514
0
LINE
8
BLACK
6
CONTINUOUS
10
2.30014
20
-2.08514
11
2.30004
21
-2.08538
0
LINE
8
BLACK
6
CONTINUOUS
10
2.30004
20
-2.08538
11
2.29911
21
-2.08632
0
LINE
8
BLACK
6
CONTINUOUS
10
2.29911
20
-2.08632
11
2.29887
21
-2.08642
0
LINE
8
BLACK
6
CONTINUOUS
10
2.29887
20
-2.08642
11
2.2987
21
-2.08662
0
LINE
8
BLACK
6
CONTINUOUS
10
2.2987
20
-2.08662
11
2.29682
21
-2.08755
0
LINE
8
BLACK
6
CONTINUOUS
10
2.29682
20
-2.08755
11
2.29646
21
-2.08758
0
LINE
8
BLACK
6
CONTINUOUS
10
2.29646
20
-2.08758
11
2.29628
21
-2.08765
0
LINE
8
BLACK
6
CONTINUOUS
10
2.29628
20
-2.08765
11
2.30116
21
-2.09462
0
LINE
8
BLACK
6
CONTINUOUS
10
2.30116
20
-2.09462
11
2.30142
21
-2.09579
0
LINE
8
BLACK
6
CONTINUOUS
10
2.30142
20
-2.09579
11
2.30077
21
-2.09681
0
LINE
8
BLACK
6
CONTINUOUS
10
2.30077
20
-2.09681
11
2.2996
21
-2.09707
0
LINE
8
BLACK
6
CONTINUOUS
10
2.2996
20
-2.09707
11
2.29858
21
-2.09642
0
LINE
8
BLACK
6
CONTINUOUS
10
2.29858
20
-2.09642
11
2.29249
21
-2.08772
0
LINE
8
BLACK
6
CONTINUOUS
10
2.29249
20
-2.08772
11
2.29019
21
-2.08772
0
LINE
8
BLACK
6
CONTINUOUS
10
2.29019
20
-2.08772
11
2.29019
21
-2.09552
0
LINE
8
BLACK
6
CONTINUOUS
10
2.29019
20
-2.09552
11
2.28973
21
-2.09663
0
LINE
8
BLACK
6
CONTINUOUS
10
2.28973
20
-2.09663
11
2.28862
21
-2.09709
0
LINE
8
BLACK
6
CONTINUOUS
10
2.28862
20
-2.09709
11
2.28751
21
-2.09663
0
LINE
8
BLACK
6
CONTINUOUS
10
2.28751
20
-2.09663
11
2.28705
21
-2.09552
0
LINE
8
BLACK
6
CONTINUOUS
10
2.28705
20
-2.09552
11
2.28705
21
-2.07583
0
LINE
8
BLACK
6
CONTINUOUS
10
2.28705
20
-2.07583
11
2.28751
21
-2.07472
0
LINE
8
BLACK
6
CONTINUOUS
10
2.28751
20
-2.07472
11
2.28862
21
-2.07426
0
LINE
8
BLACK
6
CONTINUOUS
10
2.28862
20
-2.07426
11
2.29612
21
-2.07426
0
LINE
8
BLACK
6
CONTINUOUS
10
2.29612
20
-2.07426
11
2.29646
21
-2.0744
0
LINE
8
BLACK
6
CONTINUOUS
10
2.29019
20
-2.07741
11
2.29019
21
-2.08457
0
LINE
8
BLACK
6
CONTINUOUS
10
2.29019
20
-2.08457
11
2.29575
21
-2.08457
0
LINE
8
BLACK
6
CONTINUOUS
10
2.29575
20
-2.08457
11
2.29706
21
-2.08391
0
LINE
8
BLACK
6
CONTINUOUS
10
2.29706
20
-2.08391
11
2.29764
21
-2.08334
0
LINE
8
BLACK
6
CONTINUOUS
10
2.29764
20
-2.08334
11
2.29829
21
-2.08202
0
LINE
8
BLACK
6
CONTINUOUS
10
2.29829
20
-2.08202
11
2.29829
21
-2.07996
0
LINE
8
BLACK
6
CONTINUOUS
10
2.29829
20
-2.07996
11
2.29764
21
-2.07864
0
LINE
8
BLACK
6
CONTINUOUS
10
2.29764
20
-2.07864
11
2.29706
21
-2.07807
0
LINE
8
BLACK
6
CONTINUOUS
10
2.29706
20
-2.07807
11
2.29575
21
-2.07741
0
LINE
8
BLACK
6
CONTINUOUS
10
2.29575
20
-2.07741
11
2.29019
21
-2.07741
0
LINE
8
BLACK
6
CONTINUOUS
10
2.22026
20
-2.06228
11
2.2204
21
-2.06239
0
LINE
8
BLACK
6
CONTINUOUS
10
2.2204
20
-2.06239
11
2.22057
21
-2.06241
0
LINE
8
BLACK
6
CONTINUOUS
10
2.22057
20
-2.06241
11
2.22432
21
-2.06429
0
LINE
8
BLACK
6
CONTINUOUS
10
2.22432
20
-2.06429
11
2.22503
21
-2.06481
0
LINE
8
BLACK
6
CONTINUOUS
10
2.22503
20
-2.06481
11
2.22509
21
-2.06484
0
LINE
8
BLACK
6
CONTINUOUS
10
2.22509
20
-2.06484
11
2.22697
21
-2.06672
0
LINE
8
BLACK
6
CONTINUOUS
10
2.22697
20
-2.06672
11
2.22747
21
-2.06744
0
LINE
8
BLACK
6
CONTINUOUS
10
2.22747
20
-2.06744
11
2.22752
21
-2.06748
0
LINE
8
BLACK
6
CONTINUOUS
10
2.22752
20
-2.06748
11
2.22939
21
-2.07123
0
LINE
8
BLACK
6
CONTINUOUS
10
2.22939
20
-2.07123
11
2.22969
21
-2.07222
0
LINE
8
BLACK
6
CONTINUOUS
10
2.22969
20
-2.07222
11
2.22965
21
-2.07239
0
LINE
8
BLACK
6
CONTINUOUS
10
2.22965
20
-2.07239
11
2.22971
21
-2.07255
0
LINE
8
BLACK
6
CONTINUOUS
10
2.22971
20
-2.07255
11
2.22971
21
-2.07818
0
LINE
8
BLACK
6
CONTINUOUS
10
2.22971
20
-2.07818
11
2.22953
21
-2.07919
0
LINE
8
BLACK
6
CONTINUOUS
10
2.22953
20
-2.07919
11
2.22941
21
-2.07932
0
LINE
8
BLACK
6
CONTINUOUS
10
2.22941
20
-2.07932
11
2.22939
21
-2.0795
0
LINE
8
BLACK
6
CONTINUOUS
10
2.22939
20
-2.0795
11
2.22752
21
-2.08325
0
LINE
8
BLACK
6
CONTINUOUS
10
2.22752
20
-2.08325
11
2.22699
21
-2.08396
0
LINE
8
BLACK
6
CONTINUOUS
10
2.22699
20
-2.08396
11
2.22697
21
-2.08402
0
LINE
8
BLACK
6
CONTINUOUS
10
2.22697
20
-2.08402
11
2.22509
21
-2.08589
0
LINE
8
BLACK
6
CONTINUOUS
10
2.22509
20
-2.08589
11
2.22437
21
-2.0864
0
LINE
8
BLACK
6
CONTINUOUS
10
2.22437
20
-2.0864
11
2.22432
21
-2.08644
0
LINE
8
BLACK
6
CONTINUOUS
10
2.22432
20
-2.08644
11
2.22057
21
-2.08832
0
LINE
8
BLACK
6
CONTINUOUS
10
2.22057
20
-2.08832
11
2.21959
21
-2.08861
0
LINE
8
BLACK
6
CONTINUOUS
10
2.21959
20
-2.08861
11
2.21942
21
-2.08857
0
LINE
8
BLACK
6
CONTINUOUS
10
2.21942
20
-2.08857
11
2.21929
21
-2.08862
0
LINE
8
BLACK
6
CONTINUOUS
10
2.21929
20
-2.08862
11
2.22917
21
-2.10273
0
LINE
8
BLACK
6
CONTINUOUS
10
2.22917
20
-2.10273
11
2.22961
21
-2.10366
0
LINE
8
BLACK
6
CONTINUOUS
10
2.22961
20
-2.10366
11
2.22943
21
-2.10567
0
LINE
8
BLACK
6
CONTINUOUS
10
2.22943
20
-2.10567
11
2.228
21
-2.1071
0
LINE
8
BLACK
6
CONTINUOUS
10
2.228
20
-2.1071
11
2.22599
21
-2.10728
0
LINE
8
BLACK
6
CONTINUOUS
10
2.22599
20
-2.10728
11
2.22433
21
-2.10612
0
LINE
8
BLACK
6
CONTINUOUS
10
2.22433
20
-2.10612
11
2.21209
21
-2.08863
0
LINE
8
BLACK
6
CONTINUOUS
10
2.21209
20
-2.08863
11
2.20721
21
-2.08863
0
LINE
8
BLACK
6
CONTINUOUS
10
2.20721
20
-2.08863
11
2.20721
21
-2.10442
0
LINE
8
BLACK
6
CONTINUOUS
10
2.20721
20
-2.10442
11
2.20703
21
-2.10543
0
LINE
8
BLACK
6
CONTINUOUS
10
2.20703
20
-2.10543
11
2.20573
21
-2.10698
0
LINE
8
BLACK
6
CONTINUOUS
10
2.20573
20
-2.10698
11
2.20374
21
-2.10733
0
LINE
8
BLACK
6
CONTINUOUS
10
2.20374
20
-2.10733
11
2.20199
21
-2.10632
0
LINE
8
BLACK
6
CONTINUOUS
10
2.20199
20
-2.10632
11
2.2013
21
-2.10442
0
LINE
8
BLACK
6
CONTINUOUS
10
2.2013
20
-2.10442
11
2.2013
21
-2.06505
0
LINE
8
BLACK
6
CONTINUOUS
10
2.2013
20
-2.06505
11
2.20137
21
-2.06467
0
LINE
8
BLACK
6
CONTINUOUS
10
2.20137
20
-2.06467
11
2.20135
21
-2.06454
0
LINE
8
BLACK
6
CONTINUOUS
10
2.20135
20
-2.06454
11
2.20141
21
-2.06443
0
LINE
8
BLACK
6
CONTINUOUS
10
2.20141
20
-2.06443
11
2.20148
21
-2.06404
0
LINE
8
BLACK
6
CONTINUOUS
10
2.20148
20
-2.06404
11
2.20197
21
-2.06346
0
LINE
8
BLACK
6
CONTINUOUS
10
2.20197
20
-2.06346
11
2.20236
21
-2.06279
0
LINE
8
BLACK
6
CONTINUOUS
10
2.20236
20
-2.06279
11
2.20261
21
-2.0627
0
LINE
8
BLACK
6
CONTINUOUS
10
2.20261
20
-2.0627
11
2.20278
21
-2.0625
0
LINE
8
BLACK
6
CONTINUOUS
10
2.20278
20
-2.0625
11
2.20353
21
-2.06236
0
LINE
8
BLACK
6
CONTINUOUS
10
2.20353
20
-2.06236
11
2.20426
21
-2.0621
0
LINE
8
BLACK
6
CONTINUOUS
10
2.20426
20
-2.0621
11
2.21925
21
-2.0621
0
LINE
8
BLACK
6
CONTINUOUS
10
2.21925
20
-2.0621
11
2.22026
21
-2.06228
0
LINE
8
BLACK
6
CONTINUOUS
10
2.20721
20
-2.06801
11
2.20721
21
-2.08272
0
LINE
8
BLACK
6
CONTINUOUS
10
2.20721
20
-2.08272
11
2.21856
21
-2.08272
0
LINE
8
BLACK
6
CONTINUOUS
10
2.21856
20
-2.08272
11
2.22125
21
-2.08138
0
LINE
8
BLACK
6
CONTINUOUS
10
2.22125
20
-2.08138
11
2.22245
21
-2.08018
0
LINE
8
BLACK
6
CONTINUOUS
10
2.22245
20
-2.08018
11
2.2238
21
-2.07748
0
LINE
8
BLACK
6
CONTINUOUS
10
2.2238
20
-2.07748
11
2.2238
21
-2.07325
0
LINE
8
BLACK
6
CONTINUOUS
10
2.2238
20
-2.07325
11
2.22245
21
-2.07055
0
LINE
8
BLACK
6
CONTINUOUS
10
2.22245
20
-2.07055
11
2.22125
21
-2.06936
0
LINE
8
BLACK
6
CONTINUOUS
10
2.22125
20
-2.06936
11
2.21856
21
-2.06801
0
LINE
8
BLACK
6
CONTINUOUS
10
2.21856
20
-2.06801
11
2.20721
21
-2.06801
0
LINE
8
BLACK
6
CONTINUOUS
10
1.83325
20
-2.09785
11
1.83268
21
-2.09646
0
LINE
8
BLACK
6
CONTINUOUS
10
1.83268
20
-2.09646
11
1.83268
21
-1.80118
0
LINE
8
BLACK
6
CONTINUOUS
10
1.83268
20
-1.80118
11
1.83325
21
-1.79979
0
LINE
8
BLACK
6
CONTINUOUS
10
1.83325
20
-1.79979
11
1.83465
21
-1.79921
0
LINE
8
BLACK
6
CONTINUOUS
10
1.83465
20
-1.79921
11
1.98425
21
-1.79921
0
LINE
8
BLACK
6
CONTINUOUS
10
1.98425
20
-1.79921
11
1.98564
21
-1.79979
0
LINE
8
BLACK
6
CONTINUOUS
10
1.98564
20
-1.79979
11
1.98622
21
-1.80118
0
LINE
8
BLACK
6
CONTINUOUS
10
1.98622
20
-1.80118
11
1.98622
21
-2.09646
0
LINE
8
BLACK
6
CONTINUOUS
10
1.98622
20
-2.09646
11
1.98564
21
-2.09785
0
LINE
8
BLACK
6
CONTINUOUS
10
1.98564
20
-2.09785
11
1.98425
21
-2.09843
0
LINE
8
BLACK
6
CONTINUOUS
10
1.98425
20
-2.09843
11
1.83465
21
-2.09843
0
LINE
8
BLACK
6
CONTINUOUS
10
1.83465
20
-2.09843
11
1.83325
21
-2.09785
0
LINE
8
BLACK
6
CONTINUOUS
10
1.83661
20
-1.80315
11
1.83661
21
-2.09449
0
LINE
8
BLACK
6
CONTINUOUS
10
1.83661
20
-2.09449
11
1.98228
21
-2.09449
0
LINE
8
BLACK
6
CONTINUOUS
10
1.98228
20
-2.09449
11
1.98228
21
-1.80315
0
LINE
8
BLACK
6
CONTINUOUS
10
1.98228
20
-1.80315
11
1.83661
21
-1.80315
0
LINE
8
BLACK
6
CONTINUOUS
10
1.86964
20
-1.95914
11
1.8697
21
-1.95914
0
LINE
8
BLACK
6
CONTINUOUS
10
1.8697
20
-1.95914
11
1.87532
21
-1.96102
0
LINE
8
BLACK
6
CONTINUOUS
10
1.87532
20
-1.96102
11
1.87623
21
-1.9615
0
LINE
8
BLACK
6
CONTINUOUS
10
1.87623
20
-1.9615
11
1.87632
21
-1.96165
0
LINE
8
BLACK
6
CONTINUOUS
10
1.87632
20
-1.96165
11
1.87648
21
-1.96173
0
LINE
8
BLACK
6
CONTINUOUS
10
1.87648
20
-1.96173
11
1.88023
21
-1.96548
0
LINE
8
BLACK
6
CONTINUOUS
10
1.88023
20
-1.96548
11
1.88082
21
-1.96632
0
LINE
8
BLACK
6
CONTINUOUS
10
1.88082
20
-1.96632
11
1.88083
21
-1.96649
0
LINE
8
BLACK
6
CONTINUOUS
10
1.88083
20
-1.96649
11
1.88094
21
-1.96663
0
LINE
8
BLACK
6
CONTINUOUS
10
1.88094
20
-1.96663
11
1.88282
21
-1.97226
0
LINE
8
BLACK
6
CONTINUOUS
10
1.88282
20
-1.97226
11
1.88295
21
-1.97313
0
LINE
8
BLACK
6
CONTINUOUS
10
1.88295
20
-1.97313
11
1.88297
21
-1.97319
0
LINE
8
BLACK
6
CONTINUOUS
10
1.88297
20
-1.97319
11
1.88297
21
-1.97694
0
LINE
8
BLACK
6
CONTINUOUS
10
1.88297
20
-1.97694
11
1.88279
21
-1.97795
0
LINE
8
BLACK
6
CONTINUOUS
10
1.88279
20
-1.97795
11
1.88149
21
-1.9795
0
LINE
8
BLACK
6
CONTINUOUS
10
1.88149
20
-1.9795
11
1.8795
21
-1.97985
0
LINE
8
BLACK
6
CONTINUOUS
10
1.8795
20
-1.97985
11
1.87775
21
-1.97884
0
LINE
8
BLACK
6
CONTINUOUS
10
1.87775
20
-1.97884
11
1.87706
21
-1.97694
0
LINE
8
BLACK
6
CONTINUOUS
10
1.87706
20
-1.97694
11
1.87706
21
-1.97367
0
LINE
8
BLACK
6
CONTINUOUS
10
1.87706
20
-1.97367
11
1.87556
21
-1.96916
0
LINE
8
BLACK
6
CONTINUOUS
10
1.87556
20
-1.96916
11
1.8728
21
-1.9664
0
LINE
8
BLACK
6
CONTINUOUS
10
1.8728
20
-1.9664
11
1.86829
21
-1.9649
0
LINE
8
BLACK
6
CONTINUOUS
10
1.86829
20
-1.9649
11
1.84064
21
-1.9649
0
LINE
8
BLACK
6
CONTINUOUS
10
1.84064
20
-1.9649
11
1.83963
21
-1.96472
0
LINE
8
BLACK
6
CONTINUOUS
10
1.83963
20
-1.96472
11
1.83809
21
-1.96342
0
LINE
8
BLACK
6
CONTINUOUS
10
1.83809
20
-1.96342
11
1.83774
21
-1.96143
0
LINE
8
BLACK
6
CONTINUOUS
10
1.83774
20
-1.96143
11
1.83875
21
-1.95968
0
LINE
8
BLACK
6
CONTINUOUS
10
1.83875
20
-1.95968
11
1.84064
21
-1.95899
0
LINE
8
BLACK
6
CONTINUOUS
10
1.84064
20
-1.95899
11
1.86877
21
-1.95899
0
LINE
8
BLACK
6
CONTINUOUS
10
1.86877
20
-1.95899
11
1.86964
21
-1.95914
0
LINE
8
BLACK
6
CONTINUOUS
10
1.88228
20
-1.92067
11
1.88297
21
-1.92257
0
LINE
8
BLACK
6
CONTINUOUS
10
1.88297
20
-1.92257
11
1.88297
21
-1.94507
0
LINE
8
BLACK
6
CONTINUOUS
10
1.88297
20
-1.94507
11
1.88279
21
-1.94608
0
LINE
8
BLACK
6
CONTINUOUS
10
1.88279
20
-1.94608
11
1.88149
21
-1.94763
0
LINE
8
BLACK
6
CONTINUOUS
10
1.88149
20
-1.94763
11
1.8795
21
-1.94798
0
LINE
8
BLACK
6
CONTINUOUS
10
1.8795
20
-1.94798
11
1.87775
21
-1.94697
0
LINE
8
BLACK
6
CONTINUOUS
10
1.87775
20
-1.94697
11
1.87706
21
-1.94507
0
LINE
8
BLACK
6
CONTINUOUS
10
1.87706
20
-1.94507
11
1.87706
21
-1.93677
0
LINE
8
BLACK
6
CONTINUOUS
10
1.87706
20
-1.93677
11
1.84965
21
-1.93677
0
LINE
8
BLACK
6
CONTINUOUS
10
1.84965
20
-1.93677
11
1.85211
21
-1.93923
0
LINE
8
BLACK
6
CONTINUOUS
10
1.85211
20
-1.93923
11
1.85261
21
-1.93996
0
LINE
8
BLACK
6
CONTINUOUS
10
1.85261
20
-1.93996
11
1.85266
21
-1.94
0
LINE
8
BLACK
6
CONTINUOUS
10
1.85266
20
-1.94
11
1.85453
21
-1.94375
0
LINE
8
BLACK
6
CONTINUOUS
10
1.85453
20
-1.94375
11
1.85483
21
-1.94473
0
LINE
8
BLACK
6
CONTINUOUS
10
1.85483
20
-1.94473
11
1.85436
21
-1.9467
0
LINE
8
BLACK
6
CONTINUOUS
10
1.85436
20
-1.9467
11
1.85274
21
-1.9479
0
LINE
8
BLACK
6
CONTINUOUS
10
1.85274
20
-1.9479
11
1.85072
21
-1.94778
0
LINE
8
BLACK
6
CONTINUOUS
10
1.85072
20
-1.94778
11
1.84925
21
-1.94639
0
LINE
8
BLACK
6
CONTINUOUS
10
1.84925
20
-1.94639
11
1.84759
21
-1.94307
0
LINE
8
BLACK
6
CONTINUOUS
10
1.84759
20
-1.94307
11
1.84439
21
-1.93986
0
LINE
8
BLACK
6
CONTINUOUS
10
1.84439
20
-1.93986
11
1.83901
21
-1.93628
0
LINE
8
BLACK
6
CONTINUOUS
10
1.83901
20
-1.93628
11
1.83827
21
-1.93557
0
LINE
8
BLACK
6
CONTINUOUS
10
1.83827
20
-1.93557
11
1.83822
21
-1.93541
0
LINE
8
BLACK
6
CONTINUOUS
10
1.83822
20
-1.93541
11
1.83809
21
-1.9353
0
LINE
8
BLACK
6
CONTINUOUS
10
1.83809
20
-1.9353
11
1.83794
21
-1.93445
0
LINE
8
BLACK
6
CONTINUOUS
10
1.83794
20
-1.93445
11
1.8377
21
-1.93363
0
LINE
8
BLACK
6
CONTINUOUS
10
1.8377
20
-1.93363
11
1.83777
21
-1.93348
0
LINE
8
BLACK
6
CONTINUOUS
10
1.83777
20
-1.93348
11
1.83774
21
-1.93331
0
LINE
8
BLACK
6
CONTINUOUS
10
1.83774
20
-1.93331
11
1.83817
21
-1.93257
0
LINE
8
BLACK
6
CONTINUOUS
10
1.83817
20
-1.93257
11
1.83851
21
-1.93178
0
LINE
8
BLACK
6
CONTINUOUS
10
1.83851
20
-1.93178
11
1.83866
21
-1.93171
0
LINE
8
BLACK
6
CONTINUOUS
10
1.83866
20
-1.93171
11
1.83875
21
-1.93156
0
LINE
8
BLACK
6
CONTINUOUS
10
1.83875
20
-1.93156
11
1.83955
21
-1.93127
0
LINE
8
BLACK
6
CONTINUOUS
10
1.83955
20
-1.93127
11
1.84032
21
-1.93089
0
LINE
8
BLACK
6
CONTINUOUS
10
1.84032
20
-1.93089
11
1.84049
21
-1.93093
0
LINE
8
BLACK
6
CONTINUOUS
10
1.84049
20
-1.93093
11
1.84064
21
-1.93087
0
LINE
8
BLACK
6
CONTINUOUS
10
1.84064
20
-1.93087
11
1.87706
21
-1.93087
0
LINE
8
BLACK
6
CONTINUOUS
10
1.87706
20
-1.93087
11
1.87706
21
-1.92257
0
LINE
8
BLACK
6
CONTINUOUS
10
1.87706
20
-1.92257
11
1.87724
21
-1.92156
0
LINE
8
BLACK
6
CONTINUOUS
10
1.87724
20
-1.92156
11
1.87854
21
-1.92002
0
LINE
8
BLACK
6
CONTINUOUS
10
1.87854
20
-1.92002
11
1.88053
21
-1.91966
0
LINE
8
BLACK
6
CONTINUOUS
10
1.88053
20
-1.91966
11
1.88228
21
-1.92067
0
LINE
8
BLACK
6
CONTINUOUS
10
1.79872
20
-2.05759
11
1.79886
21
-2.05771
0
LINE
8
BLACK
6
CONTINUOUS
10
1.79886
20
-2.05771
11
1.79903
21
-2.05773
0
LINE
8
BLACK
6
CONTINUOUS
10
1.79903
20
-2.05773
11
1.80278
21
-2.0596
0
LINE
8
BLACK
6
CONTINUOUS
10
1.80278
20
-2.0596
11
1.80349
21
-2.06013
0
LINE
8
BLACK
6
CONTINUOUS
10
1.80349
20
-2.06013
11
1.80355
21
-2.06015
0
LINE
8
BLACK
6
CONTINUOUS
10
1.80355
20
-2.06015
11
1.80542
21
-2.06203
0
LINE
8
BLACK
6
CONTINUOUS
10
1.80542
20
-2.06203
11
1.80593
21
-2.06275
0
LINE
8
BLACK
6
CONTINUOUS
10
1.80593
20
-2.06275
11
1.80598
21
-2.0628
0
LINE
8
BLACK
6
CONTINUOUS
10
1.80598
20
-2.0628
11
1.80785
21
-2.06655
0
LINE
8
BLACK
6
CONTINUOUS
10
1.80785
20
-2.06655
11
1.80815
21
-2.06753
0
LINE
8
BLACK
6
CONTINUOUS
10
1.80815
20
-2.06753
11
1.8081
21
-2.0677
0
LINE
8
BLACK
6
CONTINUOUS
10
1.8081
20
-2.0677
11
1.80816
21
-2.06787
0
LINE
8
BLACK
6
CONTINUOUS
10
1.80816
20
-2.06787
11
1.80816
21
-2.07349
0
LINE
8
BLACK
6
CONTINUOUS
10
1.80816
20
-2.07349
11
1.80799
21
-2.0745
0
LINE
8
BLACK
6
CONTINUOUS
10
1.80799
20
-2.0745
11
1.80787
21
-2.07464
0
LINE
8
BLACK
6
CONTINUOUS
10
1.80787
20
-2.07464
11
1.80785
21
-2.07481
0
LINE
8
BLACK
6
CONTINUOUS
10
1.80785
20
-2.07481
11
1.80598
21
-2.07856
0
LINE
8
BLACK
6
CONTINUOUS
10
1.80598
20
-2.07856
11
1.80545
21
-2.07927
0
LINE
8
BLACK
6
CONTINUOUS
10
1.80545
20
-2.07927
11
1.80542
21
-2.07933
0
LINE
8
BLACK
6
CONTINUOUS
10
1.80542
20
-2.07933
11
1.80355
21
-2.0812
0
LINE
8
BLACK
6
CONTINUOUS
10
1.80355
20
-2.0812
11
1.80283
21
-2.08171
0
LINE
8
BLACK
6
CONTINUOUS
10
1.80283
20
-2.08171
11
1.80278
21
-2.08176
0
LINE
8
BLACK
6
CONTINUOUS
10
1.80278
20
-2.08176
11
1.79903
21
-2.08363
0
LINE
8
BLACK
6
CONTINUOUS
10
1.79903
20
-2.08363
11
1.79805
21
-2.08392
0
LINE
8
BLACK
6
CONTINUOUS
10
1.79805
20
-2.08392
11
1.79788
21
-2.08388
0
LINE
8
BLACK
6
CONTINUOUS
10
1.79788
20
-2.08388
11
1.79771
21
-2.08394
0
LINE
8
BLACK
6
CONTINUOUS
10
1.79771
20
-2.08394
11
1.78646
21
-2.08394
0
LINE
8
BLACK
6
CONTINUOUS
10
1.78646
20
-2.08394
11
1.78545
21
-2.08376
0
LINE
8
BLACK
6
CONTINUOUS
10
1.78545
20
-2.08376
11
1.78532
21
-2.08365
0
LINE
8
BLACK
6
CONTINUOUS
10
1.78532
20
-2.08365
11
1.78514
21
-2.08363
0
LINE
8
BLACK
6
CONTINUOUS
10
1.78514
20
-2.08363
11
1.78139
21
-2.08176
0
LINE
8
BLACK
6
CONTINUOUS
10
1.78139
20
-2.08176
11
1.78069
21
-2.08123
0
LINE
8
BLACK
6
CONTINUOUS
10
1.78069
20
-2.08123
11
1.78063
21
-2.0812
0
LINE
8
BLACK
6
CONTINUOUS
10
1.78063
20
-2.0812
11
1.77875
21
-2.07933
0
LINE
8
BLACK
6
CONTINUOUS
10
1.77875
20
-2.07933
11
1.77825
21
-2.07861
0
LINE
8
BLACK
6
CONTINUOUS
10
1.77825
20
-2.07861
11
1.7782
21
-2.07856
0
LINE
8
BLACK
6
CONTINUOUS
10
1.7782
20
-2.07856
11
1.77632
21
-2.07481
0
LINE
8
BLACK
6
CONTINUOUS
10
1.77632
20
-2.07481
11
1.77603
21
-2.07383
0
LINE
8
BLACK
6
CONTINUOUS
10
1.77603
20
-2.07383
11
1.77607
21
-2.07366
0
LINE
8
BLACK
6
CONTINUOUS
10
1.77607
20
-2.07366
11
1.77601
21
-2.07349
0
LINE
8
BLACK
6
CONTINUOUS
10
1.77601
20
-2.07349
11
1.77601
21
-2.06787
0
LINE
8
BLACK
6
CONTINUOUS
10
1.77601
20
-2.06787
11
1.77619
21
-2.06686
0
LINE
8
BLACK
6
CONTINUOUS
10
1.77619
20
-2.06686
11
1.7763
21
-2.06672
0
LINE
8
BLACK
6
CONTINUOUS
10
1.7763
20
-2.06672
11
1.77632
21
-2.06655
0
LINE
8
BLACK
6
CONTINUOUS
10
1.77632
20
-2.06655
11
1.7782
21
-2.0628
0
LINE
8
BLACK
6
CONTINUOUS
10
1.7782
20
-2.0628
11
1.77872
21
-2.06209
0
LINE
8
BLACK
6
CONTINUOUS
10
1.77872
20
-2.06209
11
1.77875
21
-2.06203
0
LINE
8
BLACK
6
CONTINUOUS
10
1.77875
20
-2.06203
11
1.78063
21
-2.06015
0
LINE
8
BLACK
6
CONTINUOUS
10
1.78063
20
-2.06015
11
1.78135
21
-2.05965
0
LINE
8
BLACK
6
CONTINUOUS
10
1.78135
20
-2.05965
11
1.78139
21
-2.0596
0
LINE
8
BLACK
6
CONTINUOUS
10
1.78139
20
-2.0596
11
1.78514
21
-2.05773
0
LINE
8
BLACK
6
CONTINUOUS
10
1.78514
20
-2.05773
11
1.78613
21
-2.05743
0
LINE
8
BLACK
6
CONTINUOUS
10
1.78613
20
-2.05743
11
1.7863
21
-2.05748
0
LINE
8
BLACK
6
CONTINUOUS
10
1.7863
20
-2.05748
11
1.78646
21
-2.05741
0
LINE
8
BLACK
6
CONTINUOUS
10
1.78646
20
-2.05741
11
1.79771
21
-2.05741
0
LINE
8
BLACK
6
CONTINUOUS
10
1.79771
20
-2.05741
11
1.79872
21
-2.05759
0
LINE
8
BLACK
6
CONTINUOUS
10
1.78716
20
-2.06332
11
1.78446
21
-2.06467
0
LINE
8
BLACK
6
CONTINUOUS
10
1.78446
20
-2.06467
11
1.78327
21
-2.06587
0
LINE
8
BLACK
6
CONTINUOUS
10
1.78327
20
-2.06587
11
1.78192
21
-2.06856
0
LINE
8
BLACK
6
CONTINUOUS
10
1.78192
20
-2.06856
11
1.78192
21
-2.07279
0
LINE
8
BLACK
6
CONTINUOUS
10
1.78192
20
-2.07279
11
1.78327
21
-2.07549
0
LINE
8
BLACK
6
CONTINUOUS
10
1.78327
20
-2.07549
11
1.78446
21
-2.07669
0
LINE
8
BLACK
6
CONTINUOUS
10
1.78446
20
-2.07669
11
1.78716
21
-2.07804
0
LINE
8
BLACK
6
CONTINUOUS
10
1.78716
20
-2.07804
11
1.79702
21
-2.07804
0
LINE
8
BLACK
6
CONTINUOUS
10
1.79702
20
-2.07804
11
1.79971
21
-2.07669
0
LINE
8
BLACK
6
CONTINUOUS
10
1.79971
20
-2.07669
11
1.80091
21
-2.07549
0
LINE
8
BLACK
6
CONTINUOUS
10
1.80091
20
-2.07549
11
1.80226
21
-2.07279
0
LINE
8
BLACK
6
CONTINUOUS
10
1.80226
20
-2.07279
11
1.80226
21
-2.06856
0
LINE
8
BLACK
6
CONTINUOUS
10
1.80226
20
-2.06856
11
1.80091
21
-2.06587
0
LINE
8
BLACK
6
CONTINUOUS
10
1.80091
20
-2.06587
11
1.79971
21
-2.06467
0
LINE
8
BLACK
6
CONTINUOUS
10
1.79971
20
-2.06467
11
1.79702
21
-2.06332
0
LINE
8
BLACK
6
CONTINUOUS
10
1.79702
20
-2.06332
11
1.78716
21
-2.06332
0
LINE
8
BLACK
6
CONTINUOUS
10
1.80622
20
-2.02385
11
1.80777
21
-2.02515
0
LINE
8
BLACK
6
CONTINUOUS
10
1.80777
20
-2.02515
11
1.80812
21
-2.02713
0
LINE
8
BLACK
6
CONTINUOUS
10
1.80812
20
-2.02713
11
1.80711
21
-2.02888
0
LINE
8
BLACK
6
CONTINUOUS
10
1.80711
20
-2.02888
11
1.80521
21
-2.02957
0
LINE
8
BLACK
6
CONTINUOUS
10
1.80521
20
-2.02957
11
1.78529
21
-2.02957
0
LINE
8
BLACK
6
CONTINUOUS
10
1.78529
20
-2.02957
11
1.78304
21
-2.0307
0
LINE
8
BLACK
6
CONTINUOUS
10
1.78304
20
-2.0307
11
1.78192
21
-2.03294
0
LINE
8
BLACK
6
CONTINUOUS
10
1.78192
20
-2.03294
11
1.78192
21
-2.03717
0
LINE
8
BLACK
6
CONTINUOUS
10
1.78192
20
-2.03717
11
1.78327
21
-2.03987
0
LINE
8
BLACK
6
CONTINUOUS
10
1.78327
20
-2.03987
11
1.78394
21
-2.04054
0
LINE
8
BLACK
6
CONTINUOUS
10
1.78394
20
-2.04054
11
1.80521
21
-2.04054
0
LINE
8
BLACK
6
CONTINUOUS
10
1.80521
20
-2.04054
11
1.80622
21
-2.04072
0
LINE
8
BLACK
6
CONTINUOUS
10
1.80622
20
-2.04072
11
1.80777
21
-2.04202
0
LINE
8
BLACK
6
CONTINUOUS
10
1.80777
20
-2.04202
11
1.80812
21
-2.04401
0
LINE
8
BLACK
6
CONTINUOUS
10
1.80812
20
-2.04401
11
1.80711
21
-2.04576
0
LINE
8
BLACK
6
CONTINUOUS
10
1.80711
20
-2.04576
11
1.80521
21
-2.04645
0
LINE
8
BLACK
6
CONTINUOUS
10
1.80521
20
-2.04645
11
1.77897
21
-2.04645
0
LINE
8
BLACK
6
CONTINUOUS
10
1.77897
20
-2.04645
11
1.77796
21
-2.04627
0
LINE
8
BLACK
6
CONTINUOUS
10
1.77796
20
-2.04627
11
1.77641
21
-2.04497
0
LINE
8
BLACK
6
CONTINUOUS
10
1.77641
20
-2.04497
11
1.77606
21
-2.04298
0
LINE
8
BLACK
6
CONTINUOUS
10
1.77606
20
-2.04298
11
1.77707
21
-2.04123
0
LINE
8
BLACK
6
CONTINUOUS
10
1.77707
20
-2.04123
11
1.7773
21
-2.04115
0
LINE
8
BLACK
6
CONTINUOUS
10
1.7773
20
-2.04115
11
1.77632
21
-2.03919
0
LINE
8
BLACK
6
CONTINUOUS
10
1.77632
20
-2.03919
11
1.77603
21
-2.03821
0
LINE
8
BLACK
6
CONTINUOUS
10
1.77603
20
-2.03821
11
1.77607
21
-2.03804
0
LINE
8
BLACK
6
CONTINUOUS
10
1.77607
20
-2.03804
11
1.77601
21
-2.03787
0
LINE
8
BLACK
6
CONTINUOUS
10
1.77601
20
-2.03787
11
1.77601
21
-2.03225
0
LINE
8
BLACK
6
CONTINUOUS
10
1.77601
20
-2.03225
11
1.77619
21
-2.03124
0
LINE
8
BLACK
6
CONTINUOUS
10
1.77619
20
-2.03124
11
1.7763
21
-2.0311
0
LINE
8
BLACK
6
CONTINUOUS
10
1.7763
20
-2.0311
11
1.77632
21
-2.03093
0
LINE
8
BLACK
6
CONTINUOUS
10
1.77632
20
-2.03093
11
1.7782
21
-2.02718
0
LINE
8
BLACK
6
CONTINUOUS
10
1.7782
20
-2.02718
11
1.77881
21
-2.02635
0
LINE
8
BLACK
6
CONTINUOUS
10
1.77881
20
-2.02635
11
1.77922
21
-2.02618
0
LINE
8
BLACK
6
CONTINUOUS
10
1.77922
20
-2.02618
11
1.77952
21
-2.02586
0
LINE
8
BLACK
6
CONTINUOUS
10
1.77952
20
-2.02586
11
1.78327
21
-2.02398
0
LINE
8
BLACK
6
CONTINUOUS
10
1.78327
20
-2.02398
11
1.78425
21
-2.02369
0
LINE
8
BLACK
6
CONTINUOUS
10
1.78425
20
-2.02369
11
1.78442
21
-2.02373
0
LINE
8
BLACK
6
CONTINUOUS
10
1.78442
20
-2.02373
11
1.78459
21
-2.02367
0
LINE
8
BLACK
6
CONTINUOUS
10
1.78459
20
-2.02367
11
1.80521
21
-2.02367
0
LINE
8
BLACK
6
CONTINUOUS
10
1.80521
20
-2.02367
11
1.80622
21
-2.02385
0
LINE
8
BLACK
6
CONTINUOUS
10
1.80622
20
-1.98823
11
1.80777
21
-1.98952
0
LINE
8
BLACK
6
CONTINUOUS
10
1.80777
20
-1.98952
11
1.80812
21
-1.99151
0
LINE
8
BLACK
6
CONTINUOUS
10
1.80812
20
-1.99151
11
1.80711
21
-1.99326
0
LINE
8
BLACK
6
CONTINUOUS
10
1.80711
20
-1.99326
11
1.80521
21
-1.99395
0
LINE
8
BLACK
6
CONTINUOUS
10
1.80521
20
-1.99395
11
1.78529
21
-1.99395
0
LINE
8
BLACK
6
CONTINUOUS
10
1.78529
20
-1.99395
11
1.78304
21
-1.99508
0
LINE
8
BLACK
6
CONTINUOUS
10
1.78304
20
-1.99508
11
1.78192
21
-1.99732
0
LINE
8
BLACK
6
CONTINUOUS
10
1.78192
20
-1.99732
11
1.78192
21
-2.00155
0
LINE
8
BLACK
6
CONTINUOUS
10
1.78192
20
-2.00155
11
1.78327
21
-2.00425
0
LINE
8
BLACK
6
CONTINUOUS
10
1.78327
20
-2.00425
11
1.78394
21
-2.00492
0
LINE
8
BLACK
6
CONTINUOUS
10
1.78394
20
-2.00492
11
1.80521
21
-2.00492
0
LINE
8
BLACK
6
CONTINUOUS
10
1.80521
20
-2.00492
11
1.80622
21
-2.0051
0
LINE
8
BLACK
6
CONTINUOUS
10
1.80622
20
-2.0051
11
1.80777
21
-2.0064
0
LINE
8
BLACK
6
CONTINUOUS
10
1.80777
20
-2.0064
11
1.80812
21
-2.00839
0
LINE
8
BLACK
6
CONTINUOUS
10
1.80812
20
-2.00839
11
1.80711
21
-2.01014
0
LINE
8
BLACK
6
CONTINUOUS
10
1.80711
20
-2.01014
11
1.80521
21
-2.01083
0
LINE
8
BLACK
6
CONTINUOUS
10
1.80521
20
-2.01083
11
1.77897
21
-2.01083
0
LINE
8
BLACK
6
CONTINUOUS
10
1.77897
20
-2.01083
11
1.77796
21
-2.01065
0
LINE
8
BLACK
6
CONTINUOUS
10
1.77796
20
-2.01065
11
1.77641
21
-2.00935
0
LINE
8
BLACK
6
CONTINUOUS
10
1.77641
20
-2.00935
11
1.77606
21
-2.00736
0
LINE
8
BLACK
6
CONTINUOUS
10
1.77606
20
-2.00736
11
1.77707
21
-2.00561
0
LINE
8
BLACK
6
CONTINUOUS
10
1.77707
20
-2.00561
11
1.7773
21
-2.00553
0
LINE
8
BLACK
6
CONTINUOUS
10
1.7773
20
-2.00553
11
1.77632
21
-2.00357
0
LINE
8
BLACK
6
CONTINUOUS
10
1.77632
20
-2.00357
11
1.77603
21
-2.00259
0
LINE
8
BLACK
6
CONTINUOUS
10
1.77603
20
-2.00259
11
1.77607
21
-2.00242
0
LINE
8
BLACK
6
CONTINUOUS
10
1.77607
20
-2.00242
11
1.77601
21
-2.00225
0
LINE
8
BLACK
6
CONTINUOUS
10
1.77601
20
-2.00225
11
1.77601
21
-1.99663
0
LINE
8
BLACK
6
CONTINUOUS
10
1.77601
20
-1.99663
11
1.77619
21
-1.99562
0
LINE
8
BLACK
6
CONTINUOUS
10
1.77619
20
-1.99562
11
1.7763
21
-1.99548
0
LINE
8
BLACK
6
CONTINUOUS
10
1.7763
20
-1.99548
11
1.77632
21
-1.9953
0
LINE
8
BLACK
6
CONTINUOUS
10
1.77632
20
-1.9953
11
1.7782
21
-1.99156
0
LINE
8
BLACK
6
CONTINUOUS
10
1.7782
20
-1.99156
11
1.77881
21
-1.99073
0
LINE
8
BLACK
6
CONTINUOUS
10
1.77881
20
-1.99073
11
1.77922
21
-1.99056
0
LINE
8
BLACK
6
CONTINUOUS
10
1.77922
20
-1.99056
11
1.77952
21
-1.99023
0
LINE
8
BLACK
6
CONTINUOUS
10
1.77952
20
-1.99023
11
1.78327
21
-1.98836
0
LINE
8
BLACK
6
CONTINUOUS
10
1.78327
20
-1.98836
11
1.78425
21
-1.98807
0
LINE
8
BLACK
6
CONTINUOUS
10
1.78425
20
-1.98807
11
1.78442
21
-1.98811
0
LINE
8
BLACK
6
CONTINUOUS
10
1.78442
20
-1.98811
11
1.78459
21
-1.98805
0
LINE
8
BLACK
6
CONTINUOUS
10
1.78459
20
-1.98805
11
1.80521
21
-1.98805
0
LINE
8
BLACK
6
CONTINUOUS
10
1.80521
20
-1.98805
11
1.80622
21
-1.98823
0
LINE
8
BLACK
6
CONTINUOUS
10
1.81122
20
-1.94973
11
1.81191
21
-1.95163
0
LINE
8
BLACK
6
CONTINUOUS
10
1.81191
20
-1.95163
11
1.81191
21
-1.98163
0
LINE
8
BLACK
6
CONTINUOUS
10
1.81191
20
-1.98163
11
1.81174
21
-1.98264
0
LINE
8
BLACK
6
CONTINUOUS
10
1.81174
20
-1.98264
11
1.81044
21
-1.98418
0
LINE
8
BLACK
6
CONTINUOUS
10
1.81044
20
-1.98418
11
1.80845
21
-1.98454
0
LINE
8
BLACK
6
CONTINUOUS
10
1.80845
20
-1.98454
11
1.8067
21
-1.98353
0
LINE
8
BLACK
6
CONTINUOUS
10
1.8067
20
-1.98353
11
1.80601
21
-1.98163
0
LINE
8
BLACK
6
CONTINUOUS
10
1.80601
20
-1.98163
11
1.80601
21
-1.95163
0
LINE
8
BLACK
6
CONTINUOUS
10
1.80601
20
-1.95163
11
1.80619
21
-1.95062
0
LINE
8
BLACK
6
CONTINUOUS
10
1.80619
20
-1.95062
11
1.80749
21
-1.94907
0
LINE
8
BLACK
6
CONTINUOUS
10
1.80749
20
-1.94907
11
1.80947
21
-1.94872
0
LINE
8
BLACK
6
CONTINUOUS
10
1.80947
20
-1.94872
11
1.81122
21
-1.94973
0
LINE
8
BLACK
6
CONTINUOUS
10
1.79079
20
-1.91878
11
1.79093
21
-1.91877
0
LINE
8
BLACK
6
CONTINUOUS
10
1.79093
20
-1.91877
11
1.79843
21
-1.92064
0
LINE
8
BLACK
6
CONTINUOUS
10
1.79843
20
-1.92064
11
1.79889
21
-1.92085
0
LINE
8
BLACK
6
CONTINUOUS
10
1.79889
20
-1.92085
11
1.79903
21
-1.92087
0
LINE
8
BLACK
6
CONTINUOUS
10
1.79903
20
-1.92087
11
1.80278
21
-1.92274
0
LINE
8
BLACK
6
CONTINUOUS
10
1.80278
20
-1.92274
11
1.80349
21
-1.92327
0
LINE
8
BLACK
6
CONTINUOUS
10
1.80349
20
-1.92327
11
1.80355
21
-1.9233
0
LINE
8
BLACK
6
CONTINUOUS
10
1.80355
20
-1.9233
11
1.80542
21
-1.92517
0
LINE
8
BLACK
6
CONTINUOUS
10
1.80542
20
-1.92517
11
1.80593
21
-1.92589
0
LINE
8
BLACK
6
CONTINUOUS
10
1.80593
20
-1.92589
11
1.80598
21
-1.92594
0
LINE
8
BLACK
6
CONTINUOUS
10
1.80598
20
-1.92594
11
1.80785
21
-1.92969
0
LINE
8
BLACK
6
CONTINUOUS
10
1.80785
20
-1.92969
11
1.80815
21
-1.93067
0
LINE
8
BLACK
6
CONTINUOUS
10
1.80815
20
-1.93067
11
1.8081
21
-1.93084
0
LINE
8
BLACK
6
CONTINUOUS
10
1.8081
20
-1.93084
11
1.80816
21
-1.93101
0
LINE
8
BLACK
6
CONTINUOUS
10
1.80816
20
-1.93101
11
1.80816
21
-1.93476
0
LINE
8
BLACK
6
CONTINUOUS
10
1.80816
20
-1.93476
11
1.80799
21
-1.93577
0
LINE
8
BLACK
6
CONTINUOUS
10
1.80799
20
-1.93577
11
1.80787
21
-1.9359
0
LINE
8
BLACK
6
CONTINUOUS
10
1.80787
20
-1.9359
11
1.80785
21
-1.93608
0
LINE
8
BLACK
6
CONTINUOUS
10
1.80785
20
-1.93608
11
1.80598
21
-1.93983
0
LINE
8
BLACK
6
CONTINUOUS
10
1.80598
20
-1.93983
11
1.80545
21
-1.94054
0
LINE
8
BLACK
6
CONTINUOUS
10
1.80545
20
-1.94054
11
1.80542
21
-1.9406
0
LINE
8
BLACK
6
CONTINUOUS
10
1.80542
20
-1.9406
11
1.80355
21
-1.94247
0
LINE
8
BLACK
6
CONTINUOUS
10
1.80355
20
-1.94247
11
1.80283
21
-1.94298
0
LINE
8
BLACK
6
CONTINUOUS
10
1.80283
20
-1.94298
11
1.80278
21
-1.94302
0
LINE
8
BLACK
6
CONTINUOUS
10
1.80278
20
-1.94302
11
1.79903
21
-1.9449
0
LINE
8
BLACK
6
CONTINUOUS
10
1.79903
20
-1.9449
11
1.79854
21
-1.94504
0
LINE
8
BLACK
6
CONTINUOUS
10
1.79854
20
-1.94504
11
1.79843
21
-1.94512
0
LINE
8
BLACK
6
CONTINUOUS
10
1.79843
20
-1.94512
11
1.79093
21
-1.947
0
LINE
8
BLACK
6
CONTINUOUS
10
1.79093
20
-1.947
11
1.79034
21
-1.94704
0
LINE
8
BLACK
6
CONTINUOUS
10
1.79034
20
-1.94704
11
1.79021
21
-1.94708
0
LINE
8
BLACK
6
CONTINUOUS
10
1.79021
20
-1.94708
11
1.78084
21
-1.94708
0
LINE
8
BLACK
6
CONTINUOUS
10
1.78084
20
-1.94708
11
1.78026
21
-1.94698
0
LINE
8
BLACK
6
CONTINUOUS
10
1.78026
20
-1.94698
11
1.78012
21
-1.947
0
LINE
8
BLACK
6
CONTINUOUS
10
1.78012
20
-1.947
11
1.77262
21
-1.94512
0
LINE
8
BLACK
6
CONTINUOUS
10
1.77262
20
-1.94512
11
1.77216
21
-1.94491
0
LINE
8
BLACK
6
CONTINUOUS
10
1.77216
20
-1.94491
11
1.77202
21
-1.9449
0
LINE
8
BLACK
6
CONTINUOUS
10
1.77202
20
-1.9449
11
1.76827
21
-1.94302
0
LINE
8
BLACK
6
CONTINUOUS
10
1.76827
20
-1.94302
11
1.76756
21
-1.9425
0
LINE
8
BLACK
6
CONTINUOUS
10
1.76756
20
-1.9425
11
1.7675
21
-1.94247
0
LINE
8
BLACK
6
CONTINUOUS
10
1.7675
20
-1.94247
11
1.76563
21
-1.9406
0
LINE
8
BLACK
6
CONTINUOUS
10
1.76563
20
-1.9406
11
1.76512
21
-1.93987
0
LINE
8
BLACK
6
CONTINUOUS
10
1.76512
20
-1.93987
11
1.76508
21
-1.93983
0
LINE
8
BLACK
6
CONTINUOUS
10
1.76508
20
-1.93983
11
1.7632
21
-1.93608
0
LINE
8
BLACK
6
CONTINUOUS
10
1.7632
20
-1.93608
11
1.76291
21
-1.9351
0
LINE
8
BLACK
6
CONTINUOUS
10
1.76291
20
-1.9351
11
1.76295
21
-1.93492
0
LINE
8
BLACK
6
CONTINUOUS
10
1.76295
20
-1.93492
11
1.76289
21
-1.93476
0
LINE
8
BLACK
6
CONTINUOUS
10
1.76289
20
-1.93476
11
1.76289
21
-1.93101
0
LINE
8
BLACK
6
CONTINUOUS
10
1.76289
20
-1.93101
11
1.76307
21
-1.93
0
LINE
8
BLACK
6
CONTINUOUS
10
1.76307
20
-1.93
11
1.76318
21
-1.92986
0
LINE
8
BLACK
6
CONTINUOUS
10
1.76318
20
-1.92986
11
1.7632
21
-1.92969
0
LINE
8
BLACK
6
CONTINUOUS
10
1.7632
20
-1.92969
11
1.76508
21
-1.92594
0
LINE
8
BLACK
6
CONTINUOUS
10
1.76508
20
-1.92594
11
1.7656
21
-1.92523
0
LINE
8
BLACK
6
CONTINUOUS
10
1.7656
20
-1.92523
11
1.76563
21
-1.92517
0
LINE
8
BLACK
6
CONTINUOUS
10
1.76563
20
-1.92517
11
1.7675
21
-1.9233
0
LINE
8
BLACK
6
CONTINUOUS
10
1.7675
20
-1.9233
11
1.76823
21
-1.92279
0
LINE
8
BLACK
6
CONTINUOUS
10
1.76823
20
-1.92279
11
1.76827
21
-1.92274
0
LINE
8
BLACK
6
CONTINUOUS
10
1.76827
20
-1.92274
11
1.77202
21
-1.92087
0
LINE
8
BLACK
6
CONTINUOUS
10
1.77202
20
-1.92087
11
1.77251
21
-1.92072
0
LINE
8
BLACK
6
CONTINUOUS
10
1.77251
20
-1.92072
11
1.77262
21
-1.92064
0
LINE
8
BLACK
6
CONTINUOUS
10
1.77262
20
-1.92064
11
1.78012
21
-1.91877
0
LINE
8
BLACK
6
CONTINUOUS
10
1.78012
20
-1.91877
11
1.78071
21
-1.91873
0
LINE
8
BLACK
6
CONTINUOUS
10
1.78071
20
-1.91873
11
1.78084
21
-1.91868
0
LINE
8
BLACK
6
CONTINUOUS
10
1.78084
20
-1.91868
11
1.79021
21
-1.91868
0
LINE
8
BLACK
6
CONTINUOUS
10
1.79021
20
-1.91868
11
1.79079
21
-1.91878
0
LINE
8
BLACK
6
CONTINUOUS
10
1.7812
20
-1.92459
11
1.77437
21
-1.9263
0
LINE
8
BLACK
6
CONTINUOUS
10
1.77437
20
-1.9263
11
1.77134
21
-1.92781
0
LINE
8
BLACK
6
CONTINUOUS
10
1.77134
20
-1.92781
11
1.77014
21
-1.92901
0
LINE
8
BLACK
6
CONTINUOUS
10
1.77014
20
-1.92901
11
1.76879
21
-1.93171
0
LINE
8
BLACK
6
CONTINUOUS
10
1.76879
20
-1.93171
11
1.76879
21
-1.93406
0
LINE
8
BLACK
6
CONTINUOUS
10
1.76879
20
-1.93406
11
1.77014
21
-1.93676
0
LINE
8
BLACK
6
CONTINUOUS
10
1.77014
20
-1.93676
11
1.77134
21
-1.93796
0
LINE
8
BLACK
6
CONTINUOUS
10
1.77134
20
-1.93796
11
1.77437
21
-1.93947
0
LINE
8
BLACK
6
CONTINUOUS
10
1.77437
20
-1.93947
11
1.7812
21
-1.94118
0
LINE
8
BLACK
6
CONTINUOUS
10
1.7812
20
-1.94118
11
1.78985
21
-1.94118
0
LINE
8
BLACK
6
CONTINUOUS
10
1.78985
20
-1.94118
11
1.79668
21
-1.93947
0
LINE
8
BLACK
6
CONTINUOUS
10
1.79668
20
-1.93947
11
1.79971
21
-1.93796
0
LINE
8
BLACK
6
CONTINUOUS
10
1.79971
20
-1.93796
11
1.80091
21
-1.93676
0
LINE
8
BLACK
6
CONTINUOUS
10
1.80091
20
-1.93676
11
1.80226
21
-1.93406
0
LINE
8
BLACK
6
CONTINUOUS
10
1.80226
20
-1.93406
11
1.80226
21
-1.93171
0
LINE
8
BLACK
6
CONTINUOUS
10
1.80226
20
-1.93171
11
1.80091
21
-1.92901
0
LINE
8
BLACK
6
CONTINUOUS
10
1.80091
20
-1.92901
11
1.79971
21
-1.92781
0
LINE
8
BLACK
6
CONTINUOUS
10
1.79971
20
-1.92781
11
1.79668
21
-1.9263
0
LINE
8
BLACK
6
CONTINUOUS
10
1.79668
20
-1.9263
11
1.78985
21
-1.92459
0
LINE
8
BLACK
6
CONTINUOUS
10
1.78985
20
-1.92459
11
1.7812
21
-1.92459
0
LINE
8
BLACK
6
CONTINUOUS
10
1.80747
20
-1.88224
11
1.80816
21
-1.88414
0
LINE
8
BLACK
6
CONTINUOUS
10
1.80816
20
-1.88414
11
1.80816
21
-1.90664
0
LINE
8
BLACK
6
CONTINUOUS
10
1.80816
20
-1.90664
11
1.80799
21
-1.90765
0
LINE
8
BLACK
6
CONTINUOUS
10
1.80799
20
-1.90765
11
1.80669
21
-1.90919
0
LINE
8
BLACK
6
CONTINUOUS
10
1.80669
20
-1.90919
11
1.8047
21
-1.90954
0
LINE
8
BLACK
6
CONTINUOUS
10
1.8047
20
-1.90954
11
1.80295
21
-1.90853
0
LINE
8
BLACK
6
CONTINUOUS
10
1.80295
20
-1.90853
11
1.80226
21
-1.90664
0
LINE
8
BLACK
6
CONTINUOUS
10
1.80226
20
-1.90664
11
1.80226
21
-1.89834
0
LINE
8
BLACK
6
CONTINUOUS
10
1.80226
20
-1.89834
11
1.77485
21
-1.89834
0
LINE
8
BLACK
6
CONTINUOUS
10
1.77485
20
-1.89834
11
1.7773
21
-1.9008
0
LINE
8
BLACK
6
CONTINUOUS
10
1.7773
20
-1.9008
11
1.77781
21
-1.90152
0
LINE
8
BLACK
6
CONTINUOUS
10
1.77781
20
-1.90152
11
1.77786
21
-1.90157
0
LINE
8
BLACK
6
CONTINUOUS
10
1.77786
20
-1.90157
11
1.77973
21
-1.90532
0
LINE
8
BLACK
6
CONTINUOUS
10
1.77973
20
-1.90532
11
1.78002
21
-1.9063
0
LINE
8
BLACK
6
CONTINUOUS
10
1.78002
20
-1.9063
11
1.77955
21
-1.90826
0
LINE
8
BLACK
6
CONTINUOUS
10
1.77955
20
-1.90826
11
1.77793
21
-1.90947
0
LINE
8
BLACK
6
CONTINUOUS
10
1.77793
20
-1.90947
11
1.77592
21
-1.90935
0
LINE
8
BLACK
6
CONTINUOUS
10
1.77592
20
-1.90935
11
1.77445
21
-1.90796
0
LINE
8
BLACK
6
CONTINUOUS
10
1.77445
20
-1.90796
11
1.77279
21
-1.90464
0
LINE
8
BLACK
6
CONTINUOUS
10
1.77279
20
-1.90464
11
1.76958
21
-1.90143
0
LINE
8
BLACK
6
CONTINUOUS
10
1.76958
20
-1.90143
11
1.7642
21
-1.89784
0
LINE
8
BLACK
6
CONTINUOUS
10
1.7642
20
-1.89784
11
1.76346
21
-1.89714
0
LINE
8
BLACK
6
CONTINUOUS
10
1.76346
20
-1.89714
11
1.76341
21
-1.89697
0
LINE
8
BLACK
6
CONTINUOUS
10
1.76341
20
-1.89697
11
1.76328
21
-1.89686
0
LINE
8
BLACK
6
CONTINUOUS
10
1.76328
20
-1.89686
11
1.76314
21
-1.89602
0
LINE
8
BLACK
6
CONTINUOUS
10
1.76314
20
-1.89602
11
1.7629
21
-1.8952
0
LINE
8
BLACK
6
CONTINUOUS
10
1.7629
20
-1.8952
11
1.76296
21
-1.89504
0
LINE
8
BLACK
6
CONTINUOUS
10
1.76296
20
-1.89504
11
1.76293
21
-1.89488
0
LINE
8
BLACK
6
CONTINUOUS
10
1.76293
20
-1.89488
11
1.76336
21
-1.89413
0
LINE
8
BLACK
6
CONTINUOUS
10
1.76336
20
-1.89413
11
1.76371
21
-1.89335
0
LINE
8
BLACK
6
CONTINUOUS
10
1.76371
20
-1.89335
11
1.76386
21
-1.89327
0
LINE
8
BLACK
6
CONTINUOUS
10
1.76386
20
-1.89327
11
1.76394
21
-1.89313
0
LINE
8
BLACK
6
CONTINUOUS
10
1.76394
20
-1.89313
11
1.76475
21
-1.89283
0
LINE
8
BLACK
6
CONTINUOUS
10
1.76475
20
-1.89283
11
1.76552
21
-1.89245
0
LINE
8
BLACK
6
CONTINUOUS
10
1.76552
20
-1.89245
11
1.76568
21
-1.89249
0
LINE
8
BLACK
6
CONTINUOUS
10
1.76568
20
-1.89249
11
1.76584
21
-1.89244
0
LINE
8
BLACK
6
CONTINUOUS
10
1.76584
20
-1.89244
11
1.80226
21
-1.89244
0
LINE
8
BLACK
6
CONTINUOUS
10
1.80226
20
-1.89244
11
1.80226
21
-1.88414
0
LINE
8
BLACK
6
CONTINUOUS
10
1.80226
20
-1.88414
11
1.80244
21
-1.88313
0
LINE
8
BLACK
6
CONTINUOUS
10
1.80244
20
-1.88313
11
1.80374
21
-1.88158
0
LINE
8
BLACK
6
CONTINUOUS
10
1.80374
20
-1.88158
11
1.80572
21
-1.88123
0
LINE
8
BLACK
6
CONTINUOUS
10
1.80572
20
-1.88123
11
1.80747
21
-1.88224
0
LINE
8
BLACK
6
CONTINUOUS
10
1.91832
20
-1.78365
11
1.9189
21
-1.78504
0
LINE
8
BLACK
6
CONTINUOUS
10
1.9189
20
-1.78504
11
1.91832
21
-1.78643
0
LINE
8
BLACK
6
CONTINUOUS
10
1.91832
20
-1.78643
11
1.91693
21
-1.78701
0
LINE
8
BLACK
6
CONTINUOUS
10
1.91693
20
-1.78701
11
1.82047
21
-1.78701
0
LINE
8
BLACK
6
CONTINUOUS
10
1.82047
20
-1.78701
11
1.82047
21
-1.88346
0
LINE
8
BLACK
6
CONTINUOUS
10
1.82047
20
-1.88346
11
1.8199
21
-1.88486
0
LINE
8
BLACK
6
CONTINUOUS
10
1.8199
20
-1.88486
11
1.8185
21
-1.88543
0
LINE
8
BLACK
6
CONTINUOUS
10
1.8185
20
-1.88543
11
1.81711
21
-1.88486
0
LINE
8
BLACK
6
CONTINUOUS
10
1.81711
20
-1.88486
11
1.81654
21
-1.88346
0
LINE
8
BLACK
6
CONTINUOUS
10
1.81654
20
-1.88346
11
1.81654
21
-1.78504
0
LINE
8
BLACK
6
CONTINUOUS
10
1.81654
20
-1.78504
11
1.81711
21
-1.78365
0
LINE
8
BLACK
6
CONTINUOUS
10
1.81711
20
-1.78365
11
1.8185
21
-1.78307
0
LINE
8
BLACK
6
CONTINUOUS
10
1.8185
20
-1.78307
11
1.91693
21
-1.78307
0
LINE
8
BLACK
6
CONTINUOUS
10
1.91693
20
-1.78307
11
1.91832
21
-1.78365
0
LINE
8
BLACK
6
CONTINUOUS
10
1.78079
20
-1.84807
11
1.79209
21
-1.85695
0
LINE
8
BLACK
6
CONTINUOUS
10
1.79209
20
-1.85695
11
1.80339
21
-1.84807
0
LINE
8
BLACK
6
CONTINUOUS
10
1.80339
20
-1.84807
11
1.80429
21
-1.84759
0
LINE
8
BLACK
6
CONTINUOUS
10
1.80429
20
-1.84759
11
1.80631
21
-1.84765
0
LINE
8
BLACK
6
CONTINUOUS
10
1.80631
20
-1.84765
11
1.80782
21
-1.849
0
LINE
8
BLACK
6
CONTINUOUS
10
1.80782
20
-1.849
11
1.8081
21
-1.851
0
LINE
8
BLACK
6
CONTINUOUS
10
1.8081
20
-1.851
11
1.80704
21
-1.85272
0
LINE
8
BLACK
6
CONTINUOUS
10
1.80704
20
-1.85272
11
1.79687
21
-1.8607
0
LINE
8
BLACK
6
CONTINUOUS
10
1.79687
20
-1.8607
11
1.80704
21
-1.86869
0
LINE
8
BLACK
6
CONTINUOUS
10
1.80704
20
-1.86869
11
1.80772
21
-1.86946
0
LINE
8
BLACK
6
CONTINUOUS
10
1.80772
20
-1.86946
11
1.80813
21
-1.87144
0
LINE
8
BLACK
6
CONTINUOUS
10
1.80813
20
-1.87144
11
1.80718
21
-1.87322
0
LINE
8
BLACK
6
CONTINUOUS
10
1.80718
20
-1.87322
11
1.80531
21
-1.87397
0
LINE
8
BLACK
6
CONTINUOUS
10
1.80531
20
-1.87397
11
1.80339
21
-1.87334
0
LINE
8
BLACK
6
CONTINUOUS
10
1.80339
20
-1.87334
11
1.79209
21
-1.86446
0
LINE
8
BLACK
6
CONTINUOUS
10
1.79209
20
-1.86446
11
1.78079
21
-1.87334
0
LINE
8
BLACK
6
CONTINUOUS
10
1.78079
20
-1.87334
11
1.77989
21
-1.87382
0
LINE
8
BLACK
6
CONTINUOUS
10
1.77989
20
-1.87382
11
1.77787
21
-1.87376
0
LINE
8
BLACK
6
CONTINUOUS
10
1.77787
20
-1.87376
11
1.77636
21
-1.87241
0
LINE
8
BLACK
6
CONTINUOUS
10
1.77636
20
-1.87241
11
1.77608
21
-1.87041
0
LINE
8
BLACK
6
CONTINUOUS
10
1.77608
20
-1.87041
11
1.77714
21
-1.86869
0
LINE
8
BLACK
6
CONTINUOUS
10
1.77714
20
-1.86869
11
1.78731
21
-1.8607
0
LINE
8
BLACK
6
CONTINUOUS
10
1.78731
20
-1.8607
11
1.77714
21
-1.85272
0
LINE
8
BLACK
6
CONTINUOUS
10
1.77714
20
-1.85272
11
1.77646
21
-1.85195
0
LINE
8
BLACK
6
CONTINUOUS
10
1.77646
20
-1.85195
11
1.77604
21
-1.84997
0
LINE
8
BLACK
6
CONTINUOUS
10
1.77604
20
-1.84997
11
1.777
21
-1.84819
0
LINE
8
BLACK
6
CONTINUOUS
10
1.777
20
-1.84819
11
1.77887
21
-1.84744
0
LINE
8
BLACK
6
CONTINUOUS
10
1.77887
20
-1.84744
11
1.78079
21
-1.84807
0
LINE
8
BLACK
6
CONTINUOUS
10
1.79079
20
-1.81192
11
1.79093
21
-1.81191
0
LINE
8
BLACK
6
CONTINUOUS
10
1.79093
20
-1.81191
11
1.79843
21
-1.81378
0
LINE
8
BLACK
6
CONTINUOUS
10
1.79843
20
-1.81378
11
1.79889
21
-1.81399
0
LINE
8
BLACK
6
CONTINUOUS
10
1.79889
20
-1.81399
11
1.79903
21
-1.81401
0
LINE
8
BLACK
6
CONTINUOUS
10
1.79903
20
-1.81401
11
1.80278
21
-1.81588
0
LINE
8
BLACK
6
CONTINUOUS
10
1.80278
20
-1.81588
11
1.80349
21
-1.81641
0
LINE
8
BLACK
6
CONTINUOUS
10
1.80349
20
-1.81641
11
1.80355
21
-1.81643
0
LINE
8
BLACK
6
CONTINUOUS
10
1.80355
20
-1.81643
11
1.80542
21
-1.81831
0
LINE
8
BLACK
6
CONTINUOUS
10
1.80542
20
-1.81831
11
1.80593
21
-1.81903
0
LINE
8
BLACK
6
CONTINUOUS
10
1.80593
20
-1.81903
11
1.80598
21
-1.81908
0
LINE
8
BLACK
6
CONTINUOUS
10
1.80598
20
-1.81908
11
1.80785
21
-1.82283
0
LINE
8
BLACK
6
CONTINUOUS
10
1.80785
20
-1.82283
11
1.80815
21
-1.82381
0
LINE
8
BLACK
6
CONTINUOUS
10
1.80815
20
-1.82381
11
1.8081
21
-1.82398
0
LINE
8
BLACK
6
CONTINUOUS
10
1.8081
20
-1.82398
11
1.80816
21
-1.82415
0
LINE
8
BLACK
6
CONTINUOUS
10
1.80816
20
-1.82415
11
1.80816
21
-1.8279
0
LINE
8
BLACK
6
CONTINUOUS
10
1.80816
20
-1.8279
11
1.80799
21
-1.82891
0
LINE
8
BLACK
6
CONTINUOUS
10
1.80799
20
-1.82891
11
1.80787
21
-1.82904
0
LINE
8
BLACK
6
CONTINUOUS
10
1.80787
20
-1.82904
11
1.80785
21
-1.82922
0
LINE
8
BLACK
6
CONTINUOUS
10
1.80785
20
-1.82922
11
1.80598
21
-1.83297
0
LINE
8
BLACK
6
CONTINUOUS
10
1.80598
20
-1.83297
11
1.80545
21
-1.83368
0
LINE
8
BLACK
6
CONTINUOUS
10
1.80545
20
-1.83368
11
1.80542
21
-1.83373
0
LINE
8
BLACK
6
CONTINUOUS
10
1.80542
20
-1.83373
11
1.80355
21
-1.83561
0
LINE
8
BLACK
6
CONTINUOUS
10
1.80355
20
-1.83561
11
1.80283
21
-1.83611
0
LINE
8
BLACK
6
CONTINUOUS
10
1.80283
20
-1.83611
11
1.80278
21
-1.83616
0
LINE
8
BLACK
6
CONTINUOUS
10
1.80278
20
-1.83616
11
1.79903
21
-1.83804
0
LINE
8
BLACK
6
CONTINUOUS
10
1.79903
20
-1.83804
11
1.79854
21
-1.83818
0
LINE
8
BLACK
6
CONTINUOUS
10
1.79854
20
-1.83818
11
1.79843
21
-1.83826
0
LINE
8
BLACK
6
CONTINUOUS
10
1.79843
20
-1.83826
11
1.79093
21
-1.84013
0
LINE
8
BLACK
6
CONTINUOUS
10
1.79093
20
-1.84013
11
1.79034
21
-1.84018
0
LINE
8
BLACK
6
CONTINUOUS
10
1.79034
20
-1.84018
11
1.79021
21
-1.84022
0
LINE
8
BLACK
6
CONTINUOUS
10
1.79021
20
-1.84022
11
1.78084
21
-1.84022
0
LINE
8
BLACK
6
CONTINUOUS
10
1.78084
20
-1.84022
11
1.78026
21
-1.84012
0
LINE
8
BLACK
6
CONTINUOUS
10
1.78026
20
-1.84012
11
1.78012
21
-1.84013
0
LINE
8
BLACK
6
CONTINUOUS
10
1.78012
20
-1.84013
11
1.77262
21
-1.83826
0
LINE
8
BLACK
6
CONTINUOUS
10
1.77262
20
-1.83826
11
1.77216
21
-1.83805
0
LINE
8
BLACK
6
CONTINUOUS
10
1.77216
20
-1.83805
11
1.77202
21
-1.83804
0
LINE
8
BLACK
6
CONTINUOUS
10
1.77202
20
-1.83804
11
1.76827
21
-1.83616
0
LINE
8
BLACK
6
CONTINUOUS
10
1.76827
20
-1.83616
11
1.76756
21
-1.83564
0
LINE
8
BLACK
6
CONTINUOUS
10
1.76756
20
-1.83564
11
1.7675
21
-1.83561
0
LINE
8
BLACK
6
CONTINUOUS
10
1.7675
20
-1.83561
11
1.76563
21
-1.83373
0
LINE
8
BLACK
6
CONTINUOUS
10
1.76563
20
-1.83373
11
1.76512
21
-1.83301
0
LINE
8
BLACK
6
CONTINUOUS
10
1.76512
20
-1.83301
11
1.76508
21
-1.83297
0
LINE
8
BLACK
6
CONTINUOUS
10
1.76508
20
-1.83297
11
1.7632
21
-1.82922
0
LINE
8
BLACK
6
CONTINUOUS
10
1.7632
20
-1.82922
11
1.76291
21
-1.82823
0
LINE
8
BLACK
6
CONTINUOUS
10
1.76291
20
-1.82823
11
1.76295
21
-1.82806
0
LINE
8
BLACK
6
CONTINUOUS
10
1.76295
20
-1.82806
11
1.76289
21
-1.8279
0
LINE
8
BLACK
6
CONTINUOUS
10
1.76289
20
-1.8279
11
1.76289
21
-1.82415
0
LINE
8
BLACK
6
CONTINUOUS
10
1.76289
20
-1.82415
11
1.76307
21
-1.82314
0
LINE
8
BLACK
6
CONTINUOUS
10
1.76307
20
-1.82314
11
1.76318
21
-1.823
0
LINE
8
BLACK
6
CONTINUOUS
10
1.76318
20
-1.823
11
1.7632
21
-1.82283
0
LINE
8
BLACK
6
CONTINUOUS
10
1.7632
20
-1.82283
11
1.76508
21
-1.81908
0
LINE
8
BLACK
6
CONTINUOUS
10
1.76508
20
-1.81908
11
1.7656
21
-1.81837
0
LINE
8
BLACK
6
CONTINUOUS
10
1.7656
20
-1.81837
11
1.76563
21
-1.81831
0
LINE
8
BLACK
6
CONTINUOUS
10
1.76563
20
-1.81831
11
1.7675
21
-1.81643
0
LINE
8
BLACK
6
CONTINUOUS
10
1.7675
20
-1.81643
11
1.76823
21
-1.81593
0
LINE
8
BLACK
6
CONTINUOUS
10
1.76823
20
-1.81593
11
1.76827
21
-1.81588
0
LINE
8
BLACK
6
CONTINUOUS
10
1.76827
20
-1.81588
11
1.77202
21
-1.81401
0
LINE
8
BLACK
6
CONTINUOUS
10
1.77202
20
-1.81401
11
1.77251
21
-1.81386
0
LINE
8
BLACK
6
CONTINUOUS
10
1.77251
20
-1.81386
11
1.77262
21
-1.81378
0
LINE
8
BLACK
6
CONTINUOUS
10
1.77262
20
-1.81378
11
1.78012
21
-1.81191
0
LINE
8
BLACK
6
CONTINUOUS
10
1.78012
20
-1.81191
11
1.78071
21
-1.81187
0
LINE
8
BLACK
6
CONTINUOUS
10
1.78071
20
-1.81187
11
1.78084
21
-1.81182
0
LINE
8
BLACK
6
CONTINUOUS
10
1.78084
20
-1.81182
11
1.79021
21
-1.81182
0
LINE
8
BLACK
6
CONTINUOUS
10
1.79021
20
-1.81182
11
1.79079
21
-1.81192
0
LINE
8
BLACK
6
CONTINUOUS
10
1.7812
20
-1.81773
11
1.77437
21
-1.81943
0
LINE
8
BLACK
6
CONTINUOUS
10
1.77437
20
-1.81943
11
1.77134
21
-1.82095
0
LINE
8
BLACK
6
CONTINUOUS
10
1.77134
20
-1.82095
11
1.77014
21
-1.82215
0
LINE
8
BLACK
6
CONTINUOUS
10
1.77014
20
-1.82215
11
1.76879
21
-1.82484
0
LINE
8
BLACK
6
CONTINUOUS
10
1.76879
20
-1.82484
11
1.76879
21
-1.8272
0
LINE
8
BLACK
6
CONTINUOUS
10
1.76879
20
-1.8272
11
1.77014
21
-1.8299
0
LINE
8
BLACK
6
CONTINUOUS
10
1.77014
20
-1.8299
11
1.77134
21
-1.83109
0
LINE
8
BLACK
6
CONTINUOUS
10
1.77134
20
-1.83109
11
1.77437
21
-1.83261
0
LINE
8
BLACK
6
CONTINUOUS
10
1.77437
20
-1.83261
11
1.7812
21
-1.83432
0
LINE
8
BLACK
6
CONTINUOUS
10
1.7812
20
-1.83432
11
1.78985
21
-1.83432
0
LINE
8
BLACK
6
CONTINUOUS
10
1.78985
20
-1.83432
11
1.79668
21
-1.83261
0
LINE
8
BLACK
6
CONTINUOUS
10
1.79668
20
-1.83261
11
1.79971
21
-1.83109
0
LINE
8
BLACK
6
CONTINUOUS
10
1.79971
20
-1.83109
11
1.80091
21
-1.8299
0
LINE
8
BLACK
6
CONTINUOUS
10
1.80091
20
-1.8299
11
1.80226
21
-1.8272
0
LINE
8
BLACK
6
CONTINUOUS
10
1.80226
20
-1.8272
11
1.80226
21
-1.82484
0
LINE
8
BLACK
6
CONTINUOUS
10
1.80226
20
-1.82484
11
1.80091
21
-1.82215
0
LINE
8
BLACK
6
CONTINUOUS
10
1.80091
20
-1.82215
11
1.79971
21
-1.82095
0
LINE
8
BLACK
6
CONTINUOUS
10
1.79971
20
-1.82095
11
1.79668
21
-1.81943
0
LINE
8
BLACK
6
CONTINUOUS
10
1.79668
20
-1.81943
11
1.78985
21
-1.81773
0
LINE
8
BLACK
6
CONTINUOUS
10
1.78985
20
-1.81773
11
1.7812
21
-1.81773
0
LINE
8
BLACK
6
CONTINUOUS
10
2.26239
20
-1.8262
11
2.26181
21
-1.8248
0
LINE
8
BLACK
6
CONTINUOUS
10
2.26181
20
-1.8248
11
2.26181
21
-1.77756
0
LINE
8
BLACK
6
CONTINUOUS
10
2.26181
20
-1.77756
11
2.26239
21
-1.77617
0
LINE
8
BLACK
6
CONTINUOUS
10
2.26239
20
-1.77617
11
2.26378
21
-1.77559
0
LINE
8
BLACK
6
CONTINUOUS
10
2.26378
20
-1.77559
11
2.34252
21
-1.77559
0
LINE
8
BLACK
6
CONTINUOUS
10
2.34252
20
-1.77559
11
2.34391
21
-1.77617
0
LINE
8
BLACK
6
CONTINUOUS
10
2.34391
20
-1.77617
11
2.34449
21
-1.77756
0
LINE
8
BLACK
6
CONTINUOUS
10
2.34449
20
-1.77756
11
2.34449
21
-1.81299
0
LINE
8
BLACK
6
CONTINUOUS
10
2.34449
20
-1.81299
11
2.34407
21
-1.81401
0
LINE
8
BLACK
6
CONTINUOUS
10
2.34407
20
-1.81401
11
2.34391
21
-1.81438
0
LINE
8
BLACK
6
CONTINUOUS
10
2.34391
20
-1.81438
11
2.3321
21
-1.8262
0
LINE
8
BLACK
6
CONTINUOUS
10
2.3321
20
-1.8262
11
2.33071
21
-1.82677
0
LINE
8
BLACK
6
CONTINUOUS
10
2.33071
20
-1.82677
11
2.26378
21
-1.82677
0
LINE
8
BLACK
6
CONTINUOUS
10
2.26378
20
-1.82677
11
2.26239
21
-1.8262
0
LINE
8
BLACK
6
CONTINUOUS
10
2.26575
20
-1.77953
11
2.26575
21
-1.82283
0
LINE
8
BLACK
6
CONTINUOUS
10
2.26575
20
-1.82283
11
2.32989
21
-1.82283
0
LINE
8
BLACK
6
CONTINUOUS
10
2.32989
20
-1.82283
11
2.34055
21
-1.81218
0
LINE
8
BLACK
6
CONTINUOUS
10
2.34055
20
-1.81218
11
2.34055
21
-1.77953
0
LINE
8
BLACK
6
CONTINUOUS
10
2.34055
20
-1.77953
11
2.26575
21
-1.77953
0
LINE
8
BLACK
6
CONTINUOUS
10
2.29355
20
-1.78893
11
2.29381
21
-1.78891
0
LINE
8
BLACK
6
CONTINUOUS
10
2.29381
20
-1.78891
11
2.29662
21
-1.78984
0
LINE
8
BLACK
6
CONTINUOUS
10
2.29662
20
-1.78984
11
2.29689
21
-1.79008
0
LINE
8
BLACK
6
CONTINUOUS
10
2.29689
20
-1.79008
11
2.29723
21
-1.79023
0
LINE
8
BLACK
6
CONTINUOUS
10
2.29723
20
-1.79023
11
2.29911
21
-1.7921
0
LINE
8
BLACK
6
CONTINUOUS
10
2.29911
20
-1.7921
11
2.29921
21
-1.79234
0
LINE
8
BLACK
6
CONTINUOUS
10
2.29921
20
-1.79234
11
2.2994
21
-1.79251
0
LINE
8
BLACK
6
CONTINUOUS
10
2.2994
20
-1.79251
11
2.30034
21
-1.79438
0
LINE
8
BLACK
6
CONTINUOUS
10
2.30034
20
-1.79438
11
2.30035
21
-1.79456
0
LINE
8
BLACK
6
CONTINUOUS
10
2.30035
20
-1.79456
11
2.30046
21
-1.79471
0
LINE
8
BLACK
6
CONTINUOUS
10
2.30046
20
-1.79471
11
2.3014
21
-1.79846
0
LINE
8
BLACK
6
CONTINUOUS
10
2.3014
20
-1.79846
11
2.30137
21
-1.79865
0
LINE
8
BLACK
6
CONTINUOUS
10
2.30137
20
-1.79865
11
2.30144
21
-1.79884
0
LINE
8
BLACK
6
CONTINUOUS
10
2.30144
20
-1.79884
11
2.30144
21
-1.80165
0
LINE
8
BLACK
6
CONTINUOUS
10
2.30144
20
-1.80165
11
2.30137
21
-1.80183
0
LINE
8
BLACK
6
CONTINUOUS
10
2.30137
20
-1.80183
11
2.3014
21
-1.80203
0
LINE
8
BLACK
6
CONTINUOUS
10
2.3014
20
-1.80203
11
2.30046
21
-1.80578
0
LINE
8
BLACK
6
CONTINUOUS
10
2.30046
20
-1.80578
11
2.30035
21
-1.80593
0
LINE
8
BLACK
6
CONTINUOUS
10
2.30035
20
-1.80593
11
2.30034
21
-1.8061
0
LINE
8
BLACK
6
CONTINUOUS
10
2.30034
20
-1.8061
11
2.2994
21
-1.80798
0
LINE
8
BLACK
6
CONTINUOUS
10
2.2994
20
-1.80798
11
2.29921
21
-1.80815
0
LINE
8
BLACK
6
CONTINUOUS
10
2.29921
20
-1.80815
11
2.29911
21
-1.80839
0
LINE
8
BLACK
6
CONTINUOUS
10
2.29911
20
-1.80839
11
2.29723
21
-1.81026
0
LINE
8
BLACK
6
CONTINUOUS
10
2.29723
20
-1.81026
11
2.29689
21
-1.8104
0
LINE
8
BLACK
6
CONTINUOUS
10
2.29689
20
-1.8104
11
2.29662
21
-1.81064
0
LINE
8
BLACK
6
CONTINUOUS
10
2.29662
20
-1.81064
11
2.29381
21
-1.81158
0
LINE
8
BLACK
6
CONTINUOUS
10
2.29381
20
-1.81158
11
2.29355
21
-1.81156
0
LINE
8
BLACK
6
CONTINUOUS
10
2.29355
20
-1.81156
11
2.29331
21
-1.81166
0
LINE
8
BLACK
6
CONTINUOUS
10
2.29331
20
-1.81166
11
2.28862
21
-1.81166
0
LINE
8
BLACK
6
CONTINUOUS
10
2.28862
20
-1.81166
11
2.28751
21
-1.8112
0
LINE
8
BLACK
6
CONTINUOUS
10
2.28751
20
-1.8112
11
2.28705
21
-1.81009
0
LINE
8
BLACK
6
CONTINUOUS
10
2.28705
20
-1.81009
11
2.28705
21
-1.7904
0
LINE
8
BLACK
6
CONTINUOUS
10
2.28705
20
-1.7904
11
2.28751
21
-1.78929
0
LINE
8
BLACK
6
CONTINUOUS
10
2.28751
20
-1.78929
11
2.28862
21
-1.78883
0
LINE
8
BLACK
6
CONTINUOUS
10
2.28862
20
-1.78883
11
2.29331
21
-1.78883
0
LINE
8
BLACK
6
CONTINUOUS
10
2.29331
20
-1.78883
11
2.29355
21
-1.78893
0
LINE
8
BLACK
6
CONTINUOUS
10
2.29019
20
-1.79198
11
2.29019
21
-1.80851
0
LINE
8
BLACK
6
CONTINUOUS
10
2.29019
20
-1.80851
11
2.29305
21
-1.80851
0
LINE
8
BLACK
6
CONTINUOUS
10
2.29305
20
-1.80851
11
2.29527
21
-1.80777
0
LINE
8
BLACK
6
CONTINUOUS
10
2.29527
20
-1.80777
11
2.2967
21
-1.80634
0
LINE
8
BLACK
6
CONTINUOUS
10
2.2967
20
-1.80634
11
2.29745
21
-1.80485
0
LINE
8
BLACK
6
CONTINUOUS
10
2.29745
20
-1.80485
11
2.29829
21
-1.80146
0
LINE
8
BLACK
6
CONTINUOUS
10
2.29829
20
-1.80146
11
2.29829
21
-1.79903
0
LINE
8
BLACK
6
CONTINUOUS
10
2.29829
20
-1.79903
11
2.29745
21
-1.79564
0
LINE
8
BLACK
6
CONTINUOUS
10
2.29745
20
-1.79564
11
2.2967
21
-1.79415
0
LINE
8
BLACK
6
CONTINUOUS
10
2.2967
20
-1.79415
11
2.29527
21
-1.79272
0
LINE
8
BLACK
6
CONTINUOUS
10
2.29527
20
-1.79272
11
2.29305
21
-1.79198
0
LINE
8
BLACK
6
CONTINUOUS
10
2.29305
20
-1.79198
11
2.29019
21
-1.79198
0
LINE
8
BLACK
6
CONTINUOUS
10
2.30625
20
-1.8112
11
2.30579
21
-1.81009
0
LINE
8
BLACK
6
CONTINUOUS
10
2.30579
20
-1.81009
11
2.30625
21
-1.80897
0
LINE
8
BLACK
6
CONTINUOUS
10
2.30625
20
-1.80897
11
2.30737
21
-1.80851
0
LINE
8
BLACK
6
CONTINUOUS
10
2.30737
20
-1.80851
11
2.31142
21
-1.80851
0
LINE
8
BLACK
6
CONTINUOUS
10
2.31142
20
-1.80851
11
2.31142
21
-1.79514
0
LINE
8
BLACK
6
CONTINUOUS
10
2.31142
20
-1.79514
11
2.31036
21
-1.7962
0
LINE
8
BLACK
6
CONTINUOUS
10
2.31036
20
-1.7962
11
2.31012
21
-1.7963
0
LINE
8
BLACK
6
CONTINUOUS
10
2.31012
20
-1.7963
11
2.30995
21
-1.7965
0
LINE
8
BLACK
6
CONTINUOUS
10
2.30995
20
-1.7965
11
2.30807
21
-1.79743
0
LINE
8
BLACK
6
CONTINUOUS
10
2.30807
20
-1.79743
11
2.30687
21
-1.79752
0
LINE
8
BLACK
6
CONTINUOUS
10
2.30687
20
-1.79752
11
2.30596
21
-1.79673
0
LINE
8
BLACK
6
CONTINUOUS
10
2.30596
20
-1.79673
11
2.30587
21
-1.79553
0
LINE
8
BLACK
6
CONTINUOUS
10
2.30587
20
-1.79553
11
2.30666
21
-1.79462
0
LINE
8
BLACK
6
CONTINUOUS
10
2.30666
20
-1.79462
11
2.30831
21
-1.79379
0
LINE
8
BLACK
6
CONTINUOUS
10
2.30831
20
-1.79379
11
2.30989
21
-1.79221
0
LINE
8
BLACK
6
CONTINUOUS
10
2.30989
20
-1.79221
11
2.31168
21
-1.78953
0
LINE
8
BLACK
6
CONTINUOUS
10
2.31168
20
-1.78953
11
2.31182
21
-1.78944
0
LINE
8
BLACK
6
CONTINUOUS
10
2.31182
20
-1.78944
11
2.31188
21
-1.78929
0
LINE
8
BLACK
6
CONTINUOUS
10
2.31188
20
-1.78929
11
2.3123
21
-1.78911
0
LINE
8
BLACK
6
CONTINUOUS
10
2.3123
20
-1.78911
11
2.31268
21
-1.78886
0
LINE
8
BLACK
6
CONTINUOUS
10
2.31268
20
-1.78886
11
2.31284
21
-1.78889
0
LINE
8
BLACK
6
CONTINUOUS
10
2.31284
20
-1.78889
11
2.31299
21
-1.78883
0
LINE
8
BLACK
6
CONTINUOUS
10
2.31299
20
-1.78883
11
2.31342
21
-1.789
0
LINE
8
BLACK
6
CONTINUOUS
10
2.31342
20
-1.789
11
2.31387
21
-1.78909
0
LINE
8
BLACK
6
CONTINUOUS
10
2.31387
20
-1.78909
11
2.31396
21
-1.78923
0
LINE
8
BLACK
6
CONTINUOUS
10
2.31396
20
-1.78923
11
2.31411
21
-1.78929
0
LINE
8
BLACK
6
CONTINUOUS
10
2.31411
20
-1.78929
11
2.31428
21
-1.78971
0
LINE
8
BLACK
6
CONTINUOUS
10
2.31428
20
-1.78971
11
2.31454
21
-1.79009
0
LINE
8
BLACK
6
CONTINUOUS
10
2.31454
20
-1.79009
11
2.3145
21
-1.79025
0
LINE
8
BLACK
6
CONTINUOUS
10
2.3145
20
-1.79025
11
2.31457
21
-1.7904
0
LINE
8
BLACK
6
CONTINUOUS
10
2.31457
20
-1.7904
11
2.31457
21
-1.80851
0
LINE
8
BLACK
6
CONTINUOUS
10
2.31457
20
-1.80851
11
2.31862
21
-1.80851
0
LINE
8
BLACK
6
CONTINUOUS
10
2.31862
20
-1.80851
11
2.31973
21
-1.80897
0
LINE
8
BLACK
6
CONTINUOUS
10
2.31973
20
-1.80897
11
2.32019
21
-1.81009
0
LINE
8
BLACK
6
CONTINUOUS
10
2.32019
20
-1.81009
11
2.31973
21
-1.8112
0
LINE
8
BLACK
6
CONTINUOUS
10
2.31973
20
-1.8112
11
2.31862
21
-1.81166
0
LINE
8
BLACK
6
CONTINUOUS
10
2.31862
20
-1.81166
11
2.30737
21
-1.81166
0
LINE
8
BLACK
6
CONTINUOUS
10
2.30737
20
-1.81166
11
2.30625
21
-1.8112
0
LINE
8
BLACK
6
CONTINUOUS
10
1.77796
20
-1.77448
11
1.77802
21
-1.77448
0
LINE
8
BLACK
6
CONTINUOUS
10
1.77802
20
-1.77448
11
1.78365
21
-1.77635
0
LINE
8
BLACK
6
CONTINUOUS
10
1.78365
20
-1.77635
11
1.78455
21
-1.77684
0
LINE
8
BLACK
6
CONTINUOUS
10
1.78455
20
-1.77684
11
1.78464
21
-1.77699
0
LINE
8
BLACK
6
CONTINUOUS
10
1.78464
20
-1.77699
11
1.7848
21
-1.77706
0
LINE
8
BLACK
6
CONTINUOUS
10
1.7848
20
-1.77706
11
1.80226
21
-1.79452
0
LINE
8
BLACK
6
CONTINUOUS
10
1.80226
20
-1.79452
11
1.80226
21
-1.77728
0
LINE
8
BLACK
6
CONTINUOUS
10
1.80226
20
-1.77728
11
1.80244
21
-1.77627
0
LINE
8
BLACK
6
CONTINUOUS
10
1.80244
20
-1.77627
11
1.80374
21
-1.77472
0
LINE
8
BLACK
6
CONTINUOUS
10
1.80374
20
-1.77472
11
1.80572
21
-1.77437
0
LINE
8
BLACK
6
CONTINUOUS
10
1.80572
20
-1.77437
11
1.80747
21
-1.77538
0
LINE
8
BLACK
6
CONTINUOUS
10
1.80747
20
-1.77538
11
1.80816
21
-1.77728
0
LINE
8
BLACK
6
CONTINUOUS
10
1.80816
20
-1.77728
11
1.80816
21
-1.80165
0
LINE
8
BLACK
6
CONTINUOUS
10
1.80816
20
-1.80165
11
1.80805
21
-1.80228
0
LINE
8
BLACK
6
CONTINUOUS
10
1.80805
20
-1.80228
11
1.80806
21
-1.80241
0
LINE
8
BLACK
6
CONTINUOUS
10
1.80806
20
-1.80241
11
1.80802
21
-1.80248
0
LINE
8
BLACK
6
CONTINUOUS
10
1.80802
20
-1.80248
11
1.80799
21
-1.80266
0
LINE
8
BLACK
6
CONTINUOUS
10
1.80799
20
-1.80266
11
1.80742
21
-1.80334
0
LINE
8
BLACK
6
CONTINUOUS
10
1.80742
20
-1.80334
11
1.80691
21
-1.80407
0
LINE
8
BLACK
6
CONTINUOUS
10
1.80691
20
-1.80407
11
1.80678
21
-1.8041
0
LINE
8
BLACK
6
CONTINUOUS
10
1.80678
20
-1.8041
11
1.80669
21
-1.80421
0
LINE
8
BLACK
6
CONTINUOUS
10
1.80669
20
-1.80421
11
1.80581
21
-1.80436
0
LINE
8
BLACK
6
CONTINUOUS
10
1.80581
20
-1.80436
11
1.80495
21
-1.80459
0
LINE
8
BLACK
6
CONTINUOUS
10
1.80495
20
-1.80459
11
1.80483
21
-1.80453
0
LINE
8
BLACK
6
CONTINUOUS
10
1.80483
20
-1.80453
11
1.8047
21
-1.80456
0
LINE
8
BLACK
6
CONTINUOUS
10
1.8047
20
-1.80456
11
1.80393
21
-1.80411
0
LINE
8
BLACK
6
CONTINUOUS
10
1.80393
20
-1.80411
11
1.80312
21
-1.80374
0
LINE
8
BLACK
6
CONTINUOUS
10
1.80312
20
-1.80374
11
1.78112
21
-1.78173
0
LINE
8
BLACK
6
CONTINUOUS
10
1.78112
20
-1.78173
11
1.77661
21
-1.78023
0
LINE
8
BLACK
6
CONTINUOUS
10
1.77661
20
-1.78023
11
1.77404
21
-1.78023
0
LINE
8
BLACK
6
CONTINUOUS
10
1.77404
20
-1.78023
11
1.77134
21
-1.78158
0
LINE
8
BLACK
6
CONTINUOUS
10
1.77134
20
-1.78158
11
1.77014
21
-1.78278
0
LINE
8
BLACK
6
CONTINUOUS
10
1.77014
20
-1.78278
11
1.76879
21
-1.78547
0
LINE
8
BLACK
6
CONTINUOUS
10
1.76879
20
-1.78547
11
1.76879
21
-1.79345
0
LINE
8
BLACK
6
CONTINUOUS
10
1.76879
20
-1.79345
11
1.77014
21
-1.79615
0
LINE
8
BLACK
6
CONTINUOUS
10
1.77014
20
-1.79615
11
1.77168
21
-1.79769
0
LINE
8
BLACK
6
CONTINUOUS
10
1.77168
20
-1.79769
11
1.77227
21
-1.79853
0
LINE
8
BLACK
6
CONTINUOUS
10
1.77227
20
-1.79853
11
1.77244
21
-1.80054
0
LINE
8
BLACK
6
CONTINUOUS
10
1.77244
20
-1.80054
11
1.77128
21
-1.80219
0
LINE
8
BLACK
6
CONTINUOUS
10
1.77128
20
-1.80219
11
1.76933
21
-1.80272
0
LINE
8
BLACK
6
CONTINUOUS
10
1.76933
20
-1.80272
11
1.7675
21
-1.80186
0
LINE
8
BLACK
6
CONTINUOUS
10
1.7675
20
-1.80186
11
1.76563
21
-1.79999
0
LINE
8
BLACK
6
CONTINUOUS
10
1.76563
20
-1.79999
11
1.76512
21
-1.79927
0
LINE
8
BLACK
6
CONTINUOUS
10
1.76512
20
-1.79927
11
1.76508
21
-1.79922
0
LINE
8
BLACK
6
CONTINUOUS
10
1.76508
20
-1.79922
11
1.7632
21
-1.79547
0
LINE
8
BLACK
6
CONTINUOUS
10
1.7632
20
-1.79547
11
1.76291
21
-1.79449
0
LINE
8
BLACK
6
CONTINUOUS
10
1.76291
20
-1.79449
11
1.76295
21
-1.79432
0
LINE
8
BLACK
6
CONTINUOUS
10
1.76295
20
-1.79432
11
1.76289
21
-1.79415
0
LINE
8
BLACK
6
CONTINUOUS
10
1.76289
20
-1.79415
11
1.76289
21
-1.78478
0
LINE
8
BLACK
6
CONTINUOUS
10
1.76289
20
-1.78478
11
1.76307
21
-1.78377
0
LINE
8
BLACK
6
CONTINUOUS
10
1.76307
20
-1.78377
11
1.76318
21
-1.78363
0
LINE
8
BLACK
6
CONTINUOUS
10
1.76318
20
-1.78363
11
1.7632
21
-1.78346
0
LINE
8
BLACK
6
CONTINUOUS
10
1.7632
20
-1.78346
11
1.76508
21
-1.77971
0
LINE
8
BLACK
6
CONTINUOUS
10
1.76508
20
-1.77971
11
1.7656
21
-1.779
0
LINE
8
BLACK
6
CONTINUOUS
10
1.7656
20
-1.779
11
1.76563
21
-1.77894
0
LINE
8
BLACK
6
CONTINUOUS
10
1.76563
20
-1.77894
11
1.7675
21
-1.77706
0
LINE
8
BLACK
6
CONTINUOUS
10
1.7675
20
-1.77706
11
1.76823
21
-1.77656
0
LINE
8
BLACK
6
CONTINUOUS
10
1.76823
20
-1.77656
11
1.76827
21
-1.77651
0
LINE
8
BLACK
6
CONTINUOUS
10
1.76827
20
-1.77651
11
1.77202
21
-1.77464
0
LINE
8
BLACK
6
CONTINUOUS
10
1.77202
20
-1.77464
11
1.773
21
-1.77434
0
LINE
8
BLACK
6
CONTINUOUS
10
1.773
20
-1.77434
11
1.77317
21
-1.77439
0
LINE
8
BLACK
6
CONTINUOUS
10
1.77317
20
-1.77439
11
1.77334
21
-1.77433
0
LINE
8
BLACK
6
CONTINUOUS
10
1.77334
20
-1.77433
11
1.77709
21
-1.77433
0
LINE
8
BLACK
6
CONTINUOUS
10
1.77709
20
-1.77433
11
1.77796
21
-1.77448
0
LINE
8
BLACK
6
CONTINUOUS
10
2.31072
20
-1.71189
11
2.31227
21
-1.71318
0
LINE
8
BLACK
6
CONTINUOUS
10
2.31227
20
-1.71318
11
2.31262
21
-1.71517
0
LINE
8
BLACK
6
CONTINUOUS
10
2.31262
20
-1.71517
11
2.31161
21
-1.71692
0
LINE
8
BLACK
6
CONTINUOUS
10
2.31161
20
-1.71692
11
2.30971
21
-1.71761
0
LINE
8
BLACK
6
CONTINUOUS
10
2.30971
20
-1.71761
11
2.29392
21
-1.71761
0
LINE
8
BLACK
6
CONTINUOUS
10
2.29392
20
-1.71761
11
2.29392
21
-1.73046
0
LINE
8
BLACK
6
CONTINUOUS
10
2.29392
20
-1.73046
11
2.30409
21
-1.73046
0
LINE
8
BLACK
6
CONTINUOUS
10
2.30409
20
-1.73046
11
2.3051
21
-1.73063
0
LINE
8
BLACK
6
CONTINUOUS
10
2.3051
20
-1.73063
11
2.30664
21
-1.73193
0
LINE
8
BLACK
6
CONTINUOUS
10
2.30664
20
-1.73193
11
2.30699
21
-1.73392
0
LINE
8
BLACK
6
CONTINUOUS
10
2.30699
20
-1.73392
11
2.30598
21
-1.73567
0
LINE
8
BLACK
6
CONTINUOUS
10
2.30598
20
-1.73567
11
2.30409
21
-1.73636
0
LINE
8
BLACK
6
CONTINUOUS
10
2.30409
20
-1.73636
11
2.29392
21
-1.73636
0
LINE
8
BLACK
6
CONTINUOUS
10
2.29392
20
-1.73636
11
2.29392
21
-1.75108
0
LINE
8
BLACK
6
CONTINUOUS
10
2.29392
20
-1.75108
11
2.30971
21
-1.75108
0
LINE
8
BLACK
6
CONTINUOUS
10
2.30971
20
-1.75108
11
2.31072
21
-1.75126
0
LINE
8
BLACK
6
CONTINUOUS
10
2.31072
20
-1.75126
11
2.31227
21
-1.75255
0
LINE
8
BLACK
6
CONTINUOUS
10
2.31227
20
-1.75255
11
2.31262
21
-1.75454
0
LINE
8
BLACK
6
CONTINUOUS
10
2.31262
20
-1.75454
11
2.31161
21
-1.75629
0
LINE
8
BLACK
6
CONTINUOUS
10
2.31161
20
-1.75629
11
2.30971
21
-1.75698
0
LINE
8
BLACK
6
CONTINUOUS
10
2.30971
20
-1.75698
11
2.29096
21
-1.75698
0
LINE
8
BLACK
6
CONTINUOUS
10
2.29096
20
-1.75698
11
2.29058
21
-1.75692
0
LINE
8
BLACK
6
CONTINUOUS
10
2.29058
20
-1.75692
11
2.29045
21
-1.75694
0
LINE
8
BLACK
6
CONTINUOUS
10
2.29045
20
-1.75694
11
2.29034
21
-1.75687
0
LINE
8
BLACK
6
CONTINUOUS
10
2.29034
20
-1.75687
11
2.28995
21
-1.75681
0
LINE
8
BLACK
6
CONTINUOUS
10
2.28995
20
-1.75681
11
2.28937
21
-1.75631
0
LINE
8
BLACK
6
CONTINUOUS
10
2.28937
20
-1.75631
11
2.2887
21
-1.75593
0
LINE
8
BLACK
6
CONTINUOUS
10
2.2887
20
-1.75593
11
2.28861
21
-1.75568
0
LINE
8
BLACK
6
CONTINUOUS
10
2.28861
20
-1.75568
11
2.28841
21
-1.75551
0
LINE
8
BLACK
6
CONTINUOUS
10
2.28841
20
-1.75551
11
2.28827
21
-1.75475
0
LINE
8
BLACK
6
CONTINUOUS
10
2.28827
20
-1.75475
11
2.28801
21
-1.75403
0
LINE
8
BLACK
6
CONTINUOUS
10
2.28801
20
-1.75403
11
2.28801
21
-1.71466
0
LINE
8
BLACK
6
CONTINUOUS
10
2.28801
20
-1.71466
11
2.28808
21
-1.71428
0
LINE
8
BLACK
6
CONTINUOUS
10
2.28808
20
-1.71428
11
2.28806
21
-1.71415
0
LINE
8
BLACK
6
CONTINUOUS
10
2.28806
20
-1.71415
11
2.28812
21
-1.71403
0
LINE
8
BLACK
6
CONTINUOUS
10
2.28812
20
-1.71403
11
2.28819
21
-1.71365
0
LINE
8
BLACK
6
CONTINUOUS
10
2.28819
20
-1.71365
11
2.28868
21
-1.71306
0
LINE
8
BLACK
6
CONTINUOUS
10
2.28868
20
-1.71306
11
2.28907
21
-1.7124
0
LINE
8
BLACK
6
CONTINUOUS
10
2.28907
20
-1.7124
11
2.28932
21
-1.71231
0
LINE
8
BLACK
6
CONTINUOUS
10
2.28932
20
-1.71231
11
2.28949
21
-1.7121
0
LINE
8
BLACK
6
CONTINUOUS
10
2.28949
20
-1.7121
11
2.29024
21
-1.71197
0
LINE
8
BLACK
6
CONTINUOUS
10
2.29024
20
-1.71197
11
2.29096
21
-1.71171
0
LINE
8
BLACK
6
CONTINUOUS
10
2.29096
20
-1.71171
11
2.30971
21
-1.71171
0
LINE
8
BLACK
6
CONTINUOUS
10
2.30971
20
-1.71171
11
2.31072
21
-1.71189
0
LINE
8
BLACK
6
CONTINUOUS
10
2.26135
20
-1.71276
11
2.26205
21
-1.71466
0
LINE
8
BLACK
6
CONTINUOUS
10
2.26205
20
-1.71466
11
2.26205
21
-1.75108
0
LINE
8
BLACK
6
CONTINUOUS
10
2.26205
20
-1.75108
11
2.27784
21
-1.75108
0
LINE
8
BLACK
6
CONTINUOUS
10
2.27784
20
-1.75108
11
2.27885
21
-1.75126
0
LINE
8
BLACK
6
CONTINUOUS
10
2.27885
20
-1.75126
11
2.2804
21
-1.75255
0
LINE
8
BLACK
6
CONTINUOUS
10
2.2804
20
-1.75255
11
2.28075
21
-1.75454
0
LINE
8
BLACK
6
CONTINUOUS
10
2.28075
20
-1.75454
11
2.27974
21
-1.75629
0
LINE
8
BLACK
6
CONTINUOUS
10
2.27974
20
-1.75629
11
2.27784
21
-1.75698
0
LINE
8
BLACK
6
CONTINUOUS
10
2.27784
20
-1.75698
11
2.25909
21
-1.75698
0
LINE
8
BLACK
6
CONTINUOUS
10
2.25909
20
-1.75698
11
2.25871
21
-1.75692
0
LINE
8
BLACK
6
CONTINUOUS
10
2.25871
20
-1.75692
11
2.25858
21
-1.75694
0
LINE
8
BLACK
6
CONTINUOUS
10
2.25858
20
-1.75694
11
2.25847
21
-1.75687
0
LINE
8
BLACK
6
CONTINUOUS
10
2.25847
20
-1.75687
11
2.25808
21
-1.75681
0
LINE
8
BLACK
6
CONTINUOUS
10
2.25808
20
-1.75681
11
2.2575
21
-1.75631
0
LINE
8
BLACK
6
CONTINUOUS
10
2.2575
20
-1.75631
11
2.25683
21
-1.75593
0
LINE
8
BLACK
6
CONTINUOUS
10
2.25683
20
-1.75593
11
2.25674
21
-1.75568
0
LINE
8
BLACK
6
CONTINUOUS
10
2.25674
20
-1.75568
11
2.25654
21
-1.75551
0
LINE
8
BLACK
6
CONTINUOUS
10
2.25654
20
-1.75551
11
2.2564
21
-1.75475
0
LINE
8
BLACK
6
CONTINUOUS
10
2.2564
20
-1.75475
11
2.25614
21
-1.75403
0
LINE
8
BLACK
6
CONTINUOUS
10
2.25614
20
-1.75403
11
2.25614
21
-1.71466
0
LINE
8
BLACK
6
CONTINUOUS
10
2.25614
20
-1.71466
11
2.25632
21
-1.71365
0
LINE
8
BLACK
6
CONTINUOUS
10
2.25632
20
-1.71365
11
2.25762
21
-1.7121
0
LINE
8
BLACK
6
CONTINUOUS
10
2.25762
20
-1.7121
11
2.25961
21
-1.71175
0
LINE
8
BLACK
6
CONTINUOUS
10
2.25961
20
-1.71175
11
2.26135
21
-1.71276
0
LINE
8
BLACK
6
CONTINUOUS
10
2.33683
20
-1.71186
11
2.33689
21
-1.71186
0
LINE
8
BLACK
6
CONTINUOUS
10
2.33689
20
-1.71186
11
2.34252
21
-1.71373
0
LINE
8
BLACK
6
CONTINUOUS
10
2.34252
20
-1.71373
11
2.34342
21
-1.71422
0
LINE
8
BLACK
6
CONTINUOUS
10
2.34342
20
-1.71422
11
2.34351
21
-1.71437
0
LINE
8
BLACK
6
CONTINUOUS
10
2.34351
20
-1.71437
11
2.34367
21
-1.71445
0
LINE
8
BLACK
6
CONTINUOUS
10
2.34367
20
-1.71445
11
2.34742
21
-1.7182
0
LINE
8
BLACK
6
CONTINUOUS
10
2.34742
20
-1.7182
11
2.34793
21
-1.71892
0
LINE
8
BLACK
6
CONTINUOUS
10
2.34793
20
-1.71892
11
2.34797
21
-1.71896
0
LINE
8
BLACK
6
CONTINUOUS
10
2.34797
20
-1.71896
11
2.34985
21
-1.72271
0
LINE
8
BLACK
6
CONTINUOUS
10
2.34985
20
-1.72271
11
2.34999
21
-1.7232
0
LINE
8
BLACK
6
CONTINUOUS
10
2.34999
20
-1.7232
11
2.35007
21
-1.72332
0
LINE
8
BLACK
6
CONTINUOUS
10
2.35007
20
-1.72332
11
2.35195
21
-1.73082
0
LINE
8
BLACK
6
CONTINUOUS
10
2.35195
20
-1.73082
11
2.35199
21
-1.73141
0
LINE
8
BLACK
6
CONTINUOUS
10
2.35199
20
-1.73141
11
2.35203
21
-1.73153
0
LINE
8
BLACK
6
CONTINUOUS
10
2.35203
20
-1.73153
11
2.35203
21
-1.73716
0
LINE
8
BLACK
6
CONTINUOUS
10
2.35203
20
-1.73716
11
2.35193
21
-1.73774
0
LINE
8
BLACK
6
CONTINUOUS
10
2.35193
20
-1.73774
11
2.35195
21
-1.73787
0
LINE
8
BLACK
6
CONTINUOUS
10
2.35195
20
-1.73787
11
2.35007
21
-1.74537
0
LINE
8
BLACK
6
CONTINUOUS
10
2.35007
20
-1.74537
11
2.34986
21
-1.74584
0
LINE
8
BLACK
6
CONTINUOUS
10
2.34986
20
-1.74584
11
2.34985
21
-1.74598
0
LINE
8
BLACK
6
CONTINUOUS
10
2.34985
20
-1.74598
11
2.34797
21
-1.74973
0
LINE
8
BLACK
6
CONTINUOUS
10
2.34797
20
-1.74973
11
2.34745
21
-1.75044
0
LINE
8
BLACK
6
CONTINUOUS
10
2.34745
20
-1.75044
11
2.34742
21
-1.75049
0
LINE
8
BLACK
6
CONTINUOUS
10
2.34742
20
-1.75049
11
2.34367
21
-1.75424
0
LINE
8
BLACK
6
CONTINUOUS
10
2.34367
20
-1.75424
11
2.34283
21
-1.75483
0
LINE
8
BLACK
6
CONTINUOUS
10
2.34283
20
-1.75483
11
2.34265
21
-1.75485
0
LINE
8
BLACK
6
CONTINUOUS
10
2.34265
20
-1.75485
11
2.34252
21
-1.75496
0
LINE
8
BLACK
6
CONTINUOUS
10
2.34252
20
-1.75496
11
2.33689
21
-1.75683
0
LINE
8
BLACK
6
CONTINUOUS
10
2.33689
20
-1.75683
11
2.33602
21
-1.75696
0
LINE
8
BLACK
6
CONTINUOUS
10
2.33602
20
-1.75696
11
2.33596
21
-1.75698
0
LINE
8
BLACK
6
CONTINUOUS
10
2.33596
20
-1.75698
11
2.32658
21
-1.75698
0
LINE
8
BLACK
6
CONTINUOUS
10
2.32658
20
-1.75698
11
2.3262
21
-1.75692
0
LINE
8
BLACK
6
CONTINUOUS
10
2.3262
20
-1.75692
11
2.32607
21
-1.75694
0
LINE
8
BLACK
6
CONTINUOUS
10
2.32607
20
-1.75694
11
2.32596
21
-1.75687
0
LINE
8
BLACK
6
CONTINUOUS
10
2.32596
20
-1.75687
11
2.32557
21
-1.75681
0
LINE
8
BLACK
6
CONTINUOUS
10
2.32557
20
-1.75681
11
2.32499
21
-1.75631
0
LINE
8
BLACK
6
CONTINUOUS
10
2.32499
20
-1.75631
11
2.32432
21
-1.75593
0
LINE
8
BLACK
6
CONTINUOUS
10
2.32432
20
-1.75593
11
2.32423
21
-1.75568
0
LINE
8
BLACK
6
CONTINUOUS
10
2.32423
20
-1.75568
11
2.32403
21
-1.75551
0
LINE
8
BLACK
6
CONTINUOUS
10
2.32403
20
-1.75551
11
2.32389
21
-1.75475
0
LINE
8
BLACK
6
CONTINUOUS
10
2.32389
20
-1.75475
11
2.32363
21
-1.75403
0
LINE
8
BLACK
6
CONTINUOUS
10
2.32363
20
-1.75403
11
2.32363
21
-1.71466
0
LINE
8
BLACK
6
CONTINUOUS
10
2.32363
20
-1.71466
11
2.3237
21
-1.71428
0
LINE
8
BLACK
6
CONTINUOUS
10
2.3237
20
-1.71428
11
2.32368
21
-1.71415
0
LINE
8
BLACK
6
CONTINUOUS
10
2.32368
20
-1.71415
11
2.32374
21
-1.71403
0
LINE
8
BLACK
6
CONTINUOUS
10
2.32374
20
-1.71403
11
2.32381
21
-1.71365
0
LINE
8
BLACK
6
CONTINUOUS
10
2.32381
20
-1.71365
11
2.3243
21
-1.71306
0
LINE
8
BLACK
6
CONTINUOUS
10
2.3243
20
-1.71306
11
2.32469
21
-1.7124
0
LINE
8
BLACK
6
CONTINUOUS
10
2.32469
20
-1.7124
11
2.32494
21
-1.71231
0
LINE
8
BLACK
6
CONTINUOUS
10
2.32494
20
-1.71231
11
2.32511
21
-1.7121
0
LINE
8
BLACK
6
CONTINUOUS
10
2.32511
20
-1.7121
11
2.32586
21
-1.71197
0
LINE
8
BLACK
6
CONTINUOUS
10
2.32586
20
-1.71197
11
2.32658
21
-1.71171
0
LINE
8
BLACK
6
CONTINUOUS
10
2.32658
20
-1.71171
11
2.33596
21
-1.71171
0
LINE
8
BLACK
6
CONTINUOUS
10
2.33596
20
-1.71171
11
2.33683
21
-1.71186
0
LINE
8
BLACK
6
CONTINUOUS
10
2.32954
20
-1.71761
11
2.32954
21
-1.75108
0
LINE
8
BLACK
6
CONTINUOUS
10
2.32954
20
-1.75108
11
2.33548
21
-1.75108
0
LINE
8
BLACK
6
CONTINUOUS
10
2.33548
20
-1.75108
11
2.33999
21
-1.74958
0
LINE
8
BLACK
6
CONTINUOUS
10
2.33999
20
-1.74958
11
2.34291
21
-1.74666
0
LINE
8
BLACK
6
CONTINUOUS
10
2.34291
20
-1.74666
11
2.34442
21
-1.74363
0
LINE
8
BLACK
6
CONTINUOUS
10
2.34442
20
-1.74363
11
2.34613
21
-1.73679
0
LINE
8
BLACK
6
CONTINUOUS
10
2.34613
20
-1.73679
11
2.34613
21
-1.7319
0
LINE
8
BLACK
6
CONTINUOUS
10
2.34613
20
-1.7319
11
2.34442
21
-1.72507
0
LINE
8
BLACK
6
CONTINUOUS
10
2.34442
20
-1.72507
11
2.34291
21
-1.72203
0
LINE
8
BLACK
6
CONTINUOUS
10
2.34291
20
-1.72203
11
2.33999
21
-1.71912
0
LINE
8
BLACK
6
CONTINUOUS
10
2.33999
20
-1.71912
11
2.33548
21
-1.71761
0
LINE
8
BLACK
6
CONTINUOUS
10
2.33548
20
-1.71761
11
2.32954
21
-1.71761
  0
ENDSEC
  0
EOF
