  0
SECTION
  2
HEADER
  9
$ANGBASE
  50
0.0
  9
$ANGDIR
  70
1
  9
$MEASUREMENT
  70
0
  0
ENDSEC
  0
SECTION
  2
TABLES
  0
TABLE
  2
LTYPE
  70
4
  0
LTYPE
  5
40F
  2
CONTINUOUS
  70
0
  3
Solid line
  72
65
  73
0
  40
0.0
  0
LTYPE
  5
410
  2
DASHDOT
 70
0
  3
Dash Dot ____ _ ____ _
 72
65
 73
4
 40
2.0
 49
1.25
 49
-0.25
 49
0.25
 49
-0.25
  0
LTYPE
  5
411
  2
DASHED
 70
0
  3
Dashed __ __ __ __ __
 72
65
 73
2
 40
0.75
 49
0.5
 49
-0.25
  0
LTYPE
  5
43B
  2
DOTTED
 70
0
  3
Dotted .  .  .  .
 72
65
 73
2
 40
0.2
 49
0.0
 49
-0.2
  0
ENDTAB
  0
TABLE
  2
STYLE
  70
4
  0
STYLE
  2
KICAD
  70
0
  40
0
  41
1
  42
1
  50
0
  71
0
  3
isocp.shx
  0
STYLE
  2
KICADB
  70
0
  40
0
  41
1
  42
1
  50
0
  71
0
  3
isocp.shx
  0
STYLE
  2
KICADI
  70
0
  40
0
  41
1
  42
1
  50
15
  71
0
  3
isocp.shx
  0
STYLE
  2
KICADBI
  70
0
  40
0
  41
1
  42
1
  50
15
  71
0
  3
isocp.shx
  0
ENDTAB
  0
TABLE
  2
LAYER
  70
1
  0
LAYER
  2
BLACK
  70
0
  62
7
  6
CONTINUOUS
  0
ENDTAB
  0
ENDSEC
  0
SECTION
  2
ENTITIES
0
LINE
8
BLACK
6
CONTINUOUS
10
1.82199
20
-1.75458
11
1.8241
21
-1.75275
0
LINE
8
BLACK
6
CONTINUOUS
10
1.8241
20
-1.75275
11
1.82616
21
-1.7523
0
LINE
8
BLACK
6
CONTINUOUS
10
1.82616
20
-1.7523
11
2.40612
21
-1.7523
0
LINE
8
BLACK
6
CONTINUOUS
10
2.40612
20
-1.7523
11
2.4088
21
-1.75309
0
LINE
8
BLACK
6
CONTINUOUS
10
2.4088
20
-1.75309
11
2.41063
21
-1.7552
0
LINE
8
BLACK
6
CONTINUOUS
10
2.41063
20
-1.7552
11
2.41108
21
-1.75726
0
LINE
8
BLACK
6
CONTINUOUS
10
2.41108
20
-1.75726
11
2.41108
21
-2.13053
0
LINE
8
BLACK
6
CONTINUOUS
10
2.41108
20
-2.13053
11
2.4103
21
-2.13321
0
LINE
8
BLACK
6
CONTINUOUS
10
2.4103
20
-2.13321
11
2.40818
21
-2.13504
0
LINE
8
BLACK
6
CONTINUOUS
10
2.40818
20
-2.13504
11
2.40612
21
-2.13549
0
LINE
8
BLACK
6
CONTINUOUS
10
2.40612
20
-2.13549
11
1.82616
21
-2.13549
0
LINE
8
BLACK
6
CONTINUOUS
10
1.82616
20
-2.13549
11
1.82348
21
-2.1347
0
LINE
8
BLACK
6
CONTINUOUS
10
1.82348
20
-2.1347
11
1.82165
21
-2.13259
0
LINE
8
BLACK
6
CONTINUOUS
10
1.82165
20
-2.13259
11
1.8212
21
-2.13053
0
LINE
8
BLACK
6
CONTINUOUS
10
1.8212
20
-2.13053
11
1.8212
21
-1.75726
0
LINE
8
BLACK
6
CONTINUOUS
10
1.8212
20
-1.75726
11
1.82199
21
-1.75458
0
LINE
8
BLACK
6
CONTINUOUS
10
2.05001
20
-2.05129
11
2.05411
21
-2.05094
0
LINE
8
BLACK
6
CONTINUOUS
10
2.05411
20
-2.05094
11
2.05452
21
-2.05087
0
LINE
8
BLACK
6
CONTINUOUS
10
2.05452
20
-2.05087
11
2.0629
21
-2.0487
0
LINE
8
BLACK
6
CONTINUOUS
10
2.0629
20
-2.0487
11
2.06329
21
-2.04856
0
LINE
8
BLACK
6
CONTINUOUS
10
2.06329
20
-2.04856
11
2.07118
21
-2.045
0
LINE
8
BLACK
6
CONTINUOUS
10
2.07118
20
-2.045
11
2.07155
21
-2.0448
0
LINE
8
BLACK
6
CONTINUOUS
10
2.07155
20
-2.0448
11
2.07872
21
-2.03997
0
LINE
8
BLACK
6
CONTINUOUS
10
2.07872
20
-2.03997
11
2.07905
21
-2.0397
0
LINE
8
BLACK
6
CONTINUOUS
10
2.07905
20
-2.0397
11
2.08531
21
-2.03373
0
LINE
8
BLACK
6
CONTINUOUS
10
2.08531
20
-2.03373
11
2.08559
21
-2.03342
0
LINE
8
BLACK
6
CONTINUOUS
10
2.08559
20
-2.03342
11
2.09075
21
-2.02648
0
LINE
8
BLACK
6
CONTINUOUS
10
2.09075
20
-2.02648
11
2.09097
21
-2.02612
0
LINE
8
BLACK
6
CONTINUOUS
10
2.09097
20
-2.02612
11
2.0949
21
-2.01841
0
LINE
8
BLACK
6
CONTINUOUS
10
2.0949
20
-2.01841
11
2.09505
21
-2.01802
0
LINE
8
BLACK
6
CONTINUOUS
10
2.09505
20
-2.01802
11
2.09762
21
-2.00975
0
LINE
8
BLACK
6
CONTINUOUS
10
2.09762
20
-2.00975
11
2.09771
21
-2.00935
0
LINE
8
BLACK
6
CONTINUOUS
10
2.09771
20
-2.00935
11
2.09779
21
-2.00874
0
LINE
8
BLACK
6
CONTINUOUS
10
2.09779
20
-2.00874
11
2.0977
21
-2.00818
0
LINE
8
BLACK
6
CONTINUOUS
10
2.0977
20
-2.00818
11
2.09718
21
-2.00803
0
LINE
8
BLACK
6
CONTINUOUS
10
2.09718
20
-2.00803
11
2.07711
21
-2.00803
0
LINE
8
BLACK
6
CONTINUOUS
10
2.07711
20
-2.00803
11
2.07482
21
-2.01374
0
LINE
8
BLACK
6
CONTINUOUS
10
2.07482
20
-2.01374
11
2.07076
21
-2.01972
0
LINE
8
BLACK
6
CONTINUOUS
10
2.07076
20
-2.01972
11
2.06551
21
-2.02469
0
LINE
8
BLACK
6
CONTINUOUS
10
2.06551
20
-2.02469
11
2.05931
21
-2.02841
0
LINE
8
BLACK
6
CONTINUOUS
10
2.05931
20
-2.02841
11
2.05246
21
-2.03072
0
LINE
8
BLACK
6
CONTINUOUS
10
2.05246
20
-2.03072
11
2.04937
21
-2.03105
0
LINE
8
BLACK
6
CONTINUOUS
10
2.04937
20
-2.03105
11
2.04937
21
-2.05063
0
LINE
8
BLACK
6
CONTINUOUS
10
2.04937
20
-2.05063
11
2.04954
21
-2.05121
0
LINE
8
BLACK
6
CONTINUOUS
10
2.04954
20
-2.05121
11
2.05001
21
-2.05129
0
LINE
8
BLACK
6
CONTINUOUS
10
2.02268
20
-2.02971
11
2.01613
21
-2.02666
0
LINE
8
BLACK
6
CONTINUOUS
10
2.01613
20
-2.02666
11
2.01039
21
-2.02227
0
LINE
8
BLACK
6
CONTINUOUS
10
2.01039
20
-2.02227
11
2.00572
21
-2.01674
0
LINE
8
BLACK
6
CONTINUOUS
10
2.00572
20
-2.01674
11
2.00235
21
-2.01035
0
LINE
8
BLACK
6
CONTINUOUS
10
2.00235
20
-2.01035
11
2.00171
21
-2.00803
0
LINE
8
BLACK
6
CONTINUOUS
10
2.00171
20
-2.00803
11
1.98165
21
-2.00803
0
LINE
8
BLACK
6
CONTINUOUS
10
1.98165
20
-2.00803
11
1.98111
21
-2.00819
0
LINE
8
BLACK
6
CONTINUOUS
10
1.98111
20
-2.00819
11
1.98105
21
-2.00861
0
LINE
8
BLACK
6
CONTINUOUS
10
1.98105
20
-2.00861
11
1.98203
21
-2.01324
0
LINE
8
BLACK
6
CONTINUOUS
10
1.98203
20
-2.01324
11
1.98215
21
-2.01365
0
LINE
8
BLACK
6
CONTINUOUS
10
1.98215
20
-2.01365
11
1.98533
21
-2.02169
0
LINE
8
BLACK
6
CONTINUOUS
10
1.98533
20
-2.02169
11
1.98551
21
-2.02207
0
LINE
8
BLACK
6
CONTINUOUS
10
1.98551
20
-2.02207
11
1.99
21
-2.02947
0
LINE
8
BLACK
6
CONTINUOUS
10
1.99
20
-2.02947
11
1.99025
21
-2.02981
0
LINE
8
BLACK
6
CONTINUOUS
10
1.99025
20
-2.02981
11
1.99592
21
-2.03634
0
LINE
8
BLACK
6
CONTINUOUS
10
1.99592
20
-2.03634
11
1.99622
21
-2.03663
0
LINE
8
BLACK
6
CONTINUOUS
10
1.99622
20
-2.03663
11
2.00291
21
-2.04212
0
LINE
8
BLACK
6
CONTINUOUS
10
2.00291
20
-2.04212
11
2.00326
21
-2.04236
0
LINE
8
BLACK
6
CONTINUOUS
10
2.00326
20
-2.04236
11
2.01077
21
-2.04664
0
LINE
8
BLACK
6
CONTINUOUS
10
2.01077
20
-2.04664
11
2.01116
21
-2.04681
0
LINE
8
BLACK
6
CONTINUOUS
10
2.01116
20
-2.04681
11
2.01929
21
-2.04976
0
LINE
8
BLACK
6
CONTINUOUS
10
2.01929
20
-2.04976
11
2.01969
21
-2.04987
0
LINE
8
BLACK
6
CONTINUOUS
10
2.01969
20
-2.04987
11
2.02825
21
-2.05142
0
LINE
8
BLACK
6
CONTINUOUS
10
2.02825
20
-2.05142
11
2.02858
21
-2.05146
0
LINE
8
BLACK
6
CONTINUOUS
10
2.02858
20
-2.05146
11
2.02875
21
-2.05147
0
LINE
8
BLACK
6
CONTINUOUS
10
2.02875
20
-2.05147
11
2.02926
21
-2.05132
0
LINE
8
BLACK
6
CONTINUOUS
10
2.02926
20
-2.05132
11
2.0293
21
-2.05127
0
LINE
8
BLACK
6
CONTINUOUS
10
2.0293
20
-2.05127
11
2.02937
21
-2.05096
0
LINE
8
BLACK
6
CONTINUOUS
10
2.02937
20
-2.05096
11
2.02937
21
-2.03121
0
LINE
8
BLACK
6
CONTINUOUS
10
2.02937
20
-2.03121
11
2.02268
21
-2.02971
0
LINE
8
BLACK
6
CONTINUOUS
10
1.98262
20
-1.93598
11
1.98628
21
-1.9419
0
LINE
8
BLACK
6
CONTINUOUS
10
1.98628
20
-1.9419
11
1.99121
21
-1.94682
0
LINE
8
BLACK
6
CONTINUOUS
10
1.99121
20
-1.94682
11
1.99694
21
-1.95036
0
LINE
8
BLACK
6
CONTINUOUS
10
1.99694
20
-1.95036
11
1.99696
21
-1.95037
0
LINE
8
BLACK
6
CONTINUOUS
10
1.99696
20
-1.95037
11
1.99883
21
-1.95245
0
LINE
8
BLACK
6
CONTINUOUS
10
1.99883
20
-1.95245
11
1.99928
21
-1.9552
0
LINE
8
BLACK
6
CONTINUOUS
10
1.99928
20
-1.9552
11
1.99817
21
-1.95777
0
LINE
8
BLACK
6
CONTINUOUS
10
1.99817
20
-1.95777
11
1.99778
21
-1.95818
0
LINE
8
BLACK
6
CONTINUOUS
10
1.99778
20
-1.95818
11
1.99343
21
-1.96233
0
LINE
8
BLACK
6
CONTINUOUS
10
1.99343
20
-1.96233
11
1.99315
21
-1.96265
0
LINE
8
BLACK
6
CONTINUOUS
10
1.99315
20
-1.96265
11
1.98799
21
-1.96959
0
LINE
8
BLACK
6
CONTINUOUS
10
1.98799
20
-1.96959
11
1.98777
21
-1.96994
0
LINE
8
BLACK
6
CONTINUOUS
10
1.98777
20
-1.96994
11
1.98384
21
-1.97766
0
LINE
8
BLACK
6
CONTINUOUS
10
1.98384
20
-1.97766
11
1.98369
21
-1.97804
0
LINE
8
BLACK
6
CONTINUOUS
10
1.98369
20
-1.97804
11
1.98112
21
-1.98631
0
LINE
8
BLACK
6
CONTINUOUS
10
1.98112
20
-1.98631
11
1.98103
21
-1.98672
0
LINE
8
BLACK
6
CONTINUOUS
10
1.98103
20
-1.98672
11
1.98095
21
-1.98732
0
LINE
8
BLACK
6
CONTINUOUS
10
1.98095
20
-1.98732
11
1.98104
21
-1.98788
0
LINE
8
BLACK
6
CONTINUOUS
10
1.98104
20
-1.98788
11
1.98156
21
-1.98803
0
LINE
8
BLACK
6
CONTINUOUS
10
1.98156
20
-1.98803
11
2.00163
21
-1.98803
0
LINE
8
BLACK
6
CONTINUOUS
10
2.00163
20
-1.98803
11
2.00392
21
-1.98232
0
LINE
8
BLACK
6
CONTINUOUS
10
2.00392
20
-1.98232
11
2.00798
21
-1.97634
0
LINE
8
BLACK
6
CONTINUOUS
10
2.00798
20
-1.97634
11
2.01323
21
-1.97138
0
LINE
8
BLACK
6
CONTINUOUS
10
2.01323
20
-1.97138
11
2.01943
21
-1.96765
0
LINE
8
BLACK
6
CONTINUOUS
10
2.01943
20
-1.96765
11
2.02628
21
-1.96535
0
LINE
8
BLACK
6
CONTINUOUS
10
2.02628
20
-1.96535
11
2.03346
21
-1.96457
0
LINE
8
BLACK
6
CONTINUOUS
10
2.03346
20
-1.96457
11
2.04528
21
-1.96457
0
LINE
8
BLACK
6
CONTINUOUS
10
2.04528
20
-1.96457
11
2.04901
21
-1.96478
0
LINE
8
BLACK
6
CONTINUOUS
10
2.04901
20
-1.96478
11
2.05606
21
-1.96635
0
LINE
8
BLACK
6
CONTINUOUS
10
2.05606
20
-1.96635
11
2.06261
21
-1.96941
0
LINE
8
BLACK
6
CONTINUOUS
10
2.06261
20
-1.96941
11
2.06835
21
-1.9738
0
LINE
8
BLACK
6
CONTINUOUS
10
2.06835
20
-1.9738
11
2.07302
21
-1.97932
0
LINE
8
BLACK
6
CONTINUOUS
10
2.07302
20
-1.97932
11
2.07639
21
-1.98571
0
LINE
8
BLACK
6
CONTINUOUS
10
2.07639
20
-1.98571
11
2.07703
21
-1.98803
0
LINE
8
BLACK
6
CONTINUOUS
10
2.07703
20
-1.98803
11
2.09709
21
-1.98803
0
LINE
8
BLACK
6
CONTINUOUS
10
2.09709
20
-1.98803
11
2.09763
21
-1.98788
0
LINE
8
BLACK
6
CONTINUOUS
10
2.09763
20
-1.98788
11
2.09769
21
-1.98746
0
LINE
8
BLACK
6
CONTINUOUS
10
2.09769
20
-1.98746
11
2.09671
21
-1.98282
0
LINE
8
BLACK
6
CONTINUOUS
10
2.09671
20
-1.98282
11
2.09659
21
-1.98242
0
LINE
8
BLACK
6
CONTINUOUS
10
2.09659
20
-1.98242
11
2.09341
21
-1.97437
0
LINE
8
BLACK
6
CONTINUOUS
10
2.09341
20
-1.97437
11
2.09323
21
-1.97399
0
LINE
8
BLACK
6
CONTINUOUS
10
2.09323
20
-1.97399
11
2.08874
21
-1.9666
0
LINE
8
BLACK
6
CONTINUOUS
10
2.08874
20
-1.9666
11
2.08849
21
-1.96626
0
LINE
8
BLACK
6
CONTINUOUS
10
2.08849
20
-1.96626
11
2.08282
21
-1.95972
0
LINE
8
BLACK
6
CONTINUOUS
10
2.08282
20
-1.95972
11
2.08252
21
-1.95943
0
LINE
8
BLACK
6
CONTINUOUS
10
2.08252
20
-1.95943
11
2.08128
21
-1.95841
0
LINE
8
BLACK
6
CONTINUOUS
10
2.08128
20
-1.95841
11
2.0797
21
-1.9561
0
LINE
8
BLACK
6
CONTINUOUS
10
2.0797
20
-1.9561
11
2.07963
21
-1.95331
0
LINE
8
BLACK
6
CONTINUOUS
10
2.07963
20
-1.95331
11
2.08107
21
-1.95091
0
LINE
8
BLACK
6
CONTINUOUS
10
2.08107
20
-1.95091
11
2.08181
21
-1.95036
0
LINE
8
BLACK
6
CONTINUOUS
10
2.08181
20
-1.95036
11
2.08733
21
-1.94694
0
LINE
8
BLACK
6
CONTINUOUS
10
2.08733
20
-1.94694
11
2.08757
21
-1.94679
0
LINE
8
BLACK
6
CONTINUOUS
10
2.08757
20
-1.94679
11
2.09249
21
-1.94186
0
LINE
8
BLACK
6
CONTINUOUS
10
2.09249
20
-1.94186
11
2.09615
21
-1.93593
0
LINE
8
BLACK
6
CONTINUOUS
10
2.09615
20
-1.93593
11
2.09834
21
-1.92933
0
LINE
8
BLACK
6
CONTINUOUS
10
2.09834
20
-1.92933
11
2.09876
21
-1.92521
0
LINE
8
BLACK
6
CONTINUOUS
10
2.09876
20
-1.92521
11
2.09876
21
-1.874
0
LINE
8
BLACK
6
CONTINUOUS
10
2.09876
20
-1.874
11
2.09833
21
-1.86984
0
LINE
8
BLACK
6
CONTINUOUS
10
2.09833
20
-1.86984
11
2.09612
21
-1.86323
0
LINE
8
BLACK
6
CONTINUOUS
10
2.09612
20
-1.86323
11
2.09246
21
-1.85731
0
LINE
8
BLACK
6
CONTINUOUS
10
2.09246
20
-1.85731
11
2.08753
21
-1.85239
0
LINE
8
BLACK
6
CONTINUOUS
10
2.08753
20
-1.85239
11
2.08729
21
-1.85224
0
LINE
8
BLACK
6
CONTINUOUS
10
2.08729
20
-1.85224
11
2.08185
21
-1.84889
0
LINE
8
BLACK
6
CONTINUOUS
10
2.08185
20
-1.84889
11
2.08185
21
-1.84889
0
LINE
8
BLACK
6
CONTINUOUS
10
2.08185
20
-1.84889
11
2.0816
21
-1.84874
0
LINE
8
BLACK
6
CONTINUOUS
10
2.0816
20
-1.84874
11
2.07529
21
-1.84664
0
LINE
8
BLACK
6
CONTINUOUS
10
2.07529
20
-1.84664
11
2.07525
21
-1.84663
0
LINE
8
BLACK
6
CONTINUOUS
10
2.07525
20
-1.84663
11
2.07525
21
-1.84663
0
LINE
8
BLACK
6
CONTINUOUS
10
2.07525
20
-1.84663
11
2.07499
21
-1.84654
0
LINE
8
BLACK
6
CONTINUOUS
10
2.07499
20
-1.84654
11
2.07473
21
-1.84652
0
LINE
8
BLACK
6
CONTINUOUS
10
2.07473
20
-1.84652
11
2.07473
21
-1.84652
0
LINE
8
BLACK
6
CONTINUOUS
10
2.07473
20
-1.84652
11
2.07303
21
-1.84634
0
LINE
8
BLACK
6
CONTINUOUS
10
2.07303
20
-1.84634
11
2.07088
21
-1.84612
0
LINE
8
BLACK
6
CONTINUOUS
10
2.07088
20
-1.84612
11
2.00786
21
-1.84612
0
LINE
8
BLACK
6
CONTINUOUS
10
2.00786
20
-1.84612
11
2.00773
21
-1.84614
0
LINE
8
BLACK
6
CONTINUOUS
10
2.00773
20
-1.84614
11
2.00773
21
-1.84614
0
LINE
8
BLACK
6
CONTINUOUS
10
2.00773
20
-1.84614
11
2.00396
21
-1.84653
0
LINE
8
BLACK
6
CONTINUOUS
10
2.00396
20
-1.84653
11
2.00396
21
-1.84653
0
LINE
8
BLACK
6
CONTINUOUS
10
2.00396
20
-1.84653
11
2.00369
21
-1.84655
0
LINE
8
BLACK
6
CONTINUOUS
10
2.00369
20
-1.84655
11
2.00344
21
-1.84664
0
LINE
8
BLACK
6
CONTINUOUS
10
2.00344
20
-1.84664
11
2.00344
21
-1.84664
0
LINE
8
BLACK
6
CONTINUOUS
10
2.00344
20
-1.84664
11
1.99824
21
-1.84838
0
LINE
8
BLACK
6
CONTINUOUS
10
1.99824
20
-1.84838
11
1.99709
21
-1.84876
0
LINE
8
BLACK
6
CONTINUOUS
10
1.99709
20
-1.84876
11
1.99117
21
-1.85242
0
LINE
8
BLACK
6
CONTINUOUS
10
1.99117
20
-1.85242
11
1.98625
21
-1.85735
0
LINE
8
BLACK
6
CONTINUOUS
10
1.98625
20
-1.85735
11
1.98259
21
-1.86328
0
LINE
8
BLACK
6
CONTINUOUS
10
1.98259
20
-1.86328
11
1.9804
21
-1.86989
0
LINE
8
BLACK
6
CONTINUOUS
10
1.9804
20
-1.86989
11
1.97998
21
-1.874
0
LINE
8
BLACK
6
CONTINUOUS
10
1.97998
20
-1.874
11
1.97998
21
-1.92521
0
LINE
8
BLACK
6
CONTINUOUS
10
1.97998
20
-1.92521
11
1.98041
21
-1.92938
0
LINE
8
BLACK
6
CONTINUOUS
10
1.98041
20
-1.92938
11
1.98262
21
-1.93598
0
LINE
8
BLACK
6
CONTINUOUS
10
2.07266
20
-1.86689
11
2.07586
21
-1.86902
0
LINE
8
BLACK
6
CONTINUOUS
10
2.07586
20
-1.86902
11
2.07799
21
-1.87222
0
LINE
8
BLACK
6
CONTINUOUS
10
2.07799
20
-1.87222
11
2.07874
21
-1.87598
0
LINE
8
BLACK
6
CONTINUOUS
10
2.07874
20
-1.87598
11
2.07874
21
-1.92323
0
LINE
8
BLACK
6
CONTINUOUS
10
2.07874
20
-1.92323
11
2.07799
21
-1.92699
0
LINE
8
BLACK
6
CONTINUOUS
10
2.07799
20
-1.92699
11
2.07586
21
-1.93019
0
LINE
8
BLACK
6
CONTINUOUS
10
2.07586
20
-1.93019
11
2.07266
21
-1.93232
0
LINE
8
BLACK
6
CONTINUOUS
10
2.07266
20
-1.93232
11
2.0689
21
-1.93307
0
LINE
8
BLACK
6
CONTINUOUS
10
2.0689
20
-1.93307
11
2.00984
21
-1.93307
0
LINE
8
BLACK
6
CONTINUOUS
10
2.00984
20
-1.93307
11
2.00608
21
-1.93232
0
LINE
8
BLACK
6
CONTINUOUS
10
2.00608
20
-1.93232
11
2.00288
21
-1.93019
0
LINE
8
BLACK
6
CONTINUOUS
10
2.00288
20
-1.93019
11
2.00075
21
-1.92699
0
LINE
8
BLACK
6
CONTINUOUS
10
2.00075
20
-1.92699
11
2
21
-1.92323
0
LINE
8
BLACK
6
CONTINUOUS
10
2
20
-1.92323
11
2
21
-1.87598
0
LINE
8
BLACK
6
CONTINUOUS
10
2
20
-1.87598
11
2.00075
21
-1.87222
0
LINE
8
BLACK
6
CONTINUOUS
10
2.00075
20
-1.87222
11
2.00288
21
-1.86902
0
LINE
8
BLACK
6
CONTINUOUS
10
2.00288
20
-1.86902
11
2.00608
21
-1.86689
0
LINE
8
BLACK
6
CONTINUOUS
10
2.00608
20
-1.86689
11
2.00984
21
-1.86614
0
LINE
8
BLACK
6
CONTINUOUS
10
2.00984
20
-1.86614
11
2.0689
21
-1.86614
0
LINE
8
BLACK
6
CONTINUOUS
10
2.0689
20
-1.86614
11
2.07266
21
-1.86689
0
CIRCLE
8
BLACK
10
2.03937
20
-1.89961
40
0.019685
0
CIRCLE
8
BLACK
10
2.03937
20
-1.99803
40
0.019685
  0
ENDSEC
  0
EOF
