  0
SECTION
  2
HEADER
  9
$ANGBASE
  50
0.0
  9
$ANGDIR
  70
1
  9
$MEASUREMENT
  70
0
  0
ENDSEC
  0
SECTION
  2
TABLES
  0
TABLE
  2
LTYPE
  70
4
  0
LTYPE
  5
40F
  2
CONTINUOUS
  70
0
  3
Solid line
  72
65
  73
0
  40
0.0
  0
LTYPE
  5
410
  2
DASHDOT
 70
0
  3
Dash Dot ____ _ ____ _
 72
65
 73
4
 40
2.0
 49
1.25
 49
-0.25
 49
0.25
 49
-0.25
  0
LTYPE
  5
411
  2
DASHED
 70
0
  3
Dashed __ __ __ __ __
 72
65
 73
2
 40
0.75
 49
0.5
 49
-0.25
  0
LTYPE
  5
43B
  2
DOTTED
 70
0
  3
Dotted .  .  .  .
 72
65
 73
2
 40
0.2
 49
0.0
 49
-0.2
  0
ENDTAB
  0
TABLE
  2
STYLE
  70
4
  0
STYLE
  2
KICAD
  70
0
  40
0
  41
1
  42
1
  50
0
  71
0
  3
isocp.shx
  0
STYLE
  2
KICADB
  70
0
  40
0
  41
1
  42
1
  50
0
  71
0
  3
isocp.shx
  0
STYLE
  2
KICADI
  70
0
  40
0
  41
1
  42
1
  50
15
  71
0
  3
isocp.shx
  0
STYLE
  2
KICADBI
  70
0
  40
0
  41
1
  42
1
  50
15
  71
0
  3
isocp.shx
  0
ENDTAB
  0
TABLE
  2
LAYER
  70
1
  0
LAYER
  2
BLACK
  70
0
  62
7
  6
CONTINUOUS
  0
ENDTAB
  0
ENDSEC
  0
SECTION
  2
ENTITIES
0
LINE
8
BLACK
6
CONTINUOUS
10
1.82199
20
-1.75458
11
1.8241
21
-1.75275
0
LINE
8
BLACK
6
CONTINUOUS
10
1.8241
20
-1.75275
11
1.82616
21
-1.7523
0
LINE
8
BLACK
6
CONTINUOUS
10
1.82616
20
-1.7523
11
2.40612
21
-1.7523
0
LINE
8
BLACK
6
CONTINUOUS
10
2.40612
20
-1.7523
11
2.4088
21
-1.75309
0
LINE
8
BLACK
6
CONTINUOUS
10
2.4088
20
-1.75309
11
2.41063
21
-1.7552
0
LINE
8
BLACK
6
CONTINUOUS
10
2.41063
20
-1.7552
11
2.41108
21
-1.75726
0
LINE
8
BLACK
6
CONTINUOUS
10
2.41108
20
-1.75726
11
2.41108
21
-2.13053
0
LINE
8
BLACK
6
CONTINUOUS
10
2.41108
20
-2.13053
11
2.4103
21
-2.13321
0
LINE
8
BLACK
6
CONTINUOUS
10
2.4103
20
-2.13321
11
2.40818
21
-2.13504
0
LINE
8
BLACK
6
CONTINUOUS
10
2.40818
20
-2.13504
11
2.40612
21
-2.13549
0
LINE
8
BLACK
6
CONTINUOUS
10
2.40612
20
-2.13549
11
1.82616
21
-2.13549
0
LINE
8
BLACK
6
CONTINUOUS
10
1.82616
20
-2.13549
11
1.82348
21
-2.1347
0
LINE
8
BLACK
6
CONTINUOUS
10
1.82348
20
-2.1347
11
1.82165
21
-2.13259
0
LINE
8
BLACK
6
CONTINUOUS
10
1.82165
20
-2.13259
11
1.8212
21
-2.13053
0
LINE
8
BLACK
6
CONTINUOUS
10
1.8212
20
-2.13053
11
1.8212
21
-1.75726
0
LINE
8
BLACK
6
CONTINUOUS
10
1.8212
20
-1.75726
11
1.82199
21
-1.75458
0
LINE
8
BLACK
6
CONTINUOUS
10
2.17135
20
-2.04131
11
2.17146
21
-2.04183
0
LINE
8
BLACK
6
CONTINUOUS
10
2.17146
20
-2.04183
11
2.17349
21
-2.0479
0
LINE
8
BLACK
6
CONTINUOUS
10
2.17349
20
-2.0479
11
2.17373
21
-2.04842
0
LINE
8
BLACK
6
CONTINUOUS
10
2.17373
20
-2.04842
11
2.17709
21
-2.05385
0
LINE
8
BLACK
6
CONTINUOUS
10
2.17709
20
-2.05385
11
2.17744
21
-2.0543
0
LINE
8
BLACK
6
CONTINUOUS
10
2.17744
20
-2.0543
11
2.18196
21
-2.05881
0
LINE
8
BLACK
6
CONTINUOUS
10
2.18196
20
-2.05881
11
2.18241
21
-2.05916
0
LINE
8
BLACK
6
CONTINUOUS
10
2.18241
20
-2.05916
11
2.18784
21
-2.06251
0
LINE
8
BLACK
6
CONTINUOUS
10
2.18784
20
-2.06251
11
2.18836
21
-2.06275
0
LINE
8
BLACK
6
CONTINUOUS
10
2.18836
20
-2.06275
11
2.19444
21
-2.06477
0
LINE
8
BLACK
6
CONTINUOUS
10
2.19444
20
-2.06477
11
2.19496
21
-2.06488
0
LINE
8
BLACK
6
CONTINUOUS
10
2.19496
20
-2.06488
11
2.19868
21
-2.06526
0
LINE
8
BLACK
6
CONTINUOUS
10
2.19868
20
-2.06526
11
2.19893
21
-2.06528
0
LINE
8
BLACK
6
CONTINUOUS
10
2.19893
20
-2.06528
11
2.20385
21
-2.06528
0
LINE
8
BLACK
6
CONTINUOUS
10
2.20385
20
-2.06528
11
2.20445
21
-2.0651
0
LINE
8
BLACK
6
CONTINUOUS
10
2.20445
20
-2.0651
11
2.2045
21
-2.06504
0
LINE
8
BLACK
6
CONTINUOUS
10
2.2045
20
-2.06504
11
2.20457
21
-2.06474
0
LINE
8
BLACK
6
CONTINUOUS
10
2.20457
20
-2.06474
11
2.20457
21
-2.04528
0
LINE
8
BLACK
6
CONTINUOUS
10
2.20457
20
-2.04528
11
2.20079
21
-2.04528
0
LINE
8
BLACK
6
CONTINUOUS
10
2.20079
20
-2.04528
11
2.19702
21
-2.04453
0
LINE
8
BLACK
6
CONTINUOUS
10
2.19702
20
-2.04453
11
2.19383
21
-2.04239
0
LINE
8
BLACK
6
CONTINUOUS
10
2.19383
20
-2.04239
11
2.19169
21
-2.0392
0
LINE
8
BLACK
6
CONTINUOUS
10
2.19169
20
-2.0392
11
2.19094
21
-2.03543
0
LINE
8
BLACK
6
CONTINUOUS
10
2.19094
20
-2.03543
11
2.19094
21
-2.02772
0
LINE
8
BLACK
6
CONTINUOUS
10
2.19094
20
-2.02772
11
2.17166
21
-2.02772
0
LINE
8
BLACK
6
CONTINUOUS
10
2.17166
20
-2.02772
11
2.17106
21
-2.02789
0
LINE
8
BLACK
6
CONTINUOUS
10
2.17106
20
-2.02789
11
2.17101
21
-2.02795
0
LINE
8
BLACK
6
CONTINUOUS
10
2.17101
20
-2.02795
11
2.17094
21
-2.02825
0
LINE
8
BLACK
6
CONTINUOUS
10
2.17094
20
-2.02825
11
2.17094
21
-2.03729
0
LINE
8
BLACK
6
CONTINUOUS
10
2.17094
20
-2.03729
11
2.17096
21
-2.03754
0
LINE
8
BLACK
6
CONTINUOUS
10
2.17096
20
-2.03754
11
2.17135
21
-2.04131
0
LINE
8
BLACK
6
CONTINUOUS
10
2.17118
20
-2.00765
11
2.17148
21
-2.00772
0
LINE
8
BLACK
6
CONTINUOUS
10
2.17148
20
-2.00772
11
2.19094
21
-2.00772
0
LINE
8
BLACK
6
CONTINUOUS
10
2.19094
20
-2.00772
11
2.19094
21
-2.00295
0
LINE
8
BLACK
6
CONTINUOUS
10
2.19094
20
-2.00295
11
2.17094
21
-2.00295
0
LINE
8
BLACK
6
CONTINUOUS
10
2.17094
20
-2.00295
11
2.17094
21
-2.007
0
LINE
8
BLACK
6
CONTINUOUS
10
2.17094
20
-2.007
11
2.17112
21
-2.0076
0
LINE
8
BLACK
6
CONTINUOUS
10
2.17112
20
-2.0076
11
2.17118
21
-2.00765
0
LINE
8
BLACK
6
CONTINUOUS
10
2.19893
20
-1.97016
11
2.19868
21
-1.97017
0
LINE
8
BLACK
6
CONTINUOUS
10
2.19868
20
-1.97017
11
2.19491
21
-1.97056
0
LINE
8
BLACK
6
CONTINUOUS
10
2.19491
20
-1.97056
11
2.19439
21
-1.97068
0
LINE
8
BLACK
6
CONTINUOUS
10
2.19439
20
-1.97068
11
2.18832
21
-1.9727
0
LINE
8
BLACK
6
CONTINUOUS
10
2.18832
20
-1.9727
11
2.1878
21
-1.97294
0
LINE
8
BLACK
6
CONTINUOUS
10
2.1878
20
-1.97294
11
2.18237
21
-1.9763
0
LINE
8
BLACK
6
CONTINUOUS
10
2.18237
20
-1.9763
11
2.18192
21
-1.97666
0
LINE
8
BLACK
6
CONTINUOUS
10
2.18192
20
-1.97666
11
2.17741
21
-1.98117
0
LINE
8
BLACK
6
CONTINUOUS
10
2.17741
20
-1.98117
11
2.17706
21
-1.98162
0
LINE
8
BLACK
6
CONTINUOUS
10
2.17706
20
-1.98162
11
2.17371
21
-1.98706
0
LINE
8
BLACK
6
CONTINUOUS
10
2.17371
20
-1.98706
11
2.17347
21
-1.98758
0
LINE
8
BLACK
6
CONTINUOUS
10
2.17347
20
-1.98758
11
2.17163
21
-1.99311
0
LINE
8
BLACK
6
CONTINUOUS
10
2.17163
20
-1.99311
11
2.19378
21
-1.99311
0
LINE
8
BLACK
6
CONTINUOUS
10
2.19378
20
-1.99311
11
2.19383
21
-1.99304
0
LINE
8
BLACK
6
CONTINUOUS
10
2.19383
20
-1.99304
11
2.19702
21
-1.99091
0
LINE
8
BLACK
6
CONTINUOUS
10
2.19702
20
-1.99091
11
2.20079
21
-1.99016
0
LINE
8
BLACK
6
CONTINUOUS
10
2.20079
20
-1.99016
11
2.20457
21
-1.99016
0
LINE
8
BLACK
6
CONTINUOUS
10
2.20457
20
-1.99016
11
2.20457
21
-1.97087
0
LINE
8
BLACK
6
CONTINUOUS
10
2.20457
20
-1.97087
11
2.20439
21
-1.97027
0
LINE
8
BLACK
6
CONTINUOUS
10
2.20439
20
-1.97027
11
2.20434
21
-1.97022
0
LINE
8
BLACK
6
CONTINUOUS
10
2.20434
20
-1.97022
11
2.20403
21
-1.97016
0
LINE
8
BLACK
6
CONTINUOUS
10
2.20403
20
-1.97016
11
2.19893
21
-1.97016
0
LINE
8
BLACK
6
CONTINUOUS
10
2.02268
20
-2.02971
11
2.01613
21
-2.02666
0
LINE
8
BLACK
6
CONTINUOUS
10
2.01613
20
-2.02666
11
2.01039
21
-2.02227
0
LINE
8
BLACK
6
CONTINUOUS
10
2.01039
20
-2.02227
11
2.00572
21
-2.01674
0
LINE
8
BLACK
6
CONTINUOUS
10
2.00572
20
-2.01674
11
2.00235
21
-2.01035
0
LINE
8
BLACK
6
CONTINUOUS
10
2.00235
20
-2.01035
11
2.00171
21
-2.00803
0
LINE
8
BLACK
6
CONTINUOUS
10
2.00171
20
-2.00803
11
1.98165
21
-2.00803
0
LINE
8
BLACK
6
CONTINUOUS
10
1.98165
20
-2.00803
11
1.98111
21
-2.00819
0
LINE
8
BLACK
6
CONTINUOUS
10
1.98111
20
-2.00819
11
1.98105
21
-2.00861
0
LINE
8
BLACK
6
CONTINUOUS
10
1.98105
20
-2.00861
11
1.98203
21
-2.01324
0
LINE
8
BLACK
6
CONTINUOUS
10
1.98203
20
-2.01324
11
1.98215
21
-2.01365
0
LINE
8
BLACK
6
CONTINUOUS
10
1.98215
20
-2.01365
11
1.98533
21
-2.02169
0
LINE
8
BLACK
6
CONTINUOUS
10
1.98533
20
-2.02169
11
1.98551
21
-2.02207
0
LINE
8
BLACK
6
CONTINUOUS
10
1.98551
20
-2.02207
11
1.99
21
-2.02947
0
LINE
8
BLACK
6
CONTINUOUS
10
1.99
20
-2.02947
11
1.99025
21
-2.02981
0
LINE
8
BLACK
6
CONTINUOUS
10
1.99025
20
-2.02981
11
1.99592
21
-2.03634
0
LINE
8
BLACK
6
CONTINUOUS
10
1.99592
20
-2.03634
11
1.99622
21
-2.03663
0
LINE
8
BLACK
6
CONTINUOUS
10
1.99622
20
-2.03663
11
2.00291
21
-2.04212
0
LINE
8
BLACK
6
CONTINUOUS
10
2.00291
20
-2.04212
11
2.00326
21
-2.04236
0
LINE
8
BLACK
6
CONTINUOUS
10
2.00326
20
-2.04236
11
2.01077
21
-2.04664
0
LINE
8
BLACK
6
CONTINUOUS
10
2.01077
20
-2.04664
11
2.01116
21
-2.04681
0
LINE
8
BLACK
6
CONTINUOUS
10
2.01116
20
-2.04681
11
2.01929
21
-2.04976
0
LINE
8
BLACK
6
CONTINUOUS
10
2.01929
20
-2.04976
11
2.01969
21
-2.04987
0
LINE
8
BLACK
6
CONTINUOUS
10
2.01969
20
-2.04987
11
2.02825
21
-2.05142
0
LINE
8
BLACK
6
CONTINUOUS
10
2.02825
20
-2.05142
11
2.02858
21
-2.05146
0
LINE
8
BLACK
6
CONTINUOUS
10
2.02858
20
-2.05146
11
2.02875
21
-2.05147
0
LINE
8
BLACK
6
CONTINUOUS
10
2.02875
20
-2.05147
11
2.02926
21
-2.05132
0
LINE
8
BLACK
6
CONTINUOUS
10
2.02926
20
-2.05132
11
2.0293
21
-2.05127
0
LINE
8
BLACK
6
CONTINUOUS
10
2.0293
20
-2.05127
11
2.02937
21
-2.05096
0
LINE
8
BLACK
6
CONTINUOUS
10
2.02937
20
-2.05096
11
2.02937
21
-2.03121
0
LINE
8
BLACK
6
CONTINUOUS
10
2.02937
20
-2.03121
11
2.02268
21
-2.02971
0
LINE
8
BLACK
6
CONTINUOUS
10
2.05001
20
-2.05129
11
2.05411
21
-2.05094
0
LINE
8
BLACK
6
CONTINUOUS
10
2.05411
20
-2.05094
11
2.05452
21
-2.05087
0
LINE
8
BLACK
6
CONTINUOUS
10
2.05452
20
-2.05087
11
2.0629
21
-2.0487
0
LINE
8
BLACK
6
CONTINUOUS
10
2.0629
20
-2.0487
11
2.06329
21
-2.04856
0
LINE
8
BLACK
6
CONTINUOUS
10
2.06329
20
-2.04856
11
2.07118
21
-2.045
0
LINE
8
BLACK
6
CONTINUOUS
10
2.07118
20
-2.045
11
2.07155
21
-2.0448
0
LINE
8
BLACK
6
CONTINUOUS
10
2.07155
20
-2.0448
11
2.07872
21
-2.03997
0
LINE
8
BLACK
6
CONTINUOUS
10
2.07872
20
-2.03997
11
2.07905
21
-2.0397
0
LINE
8
BLACK
6
CONTINUOUS
10
2.07905
20
-2.0397
11
2.08158
21
-2.03729
0
LINE
8
BLACK
6
CONTINUOUS
10
2.08158
20
-2.03729
11
2.08531
21
-2.03373
0
LINE
8
BLACK
6
CONTINUOUS
10
2.08531
20
-2.03373
11
2.08559
21
-2.03342
0
LINE
8
BLACK
6
CONTINUOUS
10
2.08559
20
-2.03342
11
2.09075
21
-2.02648
0
LINE
8
BLACK
6
CONTINUOUS
10
2.09075
20
-2.02648
11
2.09097
21
-2.02612
0
LINE
8
BLACK
6
CONTINUOUS
10
2.09097
20
-2.02612
11
2.0949
21
-2.01841
0
LINE
8
BLACK
6
CONTINUOUS
10
2.0949
20
-2.01841
11
2.09505
21
-2.01802
0
LINE
8
BLACK
6
CONTINUOUS
10
2.09505
20
-2.01802
11
2.09762
21
-2.00975
0
LINE
8
BLACK
6
CONTINUOUS
10
2.09762
20
-2.00975
11
2.09771
21
-2.00935
0
LINE
8
BLACK
6
CONTINUOUS
10
2.09771
20
-2.00935
11
2.09779
21
-2.00874
0
LINE
8
BLACK
6
CONTINUOUS
10
2.09779
20
-2.00874
11
2.0977
21
-2.00818
0
LINE
8
BLACK
6
CONTINUOUS
10
2.0977
20
-2.00818
11
2.09718
21
-2.00803
0
LINE
8
BLACK
6
CONTINUOUS
10
2.09718
20
-2.00803
11
2.07711
21
-2.00803
0
LINE
8
BLACK
6
CONTINUOUS
10
2.07711
20
-2.00803
11
2.07482
21
-2.01374
0
LINE
8
BLACK
6
CONTINUOUS
10
2.07482
20
-2.01374
11
2.07076
21
-2.01972
0
LINE
8
BLACK
6
CONTINUOUS
10
2.07076
20
-2.01972
11
2.06551
21
-2.02469
0
LINE
8
BLACK
6
CONTINUOUS
10
2.06551
20
-2.02469
11
2.05931
21
-2.02841
0
LINE
8
BLACK
6
CONTINUOUS
10
2.05931
20
-2.02841
11
2.05246
21
-2.03072
0
LINE
8
BLACK
6
CONTINUOUS
10
2.05246
20
-2.03072
11
2.04937
21
-2.03105
0
LINE
8
BLACK
6
CONTINUOUS
10
2.04937
20
-2.03105
11
2.04937
21
-2.05063
0
LINE
8
BLACK
6
CONTINUOUS
10
2.04937
20
-2.05063
11
2.04954
21
-2.05121
0
LINE
8
BLACK
6
CONTINUOUS
10
2.04954
20
-2.05121
11
2.05001
21
-2.05129
0
LINE
8
BLACK
6
CONTINUOUS
10
1.97999
20
-1.92534
11
1.98037
21
-1.929
0
LINE
8
BLACK
6
CONTINUOUS
10
1.98037
20
-1.929
11
1.98041
21
-1.92938
0
LINE
8
BLACK
6
CONTINUOUS
10
1.98041
20
-1.92938
11
1.98262
21
-1.93598
0
LINE
8
BLACK
6
CONTINUOUS
10
1.98262
20
-1.93598
11
1.98628
21
-1.9419
0
LINE
8
BLACK
6
CONTINUOUS
10
1.98628
20
-1.9419
11
1.99121
21
-1.94682
0
LINE
8
BLACK
6
CONTINUOUS
10
1.99121
20
-1.94682
11
1.99694
21
-1.95036
0
LINE
8
BLACK
6
CONTINUOUS
10
1.99694
20
-1.95036
11
1.99696
21
-1.95037
0
LINE
8
BLACK
6
CONTINUOUS
10
1.99696
20
-1.95037
11
1.99883
21
-1.95245
0
LINE
8
BLACK
6
CONTINUOUS
10
1.99883
20
-1.95245
11
1.99928
21
-1.9552
0
LINE
8
BLACK
6
CONTINUOUS
10
1.99928
20
-1.9552
11
1.99817
21
-1.95777
0
LINE
8
BLACK
6
CONTINUOUS
10
1.99817
20
-1.95777
11
1.99778
21
-1.95818
0
LINE
8
BLACK
6
CONTINUOUS
10
1.99778
20
-1.95818
11
1.99343
21
-1.96233
0
LINE
8
BLACK
6
CONTINUOUS
10
1.99343
20
-1.96233
11
1.99315
21
-1.96265
0
LINE
8
BLACK
6
CONTINUOUS
10
1.99315
20
-1.96265
11
1.98799
21
-1.96959
0
LINE
8
BLACK
6
CONTINUOUS
10
1.98799
20
-1.96959
11
1.98777
21
-1.96994
0
LINE
8
BLACK
6
CONTINUOUS
10
1.98777
20
-1.96994
11
1.98384
21
-1.97766
0
LINE
8
BLACK
6
CONTINUOUS
10
1.98384
20
-1.97766
11
1.98369
21
-1.97804
0
LINE
8
BLACK
6
CONTINUOUS
10
1.98369
20
-1.97804
11
1.98112
21
-1.98631
0
LINE
8
BLACK
6
CONTINUOUS
10
1.98112
20
-1.98631
11
1.98103
21
-1.98672
0
LINE
8
BLACK
6
CONTINUOUS
10
1.98103
20
-1.98672
11
1.98095
21
-1.98732
0
LINE
8
BLACK
6
CONTINUOUS
10
1.98095
20
-1.98732
11
1.98104
21
-1.98788
0
LINE
8
BLACK
6
CONTINUOUS
10
1.98104
20
-1.98788
11
1.98156
21
-1.98803
0
LINE
8
BLACK
6
CONTINUOUS
10
1.98156
20
-1.98803
11
2.00163
21
-1.98803
0
LINE
8
BLACK
6
CONTINUOUS
10
2.00163
20
-1.98803
11
2.00392
21
-1.98232
0
LINE
8
BLACK
6
CONTINUOUS
10
2.00392
20
-1.98232
11
2.00798
21
-1.97634
0
LINE
8
BLACK
6
CONTINUOUS
10
2.00798
20
-1.97634
11
2.01323
21
-1.97138
0
LINE
8
BLACK
6
CONTINUOUS
10
2.01323
20
-1.97138
11
2.01943
21
-1.96765
0
LINE
8
BLACK
6
CONTINUOUS
10
2.01943
20
-1.96765
11
2.02628
21
-1.96535
0
LINE
8
BLACK
6
CONTINUOUS
10
2.02628
20
-1.96535
11
2.03346
21
-1.96457
0
LINE
8
BLACK
6
CONTINUOUS
10
2.03346
20
-1.96457
11
2.04528
21
-1.96457
0
LINE
8
BLACK
6
CONTINUOUS
10
2.04528
20
-1.96457
11
2.04901
21
-1.96478
0
LINE
8
BLACK
6
CONTINUOUS
10
2.04901
20
-1.96478
11
2.05606
21
-1.96635
0
LINE
8
BLACK
6
CONTINUOUS
10
2.05606
20
-1.96635
11
2.06261
21
-1.96941
0
LINE
8
BLACK
6
CONTINUOUS
10
2.06261
20
-1.96941
11
2.06835
21
-1.9738
0
LINE
8
BLACK
6
CONTINUOUS
10
2.06835
20
-1.9738
11
2.07302
21
-1.97932
0
LINE
8
BLACK
6
CONTINUOUS
10
2.07302
20
-1.97932
11
2.07639
21
-1.98571
0
LINE
8
BLACK
6
CONTINUOUS
10
2.07639
20
-1.98571
11
2.07703
21
-1.98803
0
LINE
8
BLACK
6
CONTINUOUS
10
2.07703
20
-1.98803
11
2.09709
21
-1.98803
0
LINE
8
BLACK
6
CONTINUOUS
10
2.09709
20
-1.98803
11
2.09763
21
-1.98788
0
LINE
8
BLACK
6
CONTINUOUS
10
2.09763
20
-1.98788
11
2.09769
21
-1.98746
0
LINE
8
BLACK
6
CONTINUOUS
10
2.09769
20
-1.98746
11
2.09671
21
-1.98282
0
LINE
8
BLACK
6
CONTINUOUS
10
2.09671
20
-1.98282
11
2.09659
21
-1.98242
0
LINE
8
BLACK
6
CONTINUOUS
10
2.09659
20
-1.98242
11
2.09341
21
-1.97437
0
LINE
8
BLACK
6
CONTINUOUS
10
2.09341
20
-1.97437
11
2.09323
21
-1.97399
0
LINE
8
BLACK
6
CONTINUOUS
10
2.09323
20
-1.97399
11
2.08874
21
-1.9666
0
LINE
8
BLACK
6
CONTINUOUS
10
2.08874
20
-1.9666
11
2.08849
21
-1.96626
0
LINE
8
BLACK
6
CONTINUOUS
10
2.08849
20
-1.96626
11
2.08282
21
-1.95972
0
LINE
8
BLACK
6
CONTINUOUS
10
2.08282
20
-1.95972
11
2.08252
21
-1.95943
0
LINE
8
BLACK
6
CONTINUOUS
10
2.08252
20
-1.95943
11
2.08128
21
-1.95841
0
LINE
8
BLACK
6
CONTINUOUS
10
2.08128
20
-1.95841
11
2.0797
21
-1.9561
0
LINE
8
BLACK
6
CONTINUOUS
10
2.0797
20
-1.9561
11
2.07963
21
-1.95331
0
LINE
8
BLACK
6
CONTINUOUS
10
2.07963
20
-1.95331
11
2.08107
21
-1.95091
0
LINE
8
BLACK
6
CONTINUOUS
10
2.08107
20
-1.95091
11
2.08181
21
-1.95036
0
LINE
8
BLACK
6
CONTINUOUS
10
2.08181
20
-1.95036
11
2.08733
21
-1.94694
0
LINE
8
BLACK
6
CONTINUOUS
10
2.08733
20
-1.94694
11
2.08757
21
-1.94679
0
LINE
8
BLACK
6
CONTINUOUS
10
2.08757
20
-1.94679
11
2.09249
21
-1.94186
0
LINE
8
BLACK
6
CONTINUOUS
10
2.09249
20
-1.94186
11
2.09615
21
-1.93593
0
LINE
8
BLACK
6
CONTINUOUS
10
2.09615
20
-1.93593
11
2.09834
21
-1.92933
0
LINE
8
BLACK
6
CONTINUOUS
10
2.09834
20
-1.92933
11
2.09837
21
-1.92906
0
LINE
8
BLACK
6
CONTINUOUS
10
2.09837
20
-1.92906
11
2.09837
21
-1.92906
0
LINE
8
BLACK
6
CONTINUOUS
10
2.09837
20
-1.92906
11
2.09837
21
-1.929
0
LINE
8
BLACK
6
CONTINUOUS
10
2.09837
20
-1.929
11
2.09838
21
-1.92897
0
LINE
8
BLACK
6
CONTINUOUS
10
2.09838
20
-1.92897
11
2.09842
21
-1.92879
0
LINE
8
BLACK
6
CONTINUOUS
10
2.09842
20
-1.92879
11
2.09845
21
-1.9288
0
LINE
8
BLACK
6
CONTINUOUS
10
2.09845
20
-1.9288
11
2.09943
21
-1.92641
0
LINE
8
BLACK
6
CONTINUOUS
10
2.09943
20
-1.92641
11
2.10172
21
-1.92481
0
LINE
8
BLACK
6
CONTINUOUS
10
2.10172
20
-1.92481
11
2.10331
21
-1.92455
0
LINE
8
BLACK
6
CONTINUOUS
10
2.10331
20
-1.92455
11
2.1844
21
-1.92455
0
LINE
8
BLACK
6
CONTINUOUS
10
2.1844
20
-1.92455
11
2.18484
21
-1.92457
0
LINE
8
BLACK
6
CONTINUOUS
10
2.18484
20
-1.92457
11
2.18513
21
-1.92463
0
LINE
8
BLACK
6
CONTINUOUS
10
2.18513
20
-1.92463
11
2.18545
21
-1.92462
0
LINE
8
BLACK
6
CONTINUOUS
10
2.18545
20
-1.92462
11
2.18545
21
-1.92462
0
LINE
8
BLACK
6
CONTINUOUS
10
2.18545
20
-1.92462
11
2.18781
21
-1.92455
0
LINE
8
BLACK
6
CONTINUOUS
10
2.18781
20
-1.92455
11
2.18797
21
-1.92455
0
LINE
8
BLACK
6
CONTINUOUS
10
2.18797
20
-1.92455
11
2.18907
21
-1.92455
0
LINE
8
BLACK
6
CONTINUOUS
10
2.18907
20
-1.92455
11
2.18922
21
-1.92453
0
LINE
8
BLACK
6
CONTINUOUS
10
2.18922
20
-1.92453
11
2.18923
21
-1.92453
0
LINE
8
BLACK
6
CONTINUOUS
10
2.18923
20
-1.92453
11
2.18969
21
-1.92449
0
LINE
8
BLACK
6
CONTINUOUS
10
2.18969
20
-1.92449
11
2.19096
21
-1.92445
0
LINE
8
BLACK
6
CONTINUOUS
10
2.19096
20
-1.92445
11
2.19112
21
-1.92445
0
LINE
8
BLACK
6
CONTINUOUS
10
2.19112
20
-1.92445
11
2.19143
21
-1.92444
0
LINE
8
BLACK
6
CONTINUOUS
10
2.19143
20
-1.92444
11
2.1922
21
-1.92421
0
LINE
8
BLACK
6
CONTINUOUS
10
2.1922
20
-1.92421
11
2.19296
21
-1.92406
0
LINE
8
BLACK
6
CONTINUOUS
10
2.19296
20
-1.92406
11
2.19344
21
-1.92399
0
LINE
8
BLACK
6
CONTINUOUS
10
2.19344
20
-1.92399
11
2.19344
21
-1.92399
0
LINE
8
BLACK
6
CONTINUOUS
10
2.19344
20
-1.92399
11
2.19375
21
-1.92396
0
LINE
8
BLACK
6
CONTINUOUS
10
2.19375
20
-1.92396
11
2.19404
21
-1.92384
0
LINE
8
BLACK
6
CONTINUOUS
10
2.19404
20
-1.92384
11
2.19404
21
-1.92384
0
LINE
8
BLACK
6
CONTINUOUS
10
2.19404
20
-1.92384
11
2.19537
21
-1.92331
0
LINE
8
BLACK
6
CONTINUOUS
10
2.19537
20
-1.92331
11
2.19581
21
-1.92316
0
LINE
8
BLACK
6
CONTINUOUS
10
2.19581
20
-1.92316
11
2.19718
21
-1.92276
0
LINE
8
BLACK
6
CONTINUOUS
10
2.19718
20
-1.92276
11
2.19718
21
-1.92276
0
LINE
8
BLACK
6
CONTINUOUS
10
2.19718
20
-1.92276
11
2.19748
21
-1.92268
0
LINE
8
BLACK
6
CONTINUOUS
10
2.19748
20
-1.92268
11
2.19775
21
-1.92252
0
LINE
8
BLACK
6
CONTINUOUS
10
2.19775
20
-1.92252
11
2.19775
21
-1.92252
0
LINE
8
BLACK
6
CONTINUOUS
10
2.19775
20
-1.92252
11
2.19817
21
-1.92227
0
LINE
8
BLACK
6
CONTINUOUS
10
2.19817
20
-1.92227
11
2.19887
21
-1.92193
0
LINE
8
BLACK
6
CONTINUOUS
10
2.19887
20
-1.92193
11
2.19961
21
-1.92164
0
LINE
8
BLACK
6
CONTINUOUS
10
2.19961
20
-1.92164
11
2.20102
21
-1.92061
0
LINE
8
BLACK
6
CONTINUOUS
10
2.20102
20
-1.92061
11
2.20141
21
-1.92036
0
LINE
8
BLACK
6
CONTINUOUS
10
2.20141
20
-1.92036
11
2.20264
21
-1.91963
0
LINE
8
BLACK
6
CONTINUOUS
10
2.20264
20
-1.91963
11
2.20264
21
-1.91963
0
LINE
8
BLACK
6
CONTINUOUS
10
2.20264
20
-1.91963
11
2.20291
21
-1.91947
0
LINE
8
BLACK
6
CONTINUOUS
10
2.20291
20
-1.91947
11
2.20327
21
-1.91911
0
LINE
8
BLACK
6
CONTINUOUS
10
2.20327
20
-1.91911
11
2.20572
21
-1.91777
0
LINE
8
BLACK
6
CONTINUOUS
10
2.20572
20
-1.91777
11
2.20678
21
-1.91766
0
LINE
8
BLACK
6
CONTINUOUS
10
2.20678
20
-1.91766
11
2.22653
21
-1.91766
0
LINE
8
BLACK
6
CONTINUOUS
10
2.22653
20
-1.91766
11
2.22859
21
-1.91766
0
LINE
8
BLACK
6
CONTINUOUS
10
2.22859
20
-1.91766
11
2.23272
21
-1.91723
0
LINE
8
BLACK
6
CONTINUOUS
10
2.23272
20
-1.91723
11
2.23298
21
-1.91714
0
LINE
8
BLACK
6
CONTINUOUS
10
2.23298
20
-1.91714
11
2.23298
21
-1.91714
0
LINE
8
BLACK
6
CONTINUOUS
10
2.23298
20
-1.91714
11
2.239
21
-1.91513
0
LINE
8
BLACK
6
CONTINUOUS
10
2.239
20
-1.91513
11
2.23927
21
-1.91504
0
LINE
8
BLACK
6
CONTINUOUS
10
2.23927
20
-1.91504
11
2.24515
21
-1.91141
0
LINE
8
BLACK
6
CONTINUOUS
10
2.24515
20
-1.91141
11
2.25002
21
-1.90652
0
LINE
8
BLACK
6
CONTINUOUS
10
2.25002
20
-1.90652
11
2.2501
21
-1.90641
0
LINE
8
BLACK
6
CONTINUOUS
10
2.2501
20
-1.90641
11
2.25232
21
-1.90483
0
LINE
8
BLACK
6
CONTINUOUS
10
2.25232
20
-1.90483
11
2.25512
21
-1.9047
0
LINE
8
BLACK
6
CONTINUOUS
10
2.25512
20
-1.9047
11
2.25753
21
-1.9061
0
LINE
8
BLACK
6
CONTINUOUS
10
2.25753
20
-1.9061
11
2.25775
21
-1.90635
0
LINE
8
BLACK
6
CONTINUOUS
10
2.25775
20
-1.90635
11
2.25788
21
-1.90656
0
LINE
8
BLACK
6
CONTINUOUS
10
2.25788
20
-1.90656
11
2.26277
21
-1.91144
0
LINE
8
BLACK
6
CONTINUOUS
10
2.26277
20
-1.91144
11
2.26301
21
-1.91159
0
LINE
8
BLACK
6
CONTINUOUS
10
2.26301
20
-1.91159
11
2.26301
21
-1.91159
0
LINE
8
BLACK
6
CONTINUOUS
10
2.26301
20
-1.91159
11
2.26355
21
-1.91192
0
LINE
8
BLACK
6
CONTINUOUS
10
2.26355
20
-1.91192
11
2.26542
21
-1.914
0
LINE
8
BLACK
6
CONTINUOUS
10
2.26542
20
-1.914
11
2.26591
21
-1.91614
0
LINE
8
BLACK
6
CONTINUOUS
10
2.26591
20
-1.91614
11
2.26591
21
-1.97055
0
LINE
8
BLACK
6
CONTINUOUS
10
2.26591
20
-1.97055
11
2.26512
21
-1.97323
0
LINE
8
BLACK
6
CONTINUOUS
10
2.26512
20
-1.97323
11
2.26356
21
-1.97477
0
LINE
8
BLACK
6
CONTINUOUS
10
2.26356
20
-1.97477
11
2.26085
21
-1.97644
0
LINE
8
BLACK
6
CONTINUOUS
10
2.26085
20
-1.97644
11
2.26065
21
-1.97664
0
LINE
8
BLACK
6
CONTINUOUS
10
2.26065
20
-1.97664
11
2.25744
21
-1.97986
0
LINE
8
BLACK
6
CONTINUOUS
10
2.25744
20
-1.97986
11
2.25498
21
-1.9812
0
LINE
8
BLACK
6
CONTINUOUS
10
2.25498
20
-1.9812
11
2.2522
21
-1.98101
0
LINE
8
BLACK
6
CONTINUOUS
10
2.2522
20
-1.98101
11
2.25042
21
-1.97987
0
LINE
8
BLACK
6
CONTINUOUS
10
2.25042
20
-1.97987
11
2.24717
21
-1.97662
0
LINE
8
BLACK
6
CONTINUOUS
10
2.24717
20
-1.97662
11
2.24672
21
-1.97627
0
LINE
8
BLACK
6
CONTINUOUS
10
2.24672
20
-1.97627
11
2.24129
21
-1.97292
0
LINE
8
BLACK
6
CONTINUOUS
10
2.24129
20
-1.97292
11
2.24077
21
-1.97268
0
LINE
8
BLACK
6
CONTINUOUS
10
2.24077
20
-1.97268
11
2.2347
21
-1.97066
0
LINE
8
BLACK
6
CONTINUOUS
10
2.2347
20
-1.97066
11
2.23417
21
-1.97055
0
LINE
8
BLACK
6
CONTINUOUS
10
2.23417
20
-1.97055
11
2.23046
21
-1.97017
0
LINE
8
BLACK
6
CONTINUOUS
10
2.23046
20
-1.97017
11
2.2302
21
-1.97016
0
LINE
8
BLACK
6
CONTINUOUS
10
2.2302
20
-1.97016
11
2.22528
21
-1.97016
0
LINE
8
BLACK
6
CONTINUOUS
10
2.22528
20
-1.97016
11
2.22468
21
-1.97033
0
LINE
8
BLACK
6
CONTINUOUS
10
2.22468
20
-1.97033
11
2.22463
21
-1.97039
0
LINE
8
BLACK
6
CONTINUOUS
10
2.22463
20
-1.97039
11
2.22457
21
-1.97069
0
LINE
8
BLACK
6
CONTINUOUS
10
2.22457
20
-1.97069
11
2.22457
21
-1.99016
0
LINE
8
BLACK
6
CONTINUOUS
10
2.22457
20
-1.99016
11
2.22835
21
-1.99016
0
LINE
8
BLACK
6
CONTINUOUS
10
2.22835
20
-1.99016
11
2.23211
21
-1.99091
0
LINE
8
BLACK
6
CONTINUOUS
10
2.23211
20
-1.99091
11
2.23531
21
-1.99304
0
LINE
8
BLACK
6
CONTINUOUS
10
2.23531
20
-1.99304
11
2.23744
21
-1.99623
0
LINE
8
BLACK
6
CONTINUOUS
10
2.23744
20
-1.99623
11
2.23819
21
-2
0
LINE
8
BLACK
6
CONTINUOUS
10
2.23819
20
-2
11
2.23819
21
-2.03543
0
LINE
8
BLACK
6
CONTINUOUS
10
2.23819
20
-2.03543
11
2.23744
21
-2.0392
0
LINE
8
BLACK
6
CONTINUOUS
10
2.23744
20
-2.0392
11
2.23531
21
-2.04239
0
LINE
8
BLACK
6
CONTINUOUS
10
2.23531
20
-2.04239
11
2.23211
21
-2.04453
0
LINE
8
BLACK
6
CONTINUOUS
10
2.23211
20
-2.04453
11
2.22835
21
-2.04528
0
LINE
8
BLACK
6
CONTINUOUS
10
2.22835
20
-2.04528
11
2.22457
21
-2.04528
0
LINE
8
BLACK
6
CONTINUOUS
10
2.22457
20
-2.04528
11
2.22457
21
-2.06456
0
LINE
8
BLACK
6
CONTINUOUS
10
2.22457
20
-2.06456
11
2.22474
21
-2.06516
0
LINE
8
BLACK
6
CONTINUOUS
10
2.22474
20
-2.06516
11
2.2248
21
-2.06521
0
LINE
8
BLACK
6
CONTINUOUS
10
2.2248
20
-2.06521
11
2.2251
21
-2.06528
0
LINE
8
BLACK
6
CONTINUOUS
10
2.2251
20
-2.06528
11
2.2302
21
-2.06528
0
LINE
8
BLACK
6
CONTINUOUS
10
2.2302
20
-2.06528
11
2.23046
21
-2.06526
0
LINE
8
BLACK
6
CONTINUOUS
10
2.23046
20
-2.06526
11
2.23422
21
-2.06487
0
LINE
8
BLACK
6
CONTINUOUS
10
2.23422
20
-2.06487
11
2.23475
21
-2.06476
0
LINE
8
BLACK
6
CONTINUOUS
10
2.23475
20
-2.06476
11
2.24082
21
-2.06273
0
LINE
8
BLACK
6
CONTINUOUS
10
2.24082
20
-2.06273
11
2.24134
21
-2.06249
0
LINE
8
BLACK
6
CONTINUOUS
10
2.24134
20
-2.06249
11
2.24676
21
-2.05913
0
LINE
8
BLACK
6
CONTINUOUS
10
2.24676
20
-2.05913
11
2.24721
21
-2.05878
0
LINE
8
BLACK
6
CONTINUOUS
10
2.24721
20
-2.05878
11
2.25041
21
-2.05557
0
LINE
8
BLACK
6
CONTINUOUS
10
2.25041
20
-2.05557
11
2.25286
21
-2.05423
0
LINE
8
BLACK
6
CONTINUOUS
10
2.25286
20
-2.05423
11
2.25565
21
-2.05443
0
LINE
8
BLACK
6
CONTINUOUS
10
2.25565
20
-2.05443
11
2.25743
21
-2.05557
0
LINE
8
BLACK
6
CONTINUOUS
10
2.25743
20
-2.05557
11
2.26069
21
-2.05882
0
LINE
8
BLACK
6
CONTINUOUS
10
2.26069
20
-2.05882
11
2.26069
21
-2.05882
0
LINE
8
BLACK
6
CONTINUOUS
10
2.26069
20
-2.05882
11
2.26089
21
-2.05903
0
LINE
8
BLACK
6
CONTINUOUS
10
2.26089
20
-2.05903
11
2.26114
21
-2.05918
0
LINE
8
BLACK
6
CONTINUOUS
10
2.26114
20
-2.05918
11
2.26114
21
-2.05918
0
LINE
8
BLACK
6
CONTINUOUS
10
2.26114
20
-2.05918
11
2.26655
21
-2.06251
0
LINE
8
BLACK
6
CONTINUOUS
10
2.26655
20
-2.06251
11
2.26682
21
-2.06268
0
LINE
8
BLACK
6
CONTINUOUS
10
2.26682
20
-2.06268
11
2.26996
21
-2.06372
0
LINE
8
BLACK
6
CONTINUOUS
10
2.26996
20
-2.06372
11
2.27317
21
-2.06479
0
LINE
8
BLACK
6
CONTINUOUS
10
2.27317
20
-2.06479
11
2.27317
21
-2.06479
0
LINE
8
BLACK
6
CONTINUOUS
10
2.27317
20
-2.06479
11
2.27343
21
-2.06487
0
LINE
8
BLACK
6
CONTINUOUS
10
2.27343
20
-2.06487
11
2.2737
21
-2.0649
0
LINE
8
BLACK
6
CONTINUOUS
10
2.2737
20
-2.0649
11
2.2737
21
-2.0649
0
LINE
8
BLACK
6
CONTINUOUS
10
2.2737
20
-2.0649
11
2.27539
21
-2.06508
0
LINE
8
BLACK
6
CONTINUOUS
10
2.27539
20
-2.06508
11
2.27754
21
-2.0653
0
LINE
8
BLACK
6
CONTINUOUS
10
2.27754
20
-2.0653
11
2.30907
21
-2.0653
0
LINE
8
BLACK
6
CONTINUOUS
10
2.30907
20
-2.0653
11
2.3092
21
-2.06528
0
LINE
8
BLACK
6
CONTINUOUS
10
2.3092
20
-2.06528
11
2.3092
21
-2.06528
0
LINE
8
BLACK
6
CONTINUOUS
10
2.3092
20
-2.06528
11
2.31296
21
-2.06489
0
LINE
8
BLACK
6
CONTINUOUS
10
2.31296
20
-2.06489
11
2.31297
21
-2.06489
0
LINE
8
BLACK
6
CONTINUOUS
10
2.31297
20
-2.06489
11
2.31323
21
-2.06486
0
LINE
8
BLACK
6
CONTINUOUS
10
2.31323
20
-2.06486
11
2.31349
21
-2.06478
0
LINE
8
BLACK
6
CONTINUOUS
10
2.31349
20
-2.06478
11
2.31349
21
-2.06478
0
LINE
8
BLACK
6
CONTINUOUS
10
2.31349
20
-2.06478
11
2.31869
21
-2.06304
0
LINE
8
BLACK
6
CONTINUOUS
10
2.31869
20
-2.06304
11
2.31984
21
-2.06266
0
LINE
8
BLACK
6
CONTINUOUS
10
2.31984
20
-2.06266
11
2.32576
21
-2.059
0
LINE
8
BLACK
6
CONTINUOUS
10
2.32576
20
-2.059
11
2.33068
21
-2.05407
0
LINE
8
BLACK
6
CONTINUOUS
10
2.33068
20
-2.05407
11
2.33228
21
-2.05147
0
LINE
8
BLACK
6
CONTINUOUS
10
2.33228
20
-2.05147
11
2.33418
21
-2.04838
0
LINE
8
BLACK
6
CONTINUOUS
10
2.33418
20
-2.04838
11
2.33418
21
-2.04838
0
LINE
8
BLACK
6
CONTINUOUS
10
2.33418
20
-2.04838
11
2.33434
21
-2.04814
0
LINE
8
BLACK
6
CONTINUOUS
10
2.33434
20
-2.04814
11
2.33625
21
-2.04236
0
LINE
8
BLACK
6
CONTINUOUS
10
2.33625
20
-2.04236
11
2.33644
21
-2.04179
0
LINE
8
BLACK
6
CONTINUOUS
10
2.33644
20
-2.04179
11
2.33644
21
-2.04179
0
LINE
8
BLACK
6
CONTINUOUS
10
2.33644
20
-2.04179
11
2.33653
21
-2.04153
0
LINE
8
BLACK
6
CONTINUOUS
10
2.33653
20
-2.04153
11
2.33695
21
-2.03742
0
LINE
8
BLACK
6
CONTINUOUS
10
2.33695
20
-2.03742
11
2.33695
21
-1.99802
0
LINE
8
BLACK
6
CONTINUOUS
10
2.33695
20
-1.99802
11
2.33694
21
-1.99789
0
LINE
8
BLACK
6
CONTINUOUS
10
2.33694
20
-1.99789
11
2.33654
21
-1.99412
0
LINE
8
BLACK
6
CONTINUOUS
10
2.33654
20
-1.99412
11
2.33654
21
-1.99412
0
LINE
8
BLACK
6
CONTINUOUS
10
2.33654
20
-1.99412
11
2.33652
21
-1.99385
0
LINE
8
BLACK
6
CONTINUOUS
10
2.33652
20
-1.99385
11
2.33431
21
-1.98725
0
LINE
8
BLACK
6
CONTINUOUS
10
2.33431
20
-1.98725
11
2.33065
21
-1.98132
0
LINE
8
BLACK
6
CONTINUOUS
10
2.33065
20
-1.98132
11
2.32572
21
-1.97641
0
LINE
8
BLACK
6
CONTINUOUS
10
2.32572
20
-1.97641
11
2.32057
21
-1.97323
0
LINE
8
BLACK
6
CONTINUOUS
10
2.32057
20
-1.97323
11
2.32004
21
-1.9729
0
LINE
8
BLACK
6
CONTINUOUS
10
2.32004
20
-1.9729
11
2.32004
21
-1.9729
0
LINE
8
BLACK
6
CONTINUOUS
10
2.32004
20
-1.9729
11
2.31979
21
-1.97275
0
LINE
8
BLACK
6
CONTINUOUS
10
2.31979
20
-1.97275
11
2.31952
21
-1.97266
0
LINE
8
BLACK
6
CONTINUOUS
10
2.31952
20
-1.97266
11
2.31919
21
-1.97255
0
LINE
8
BLACK
6
CONTINUOUS
10
2.31919
20
-1.97255
11
2.31689
21
-1.97096
0
LINE
8
BLACK
6
CONTINUOUS
10
2.31689
20
-1.97096
11
2.31582
21
-1.96838
0
LINE
8
BLACK
6
CONTINUOUS
10
2.31582
20
-1.96838
11
2.31579
21
-1.96784
0
LINE
8
BLACK
6
CONTINUOUS
10
2.31579
20
-1.96784
11
2.31579
21
-1.91614
0
LINE
8
BLACK
6
CONTINUOUS
10
2.31579
20
-1.91614
11
2.31657
21
-1.91346
0
LINE
8
BLACK
6
CONTINUOUS
10
2.31657
20
-1.91346
11
2.31814
21
-1.91192
0
LINE
8
BLACK
6
CONTINUOUS
10
2.31814
20
-1.91192
11
2.31896
21
-1.91141
0
LINE
8
BLACK
6
CONTINUOUS
10
2.31896
20
-1.91141
11
2.32384
21
-1.90652
0
LINE
8
BLACK
6
CONTINUOUS
10
2.32384
20
-1.90652
11
2.32747
21
-1.90064
0
LINE
8
BLACK
6
CONTINUOUS
10
2.32747
20
-1.90064
11
2.32964
21
-1.89409
0
LINE
8
BLACK
6
CONTINUOUS
10
2.32964
20
-1.89409
11
2.33006
21
-1.89001
0
LINE
8
BLACK
6
CONTINUOUS
10
2.33006
20
-1.89001
11
2.33006
21
-1.85015
0
LINE
8
BLACK
6
CONTINUOUS
10
2.33006
20
-1.85015
11
2.32963
21
-1.84602
0
LINE
8
BLACK
6
CONTINUOUS
10
2.32963
20
-1.84602
11
2.32954
21
-1.84576
0
LINE
8
BLACK
6
CONTINUOUS
10
2.32954
20
-1.84576
11
2.32954
21
-1.84576
0
LINE
8
BLACK
6
CONTINUOUS
10
2.32954
20
-1.84576
11
2.32754
21
-1.83974
0
LINE
8
BLACK
6
CONTINUOUS
10
2.32754
20
-1.83974
11
2.32744
21
-1.83947
0
LINE
8
BLACK
6
CONTINUOUS
10
2.32744
20
-1.83947
11
2.32381
21
-1.83359
0
LINE
8
BLACK
6
CONTINUOUS
10
2.32381
20
-1.83359
11
2.31892
21
-1.82872
0
LINE
8
BLACK
6
CONTINUOUS
10
2.31892
20
-1.82872
11
2.31304
21
-1.82509
0
LINE
8
BLACK
6
CONTINUOUS
10
2.31304
20
-1.82509
11
2.31277
21
-1.825
0
LINE
8
BLACK
6
CONTINUOUS
10
2.31277
20
-1.825
11
2.30675
21
-1.823
0
LINE
8
BLACK
6
CONTINUOUS
10
2.30675
20
-1.823
11
2.30675
21
-1.823
0
LINE
8
BLACK
6
CONTINUOUS
10
2.30675
20
-1.823
11
2.30649
21
-1.82292
0
LINE
8
BLACK
6
CONTINUOUS
10
2.30649
20
-1.82292
11
2.30241
21
-1.8225
0
LINE
8
BLACK
6
CONTINUOUS
10
2.30241
20
-1.8225
11
2.29094
21
-1.8225
0
LINE
8
BLACK
6
CONTINUOUS
10
2.29094
20
-1.8225
11
2.27928
21
-1.8225
0
LINE
8
BLACK
6
CONTINUOUS
10
2.27928
20
-1.8225
11
2.27515
21
-1.82293
0
LINE
8
BLACK
6
CONTINUOUS
10
2.27515
20
-1.82293
11
2.2749
21
-1.82301
0
LINE
8
BLACK
6
CONTINUOUS
10
2.2749
20
-1.82301
11
2.2749
21
-1.82301
0
LINE
8
BLACK
6
CONTINUOUS
10
2.2749
20
-1.82301
11
2.26906
21
-1.82496
0
LINE
8
BLACK
6
CONTINUOUS
10
2.26906
20
-1.82496
11
2.2686
21
-1.82511
0
LINE
8
BLACK
6
CONTINUOUS
10
2.2686
20
-1.82511
11
2.26273
21
-1.82875
0
LINE
8
BLACK
6
CONTINUOUS
10
2.26273
20
-1.82875
11
2.25785
21
-1.83364
0
LINE
8
BLACK
6
CONTINUOUS
10
2.25785
20
-1.83364
11
2.25778
21
-1.83375
0
LINE
8
BLACK
6
CONTINUOUS
10
2.25778
20
-1.83375
11
2.25555
21
-1.83533
0
LINE
8
BLACK
6
CONTINUOUS
10
2.25555
20
-1.83533
11
2.25276
21
-1.83546
0
LINE
8
BLACK
6
CONTINUOUS
10
2.25276
20
-1.83546
11
2.25034
21
-1.83406
0
LINE
8
BLACK
6
CONTINUOUS
10
2.25034
20
-1.83406
11
2.25012
21
-1.8338
0
LINE
8
BLACK
6
CONTINUOUS
10
2.25012
20
-1.8338
11
2.24999
21
-1.83359
0
LINE
8
BLACK
6
CONTINUOUS
10
2.24999
20
-1.83359
11
2.2451
21
-1.82872
0
LINE
8
BLACK
6
CONTINUOUS
10
2.2451
20
-1.82872
11
2.23923
21
-1.82509
0
LINE
8
BLACK
6
CONTINUOUS
10
2.23923
20
-1.82509
11
2.23895
21
-1.825
0
LINE
8
BLACK
6
CONTINUOUS
10
2.23895
20
-1.825
11
2.23293
21
-1.823
0
LINE
8
BLACK
6
CONTINUOUS
10
2.23293
20
-1.823
11
2.23293
21
-1.823
0
LINE
8
BLACK
6
CONTINUOUS
10
2.23293
20
-1.823
11
2.23267
21
-1.82292
0
LINE
8
BLACK
6
CONTINUOUS
10
2.23267
20
-1.82292
11
2.22859
21
-1.8225
0
LINE
8
BLACK
6
CONTINUOUS
10
2.22859
20
-1.8225
11
2.21712
21
-1.8225
0
LINE
8
BLACK
6
CONTINUOUS
10
2.21712
20
-1.8225
11
2.20546
21
-1.8225
0
LINE
8
BLACK
6
CONTINUOUS
10
2.20546
20
-1.8225
11
2.20133
21
-1.82293
0
LINE
8
BLACK
6
CONTINUOUS
10
2.20133
20
-1.82293
11
2.20108
21
-1.82301
0
LINE
8
BLACK
6
CONTINUOUS
10
2.20108
20
-1.82301
11
2.20108
21
-1.82301
0
LINE
8
BLACK
6
CONTINUOUS
10
2.20108
20
-1.82301
11
2.19524
21
-1.82496
0
LINE
8
BLACK
6
CONTINUOUS
10
2.19524
20
-1.82496
11
2.19478
21
-1.82511
0
LINE
8
BLACK
6
CONTINUOUS
10
2.19478
20
-1.82511
11
2.18891
21
-1.82875
0
LINE
8
BLACK
6
CONTINUOUS
10
2.18891
20
-1.82875
11
2.18403
21
-1.83364
0
LINE
8
BLACK
6
CONTINUOUS
10
2.18403
20
-1.83364
11
2.18041
21
-1.83951
0
LINE
8
BLACK
6
CONTINUOUS
10
2.18041
20
-1.83951
11
2.17823
21
-1.84607
0
LINE
8
BLACK
6
CONTINUOUS
10
2.17823
20
-1.84607
11
2.17781
21
-1.85015
0
LINE
8
BLACK
6
CONTINUOUS
10
2.17781
20
-1.85015
11
2.17781
21
-1.85028
0
LINE
8
BLACK
6
CONTINUOUS
10
2.17781
20
-1.85028
11
2.17781
21
-1.8697
0
LINE
8
BLACK
6
CONTINUOUS
10
2.17781
20
-1.8697
11
2.17703
21
-1.87239
0
LINE
8
BLACK
6
CONTINUOUS
10
2.17703
20
-1.87239
11
2.17492
21
-1.87422
0
LINE
8
BLACK
6
CONTINUOUS
10
2.17492
20
-1.87422
11
2.17285
21
-1.87467
0
LINE
8
BLACK
6
CONTINUOUS
10
2.17285
20
-1.87467
11
2.1033
21
-1.87467
0
LINE
8
BLACK
6
CONTINUOUS
10
2.1033
20
-1.87467
11
2.10062
21
-1.87388
0
LINE
8
BLACK
6
CONTINUOUS
10
2.10062
20
-1.87388
11
2.09879
21
-1.87177
0
LINE
8
BLACK
6
CONTINUOUS
10
2.09879
20
-1.87177
11
2.09837
21
-1.87022
0
LINE
8
BLACK
6
CONTINUOUS
10
2.09837
20
-1.87022
11
2.09833
21
-1.86984
0
LINE
8
BLACK
6
CONTINUOUS
10
2.09833
20
-1.86984
11
2.09612
21
-1.86323
0
LINE
8
BLACK
6
CONTINUOUS
10
2.09612
20
-1.86323
11
2.09246
21
-1.85731
0
LINE
8
BLACK
6
CONTINUOUS
10
2.09246
20
-1.85731
11
2.08753
21
-1.85239
0
LINE
8
BLACK
6
CONTINUOUS
10
2.08753
20
-1.85239
11
2.0841
21
-1.85028
0
LINE
8
BLACK
6
CONTINUOUS
10
2.0841
20
-1.85028
11
2.08185
21
-1.84889
0
LINE
8
BLACK
6
CONTINUOUS
10
2.08185
20
-1.84889
11
2.08185
21
-1.84889
0
LINE
8
BLACK
6
CONTINUOUS
10
2.08185
20
-1.84889
11
2.0816
21
-1.84874
0
LINE
8
BLACK
6
CONTINUOUS
10
2.0816
20
-1.84874
11
2.07529
21
-1.84664
0
LINE
8
BLACK
6
CONTINUOUS
10
2.07529
20
-1.84664
11
2.07525
21
-1.84663
0
LINE
8
BLACK
6
CONTINUOUS
10
2.07525
20
-1.84663
11
2.07525
21
-1.84663
0
LINE
8
BLACK
6
CONTINUOUS
10
2.07525
20
-1.84663
11
2.07499
21
-1.84654
0
LINE
8
BLACK
6
CONTINUOUS
10
2.07499
20
-1.84654
11
2.07473
21
-1.84652
0
LINE
8
BLACK
6
CONTINUOUS
10
2.07473
20
-1.84652
11
2.07473
21
-1.84652
0
LINE
8
BLACK
6
CONTINUOUS
10
2.07473
20
-1.84652
11
2.07251
21
-1.84629
0
LINE
8
BLACK
6
CONTINUOUS
10
2.07251
20
-1.84629
11
2.07088
21
-1.84612
0
LINE
8
BLACK
6
CONTINUOUS
10
2.07088
20
-1.84612
11
2.00786
21
-1.84612
0
LINE
8
BLACK
6
CONTINUOUS
10
2.00786
20
-1.84612
11
2.00773
21
-1.84614
0
LINE
8
BLACK
6
CONTINUOUS
10
2.00773
20
-1.84614
11
2.00773
21
-1.84614
0
LINE
8
BLACK
6
CONTINUOUS
10
2.00773
20
-1.84614
11
2.00396
21
-1.84653
0
LINE
8
BLACK
6
CONTINUOUS
10
2.00396
20
-1.84653
11
2.00396
21
-1.84653
0
LINE
8
BLACK
6
CONTINUOUS
10
2.00396
20
-1.84653
11
2.00369
21
-1.84655
0
LINE
8
BLACK
6
CONTINUOUS
10
2.00369
20
-1.84655
11
2.00344
21
-1.84664
0
LINE
8
BLACK
6
CONTINUOUS
10
2.00344
20
-1.84664
11
2.00344
21
-1.84664
0
LINE
8
BLACK
6
CONTINUOUS
10
2.00344
20
-1.84664
11
1.99824
21
-1.84838
0
LINE
8
BLACK
6
CONTINUOUS
10
1.99824
20
-1.84838
11
1.99709
21
-1.84876
0
LINE
8
BLACK
6
CONTINUOUS
10
1.99709
20
-1.84876
11
1.99117
21
-1.85242
0
LINE
8
BLACK
6
CONTINUOUS
10
1.99117
20
-1.85242
11
1.98625
21
-1.85735
0
LINE
8
BLACK
6
CONTINUOUS
10
1.98625
20
-1.85735
11
1.98259
21
-1.86328
0
LINE
8
BLACK
6
CONTINUOUS
10
1.98259
20
-1.86328
11
1.9804
21
-1.86989
0
LINE
8
BLACK
6
CONTINUOUS
10
1.9804
20
-1.86989
11
1.97998
21
-1.874
0
LINE
8
BLACK
6
CONTINUOUS
10
1.97998
20
-1.874
11
1.97998
21
-1.92521
0
LINE
8
BLACK
6
CONTINUOUS
10
1.97998
20
-1.92521
11
1.97999
21
-1.92534
0
LINE
8
BLACK
6
CONTINUOUS
10
1.97999
20
-1.92534
11
1.97999
21
-1.92534
0
LINE
8
BLACK
6
CONTINUOUS
10
2.30412
20
-1.84325
11
2.30723
21
-1.84533
0
LINE
8
BLACK
6
CONTINUOUS
10
2.30723
20
-1.84533
11
2.30931
21
-1.84844
0
LINE
8
BLACK
6
CONTINUOUS
10
2.30931
20
-1.84844
11
2.31004
21
-1.85212
0
LINE
8
BLACK
6
CONTINUOUS
10
2.31004
20
-1.85212
11
2.31004
21
-1.88804
0
LINE
8
BLACK
6
CONTINUOUS
10
2.31004
20
-1.88804
11
2.30931
21
-1.89171
0
LINE
8
BLACK
6
CONTINUOUS
10
2.30931
20
-1.89171
11
2.30723
21
-1.89483
0
LINE
8
BLACK
6
CONTINUOUS
10
2.30723
20
-1.89483
11
2.30412
21
-1.89691
0
LINE
8
BLACK
6
CONTINUOUS
10
2.30412
20
-1.89691
11
2.30044
21
-1.89764
0
LINE
8
BLACK
6
CONTINUOUS
10
2.30044
20
-1.89764
11
2.29577
21
-1.89764
0
LINE
8
BLACK
6
CONTINUOUS
10
2.29577
20
-1.89764
11
2.29577
21
-1.99016
0
LINE
8
BLACK
6
CONTINUOUS
10
2.29577
20
-1.99016
11
2.30709
21
-1.99016
0
LINE
8
BLACK
6
CONTINUOUS
10
2.30709
20
-1.99016
11
2.31085
21
-1.99091
0
LINE
8
BLACK
6
CONTINUOUS
10
2.31085
20
-1.99091
11
2.31405
21
-1.99304
0
LINE
8
BLACK
6
CONTINUOUS
10
2.31405
20
-1.99304
11
2.31618
21
-1.99623
0
LINE
8
BLACK
6
CONTINUOUS
10
2.31618
20
-1.99623
11
2.31693
21
-2
0
LINE
8
BLACK
6
CONTINUOUS
10
2.31693
20
-2
11
2.31693
21
-2.03543
0
LINE
8
BLACK
6
CONTINUOUS
10
2.31693
20
-2.03543
11
2.31618
21
-2.0392
0
LINE
8
BLACK
6
CONTINUOUS
10
2.31618
20
-2.0392
11
2.31405
21
-2.04239
0
LINE
8
BLACK
6
CONTINUOUS
10
2.31405
20
-2.04239
11
2.31085
21
-2.04453
0
LINE
8
BLACK
6
CONTINUOUS
10
2.31085
20
-2.04453
11
2.30709
21
-2.04528
0
LINE
8
BLACK
6
CONTINUOUS
10
2.30709
20
-2.04528
11
2.27953
21
-2.04528
0
LINE
8
BLACK
6
CONTINUOUS
10
2.27953
20
-2.04528
11
2.27576
21
-2.04453
0
LINE
8
BLACK
6
CONTINUOUS
10
2.27576
20
-2.04453
11
2.27257
21
-2.04239
0
LINE
8
BLACK
6
CONTINUOUS
10
2.27257
20
-2.04239
11
2.27043
21
-2.0392
0
LINE
8
BLACK
6
CONTINUOUS
10
2.27043
20
-2.0392
11
2.26969
21
-2.03543
0
LINE
8
BLACK
6
CONTINUOUS
10
2.26969
20
-2.03543
11
2.26969
21
-2
0
LINE
8
BLACK
6
CONTINUOUS
10
2.26969
20
-2
11
2.27043
21
-1.99623
0
LINE
8
BLACK
6
CONTINUOUS
10
2.27043
20
-1.99623
11
2.27257
21
-1.99304
0
LINE
8
BLACK
6
CONTINUOUS
10
2.27257
20
-1.99304
11
2.27576
21
-1.99091
0
LINE
8
BLACK
6
CONTINUOUS
10
2.27576
20
-1.99091
11
2.27953
21
-1.99016
0
LINE
8
BLACK
6
CONTINUOUS
10
2.27953
20
-1.99016
11
2.28593
21
-1.99016
0
LINE
8
BLACK
6
CONTINUOUS
10
2.28593
20
-1.99016
11
2.28593
21
-1.89764
0
LINE
8
BLACK
6
CONTINUOUS
10
2.28593
20
-1.89764
11
2.28125
21
-1.89764
0
LINE
8
BLACK
6
CONTINUOUS
10
2.28125
20
-1.89764
11
2.27758
21
-1.89691
0
LINE
8
BLACK
6
CONTINUOUS
10
2.27758
20
-1.89691
11
2.27446
21
-1.89483
0
LINE
8
BLACK
6
CONTINUOUS
10
2.27446
20
-1.89483
11
2.27238
21
-1.89171
0
LINE
8
BLACK
6
CONTINUOUS
10
2.27238
20
-1.89171
11
2.27165
21
-1.88804
0
LINE
8
BLACK
6
CONTINUOUS
10
2.27165
20
-1.88804
11
2.27165
21
-1.85212
0
LINE
8
BLACK
6
CONTINUOUS
10
2.27165
20
-1.85212
11
2.27238
21
-1.84844
0
LINE
8
BLACK
6
CONTINUOUS
10
2.27238
20
-1.84844
11
2.27446
21
-1.84533
0
LINE
8
BLACK
6
CONTINUOUS
10
2.27446
20
-1.84533
11
2.27758
21
-1.84325
0
LINE
8
BLACK
6
CONTINUOUS
10
2.27758
20
-1.84325
11
2.28125
21
-1.84252
0
LINE
8
BLACK
6
CONTINUOUS
10
2.28125
20
-1.84252
11
2.30044
21
-1.84252
0
LINE
8
BLACK
6
CONTINUOUS
10
2.30044
20
-1.84252
11
2.30412
21
-1.84325
0
LINE
8
BLACK
6
CONTINUOUS
10
2.2303
20
-1.84325
11
2.23341
21
-1.84533
0
LINE
8
BLACK
6
CONTINUOUS
10
2.23341
20
-1.84533
11
2.23549
21
-1.84844
0
LINE
8
BLACK
6
CONTINUOUS
10
2.23549
20
-1.84844
11
2.23622
21
-1.85212
0
LINE
8
BLACK
6
CONTINUOUS
10
2.23622
20
-1.85212
11
2.23622
21
-1.88804
0
LINE
8
BLACK
6
CONTINUOUS
10
2.23622
20
-1.88804
11
2.23549
21
-1.89171
0
LINE
8
BLACK
6
CONTINUOUS
10
2.23549
20
-1.89171
11
2.23341
21
-1.89483
0
LINE
8
BLACK
6
CONTINUOUS
10
2.23341
20
-1.89483
11
2.2303
21
-1.89691
0
LINE
8
BLACK
6
CONTINUOUS
10
2.2303
20
-1.89691
11
2.22662
21
-1.89764
0
LINE
8
BLACK
6
CONTINUOUS
10
2.22662
20
-1.89764
11
2.20743
21
-1.89764
0
LINE
8
BLACK
6
CONTINUOUS
10
2.20743
20
-1.89764
11
2.20376
21
-1.89691
0
LINE
8
BLACK
6
CONTINUOUS
10
2.20376
20
-1.89691
11
2.20065
21
-1.89483
0
LINE
8
BLACK
6
CONTINUOUS
10
2.20065
20
-1.89483
11
2.20008
21
-1.89398
0
LINE
8
BLACK
6
CONTINUOUS
10
2.20008
20
-1.89398
11
2.19098
21
-1.90309
0
LINE
8
BLACK
6
CONTINUOUS
10
2.19098
20
-1.90309
11
2.19028
21
-1.90361
0
LINE
8
BLACK
6
CONTINUOUS
10
2.19028
20
-1.90361
11
2.19016
21
-1.90375
0
LINE
8
BLACK
6
CONTINUOUS
10
2.19016
20
-1.90375
11
2.19005
21
-1.90378
0
LINE
8
BLACK
6
CONTINUOUS
10
2.19005
20
-1.90378
11
2.18985
21
-1.90393
0
LINE
8
BLACK
6
CONTINUOUS
10
2.18985
20
-1.90393
11
2.18866
21
-1.90419
0
LINE
8
BLACK
6
CONTINUOUS
10
2.18866
20
-1.90419
11
2.1875
21
-1.90453
0
LINE
8
BLACK
6
CONTINUOUS
10
2.1875
20
-1.90453
11
2.07874
21
-1.90453
0
LINE
8
BLACK
6
CONTINUOUS
10
2.07874
20
-1.90453
11
2.07874
21
-1.92323
0
LINE
8
BLACK
6
CONTINUOUS
10
2.07874
20
-1.92323
11
2.07799
21
-1.92699
0
LINE
8
BLACK
6
CONTINUOUS
10
2.07799
20
-1.92699
11
2.07586
21
-1.93019
0
LINE
8
BLACK
6
CONTINUOUS
10
2.07586
20
-1.93019
11
2.07266
21
-1.93232
0
LINE
8
BLACK
6
CONTINUOUS
10
2.07266
20
-1.93232
11
2.0689
21
-1.93307
0
LINE
8
BLACK
6
CONTINUOUS
10
2.0689
20
-1.93307
11
2.00984
21
-1.93307
0
LINE
8
BLACK
6
CONTINUOUS
10
2.00984
20
-1.93307
11
2.00608
21
-1.93232
0
LINE
8
BLACK
6
CONTINUOUS
10
2.00608
20
-1.93232
11
2.00288
21
-1.93019
0
LINE
8
BLACK
6
CONTINUOUS
10
2.00288
20
-1.93019
11
2.00075
21
-1.92699
0
LINE
8
BLACK
6
CONTINUOUS
10
2.00075
20
-1.92699
11
2
21
-1.92323
0
LINE
8
BLACK
6
CONTINUOUS
10
2
20
-1.92323
11
2
21
-1.87598
0
LINE
8
BLACK
6
CONTINUOUS
10
2
20
-1.87598
11
2.00075
21
-1.87222
0
LINE
8
BLACK
6
CONTINUOUS
10
2.00075
20
-1.87222
11
2.00288
21
-1.86902
0
LINE
8
BLACK
6
CONTINUOUS
10
2.00288
20
-1.86902
11
2.00608
21
-1.86689
0
LINE
8
BLACK
6
CONTINUOUS
10
2.00608
20
-1.86689
11
2.00984
21
-1.86614
0
LINE
8
BLACK
6
CONTINUOUS
10
2.00984
20
-1.86614
11
2.0689
21
-1.86614
0
LINE
8
BLACK
6
CONTINUOUS
10
2.0689
20
-1.86614
11
2.07266
21
-1.86689
0
LINE
8
BLACK
6
CONTINUOUS
10
2.07266
20
-1.86689
11
2.07586
21
-1.86902
0
LINE
8
BLACK
6
CONTINUOUS
10
2.07586
20
-1.86902
11
2.07799
21
-1.87222
0
LINE
8
BLACK
6
CONTINUOUS
10
2.07799
20
-1.87222
11
2.07874
21
-1.87598
0
LINE
8
BLACK
6
CONTINUOUS
10
2.07874
20
-1.87598
11
2.07874
21
-1.89469
0
LINE
8
BLACK
6
CONTINUOUS
10
2.07874
20
-1.89469
11
2.18546
21
-1.89469
0
LINE
8
BLACK
6
CONTINUOUS
10
2.18546
20
-1.89469
11
2.19783
21
-1.88231
0
LINE
8
BLACK
6
CONTINUOUS
10
2.19783
20
-1.88231
11
2.19783
21
-1.85212
0
LINE
8
BLACK
6
CONTINUOUS
10
2.19783
20
-1.85212
11
2.19857
21
-1.84844
0
LINE
8
BLACK
6
CONTINUOUS
10
2.19857
20
-1.84844
11
2.20065
21
-1.84533
0
LINE
8
BLACK
6
CONTINUOUS
10
2.20065
20
-1.84533
11
2.20376
21
-1.84325
0
LINE
8
BLACK
6
CONTINUOUS
10
2.20376
20
-1.84325
11
2.20743
21
-1.84252
0
LINE
8
BLACK
6
CONTINUOUS
10
2.20743
20
-1.84252
11
2.22662
21
-1.84252
0
LINE
8
BLACK
6
CONTINUOUS
10
2.22662
20
-1.84252
11
2.2303
21
-1.84325
0
CIRCLE
8
BLACK
10
2.03937
20
-1.89961
40
0.019685
0
CIRCLE
8
BLACK
10
2.03937
20
-1.99803
40
0.019685
  0
ENDSEC
  0
EOF
