  0
SECTION
  2
HEADER
  9
$ANGBASE
  50
0.0
  9
$ANGDIR
  70
1
  9
$MEASUREMENT
  70
0
  0
ENDSEC
  0
SECTION
  2
TABLES
  0
TABLE
  2
LTYPE
  70
4
  0
LTYPE
  5
40F
  2
CONTINUOUS
  70
0
  3
Solid line
  72
65
  73
0
  40
0.0
  0
LTYPE
  5
410
  2
DASHDOT
 70
0
  3
Dash Dot ____ _ ____ _
 72
65
 73
4
 40
2.0
 49
1.25
 49
-0.25
 49
0.25
 49
-0.25
  0
LTYPE
  5
411
  2
DASHED
 70
0
  3
Dashed __ __ __ __ __
 72
65
 73
2
 40
0.75
 49
0.5
 49
-0.25
  0
LTYPE
  5
43B
  2
DOTTED
 70
0
  3
Dotted .  .  .  .
 72
65
 73
2
 40
0.2
 49
0.0
 49
-0.2
  0
ENDTAB
  0
TABLE
  2
STYLE
  70
4
  0
STYLE
  2
KICAD
  70
0
  40
0
  41
1
  42
1
  50
0
  71
0
  3
isocp.shx
  0
STYLE
  2
KICADB
  70
0
  40
0
  41
1
  42
1
  50
0
  71
0
  3
isocp.shx
  0
STYLE
  2
KICADI
  70
0
  40
0
  41
1
  42
1
  50
15
  71
0
  3
isocp.shx
  0
STYLE
  2
KICADBI
  70
0
  40
0
  41
1
  42
1
  50
15
  71
0
  3
isocp.shx
  0
ENDTAB
  0
TABLE
  2
LAYER
  70
1
  0
LAYER
  2
BLACK
  70
0
  62
7
  6
CONTINUOUS
  0
ENDTAB
  0
ENDSEC
  0
SECTION
  2
ENTITIES
0
LINE
8
BLACK
6
CONTINUOUS
10
1.9309
20
-1.96478
11
1.93795
21
-1.96635
0
LINE
8
BLACK
6
CONTINUOUS
10
1.93795
20
-1.96635
11
1.9445
21
-1.96941
0
LINE
8
BLACK
6
CONTINUOUS
10
1.9445
20
-1.96941
11
1.95024
21
-1.9738
0
LINE
8
BLACK
6
CONTINUOUS
10
1.95024
20
-1.9738
11
1.95491
21
-1.97932
0
LINE
8
BLACK
6
CONTINUOUS
10
1.95491
20
-1.97932
11
1.95828
21
-1.98571
0
LINE
8
BLACK
6
CONTINUOUS
10
1.95828
20
-1.98571
11
1.9602
21
-1.99268
0
LINE
8
BLACK
6
CONTINUOUS
10
1.9602
20
-1.99268
11
1.96058
21
-1.9999
0
LINE
8
BLACK
6
CONTINUOUS
10
1.96058
20
-1.9999
11
1.9594
21
-2.00703
0
LINE
8
BLACK
6
CONTINUOUS
10
1.9594
20
-2.00703
11
1.95671
21
-2.01374
0
LINE
8
BLACK
6
CONTINUOUS
10
1.95671
20
-2.01374
11
1.95265
21
-2.01972
0
LINE
8
BLACK
6
CONTINUOUS
10
1.95265
20
-2.01972
11
1.9474
21
-2.02469
0
LINE
8
BLACK
6
CONTINUOUS
10
1.9474
20
-2.02469
11
1.9412
21
-2.02841
0
LINE
8
BLACK
6
CONTINUOUS
10
1.9412
20
-2.02841
11
1.93435
21
-2.03072
0
LINE
8
BLACK
6
CONTINUOUS
10
1.93435
20
-2.03072
11
1.92717
21
-2.0315
0
LINE
8
BLACK
6
CONTINUOUS
10
1.92717
20
-2.0315
11
1.91535
21
-2.0315
0
LINE
8
BLACK
6
CONTINUOUS
10
1.91535
20
-2.0315
11
1.91162
21
-2.03129
0
LINE
8
BLACK
6
CONTINUOUS
10
1.91162
20
-2.03129
11
1.90457
21
-2.02971
0
LINE
8
BLACK
6
CONTINUOUS
10
1.90457
20
-2.02971
11
1.89802
21
-2.02666
0
LINE
8
BLACK
6
CONTINUOUS
10
1.89802
20
-2.02666
11
1.89228
21
-2.02227
0
LINE
8
BLACK
6
CONTINUOUS
10
1.89228
20
-2.02227
11
1.88761
21
-2.01674
0
LINE
8
BLACK
6
CONTINUOUS
10
1.88761
20
-2.01674
11
1.88424
21
-2.01035
0
LINE
8
BLACK
6
CONTINUOUS
10
1.88424
20
-2.01035
11
1.88232
21
-2.00338
0
LINE
8
BLACK
6
CONTINUOUS
10
1.88232
20
-2.00338
11
1.88194
21
-1.99616
0
LINE
8
BLACK
6
CONTINUOUS
10
1.88194
20
-1.99616
11
1.88312
21
-1.98903
0
LINE
8
BLACK
6
CONTINUOUS
10
1.88312
20
-1.98903
11
1.88581
21
-1.98232
0
LINE
8
BLACK
6
CONTINUOUS
10
1.88581
20
-1.98232
11
1.88987
21
-1.97634
0
LINE
8
BLACK
6
CONTINUOUS
10
1.88987
20
-1.97634
11
1.89512
21
-1.97138
0
LINE
8
BLACK
6
CONTINUOUS
10
1.89512
20
-1.97138
11
1.90132
21
-1.96765
0
LINE
8
BLACK
6
CONTINUOUS
10
1.90132
20
-1.96765
11
1.90817
21
-1.96535
0
LINE
8
BLACK
6
CONTINUOUS
10
1.90817
20
-1.96535
11
1.91535
21
-1.96457
0
LINE
8
BLACK
6
CONTINUOUS
10
1.91535
20
-1.96457
11
1.92717
21
-1.96457
0
LINE
8
BLACK
6
CONTINUOUS
10
1.92717
20
-1.96457
11
1.9309
21
-1.96478
0
LINE
8
BLACK
6
CONTINUOUS
10
1.95455
20
-1.86689
11
1.95775
21
-1.86902
0
LINE
8
BLACK
6
CONTINUOUS
10
1.95775
20
-1.86902
11
1.95988
21
-1.87222
0
LINE
8
BLACK
6
CONTINUOUS
10
1.95988
20
-1.87222
11
1.96063
21
-1.87598
0
LINE
8
BLACK
6
CONTINUOUS
10
1.96063
20
-1.87598
11
1.96063
21
-1.92323
0
LINE
8
BLACK
6
CONTINUOUS
10
1.96063
20
-1.92323
11
1.95988
21
-1.92699
0
LINE
8
BLACK
6
CONTINUOUS
10
1.95988
20
-1.92699
11
1.95775
21
-1.93019
0
LINE
8
BLACK
6
CONTINUOUS
10
1.95775
20
-1.93019
11
1.95455
21
-1.93232
0
LINE
8
BLACK
6
CONTINUOUS
10
1.95455
20
-1.93232
11
1.95079
21
-1.93307
0
LINE
8
BLACK
6
CONTINUOUS
10
1.95079
20
-1.93307
11
1.89173
21
-1.93307
0
LINE
8
BLACK
6
CONTINUOUS
10
1.89173
20
-1.93307
11
1.88797
21
-1.93232
0
LINE
8
BLACK
6
CONTINUOUS
10
1.88797
20
-1.93232
11
1.88477
21
-1.93019
0
LINE
8
BLACK
6
CONTINUOUS
10
1.88477
20
-1.93019
11
1.88264
21
-1.92699
0
LINE
8
BLACK
6
CONTINUOUS
10
1.88264
20
-1.92699
11
1.88189
21
-1.92323
0
LINE
8
BLACK
6
CONTINUOUS
10
1.88189
20
-1.92323
11
1.88189
21
-1.87598
0
LINE
8
BLACK
6
CONTINUOUS
10
1.88189
20
-1.87598
11
1.88264
21
-1.87222
0
LINE
8
BLACK
6
CONTINUOUS
10
1.88264
20
-1.87222
11
1.88477
21
-1.86902
0
LINE
8
BLACK
6
CONTINUOUS
10
1.88477
20
-1.86902
11
1.88797
21
-1.86689
0
LINE
8
BLACK
6
CONTINUOUS
10
1.88797
20
-1.86689
11
1.89173
21
-1.86614
0
LINE
8
BLACK
6
CONTINUOUS
10
1.89173
20
-1.86614
11
1.95079
21
-1.86614
0
LINE
8
BLACK
6
CONTINUOUS
10
1.95079
20
-1.86614
11
1.95455
21
-1.86689
  0
ENDSEC
  0
EOF
