  0
SECTION
  2
HEADER
  9
$ANGBASE
  50
0.0
  9
$ANGDIR
  70
1
  9
$MEASUREMENT
  70
0
  0
ENDSEC
  0
SECTION
  2
TABLES
  0
TABLE
  2
LTYPE
  70
4
  0
LTYPE
  5
40F
  2
CONTINUOUS
  70
0
  3
Solid line
  72
65
  73
0
  40
0.0
  0
LTYPE
  5
410
  2
DASHDOT
 70
0
  3
Dash Dot ____ _ ____ _
 72
65
 73
4
 40
2.0
 49
1.25
 49
-0.25
 49
0.25
 49
-0.25
  0
LTYPE
  5
411
  2
DASHED
 70
0
  3
Dashed __ __ __ __ __
 72
65
 73
2
 40
0.75
 49
0.5
 49
-0.25
  0
LTYPE
  5
43B
  2
DOTTED
 70
0
  3
Dotted .  .  .  .
 72
65
 73
2
 40
0.2
 49
0.0
 49
-0.2
  0
ENDTAB
  0
TABLE
  2
STYLE
  70
4
  0
STYLE
  2
KICAD
  70
0
  40
0
  41
1
  42
1
  50
0
  71
0
  3
isocp.shx
  0
STYLE
  2
KICADB
  70
0
  40
0
  41
1
  42
1
  50
0
  71
0
  3
isocp.shx
  0
STYLE
  2
KICADI
  70
0
  40
0
  41
1
  42
1
  50
15
  71
0
  3
isocp.shx
  0
STYLE
  2
KICADBI
  70
0
  40
0
  41
1
  42
1
  50
15
  71
0
  3
isocp.shx
  0
ENDTAB
  0
TABLE
  2
LAYER
  70
1
  0
LAYER
  2
BLACK
  70
0
  62
7
  6
CONTINUOUS
  0
ENDTAB
  0
ENDSEC
  0
SECTION
  2
ENTITIES
0
LINE
8
BLACK
6
CONTINUOUS
10
1.93237
20
-2.11684
11
1.93209
21
-2.11614
0
LINE
8
BLACK
6
CONTINUOUS
10
1.93209
20
-2.11614
11
1.93209
21
-1.7815
0
LINE
8
BLACK
6
CONTINUOUS
10
1.93209
20
-1.7815
11
1.93237
21
-1.7808
0
LINE
8
BLACK
6
CONTINUOUS
10
1.93237
20
-1.7808
11
1.93307
21
-1.78051
0
LINE
8
BLACK
6
CONTINUOUS
10
1.93307
20
-1.78051
11
2.12205
21
-1.78051
0
LINE
8
BLACK
6
CONTINUOUS
10
2.12205
20
-1.78051
11
2.12274
21
-1.7808
0
LINE
8
BLACK
6
CONTINUOUS
10
2.12274
20
-1.7808
11
2.12303
21
-1.7815
0
LINE
8
BLACK
6
CONTINUOUS
10
2.12303
20
-1.7815
11
2.12303
21
-2.11614
0
LINE
8
BLACK
6
CONTINUOUS
10
2.12303
20
-2.11614
11
2.12274
21
-2.11684
0
LINE
8
BLACK
6
CONTINUOUS
10
2.12274
20
-2.11684
11
2.12205
21
-2.11713
0
LINE
8
BLACK
6
CONTINUOUS
10
2.12205
20
-2.11713
11
1.93307
21
-2.11713
0
LINE
8
BLACK
6
CONTINUOUS
10
1.93307
20
-2.11713
11
1.93237
21
-2.11684
0
LINE
8
BLACK
6
CONTINUOUS
10
1.93406
20
-1.78248
11
1.93406
21
-2.11516
0
LINE
8
BLACK
6
CONTINUOUS
10
1.93406
20
-2.11516
11
2.12106
21
-2.11516
0
LINE
8
BLACK
6
CONTINUOUS
10
2.12106
20
-2.11516
11
2.12106
21
-1.78248
0
LINE
8
BLACK
6
CONTINUOUS
10
2.12106
20
-1.78248
11
1.93406
21
-1.78248
0
LINE
8
BLACK
6
CONTINUOUS
10
2.18041
20
-2.05581
11
2.18012
21
-2.05512
0
LINE
8
BLACK
6
CONTINUOUS
10
2.18012
20
-2.05512
11
2.18012
21
-1.98031
0
LINE
8
BLACK
6
CONTINUOUS
10
2.18012
20
-1.98031
11
2.18041
21
-1.97962
0
LINE
8
BLACK
6
CONTINUOUS
10
2.18041
20
-1.97962
11
2.1811
21
-1.97933
0
LINE
8
BLACK
6
CONTINUOUS
10
2.1811
20
-1.97933
11
2.32677
21
-1.97933
0
LINE
8
BLACK
6
CONTINUOUS
10
2.32677
20
-1.97933
11
2.32747
21
-1.97962
0
LINE
8
BLACK
6
CONTINUOUS
10
2.32747
20
-1.97962
11
2.32776
21
-1.98031
0
LINE
8
BLACK
6
CONTINUOUS
10
2.32776
20
-1.98031
11
2.32776
21
-2.05512
0
LINE
8
BLACK
6
CONTINUOUS
10
2.32776
20
-2.05512
11
2.32747
21
-2.05581
0
LINE
8
BLACK
6
CONTINUOUS
10
2.32747
20
-2.05581
11
2.32677
21
-2.0561
0
LINE
8
BLACK
6
CONTINUOUS
10
2.32677
20
-2.0561
11
2.1811
21
-2.0561
0
LINE
8
BLACK
6
CONTINUOUS
10
2.1811
20
-2.0561
11
2.18041
21
-2.05581
0
LINE
8
BLACK
6
CONTINUOUS
10
2.18209
20
-1.9813
11
2.18209
21
-2.05413
0
LINE
8
BLACK
6
CONTINUOUS
10
2.18209
20
-2.05413
11
2.32579
21
-2.05413
0
LINE
8
BLACK
6
CONTINUOUS
10
2.32579
20
-2.05413
11
2.32579
21
-1.9813
0
LINE
8
BLACK
6
CONTINUOUS
10
2.32579
20
-1.9813
11
2.18209
21
-1.9813
0
LINE
8
BLACK
6
CONTINUOUS
10
2.1871
20
-1.90818
11
2.18681
21
-1.90748
0
LINE
8
BLACK
6
CONTINUOUS
10
2.18681
20
-1.90748
11
2.18681
21
-1.83268
0
LINE
8
BLACK
6
CONTINUOUS
10
2.18681
20
-1.83268
11
2.1871
21
-1.83198
0
LINE
8
BLACK
6
CONTINUOUS
10
2.1871
20
-1.83198
11
2.1878
21
-1.83169
0
LINE
8
BLACK
6
CONTINUOUS
10
2.1878
20
-1.83169
11
2.32008
21
-1.83169
0
LINE
8
BLACK
6
CONTINUOUS
10
2.32008
20
-1.83169
11
2.32077
21
-1.83198
0
LINE
8
BLACK
6
CONTINUOUS
10
2.32077
20
-1.83198
11
2.32106
21
-1.83268
0
LINE
8
BLACK
6
CONTINUOUS
10
2.32106
20
-1.83268
11
2.32106
21
-1.90748
0
LINE
8
BLACK
6
CONTINUOUS
10
2.32106
20
-1.90748
11
2.32077
21
-1.90818
0
LINE
8
BLACK
6
CONTINUOUS
10
2.32077
20
-1.90818
11
2.32008
21
-1.90846
0
LINE
8
BLACK
6
CONTINUOUS
10
2.32008
20
-1.90846
11
2.1878
21
-1.90846
0
LINE
8
BLACK
6
CONTINUOUS
10
2.1878
20
-1.90846
11
2.1871
21
-1.90818
0
LINE
8
BLACK
6
CONTINUOUS
10
2.18878
20
-1.83366
11
2.18878
21
-1.9065
0
LINE
8
BLACK
6
CONTINUOUS
10
2.18878
20
-1.9065
11
2.31909
21
-1.9065
0
LINE
8
BLACK
6
CONTINUOUS
10
2.31909
20
-1.9065
11
2.31909
21
-1.83366
0
LINE
8
BLACK
6
CONTINUOUS
10
2.31909
20
-1.83366
11
2.18878
21
-1.83366
  0
ENDSEC
  0
EOF
