  0
SECTION
  2
HEADER
  9
$ANGBASE
  50
0.0
  9
$ANGDIR
  70
1
  9
$MEASUREMENT
  70
0
  0
ENDSEC
  0
SECTION
  2
TABLES
  0
TABLE
  2
LTYPE
  70
4
  0
LTYPE
  5
40F
  2
CONTINUOUS
  70
0
  3
Solid line
  72
65
  73
0
  40
0.0
  0
LTYPE
  5
410
  2
DASHDOT
 70
0
  3
Dash Dot ____ _ ____ _
 72
65
 73
4
 40
2.0
 49
1.25
 49
-0.25
 49
0.25
 49
-0.25
  0
LTYPE
  5
411
  2
DASHED
 70
0
  3
Dashed __ __ __ __ __
 72
65
 73
2
 40
0.75
 49
0.5
 49
-0.25
  0
LTYPE
  5
43B
  2
DOTTED
 70
0
  3
Dotted .  .  .  .
 72
65
 73
2
 40
0.2
 49
0.0
 49
-0.2
  0
ENDTAB
  0
TABLE
  2
STYLE
  70
4
  0
STYLE
  2
KICAD
  70
0
  40
0
  41
1
  42
1
  50
0
  71
0
  3
isocp.shx
  0
STYLE
  2
KICADB
  70
0
  40
0
  41
1
  42
1
  50
0
  71
0
  3
isocp.shx
  0
STYLE
  2
KICADI
  70
0
  40
0
  41
1
  42
1
  50
15
  71
0
  3
isocp.shx
  0
STYLE
  2
KICADBI
  70
0
  40
0
  41
1
  42
1
  50
15
  71
0
  3
isocp.shx
  0
ENDTAB
  0
TABLE
  2
LAYER
  70
1
  0
LAYER
  2
BLACK
  70
0
  62
7
  6
CONTINUOUS
  0
ENDTAB
  0
ENDSEC
  0
SECTION
  2
ENTITIES
0
LINE
8
BLACK
6
CONTINUOUS
10
2.22962
20
-2.12471
11
2.22933
21
-2.12402
0
LINE
8
BLACK
6
CONTINUOUS
10
2.22933
20
-2.12402
11
2.22933
21
-2.04921
0
LINE
8
BLACK
6
CONTINUOUS
10
2.22933
20
-2.04921
11
2.22962
21
-2.04852
0
LINE
8
BLACK
6
CONTINUOUS
10
2.22962
20
-2.04852
11
2.23031
21
-2.04823
0
LINE
8
BLACK
6
CONTINUOUS
10
2.23031
20
-2.04823
11
2.37598
21
-2.04823
0
LINE
8
BLACK
6
CONTINUOUS
10
2.37598
20
-2.04823
11
2.37668
21
-2.04852
0
LINE
8
BLACK
6
CONTINUOUS
10
2.37668
20
-2.04852
11
2.37697
21
-2.04921
0
LINE
8
BLACK
6
CONTINUOUS
10
2.37697
20
-2.04921
11
2.37697
21
-2.12402
0
LINE
8
BLACK
6
CONTINUOUS
10
2.37697
20
-2.12402
11
2.37668
21
-2.12471
0
LINE
8
BLACK
6
CONTINUOUS
10
2.37668
20
-2.12471
11
2.37598
21
-2.125
0
LINE
8
BLACK
6
CONTINUOUS
10
2.37598
20
-2.125
11
2.23031
21
-2.125
0
LINE
8
BLACK
6
CONTINUOUS
10
2.23031
20
-2.125
11
2.22962
21
-2.12471
0
LINE
8
BLACK
6
CONTINUOUS
10
2.2313
20
-2.0502
11
2.2313
21
-2.12303
0
LINE
8
BLACK
6
CONTINUOUS
10
2.2313
20
-2.12303
11
2.375
21
-2.12303
0
LINE
8
BLACK
6
CONTINUOUS
10
2.375
20
-2.12303
11
2.375
21
-2.0502
0
LINE
8
BLACK
6
CONTINUOUS
10
2.375
20
-2.0502
11
2.2313
21
-2.0502
0
LINE
8
BLACK
6
CONTINUOUS
10
1.81426
20
-2.11684
11
1.81398
21
-2.11614
0
LINE
8
BLACK
6
CONTINUOUS
10
1.81398
20
-2.11614
11
1.81398
21
-1.7815
0
LINE
8
BLACK
6
CONTINUOUS
10
1.81398
20
-1.7815
11
1.81426
21
-1.7808
0
LINE
8
BLACK
6
CONTINUOUS
10
1.81426
20
-1.7808
11
1.81496
21
-1.78051
0
LINE
8
BLACK
6
CONTINUOUS
10
1.81496
20
-1.78051
11
2.00394
21
-1.78051
0
LINE
8
BLACK
6
CONTINUOUS
10
2.00394
20
-1.78051
11
2.00463
21
-1.7808
0
LINE
8
BLACK
6
CONTINUOUS
10
2.00463
20
-1.7808
11
2.00492
21
-1.7815
0
LINE
8
BLACK
6
CONTINUOUS
10
2.00492
20
-1.7815
11
2.00492
21
-2.11614
0
LINE
8
BLACK
6
CONTINUOUS
10
2.00492
20
-2.11614
11
2.00463
21
-2.11684
0
LINE
8
BLACK
6
CONTINUOUS
10
2.00463
20
-2.11684
11
2.00394
21
-2.11713
0
LINE
8
BLACK
6
CONTINUOUS
10
2.00394
20
-2.11713
11
1.81496
21
-2.11713
0
LINE
8
BLACK
6
CONTINUOUS
10
1.81496
20
-2.11713
11
1.81426
21
-2.11684
0
LINE
8
BLACK
6
CONTINUOUS
10
1.81594
20
-1.78248
11
1.81594
21
-2.11516
0
LINE
8
BLACK
6
CONTINUOUS
10
1.81594
20
-2.11516
11
2.00295
21
-2.11516
0
LINE
8
BLACK
6
CONTINUOUS
10
2.00295
20
-2.11516
11
2.00295
21
-1.78248
0
LINE
8
BLACK
6
CONTINUOUS
10
2.00295
20
-1.78248
11
1.81594
21
-1.78248
0
LINE
8
BLACK
6
CONTINUOUS
10
2.23631
20
-1.83928
11
2.23602
21
-1.83858
0
LINE
8
BLACK
6
CONTINUOUS
10
2.23602
20
-1.83858
11
2.23602
21
-1.76378
0
LINE
8
BLACK
6
CONTINUOUS
10
2.23602
20
-1.76378
11
2.23631
21
-1.76308
0
LINE
8
BLACK
6
CONTINUOUS
10
2.23631
20
-1.76308
11
2.23701
21
-1.7628
0
LINE
8
BLACK
6
CONTINUOUS
10
2.23701
20
-1.7628
11
2.36929
21
-1.7628
0
LINE
8
BLACK
6
CONTINUOUS
10
2.36929
20
-1.7628
11
2.36999
21
-1.76308
0
LINE
8
BLACK
6
CONTINUOUS
10
2.36999
20
-1.76308
11
2.37028
21
-1.76378
0
LINE
8
BLACK
6
CONTINUOUS
10
2.37028
20
-1.76378
11
2.37028
21
-1.83858
0
LINE
8
BLACK
6
CONTINUOUS
10
2.37028
20
-1.83858
11
2.36999
21
-1.83928
0
LINE
8
BLACK
6
CONTINUOUS
10
2.36999
20
-1.83928
11
2.36929
21
-1.83957
0
LINE
8
BLACK
6
CONTINUOUS
10
2.36929
20
-1.83957
11
2.23701
21
-1.83957
0
LINE
8
BLACK
6
CONTINUOUS
10
2.23701
20
-1.83957
11
2.23631
21
-1.83928
0
LINE
8
BLACK
6
CONTINUOUS
10
2.23799
20
-1.76476
11
2.23799
21
-1.8376
0
LINE
8
BLACK
6
CONTINUOUS
10
2.23799
20
-1.8376
11
2.36831
21
-1.8376
0
LINE
8
BLACK
6
CONTINUOUS
10
2.36831
20
-1.8376
11
2.36831
21
-1.76476
0
LINE
8
BLACK
6
CONTINUOUS
10
2.36831
20
-1.76476
11
2.23799
21
-1.76476
  0
ENDSEC
  0
EOF
