  0
SECTION
  2
HEADER
  9
$ANGBASE
  50
0.0
  9
$ANGDIR
  70
1
  9
$MEASUREMENT
  70
0
  0
ENDSEC
  0
SECTION
  2
TABLES
  0
TABLE
  2
LTYPE
  70
4
  0
LTYPE
  5
40F
  2
CONTINUOUS
  70
0
  3
Solid line
  72
65
  73
0
  40
0.0
  0
LTYPE
  5
410
  2
DASHDOT
 70
0
  3
Dash Dot ____ _ ____ _
 72
65
 73
4
 40
2.0
 49
1.25
 49
-0.25
 49
0.25
 49
-0.25
  0
LTYPE
  5
411
  2
DASHED
 70
0
  3
Dashed __ __ __ __ __
 72
65
 73
2
 40
0.75
 49
0.5
 49
-0.25
  0
LTYPE
  5
43B
  2
DOTTED
 70
0
  3
Dotted .  .  .  .
 72
65
 73
2
 40
0.2
 49
0.0
 49
-0.2
  0
ENDTAB
  0
TABLE
  2
STYLE
  70
4
  0
STYLE
  2
KICAD
  70
0
  40
0
  41
1
  42
1
  50
0
  71
0
  3
isocp.shx
  0
STYLE
  2
KICADB
  70
0
  40
0
  41
1
  42
1
  50
0
  71
0
  3
isocp.shx
  0
STYLE
  2
KICADI
  70
0
  40
0
  41
1
  42
1
  50
15
  71
0
  3
isocp.shx
  0
STYLE
  2
KICADBI
  70
0
  40
0
  41
1
  42
1
  50
15
  71
0
  3
isocp.shx
  0
ENDTAB
  0
TABLE
  2
LAYER
  70
1
  0
LAYER
  2
BLACK
  70
0
  62
7
  6
CONTINUOUS
  0
ENDTAB
  0
ENDSEC
  0
SECTION
  2
ENTITIES
0
LINE
8
BLACK
6
CONTINUOUS
10
1.82199
20
-1.75458
11
1.8241
21
-1.75275
0
LINE
8
BLACK
6
CONTINUOUS
10
1.8241
20
-1.75275
11
1.82616
21
-1.7523
0
LINE
8
BLACK
6
CONTINUOUS
10
1.82616
20
-1.7523
11
2.40612
21
-1.7523
0
LINE
8
BLACK
6
CONTINUOUS
10
2.40612
20
-1.7523
11
2.4088
21
-1.75309
0
LINE
8
BLACK
6
CONTINUOUS
10
2.4088
20
-1.75309
11
2.41063
21
-1.7552
0
LINE
8
BLACK
6
CONTINUOUS
10
2.41063
20
-1.7552
11
2.41108
21
-1.75726
0
LINE
8
BLACK
6
CONTINUOUS
10
2.41108
20
-1.75726
11
2.41108
21
-2.13053
0
LINE
8
BLACK
6
CONTINUOUS
10
2.41108
20
-2.13053
11
2.4103
21
-2.13321
0
LINE
8
BLACK
6
CONTINUOUS
10
2.4103
20
-2.13321
11
2.40818
21
-2.13504
0
LINE
8
BLACK
6
CONTINUOUS
10
2.40818
20
-2.13504
11
2.40612
21
-2.13549
0
LINE
8
BLACK
6
CONTINUOUS
10
2.40612
20
-2.13549
11
1.82616
21
-2.13549
0
LINE
8
BLACK
6
CONTINUOUS
10
1.82616
20
-2.13549
11
1.82348
21
-2.1347
0
LINE
8
BLACK
6
CONTINUOUS
10
1.82348
20
-2.1347
11
1.82165
21
-2.13259
0
LINE
8
BLACK
6
CONTINUOUS
10
1.82165
20
-2.13259
11
1.8212
21
-2.13053
0
LINE
8
BLACK
6
CONTINUOUS
10
1.8212
20
-2.13053
11
1.8212
21
-1.75726
0
LINE
8
BLACK
6
CONTINUOUS
10
1.8212
20
-1.75726
11
1.82199
21
-1.75458
0
LINE
8
BLACK
6
CONTINUOUS
10
1.9319
20
-2.05129
11
1.936
21
-2.05094
0
LINE
8
BLACK
6
CONTINUOUS
10
1.936
20
-2.05094
11
1.93641
21
-2.05087
0
LINE
8
BLACK
6
CONTINUOUS
10
1.93641
20
-2.05087
11
1.94478
21
-2.0487
0
LINE
8
BLACK
6
CONTINUOUS
10
1.94478
20
-2.0487
11
1.94518
21
-2.04856
0
LINE
8
BLACK
6
CONTINUOUS
10
1.94518
20
-2.04856
11
1.95307
21
-2.045
0
LINE
8
BLACK
6
CONTINUOUS
10
1.95307
20
-2.045
11
1.95344
21
-2.0448
0
LINE
8
BLACK
6
CONTINUOUS
10
1.95344
20
-2.0448
11
1.96061
21
-2.03997
0
LINE
8
BLACK
6
CONTINUOUS
10
1.96061
20
-2.03997
11
1.96094
21
-2.0397
0
LINE
8
BLACK
6
CONTINUOUS
10
1.96094
20
-2.0397
11
1.9672
21
-2.03373
0
LINE
8
BLACK
6
CONTINUOUS
10
1.9672
20
-2.03373
11
1.96748
21
-2.03342
0
LINE
8
BLACK
6
CONTINUOUS
10
1.96748
20
-2.03342
11
1.97264
21
-2.02648
0
LINE
8
BLACK
6
CONTINUOUS
10
1.97264
20
-2.02648
11
1.97286
21
-2.02612
0
LINE
8
BLACK
6
CONTINUOUS
10
1.97286
20
-2.02612
11
1.97679
21
-2.01841
0
LINE
8
BLACK
6
CONTINUOUS
10
1.97679
20
-2.01841
11
1.97694
21
-2.01802
0
LINE
8
BLACK
6
CONTINUOUS
10
1.97694
20
-2.01802
11
1.97951
21
-2.00975
0
LINE
8
BLACK
6
CONTINUOUS
10
1.97951
20
-2.00975
11
1.9796
21
-2.00935
0
LINE
8
BLACK
6
CONTINUOUS
10
1.9796
20
-2.00935
11
1.97968
21
-2.00874
0
LINE
8
BLACK
6
CONTINUOUS
10
1.97968
20
-2.00874
11
1.97959
21
-2.00818
0
LINE
8
BLACK
6
CONTINUOUS
10
1.97959
20
-2.00818
11
1.97907
21
-2.00803
0
LINE
8
BLACK
6
CONTINUOUS
10
1.97907
20
-2.00803
11
1.959
21
-2.00803
0
LINE
8
BLACK
6
CONTINUOUS
10
1.959
20
-2.00803
11
1.95671
21
-2.01374
0
LINE
8
BLACK
6
CONTINUOUS
10
1.95671
20
-2.01374
11
1.95265
21
-2.01972
0
LINE
8
BLACK
6
CONTINUOUS
10
1.95265
20
-2.01972
11
1.9474
21
-2.02469
0
LINE
8
BLACK
6
CONTINUOUS
10
1.9474
20
-2.02469
11
1.9412
21
-2.02841
0
LINE
8
BLACK
6
CONTINUOUS
10
1.9412
20
-2.02841
11
1.93435
21
-2.03072
0
LINE
8
BLACK
6
CONTINUOUS
10
1.93435
20
-2.03072
11
1.93126
21
-2.03105
0
LINE
8
BLACK
6
CONTINUOUS
10
1.93126
20
-2.03105
11
1.93126
21
-2.05063
0
LINE
8
BLACK
6
CONTINUOUS
10
1.93126
20
-2.05063
11
1.93143
21
-2.05121
0
LINE
8
BLACK
6
CONTINUOUS
10
1.93143
20
-2.05121
11
1.9319
21
-2.05129
0
LINE
8
BLACK
6
CONTINUOUS
10
1.90457
20
-2.02971
11
1.89802
21
-2.02666
0
LINE
8
BLACK
6
CONTINUOUS
10
1.89802
20
-2.02666
11
1.89228
21
-2.02227
0
LINE
8
BLACK
6
CONTINUOUS
10
1.89228
20
-2.02227
11
1.88761
21
-2.01674
0
LINE
8
BLACK
6
CONTINUOUS
10
1.88761
20
-2.01674
11
1.88424
21
-2.01035
0
LINE
8
BLACK
6
CONTINUOUS
10
1.88424
20
-2.01035
11
1.8836
21
-2.00803
0
LINE
8
BLACK
6
CONTINUOUS
10
1.8836
20
-2.00803
11
1.86354
21
-2.00803
0
LINE
8
BLACK
6
CONTINUOUS
10
1.86354
20
-2.00803
11
1.863
21
-2.00819
0
LINE
8
BLACK
6
CONTINUOUS
10
1.863
20
-2.00819
11
1.86294
21
-2.00861
0
LINE
8
BLACK
6
CONTINUOUS
10
1.86294
20
-2.00861
11
1.86392
21
-2.01324
0
LINE
8
BLACK
6
CONTINUOUS
10
1.86392
20
-2.01324
11
1.86404
21
-2.01365
0
LINE
8
BLACK
6
CONTINUOUS
10
1.86404
20
-2.01365
11
1.86722
21
-2.02169
0
LINE
8
BLACK
6
CONTINUOUS
10
1.86722
20
-2.02169
11
1.8674
21
-2.02207
0
LINE
8
BLACK
6
CONTINUOUS
10
1.8674
20
-2.02207
11
1.87189
21
-2.02947
0
LINE
8
BLACK
6
CONTINUOUS
10
1.87189
20
-2.02947
11
1.87214
21
-2.02981
0
LINE
8
BLACK
6
CONTINUOUS
10
1.87214
20
-2.02981
11
1.87781
21
-2.03634
0
LINE
8
BLACK
6
CONTINUOUS
10
1.87781
20
-2.03634
11
1.87811
21
-2.03663
0
LINE
8
BLACK
6
CONTINUOUS
10
1.87811
20
-2.03663
11
1.8848
21
-2.04212
0
LINE
8
BLACK
6
CONTINUOUS
10
1.8848
20
-2.04212
11
1.88514
21
-2.04236
0
LINE
8
BLACK
6
CONTINUOUS
10
1.88514
20
-2.04236
11
1.89266
21
-2.04664
0
LINE
8
BLACK
6
CONTINUOUS
10
1.89266
20
-2.04664
11
1.89305
21
-2.04681
0
LINE
8
BLACK
6
CONTINUOUS
10
1.89305
20
-2.04681
11
1.90118
21
-2.04976
0
LINE
8
BLACK
6
CONTINUOUS
10
1.90118
20
-2.04976
11
1.90158
21
-2.04987
0
LINE
8
BLACK
6
CONTINUOUS
10
1.90158
20
-2.04987
11
1.91014
21
-2.05142
0
LINE
8
BLACK
6
CONTINUOUS
10
1.91014
20
-2.05142
11
1.91047
21
-2.05146
0
LINE
8
BLACK
6
CONTINUOUS
10
1.91047
20
-2.05146
11
1.91064
21
-2.05147
0
LINE
8
BLACK
6
CONTINUOUS
10
1.91064
20
-2.05147
11
1.91115
21
-2.05132
0
LINE
8
BLACK
6
CONTINUOUS
10
1.91115
20
-2.05132
11
1.91119
21
-2.05127
0
LINE
8
BLACK
6
CONTINUOUS
10
1.91119
20
-2.05127
11
1.91126
21
-2.05096
0
LINE
8
BLACK
6
CONTINUOUS
10
1.91126
20
-2.05096
11
1.91126
21
-2.03121
0
LINE
8
BLACK
6
CONTINUOUS
10
1.91126
20
-2.03121
11
1.90457
21
-2.02971
0
LINE
8
BLACK
6
CONTINUOUS
10
1.86451
20
-1.93598
11
1.86817
21
-1.9419
0
LINE
8
BLACK
6
CONTINUOUS
10
1.86817
20
-1.9419
11
1.8731
21
-1.94682
0
LINE
8
BLACK
6
CONTINUOUS
10
1.8731
20
-1.94682
11
1.87883
21
-1.95036
0
LINE
8
BLACK
6
CONTINUOUS
10
1.87883
20
-1.95036
11
1.87885
21
-1.95037
0
LINE
8
BLACK
6
CONTINUOUS
10
1.87885
20
-1.95037
11
1.88072
21
-1.95245
0
LINE
8
BLACK
6
CONTINUOUS
10
1.88072
20
-1.95245
11
1.88117
21
-1.9552
0
LINE
8
BLACK
6
CONTINUOUS
10
1.88117
20
-1.9552
11
1.88006
21
-1.95777
0
LINE
8
BLACK
6
CONTINUOUS
10
1.88006
20
-1.95777
11
1.87967
21
-1.95818
0
LINE
8
BLACK
6
CONTINUOUS
10
1.87967
20
-1.95818
11
1.87532
21
-1.96233
0
LINE
8
BLACK
6
CONTINUOUS
10
1.87532
20
-1.96233
11
1.87504
21
-1.96265
0
LINE
8
BLACK
6
CONTINUOUS
10
1.87504
20
-1.96265
11
1.86988
21
-1.96959
0
LINE
8
BLACK
6
CONTINUOUS
10
1.86988
20
-1.96959
11
1.86966
21
-1.96994
0
LINE
8
BLACK
6
CONTINUOUS
10
1.86966
20
-1.96994
11
1.86573
21
-1.97766
0
LINE
8
BLACK
6
CONTINUOUS
10
1.86573
20
-1.97766
11
1.86558
21
-1.97804
0
LINE
8
BLACK
6
CONTINUOUS
10
1.86558
20
-1.97804
11
1.86301
21
-1.98631
0
LINE
8
BLACK
6
CONTINUOUS
10
1.86301
20
-1.98631
11
1.86292
21
-1.98672
0
LINE
8
BLACK
6
CONTINUOUS
10
1.86292
20
-1.98672
11
1.86284
21
-1.98732
0
LINE
8
BLACK
6
CONTINUOUS
10
1.86284
20
-1.98732
11
1.86293
21
-1.98788
0
LINE
8
BLACK
6
CONTINUOUS
10
1.86293
20
-1.98788
11
1.86345
21
-1.98803
0
LINE
8
BLACK
6
CONTINUOUS
10
1.86345
20
-1.98803
11
1.88352
21
-1.98803
0
LINE
8
BLACK
6
CONTINUOUS
10
1.88352
20
-1.98803
11
1.88581
21
-1.98232
0
LINE
8
BLACK
6
CONTINUOUS
10
1.88581
20
-1.98232
11
1.88987
21
-1.97634
0
LINE
8
BLACK
6
CONTINUOUS
10
1.88987
20
-1.97634
11
1.89512
21
-1.97138
0
LINE
8
BLACK
6
CONTINUOUS
10
1.89512
20
-1.97138
11
1.90132
21
-1.96765
0
LINE
8
BLACK
6
CONTINUOUS
10
1.90132
20
-1.96765
11
1.90817
21
-1.96535
0
LINE
8
BLACK
6
CONTINUOUS
10
1.90817
20
-1.96535
11
1.91535
21
-1.96457
0
LINE
8
BLACK
6
CONTINUOUS
10
1.91535
20
-1.96457
11
1.92717
21
-1.96457
0
LINE
8
BLACK
6
CONTINUOUS
10
1.92717
20
-1.96457
11
1.9309
21
-1.96478
0
LINE
8
BLACK
6
CONTINUOUS
10
1.9309
20
-1.96478
11
1.93795
21
-1.96635
0
LINE
8
BLACK
6
CONTINUOUS
10
1.93795
20
-1.96635
11
1.9445
21
-1.96941
0
LINE
8
BLACK
6
CONTINUOUS
10
1.9445
20
-1.96941
11
1.95024
21
-1.9738
0
LINE
8
BLACK
6
CONTINUOUS
10
1.95024
20
-1.9738
11
1.95491
21
-1.97932
0
LINE
8
BLACK
6
CONTINUOUS
10
1.95491
20
-1.97932
11
1.95828
21
-1.98571
0
LINE
8
BLACK
6
CONTINUOUS
10
1.95828
20
-1.98571
11
1.95892
21
-1.98803
0
LINE
8
BLACK
6
CONTINUOUS
10
1.95892
20
-1.98803
11
1.97898
21
-1.98803
0
LINE
8
BLACK
6
CONTINUOUS
10
1.97898
20
-1.98803
11
1.97952
21
-1.98788
0
LINE
8
BLACK
6
CONTINUOUS
10
1.97952
20
-1.98788
11
1.97958
21
-1.98746
0
LINE
8
BLACK
6
CONTINUOUS
10
1.97958
20
-1.98746
11
1.9786
21
-1.98282
0
LINE
8
BLACK
6
CONTINUOUS
10
1.9786
20
-1.98282
11
1.97848
21
-1.98242
0
LINE
8
BLACK
6
CONTINUOUS
10
1.97848
20
-1.98242
11
1.9753
21
-1.97437
0
LINE
8
BLACK
6
CONTINUOUS
10
1.9753
20
-1.97437
11
1.97512
21
-1.97399
0
LINE
8
BLACK
6
CONTINUOUS
10
1.97512
20
-1.97399
11
1.97063
21
-1.9666
0
LINE
8
BLACK
6
CONTINUOUS
10
1.97063
20
-1.9666
11
1.97038
21
-1.96626
0
LINE
8
BLACK
6
CONTINUOUS
10
1.97038
20
-1.96626
11
1.96471
21
-1.95972
0
LINE
8
BLACK
6
CONTINUOUS
10
1.96471
20
-1.95972
11
1.96441
21
-1.95943
0
LINE
8
BLACK
6
CONTINUOUS
10
1.96441
20
-1.95943
11
1.96317
21
-1.95841
0
LINE
8
BLACK
6
CONTINUOUS
10
1.96317
20
-1.95841
11
1.96159
21
-1.9561
0
LINE
8
BLACK
6
CONTINUOUS
10
1.96159
20
-1.9561
11
1.96152
21
-1.95331
0
LINE
8
BLACK
6
CONTINUOUS
10
1.96152
20
-1.95331
11
1.96296
21
-1.95091
0
LINE
8
BLACK
6
CONTINUOUS
10
1.96296
20
-1.95091
11
1.9637
21
-1.95036
0
LINE
8
BLACK
6
CONTINUOUS
10
1.9637
20
-1.95036
11
1.96922
21
-1.94694
0
LINE
8
BLACK
6
CONTINUOUS
10
1.96922
20
-1.94694
11
1.96946
21
-1.94679
0
LINE
8
BLACK
6
CONTINUOUS
10
1.96946
20
-1.94679
11
1.97438
21
-1.94186
0
LINE
8
BLACK
6
CONTINUOUS
10
1.97438
20
-1.94186
11
1.97804
21
-1.93593
0
LINE
8
BLACK
6
CONTINUOUS
10
1.97804
20
-1.93593
11
1.98023
21
-1.92933
0
LINE
8
BLACK
6
CONTINUOUS
10
1.98023
20
-1.92933
11
1.98065
21
-1.92521
0
LINE
8
BLACK
6
CONTINUOUS
10
1.98065
20
-1.92521
11
1.98065
21
-1.874
0
LINE
8
BLACK
6
CONTINUOUS
10
1.98065
20
-1.874
11
1.98022
21
-1.86984
0
LINE
8
BLACK
6
CONTINUOUS
10
1.98022
20
-1.86984
11
1.97801
21
-1.86323
0
LINE
8
BLACK
6
CONTINUOUS
10
1.97801
20
-1.86323
11
1.97435
21
-1.85731
0
LINE
8
BLACK
6
CONTINUOUS
10
1.97435
20
-1.85731
11
1.96942
21
-1.85239
0
LINE
8
BLACK
6
CONTINUOUS
10
1.96942
20
-1.85239
11
1.96918
21
-1.85224
0
LINE
8
BLACK
6
CONTINUOUS
10
1.96918
20
-1.85224
11
1.96374
21
-1.84889
0
LINE
8
BLACK
6
CONTINUOUS
10
1.96374
20
-1.84889
11
1.96374
21
-1.84889
0
LINE
8
BLACK
6
CONTINUOUS
10
1.96374
20
-1.84889
11
1.96349
21
-1.84874
0
LINE
8
BLACK
6
CONTINUOUS
10
1.96349
20
-1.84874
11
1.95718
21
-1.84664
0
LINE
8
BLACK
6
CONTINUOUS
10
1.95718
20
-1.84664
11
1.95714
21
-1.84663
0
LINE
8
BLACK
6
CONTINUOUS
10
1.95714
20
-1.84663
11
1.95714
21
-1.84663
0
LINE
8
BLACK
6
CONTINUOUS
10
1.95714
20
-1.84663
11
1.95688
21
-1.84654
0
LINE
8
BLACK
6
CONTINUOUS
10
1.95688
20
-1.84654
11
1.95662
21
-1.84652
0
LINE
8
BLACK
6
CONTINUOUS
10
1.95662
20
-1.84652
11
1.95662
21
-1.84652
0
LINE
8
BLACK
6
CONTINUOUS
10
1.95662
20
-1.84652
11
1.95492
21
-1.84634
0
LINE
8
BLACK
6
CONTINUOUS
10
1.95492
20
-1.84634
11
1.95277
21
-1.84612
0
LINE
8
BLACK
6
CONTINUOUS
10
1.95277
20
-1.84612
11
1.88975
21
-1.84612
0
LINE
8
BLACK
6
CONTINUOUS
10
1.88975
20
-1.84612
11
1.88962
21
-1.84614
0
LINE
8
BLACK
6
CONTINUOUS
10
1.88962
20
-1.84614
11
1.88962
21
-1.84614
0
LINE
8
BLACK
6
CONTINUOUS
10
1.88962
20
-1.84614
11
1.88585
21
-1.84653
0
LINE
8
BLACK
6
CONTINUOUS
10
1.88585
20
-1.84653
11
1.88585
21
-1.84653
0
LINE
8
BLACK
6
CONTINUOUS
10
1.88585
20
-1.84653
11
1.88558
21
-1.84655
0
LINE
8
BLACK
6
CONTINUOUS
10
1.88558
20
-1.84655
11
1.88533
21
-1.84664
0
LINE
8
BLACK
6
CONTINUOUS
10
1.88533
20
-1.84664
11
1.88533
21
-1.84664
0
LINE
8
BLACK
6
CONTINUOUS
10
1.88533
20
-1.84664
11
1.88013
21
-1.84838
0
LINE
8
BLACK
6
CONTINUOUS
10
1.88013
20
-1.84838
11
1.87898
21
-1.84876
0
LINE
8
BLACK
6
CONTINUOUS
10
1.87898
20
-1.84876
11
1.87306
21
-1.85242
0
LINE
8
BLACK
6
CONTINUOUS
10
1.87306
20
-1.85242
11
1.86814
21
-1.85735
0
LINE
8
BLACK
6
CONTINUOUS
10
1.86814
20
-1.85735
11
1.86448
21
-1.86328
0
LINE
8
BLACK
6
CONTINUOUS
10
1.86448
20
-1.86328
11
1.86229
21
-1.86989
0
LINE
8
BLACK
6
CONTINUOUS
10
1.86229
20
-1.86989
11
1.86187
21
-1.874
0
LINE
8
BLACK
6
CONTINUOUS
10
1.86187
20
-1.874
11
1.86187
21
-1.92521
0
LINE
8
BLACK
6
CONTINUOUS
10
1.86187
20
-1.92521
11
1.8623
21
-1.92938
0
LINE
8
BLACK
6
CONTINUOUS
10
1.8623
20
-1.92938
11
1.86451
21
-1.93598
0
LINE
8
BLACK
6
CONTINUOUS
10
1.95455
20
-1.86689
11
1.95775
21
-1.86902
0
LINE
8
BLACK
6
CONTINUOUS
10
1.95775
20
-1.86902
11
1.95988
21
-1.87222
0
LINE
8
BLACK
6
CONTINUOUS
10
1.95988
20
-1.87222
11
1.96063
21
-1.87598
0
LINE
8
BLACK
6
CONTINUOUS
10
1.96063
20
-1.87598
11
1.96063
21
-1.92323
0
LINE
8
BLACK
6
CONTINUOUS
10
1.96063
20
-1.92323
11
1.95988
21
-1.92699
0
LINE
8
BLACK
6
CONTINUOUS
10
1.95988
20
-1.92699
11
1.95775
21
-1.93019
0
LINE
8
BLACK
6
CONTINUOUS
10
1.95775
20
-1.93019
11
1.95455
21
-1.93232
0
LINE
8
BLACK
6
CONTINUOUS
10
1.95455
20
-1.93232
11
1.95079
21
-1.93307
0
LINE
8
BLACK
6
CONTINUOUS
10
1.95079
20
-1.93307
11
1.89173
21
-1.93307
0
LINE
8
BLACK
6
CONTINUOUS
10
1.89173
20
-1.93307
11
1.88797
21
-1.93232
0
LINE
8
BLACK
6
CONTINUOUS
10
1.88797
20
-1.93232
11
1.88477
21
-1.93019
0
LINE
8
BLACK
6
CONTINUOUS
10
1.88477
20
-1.93019
11
1.88264
21
-1.92699
0
LINE
8
BLACK
6
CONTINUOUS
10
1.88264
20
-1.92699
11
1.88189
21
-1.92323
0
LINE
8
BLACK
6
CONTINUOUS
10
1.88189
20
-1.92323
11
1.88189
21
-1.87598
0
LINE
8
BLACK
6
CONTINUOUS
10
1.88189
20
-1.87598
11
1.88264
21
-1.87222
0
LINE
8
BLACK
6
CONTINUOUS
10
1.88264
20
-1.87222
11
1.88477
21
-1.86902
0
LINE
8
BLACK
6
CONTINUOUS
10
1.88477
20
-1.86902
11
1.88797
21
-1.86689
0
LINE
8
BLACK
6
CONTINUOUS
10
1.88797
20
-1.86689
11
1.89173
21
-1.86614
0
LINE
8
BLACK
6
CONTINUOUS
10
1.89173
20
-1.86614
11
1.95079
21
-1.86614
0
LINE
8
BLACK
6
CONTINUOUS
10
1.95079
20
-1.86614
11
1.95455
21
-1.86689
0
CIRCLE
8
BLACK
10
1.92126
20
-1.89961
40
0.019685
0
CIRCLE
8
BLACK
10
1.92126
20
-1.99803
40
0.019685
  0
ENDSEC
  0
EOF
